%TF.GenerationSoftware,KiCad,Pcbnew,6.0.4-6f826c9f35~116~ubuntu20.04.1*%
%TF.CreationDate,2022-04-19T19:11:04+03:00*%
%TF.ProjectId,oskar_feet_rev1,6f736b61-725f-4666-9565-745f72657631,rev?*%
%TF.SameCoordinates,Original*%
%TF.FileFunction,Soldermask,Top*%
%TF.FilePolarity,Negative*%
%FSLAX46Y46*%
G04 Gerber Fmt 4.6, Leading zero omitted, Abs format (unit mm)*
G04 Created by KiCad (PCBNEW 6.0.4-6f826c9f35~116~ubuntu20.04.1) date 2022-04-19 19:11:04*
%MOMM*%
%LPD*%
G01*
G04 APERTURE LIST*
G04 Aperture macros list*
%AMRoundRect*
0 Rectangle with rounded corners*
0 $1 Rounding radius*
0 $2 $3 $4 $5 $6 $7 $8 $9 X,Y pos of 4 corners*
0 Add a 4 corners polygon primitive as box body*
4,1,4,$2,$3,$4,$5,$6,$7,$8,$9,$2,$3,0*
0 Add four circle primitives for the rounded corners*
1,1,$1+$1,$2,$3*
1,1,$1+$1,$4,$5*
1,1,$1+$1,$6,$7*
1,1,$1+$1,$8,$9*
0 Add four rect primitives between the rounded corners*
20,1,$1+$1,$2,$3,$4,$5,0*
20,1,$1+$1,$4,$5,$6,$7,0*
20,1,$1+$1,$6,$7,$8,$9,0*
20,1,$1+$1,$8,$9,$2,$3,0*%
G04 Aperture macros list end*
%ADD10R,1.700000X1.700000*%
%ADD11RoundRect,0.250000X-0.620000X-0.845000X0.620000X-0.845000X0.620000X0.845000X-0.620000X0.845000X0*%
%ADD12O,1.740000X2.190000*%
%ADD13RoundRect,0.200000X0.275000X-0.200000X0.275000X0.200000X-0.275000X0.200000X-0.275000X-0.200000X0*%
%ADD14C,7.500000*%
%ADD15C,4.700000*%
%ADD16RoundRect,0.218750X0.256250X-0.218750X0.256250X0.218750X-0.256250X0.218750X-0.256250X-0.218750X0*%
%ADD17RoundRect,0.225000X-0.225000X-0.250000X0.225000X-0.250000X0.225000X0.250000X-0.225000X0.250000X0*%
%ADD18RoundRect,0.225000X0.225000X0.250000X-0.225000X0.250000X-0.225000X-0.250000X0.225000X-0.250000X0*%
%ADD19RoundRect,0.075000X-0.075000X0.662500X-0.075000X-0.662500X0.075000X-0.662500X0.075000X0.662500X0*%
%ADD20RoundRect,0.075000X-0.662500X0.075000X-0.662500X-0.075000X0.662500X-0.075000X0.662500X0.075000X0*%
%ADD21O,1.700000X1.700000*%
%ADD22RoundRect,0.150000X0.150000X-0.587500X0.150000X0.587500X-0.150000X0.587500X-0.150000X-0.587500X0*%
%ADD23C,10.000000*%
%ADD24RoundRect,0.200000X-0.200000X-0.275000X0.200000X-0.275000X0.200000X0.275000X-0.200000X0.275000X0*%
%ADD25O,4.000000X9.000000*%
%ADD26O,9.000000X4.000000*%
%ADD27RoundRect,0.200000X-0.275000X0.200000X-0.275000X-0.200000X0.275000X-0.200000X0.275000X0.200000X0*%
%ADD28RoundRect,0.225000X0.250000X-0.225000X0.250000X0.225000X-0.250000X0.225000X-0.250000X-0.225000X0*%
%ADD29RoundRect,0.150000X0.150000X-0.825000X0.150000X0.825000X-0.150000X0.825000X-0.150000X-0.825000X0*%
%ADD30C,2.000000*%
%ADD31R,1.400000X1.200000*%
%ADD32RoundRect,0.200000X0.200000X0.275000X-0.200000X0.275000X-0.200000X-0.275000X0.200000X-0.275000X0*%
%ADD33RoundRect,0.250000X0.620000X0.845000X-0.620000X0.845000X-0.620000X-0.845000X0.620000X-0.845000X0*%
%ADD34RoundRect,0.150000X-0.150000X0.875000X-0.150000X-0.875000X0.150000X-0.875000X0.150000X0.875000X0*%
%ADD35RoundRect,0.225000X-0.250000X0.225000X-0.250000X-0.225000X0.250000X-0.225000X0.250000X0.225000X0*%
%ADD36R,1.200000X1.400000*%
%ADD37R,1.600000X1.600000*%
%ADD38C,1.600000*%
G04 APERTURE END LIST*
D10*
%TO.C,J47*%
X79476600Y-143027400D03*
%TD*%
%TO.C,J40*%
X74396600Y-135407400D03*
%TD*%
%TO.C,J63*%
X88856200Y-126212600D03*
%TD*%
D11*
%TO.C,J2*%
X68386760Y-73970850D03*
D12*
X70926760Y-73970850D03*
%TD*%
D13*
%TO.C,R11*%
X69723000Y-121602000D03*
X69723000Y-119952000D03*
%TD*%
%TO.C,R9*%
X66421000Y-121602000D03*
X66421000Y-119952000D03*
%TD*%
D10*
%TO.C,J53*%
X79476600Y-145567400D03*
%TD*%
D14*
%TO.C,H3*%
X55499000Y-151892000D03*
D15*
X55499000Y-151892000D03*
%TD*%
D16*
%TO.C,D3*%
X64770000Y-118516500D03*
X64770000Y-116941500D03*
%TD*%
D10*
%TO.C,J30*%
X79476600Y-148107400D03*
%TD*%
D17*
%TO.C,C4*%
X69752800Y-104291900D03*
X71302800Y-104291900D03*
%TD*%
D18*
%TO.C,C11*%
X70406360Y-93559650D03*
X68856360Y-93559650D03*
%TD*%
D14*
%TO.C,H4*%
X177800000Y-66040000D03*
D15*
X177800000Y-66040000D03*
%TD*%
D18*
%TO.C,C5*%
X64148000Y-104013000D03*
X62598000Y-104013000D03*
%TD*%
D10*
%TO.C,J65*%
X86436200Y-128752600D03*
%TD*%
D19*
%TO.C,U1*%
X87057000Y-102108000D03*
X86557000Y-102108000D03*
X86057000Y-102108000D03*
X85557000Y-102108000D03*
X85057000Y-102108000D03*
X84557000Y-102108000D03*
X84057000Y-102108000D03*
X83557000Y-102108000D03*
X83057000Y-102108000D03*
X82557000Y-102108000D03*
X82057000Y-102108000D03*
X81557000Y-102108000D03*
X81057000Y-102108000D03*
X80557000Y-102108000D03*
X80057000Y-102108000D03*
X79557000Y-102108000D03*
X79057000Y-102108000D03*
X78557000Y-102108000D03*
X78057000Y-102108000D03*
X77557000Y-102108000D03*
X77057000Y-102108000D03*
X76557000Y-102108000D03*
X76057000Y-102108000D03*
X75557000Y-102108000D03*
X75057000Y-102108000D03*
D20*
X73394500Y-103770500D03*
X73394500Y-104270500D03*
X73394500Y-104770500D03*
X73394500Y-105270500D03*
X73394500Y-105770500D03*
X73394500Y-106270500D03*
X73394500Y-106770500D03*
X73394500Y-107270500D03*
X73394500Y-107770500D03*
X73394500Y-108270500D03*
X73394500Y-108770500D03*
X73394500Y-109270500D03*
X73394500Y-109770500D03*
X73394500Y-110270500D03*
X73394500Y-110770500D03*
X73394500Y-111270500D03*
X73394500Y-111770500D03*
X73394500Y-112270500D03*
X73394500Y-112770500D03*
X73394500Y-113270500D03*
X73394500Y-113770500D03*
X73394500Y-114270500D03*
X73394500Y-114770500D03*
X73394500Y-115270500D03*
X73394500Y-115770500D03*
D19*
X75057000Y-117433000D03*
X75557000Y-117433000D03*
X76057000Y-117433000D03*
X76557000Y-117433000D03*
X77057000Y-117433000D03*
X77557000Y-117433000D03*
X78057000Y-117433000D03*
X78557000Y-117433000D03*
X79057000Y-117433000D03*
X79557000Y-117433000D03*
X80057000Y-117433000D03*
X80557000Y-117433000D03*
X81057000Y-117433000D03*
X81557000Y-117433000D03*
X82057000Y-117433000D03*
X82557000Y-117433000D03*
X83057000Y-117433000D03*
X83557000Y-117433000D03*
X84057000Y-117433000D03*
X84557000Y-117433000D03*
X85057000Y-117433000D03*
X85557000Y-117433000D03*
X86057000Y-117433000D03*
X86557000Y-117433000D03*
X87057000Y-117433000D03*
D20*
X88719500Y-115770500D03*
X88719500Y-115270500D03*
X88719500Y-114770500D03*
X88719500Y-114270500D03*
X88719500Y-113770500D03*
X88719500Y-113270500D03*
X88719500Y-112770500D03*
X88719500Y-112270500D03*
X88719500Y-111770500D03*
X88719500Y-111270500D03*
X88719500Y-110770500D03*
X88719500Y-110270500D03*
X88719500Y-109770500D03*
X88719500Y-109270500D03*
X88719500Y-108770500D03*
X88719500Y-108270500D03*
X88719500Y-107770500D03*
X88719500Y-107270500D03*
X88719500Y-106770500D03*
X88719500Y-106270500D03*
X88719500Y-105770500D03*
X88719500Y-105270500D03*
X88719500Y-104770500D03*
X88719500Y-104270500D03*
X88719500Y-103770500D03*
%TD*%
D13*
%TO.C,R4*%
X86995000Y-96202000D03*
X86995000Y-94552000D03*
%TD*%
D10*
%TO.C,J1*%
X63627000Y-101346000D03*
D21*
X63627000Y-98806000D03*
X66167000Y-101346000D03*
X66167000Y-98806000D03*
X68707000Y-101346000D03*
X68707000Y-98806000D03*
X71247000Y-101346000D03*
X71247000Y-98806000D03*
%TD*%
D22*
%TO.C,Q1*%
X92776000Y-113057500D03*
X94676000Y-113057500D03*
X93726000Y-111182500D03*
%TD*%
D10*
%TO.C,J24*%
X87096600Y-140487400D03*
%TD*%
D22*
%TO.C,D1*%
X68706760Y-82457550D03*
X70606760Y-82457550D03*
X69656760Y-80582550D03*
%TD*%
D11*
%TO.C,J6*%
X97586800Y-73958000D03*
D12*
X100126800Y-73958000D03*
X102666800Y-73958000D03*
%TD*%
D10*
%TO.C,J60*%
X91516200Y-123672600D03*
%TD*%
D23*
%TO.C,J8*%
X116586000Y-75653600D03*
X116586000Y-86653600D03*
%TD*%
D10*
%TO.C,J50*%
X82016600Y-140487400D03*
%TD*%
%TO.C,J54*%
X79476600Y-135407400D03*
%TD*%
D16*
%TO.C,D4*%
X66421000Y-118491000D03*
X66421000Y-116916000D03*
%TD*%
D10*
%TO.C,J29*%
X84556600Y-148107400D03*
%TD*%
%TO.C,J22*%
X87096600Y-137947400D03*
%TD*%
%TO.C,J48*%
X74396600Y-145567400D03*
%TD*%
%TO.C,J12*%
X74396600Y-132867400D03*
%TD*%
%TO.C,J55*%
X76936600Y-137947400D03*
%TD*%
D11*
%TO.C,J4*%
X87916800Y-81808000D03*
D12*
X90456800Y-81808000D03*
X92996800Y-81808000D03*
%TD*%
D24*
%TO.C,R13*%
X81204300Y-82320900D03*
X82854300Y-82320900D03*
%TD*%
D25*
%TO.C,K1*%
X127965200Y-126466600D03*
X152476200Y-126466600D03*
D26*
X132158200Y-85366600D03*
X148158200Y-85366600D03*
X132156200Y-92938600D03*
X148158200Y-92938600D03*
X132156200Y-100177600D03*
X148158200Y-100177600D03*
%TD*%
D27*
%TO.C,R2*%
X66151560Y-86523850D03*
X66151560Y-88173850D03*
%TD*%
D10*
%TO.C,J32*%
X82016600Y-143027400D03*
%TD*%
%TO.C,J18*%
X71856600Y-145567400D03*
%TD*%
D28*
%TO.C,C9*%
X72898000Y-83973000D03*
X72898000Y-82423000D03*
%TD*%
D10*
%TO.C,J62*%
X86316200Y-126212600D03*
%TD*%
D13*
%TO.C,R10*%
X68072000Y-121602000D03*
X68072000Y-119952000D03*
%TD*%
D10*
%TO.C,J61*%
X94056200Y-123672600D03*
%TD*%
%TO.C,J21*%
X82016600Y-148107400D03*
%TD*%
D13*
%TO.C,R8*%
X64770000Y-121602000D03*
X64770000Y-119952000D03*
%TD*%
D16*
%TO.C,D7*%
X71374000Y-118542000D03*
X71374000Y-116967000D03*
%TD*%
D11*
%TO.C,J9*%
X75900455Y-73958000D03*
D12*
X78440455Y-73958000D03*
X80980455Y-73958000D03*
%TD*%
D16*
%TO.C,D2*%
X63119000Y-118516500D03*
X63119000Y-116941500D03*
%TD*%
D29*
%TO.C,U3*%
X67751760Y-91488050D03*
X69021760Y-91488050D03*
X70291760Y-91488050D03*
X71561760Y-91488050D03*
X71561760Y-86538050D03*
X70291760Y-86538050D03*
X69021760Y-86538050D03*
X67751760Y-86538050D03*
%TD*%
D16*
%TO.C,D5*%
X68072000Y-118516500D03*
X68072000Y-116941500D03*
%TD*%
D30*
%TO.C,U4*%
X116255800Y-97744245D03*
X106095800Y-97744245D03*
X101015800Y-97744245D03*
X98475800Y-143464245D03*
X108635800Y-143464245D03*
X118795800Y-143464245D03*
%TD*%
D18*
%TO.C,C7*%
X83579000Y-100321700D03*
X82029000Y-100321700D03*
%TD*%
D31*
%TO.C,Y1*%
X76919000Y-82271800D03*
X74719000Y-82271800D03*
X74719000Y-83971800D03*
X76919000Y-83971800D03*
%TD*%
D10*
%TO.C,J25*%
X87096600Y-143027400D03*
%TD*%
%TO.C,J64*%
X88976200Y-128752600D03*
%TD*%
D14*
%TO.C,H2*%
X55499000Y-66040000D03*
D15*
X55499000Y-66040000D03*
%TD*%
D10*
%TO.C,J59*%
X88976200Y-123672600D03*
%TD*%
D15*
%TO.C,H1*%
X177800000Y-152400000D03*
D14*
X177800000Y-152400000D03*
%TD*%
D10*
%TO.C,J28*%
X87096600Y-135407400D03*
%TD*%
%TO.C,J36*%
X84556600Y-143027400D03*
%TD*%
%TO.C,J38*%
X76936600Y-145567400D03*
%TD*%
%TO.C,J31*%
X76936600Y-135407400D03*
%TD*%
D32*
%TO.C,R1*%
X70358000Y-96139000D03*
X68708000Y-96139000D03*
%TD*%
D17*
%TO.C,C6*%
X79285800Y-119253000D03*
X80835800Y-119253000D03*
%TD*%
D10*
%TO.C,J11*%
X76936600Y-132867400D03*
%TD*%
%TO.C,J33*%
X84556600Y-137947400D03*
%TD*%
D23*
%TO.C,J7*%
X163525200Y-75704400D03*
X163525200Y-86704400D03*
%TD*%
D33*
%TO.C,J10*%
X81915000Y-123551000D03*
D12*
X79375000Y-123551000D03*
X76835000Y-123551000D03*
X74295000Y-123551000D03*
%TD*%
D10*
%TO.C,J66*%
X94056200Y-126212600D03*
%TD*%
%TO.C,J56*%
X91516200Y-128752600D03*
%TD*%
D28*
%TO.C,C10*%
X85471000Y-96152000D03*
X85471000Y-94602000D03*
%TD*%
D10*
%TO.C,J20*%
X71856600Y-135407400D03*
%TD*%
%TO.C,J15*%
X79476600Y-132867400D03*
%TD*%
%TO.C,J39*%
X79476600Y-137947400D03*
%TD*%
D34*
%TO.C,U2*%
X83616800Y-86193400D03*
X82346800Y-86193400D03*
X81076800Y-86193400D03*
X79806800Y-86193400D03*
X78536800Y-86193400D03*
X77266800Y-86193400D03*
X75996800Y-86193400D03*
X74726800Y-86193400D03*
X73456800Y-86193400D03*
X73456800Y-95493400D03*
X74726800Y-95493400D03*
X75996800Y-95493400D03*
X77266800Y-95493400D03*
X78536800Y-95493400D03*
X79806800Y-95493400D03*
X81076800Y-95493400D03*
X82346800Y-95493400D03*
X83616800Y-95493400D03*
%TD*%
D32*
%TO.C,R5*%
X94398600Y-114865500D03*
X92748600Y-114865500D03*
%TD*%
D10*
%TO.C,J17*%
X84556600Y-132867400D03*
%TD*%
%TO.C,J44*%
X79476600Y-140487400D03*
%TD*%
D28*
%TO.C,C1*%
X90551000Y-113818000D03*
X90551000Y-112268000D03*
%TD*%
D24*
%TO.C,R14*%
X81204300Y-83844900D03*
X82854300Y-83844900D03*
%TD*%
D10*
%TO.C,J43*%
X84556600Y-135407400D03*
%TD*%
%TO.C,J13*%
X82016600Y-132867400D03*
%TD*%
D11*
%TO.C,J3*%
X97586800Y-81808000D03*
D12*
X100126800Y-81808000D03*
X102666800Y-81808000D03*
%TD*%
D13*
%TO.C,R12*%
X71374000Y-121602000D03*
X71374000Y-119952000D03*
%TD*%
D10*
%TO.C,J19*%
X71856600Y-140487400D03*
%TD*%
D24*
%TO.C,R3*%
X68870360Y-84364850D03*
X70520360Y-84364850D03*
%TD*%
D35*
%TO.C,C2*%
X90519800Y-103747700D03*
X90519800Y-105297700D03*
%TD*%
D10*
%TO.C,J34*%
X76936600Y-143027400D03*
%TD*%
D28*
%TO.C,C8*%
X78740000Y-83807600D03*
X78740000Y-82257600D03*
%TD*%
D10*
%TO.C,J52*%
X74396600Y-140487400D03*
%TD*%
%TO.C,J27*%
X76936600Y-148107400D03*
%TD*%
%TO.C,J42*%
X74396600Y-143027400D03*
%TD*%
%TO.C,J58*%
X86436200Y-123672600D03*
%TD*%
%TO.C,J49*%
X82016600Y-145567400D03*
%TD*%
%TO.C,J23*%
X87096600Y-145567400D03*
%TD*%
D13*
%TO.C,R7*%
X63119000Y-121602000D03*
X63119000Y-119952000D03*
%TD*%
D10*
%TO.C,J16*%
X71856600Y-137947400D03*
%TD*%
%TO.C,J51*%
X76936600Y-140487400D03*
%TD*%
D24*
%TO.C,R6*%
X92774000Y-116586000D03*
X94424000Y-116586000D03*
%TD*%
D10*
%TO.C,J37*%
X74396600Y-137947400D03*
%TD*%
%TO.C,J46*%
X82016600Y-137947400D03*
%TD*%
%TO.C,J67*%
X91396200Y-126212600D03*
%TD*%
D17*
%TO.C,C3*%
X69905200Y-110133900D03*
X71455200Y-110133900D03*
%TD*%
D16*
%TO.C,D6*%
X69723000Y-118516500D03*
X69723000Y-116941500D03*
%TD*%
D11*
%TO.C,J5*%
X87916800Y-73958000D03*
D12*
X90456800Y-73958000D03*
X92996800Y-73958000D03*
%TD*%
D10*
%TO.C,J45*%
X84556600Y-145567400D03*
%TD*%
%TO.C,J14*%
X71856600Y-143027400D03*
%TD*%
D36*
%TO.C,Y3*%
X69742200Y-106105100D03*
X69742200Y-108305100D03*
X71442200Y-108305100D03*
X71442200Y-106105100D03*
%TD*%
D10*
%TO.C,J35*%
X84556600Y-140487400D03*
%TD*%
%TO.C,J26*%
X74396600Y-148107400D03*
%TD*%
D37*
%TO.C,C12*%
X107578651Y-90551000D03*
D38*
X105078651Y-90551000D03*
%TD*%
D10*
%TO.C,J41*%
X82016600Y-135407400D03*
%TD*%
M02*
