%TF.GenerationSoftware,KiCad,Pcbnew,6.0.4-6f826c9f35~116~ubuntu20.04.1*%
%TF.CreationDate,2022-04-19T19:11:04+03:00*%
%TF.ProjectId,oskar_feet_rev1,6f736b61-725f-4666-9565-745f72657631,rev?*%
%TF.SameCoordinates,Original*%
%TF.FileFunction,Paste,Top*%
%TF.FilePolarity,Positive*%
%FSLAX46Y46*%
G04 Gerber Fmt 4.6, Leading zero omitted, Abs format (unit mm)*
G04 Created by KiCad (PCBNEW 6.0.4-6f826c9f35~116~ubuntu20.04.1) date 2022-04-19 19:11:04*
%MOMM*%
%LPD*%
G01*
G04 APERTURE LIST*
G04 Aperture macros list*
%AMRoundRect*
0 Rectangle with rounded corners*
0 $1 Rounding radius*
0 $2 $3 $4 $5 $6 $7 $8 $9 X,Y pos of 4 corners*
0 Add a 4 corners polygon primitive as box body*
4,1,4,$2,$3,$4,$5,$6,$7,$8,$9,$2,$3,0*
0 Add four circle primitives for the rounded corners*
1,1,$1+$1,$2,$3*
1,1,$1+$1,$4,$5*
1,1,$1+$1,$6,$7*
1,1,$1+$1,$8,$9*
0 Add four rect primitives between the rounded corners*
20,1,$1+$1,$2,$3,$4,$5,0*
20,1,$1+$1,$4,$5,$6,$7,0*
20,1,$1+$1,$6,$7,$8,$9,0*
20,1,$1+$1,$8,$9,$2,$3,0*%
G04 Aperture macros list end*
%ADD10RoundRect,0.200000X0.275000X-0.200000X0.275000X0.200000X-0.275000X0.200000X-0.275000X-0.200000X0*%
%ADD11RoundRect,0.218750X0.256250X-0.218750X0.256250X0.218750X-0.256250X0.218750X-0.256250X-0.218750X0*%
%ADD12RoundRect,0.225000X-0.225000X-0.250000X0.225000X-0.250000X0.225000X0.250000X-0.225000X0.250000X0*%
%ADD13RoundRect,0.225000X0.225000X0.250000X-0.225000X0.250000X-0.225000X-0.250000X0.225000X-0.250000X0*%
%ADD14RoundRect,0.075000X-0.075000X0.662500X-0.075000X-0.662500X0.075000X-0.662500X0.075000X0.662500X0*%
%ADD15RoundRect,0.075000X-0.662500X0.075000X-0.662500X-0.075000X0.662500X-0.075000X0.662500X0.075000X0*%
%ADD16RoundRect,0.150000X0.150000X-0.587500X0.150000X0.587500X-0.150000X0.587500X-0.150000X-0.587500X0*%
%ADD17RoundRect,0.200000X-0.200000X-0.275000X0.200000X-0.275000X0.200000X0.275000X-0.200000X0.275000X0*%
%ADD18RoundRect,0.200000X-0.275000X0.200000X-0.275000X-0.200000X0.275000X-0.200000X0.275000X0.200000X0*%
%ADD19RoundRect,0.225000X0.250000X-0.225000X0.250000X0.225000X-0.250000X0.225000X-0.250000X-0.225000X0*%
%ADD20RoundRect,0.150000X0.150000X-0.825000X0.150000X0.825000X-0.150000X0.825000X-0.150000X-0.825000X0*%
%ADD21R,1.400000X1.200000*%
%ADD22RoundRect,0.200000X0.200000X0.275000X-0.200000X0.275000X-0.200000X-0.275000X0.200000X-0.275000X0*%
%ADD23RoundRect,0.150000X-0.150000X0.875000X-0.150000X-0.875000X0.150000X-0.875000X0.150000X0.875000X0*%
%ADD24RoundRect,0.225000X-0.250000X0.225000X-0.250000X-0.225000X0.250000X-0.225000X0.250000X0.225000X0*%
%ADD25R,1.200000X1.400000*%
G04 APERTURE END LIST*
D10*
%TO.C,R11*%
X69723000Y-121602000D03*
X69723000Y-119952000D03*
%TD*%
%TO.C,R9*%
X66421000Y-121602000D03*
X66421000Y-119952000D03*
%TD*%
D11*
%TO.C,D3*%
X64770000Y-118516500D03*
X64770000Y-116941500D03*
%TD*%
D12*
%TO.C,C4*%
X69752800Y-104291900D03*
X71302800Y-104291900D03*
%TD*%
D13*
%TO.C,C11*%
X70406360Y-93559650D03*
X68856360Y-93559650D03*
%TD*%
%TO.C,C5*%
X64148000Y-104013000D03*
X62598000Y-104013000D03*
%TD*%
D14*
%TO.C,U1*%
X87057000Y-102108000D03*
X86557000Y-102108000D03*
X86057000Y-102108000D03*
X85557000Y-102108000D03*
X85057000Y-102108000D03*
X84557000Y-102108000D03*
X84057000Y-102108000D03*
X83557000Y-102108000D03*
X83057000Y-102108000D03*
X82557000Y-102108000D03*
X82057000Y-102108000D03*
X81557000Y-102108000D03*
X81057000Y-102108000D03*
X80557000Y-102108000D03*
X80057000Y-102108000D03*
X79557000Y-102108000D03*
X79057000Y-102108000D03*
X78557000Y-102108000D03*
X78057000Y-102108000D03*
X77557000Y-102108000D03*
X77057000Y-102108000D03*
X76557000Y-102108000D03*
X76057000Y-102108000D03*
X75557000Y-102108000D03*
X75057000Y-102108000D03*
D15*
X73394500Y-103770500D03*
X73394500Y-104270500D03*
X73394500Y-104770500D03*
X73394500Y-105270500D03*
X73394500Y-105770500D03*
X73394500Y-106270500D03*
X73394500Y-106770500D03*
X73394500Y-107270500D03*
X73394500Y-107770500D03*
X73394500Y-108270500D03*
X73394500Y-108770500D03*
X73394500Y-109270500D03*
X73394500Y-109770500D03*
X73394500Y-110270500D03*
X73394500Y-110770500D03*
X73394500Y-111270500D03*
X73394500Y-111770500D03*
X73394500Y-112270500D03*
X73394500Y-112770500D03*
X73394500Y-113270500D03*
X73394500Y-113770500D03*
X73394500Y-114270500D03*
X73394500Y-114770500D03*
X73394500Y-115270500D03*
X73394500Y-115770500D03*
D14*
X75057000Y-117433000D03*
X75557000Y-117433000D03*
X76057000Y-117433000D03*
X76557000Y-117433000D03*
X77057000Y-117433000D03*
X77557000Y-117433000D03*
X78057000Y-117433000D03*
X78557000Y-117433000D03*
X79057000Y-117433000D03*
X79557000Y-117433000D03*
X80057000Y-117433000D03*
X80557000Y-117433000D03*
X81057000Y-117433000D03*
X81557000Y-117433000D03*
X82057000Y-117433000D03*
X82557000Y-117433000D03*
X83057000Y-117433000D03*
X83557000Y-117433000D03*
X84057000Y-117433000D03*
X84557000Y-117433000D03*
X85057000Y-117433000D03*
X85557000Y-117433000D03*
X86057000Y-117433000D03*
X86557000Y-117433000D03*
X87057000Y-117433000D03*
D15*
X88719500Y-115770500D03*
X88719500Y-115270500D03*
X88719500Y-114770500D03*
X88719500Y-114270500D03*
X88719500Y-113770500D03*
X88719500Y-113270500D03*
X88719500Y-112770500D03*
X88719500Y-112270500D03*
X88719500Y-111770500D03*
X88719500Y-111270500D03*
X88719500Y-110770500D03*
X88719500Y-110270500D03*
X88719500Y-109770500D03*
X88719500Y-109270500D03*
X88719500Y-108770500D03*
X88719500Y-108270500D03*
X88719500Y-107770500D03*
X88719500Y-107270500D03*
X88719500Y-106770500D03*
X88719500Y-106270500D03*
X88719500Y-105770500D03*
X88719500Y-105270500D03*
X88719500Y-104770500D03*
X88719500Y-104270500D03*
X88719500Y-103770500D03*
%TD*%
D10*
%TO.C,R4*%
X86995000Y-96202000D03*
X86995000Y-94552000D03*
%TD*%
D16*
%TO.C,Q1*%
X92776000Y-113057500D03*
X94676000Y-113057500D03*
X93726000Y-111182500D03*
%TD*%
%TO.C,D1*%
X68706760Y-82457550D03*
X70606760Y-82457550D03*
X69656760Y-80582550D03*
%TD*%
D11*
%TO.C,D4*%
X66421000Y-118491000D03*
X66421000Y-116916000D03*
%TD*%
D17*
%TO.C,R13*%
X81204300Y-82320900D03*
X82854300Y-82320900D03*
%TD*%
D18*
%TO.C,R2*%
X66151560Y-86523850D03*
X66151560Y-88173850D03*
%TD*%
D19*
%TO.C,C9*%
X72898000Y-83973000D03*
X72898000Y-82423000D03*
%TD*%
D10*
%TO.C,R10*%
X68072000Y-121602000D03*
X68072000Y-119952000D03*
%TD*%
%TO.C,R8*%
X64770000Y-121602000D03*
X64770000Y-119952000D03*
%TD*%
D11*
%TO.C,D7*%
X71374000Y-118542000D03*
X71374000Y-116967000D03*
%TD*%
%TO.C,D2*%
X63119000Y-118516500D03*
X63119000Y-116941500D03*
%TD*%
D20*
%TO.C,U3*%
X67751760Y-91488050D03*
X69021760Y-91488050D03*
X70291760Y-91488050D03*
X71561760Y-91488050D03*
X71561760Y-86538050D03*
X70291760Y-86538050D03*
X69021760Y-86538050D03*
X67751760Y-86538050D03*
%TD*%
D11*
%TO.C,D5*%
X68072000Y-118516500D03*
X68072000Y-116941500D03*
%TD*%
D13*
%TO.C,C7*%
X83579000Y-100321700D03*
X82029000Y-100321700D03*
%TD*%
D21*
%TO.C,Y1*%
X76919000Y-82271800D03*
X74719000Y-82271800D03*
X74719000Y-83971800D03*
X76919000Y-83971800D03*
%TD*%
D22*
%TO.C,R1*%
X70358000Y-96139000D03*
X68708000Y-96139000D03*
%TD*%
D12*
%TO.C,C6*%
X79285800Y-119253000D03*
X80835800Y-119253000D03*
%TD*%
D19*
%TO.C,C10*%
X85471000Y-96152000D03*
X85471000Y-94602000D03*
%TD*%
D23*
%TO.C,U2*%
X83616800Y-86193400D03*
X82346800Y-86193400D03*
X81076800Y-86193400D03*
X79806800Y-86193400D03*
X78536800Y-86193400D03*
X77266800Y-86193400D03*
X75996800Y-86193400D03*
X74726800Y-86193400D03*
X73456800Y-86193400D03*
X73456800Y-95493400D03*
X74726800Y-95493400D03*
X75996800Y-95493400D03*
X77266800Y-95493400D03*
X78536800Y-95493400D03*
X79806800Y-95493400D03*
X81076800Y-95493400D03*
X82346800Y-95493400D03*
X83616800Y-95493400D03*
%TD*%
D22*
%TO.C,R5*%
X94398600Y-114865500D03*
X92748600Y-114865500D03*
%TD*%
D19*
%TO.C,C1*%
X90551000Y-113818000D03*
X90551000Y-112268000D03*
%TD*%
D17*
%TO.C,R14*%
X81204300Y-83844900D03*
X82854300Y-83844900D03*
%TD*%
D10*
%TO.C,R12*%
X71374000Y-121602000D03*
X71374000Y-119952000D03*
%TD*%
D17*
%TO.C,R3*%
X68870360Y-84364850D03*
X70520360Y-84364850D03*
%TD*%
D24*
%TO.C,C2*%
X90519800Y-103747700D03*
X90519800Y-105297700D03*
%TD*%
D19*
%TO.C,C8*%
X78740000Y-83807600D03*
X78740000Y-82257600D03*
%TD*%
D10*
%TO.C,R7*%
X63119000Y-121602000D03*
X63119000Y-119952000D03*
%TD*%
D17*
%TO.C,R6*%
X92774000Y-116586000D03*
X94424000Y-116586000D03*
%TD*%
D12*
%TO.C,C3*%
X69905200Y-110133900D03*
X71455200Y-110133900D03*
%TD*%
D11*
%TO.C,D6*%
X69723000Y-118516500D03*
X69723000Y-116941500D03*
%TD*%
D25*
%TO.C,Y3*%
X69742200Y-106105100D03*
X69742200Y-108305100D03*
X71442200Y-108305100D03*
X71442200Y-106105100D03*
%TD*%
M02*
