%TF.GenerationSoftware,KiCad,Pcbnew,6.0.4-6f826c9f35~116~ubuntu20.04.1*%
%TF.CreationDate,2022-04-19T19:11:04+03:00*%
%TF.ProjectId,oskar_feet_rev1,6f736b61-725f-4666-9565-745f72657631,rev?*%
%TF.SameCoordinates,Original*%
%TF.FileFunction,Soldermask,Bot*%
%TF.FilePolarity,Negative*%
%FSLAX46Y46*%
G04 Gerber Fmt 4.6, Leading zero omitted, Abs format (unit mm)*
G04 Created by KiCad (PCBNEW 6.0.4-6f826c9f35~116~ubuntu20.04.1) date 2022-04-19 19:11:04*
%MOMM*%
%LPD*%
G01*
G04 APERTURE LIST*
G04 Aperture macros list*
%AMRoundRect*
0 Rectangle with rounded corners*
0 $1 Rounding radius*
0 $2 $3 $4 $5 $6 $7 $8 $9 X,Y pos of 4 corners*
0 Add a 4 corners polygon primitive as box body*
4,1,4,$2,$3,$4,$5,$6,$7,$8,$9,$2,$3,0*
0 Add four circle primitives for the rounded corners*
1,1,$1+$1,$2,$3*
1,1,$1+$1,$4,$5*
1,1,$1+$1,$6,$7*
1,1,$1+$1,$8,$9*
0 Add four rect primitives between the rounded corners*
20,1,$1+$1,$2,$3,$4,$5,0*
20,1,$1+$1,$4,$5,$6,$7,0*
20,1,$1+$1,$6,$7,$8,$9,0*
20,1,$1+$1,$8,$9,$2,$3,0*%
G04 Aperture macros list end*
%ADD10R,1.700000X1.700000*%
%ADD11RoundRect,0.250000X-0.620000X-0.845000X0.620000X-0.845000X0.620000X0.845000X-0.620000X0.845000X0*%
%ADD12O,1.740000X2.190000*%
%ADD13C,4.700000*%
%ADD14C,7.500000*%
%ADD15O,1.700000X1.700000*%
%ADD16C,10.000000*%
%ADD17O,4.000000X9.000000*%
%ADD18O,9.000000X4.000000*%
%ADD19C,2.000000*%
%ADD20RoundRect,0.250000X0.620000X0.845000X-0.620000X0.845000X-0.620000X-0.845000X0.620000X-0.845000X0*%
%ADD21R,1.600000X1.600000*%
%ADD22C,1.600000*%
G04 APERTURE END LIST*
D10*
%TO.C,J47*%
X79476600Y-143027400D03*
%TD*%
%TO.C,J40*%
X74396600Y-135407400D03*
%TD*%
%TO.C,J63*%
X88856200Y-126212600D03*
%TD*%
D11*
%TO.C,J2*%
X68386760Y-73970850D03*
D12*
X70926760Y-73970850D03*
%TD*%
D10*
%TO.C,J53*%
X79476600Y-145567400D03*
%TD*%
D13*
%TO.C,H3*%
X55499000Y-151892000D03*
D14*
X55499000Y-151892000D03*
%TD*%
D10*
%TO.C,J30*%
X79476600Y-148107400D03*
%TD*%
D13*
%TO.C,H4*%
X177800000Y-66040000D03*
D14*
X177800000Y-66040000D03*
%TD*%
D10*
%TO.C,J65*%
X86436200Y-128752600D03*
%TD*%
%TO.C,J1*%
X63627000Y-101346000D03*
D15*
X63627000Y-98806000D03*
X66167000Y-101346000D03*
X66167000Y-98806000D03*
X68707000Y-101346000D03*
X68707000Y-98806000D03*
X71247000Y-101346000D03*
X71247000Y-98806000D03*
%TD*%
D10*
%TO.C,J24*%
X87096600Y-140487400D03*
%TD*%
D11*
%TO.C,J6*%
X97586800Y-73958000D03*
D12*
X100126800Y-73958000D03*
X102666800Y-73958000D03*
%TD*%
D10*
%TO.C,J60*%
X91516200Y-123672600D03*
%TD*%
D16*
%TO.C,J8*%
X116586000Y-75653600D03*
X116586000Y-86653600D03*
%TD*%
D10*
%TO.C,J50*%
X82016600Y-140487400D03*
%TD*%
%TO.C,J54*%
X79476600Y-135407400D03*
%TD*%
%TO.C,J29*%
X84556600Y-148107400D03*
%TD*%
%TO.C,J22*%
X87096600Y-137947400D03*
%TD*%
%TO.C,J48*%
X74396600Y-145567400D03*
%TD*%
%TO.C,J12*%
X74396600Y-132867400D03*
%TD*%
%TO.C,J55*%
X76936600Y-137947400D03*
%TD*%
D11*
%TO.C,J4*%
X87916800Y-81808000D03*
D12*
X90456800Y-81808000D03*
X92996800Y-81808000D03*
%TD*%
D17*
%TO.C,K1*%
X127965200Y-126466600D03*
X152476200Y-126466600D03*
D18*
X132158200Y-85366600D03*
X148158200Y-85366600D03*
X132156200Y-92938600D03*
X148158200Y-92938600D03*
X132156200Y-100177600D03*
X148158200Y-100177600D03*
%TD*%
D10*
%TO.C,J32*%
X82016600Y-143027400D03*
%TD*%
%TO.C,J18*%
X71856600Y-145567400D03*
%TD*%
%TO.C,J62*%
X86316200Y-126212600D03*
%TD*%
%TO.C,J61*%
X94056200Y-123672600D03*
%TD*%
%TO.C,J21*%
X82016600Y-148107400D03*
%TD*%
D11*
%TO.C,J9*%
X75900455Y-73958000D03*
D12*
X78440455Y-73958000D03*
X80980455Y-73958000D03*
%TD*%
D19*
%TO.C,U4*%
X116255800Y-97744245D03*
X106095800Y-97744245D03*
X101015800Y-97744245D03*
X98475800Y-143464245D03*
X108635800Y-143464245D03*
X118795800Y-143464245D03*
%TD*%
D10*
%TO.C,J25*%
X87096600Y-143027400D03*
%TD*%
%TO.C,J64*%
X88976200Y-128752600D03*
%TD*%
D13*
%TO.C,H2*%
X55499000Y-66040000D03*
D14*
X55499000Y-66040000D03*
%TD*%
D10*
%TO.C,J59*%
X88976200Y-123672600D03*
%TD*%
D13*
%TO.C,H1*%
X177800000Y-152400000D03*
D14*
X177800000Y-152400000D03*
%TD*%
D10*
%TO.C,J28*%
X87096600Y-135407400D03*
%TD*%
%TO.C,J36*%
X84556600Y-143027400D03*
%TD*%
%TO.C,J38*%
X76936600Y-145567400D03*
%TD*%
%TO.C,J31*%
X76936600Y-135407400D03*
%TD*%
%TO.C,J11*%
X76936600Y-132867400D03*
%TD*%
%TO.C,J33*%
X84556600Y-137947400D03*
%TD*%
D16*
%TO.C,J7*%
X163525200Y-75704400D03*
X163525200Y-86704400D03*
%TD*%
D20*
%TO.C,J10*%
X81915000Y-123551000D03*
D12*
X79375000Y-123551000D03*
X76835000Y-123551000D03*
X74295000Y-123551000D03*
%TD*%
D10*
%TO.C,J66*%
X94056200Y-126212600D03*
%TD*%
%TO.C,J56*%
X91516200Y-128752600D03*
%TD*%
%TO.C,J20*%
X71856600Y-135407400D03*
%TD*%
%TO.C,J15*%
X79476600Y-132867400D03*
%TD*%
%TO.C,J39*%
X79476600Y-137947400D03*
%TD*%
%TO.C,J17*%
X84556600Y-132867400D03*
%TD*%
%TO.C,J44*%
X79476600Y-140487400D03*
%TD*%
%TO.C,J43*%
X84556600Y-135407400D03*
%TD*%
%TO.C,J13*%
X82016600Y-132867400D03*
%TD*%
D11*
%TO.C,J3*%
X97586800Y-81808000D03*
D12*
X100126800Y-81808000D03*
X102666800Y-81808000D03*
%TD*%
D10*
%TO.C,J19*%
X71856600Y-140487400D03*
%TD*%
%TO.C,J34*%
X76936600Y-143027400D03*
%TD*%
%TO.C,J52*%
X74396600Y-140487400D03*
%TD*%
%TO.C,J27*%
X76936600Y-148107400D03*
%TD*%
%TO.C,J42*%
X74396600Y-143027400D03*
%TD*%
%TO.C,J58*%
X86436200Y-123672600D03*
%TD*%
%TO.C,J49*%
X82016600Y-145567400D03*
%TD*%
%TO.C,J23*%
X87096600Y-145567400D03*
%TD*%
%TO.C,J16*%
X71856600Y-137947400D03*
%TD*%
%TO.C,J51*%
X76936600Y-140487400D03*
%TD*%
%TO.C,J37*%
X74396600Y-137947400D03*
%TD*%
%TO.C,J46*%
X82016600Y-137947400D03*
%TD*%
%TO.C,J67*%
X91396200Y-126212600D03*
%TD*%
D11*
%TO.C,J5*%
X87916800Y-73958000D03*
D12*
X90456800Y-73958000D03*
X92996800Y-73958000D03*
%TD*%
D10*
%TO.C,J45*%
X84556600Y-145567400D03*
%TD*%
%TO.C,J14*%
X71856600Y-143027400D03*
%TD*%
%TO.C,J35*%
X84556600Y-140487400D03*
%TD*%
%TO.C,J26*%
X74396600Y-148107400D03*
%TD*%
D21*
%TO.C,C12*%
X107578651Y-90551000D03*
D22*
X105078651Y-90551000D03*
%TD*%
D10*
%TO.C,J41*%
X82016600Y-135407400D03*
%TD*%
M02*
