M48
; DRILL file {KiCad 6.0.4-6f826c9f35~116~ubuntu20.04.1} date T 19 apr   2022 19:11:05
; FORMAT={-:-/ absolute / inch / decimal}
; #@! TF.CreationDate,2022-04-19T19:11:05+03:00
; #@! TF.GenerationSoftware,Kicad,Pcbnew,6.0.4-6f826c9f35~116~ubuntu20.04.1
; #@! TF.FileFunction,Plated,1,2,PTH
FMAT,2
INCH
; #@! TA.AperFunction,Plated,PTH,ViaDrill
T1C0.0079
; #@! TA.AperFunction,Plated,PTH,ViaDrill
T2C0.0157
; #@! TA.AperFunction,Plated,PTH,ComponentDrill
T3C0.0315
; #@! TA.AperFunction,Plated,PTH,ComponentDrill
T4C0.0394
; #@! TA.AperFunction,Plated,PTH,ComponentDrill
T5C0.0433
; #@! TA.AperFunction,Plated,PTH,ComponentDrill
T6C0.0469
; #@! TA.AperFunction,Plated,PTH,ComponentDrill
T7C0.1693
; #@! TA.AperFunction,Plated,PTH,ComponentDrill
T8C0.2362
%
G90
G05
T1
X3.3094Y-4.68
X3.335Y-4.695
X3.3487Y-4.675
X3.3711Y-4.6677
X3.3908Y-4.6852
X3.4105Y-4.67
T2
X2.6924Y-3.1826
X2.7458Y-4.264
X2.7924Y-3.1836
X2.798Y-4.4309
X2.8127Y-4.1774
X2.83Y-4.408
X2.942Y-3.2395
X2.964Y-4.1506
X3.0048Y-4.1035
X3.0267Y-3.9067
X3.029Y-3.3055
X3.035Y-4.075
X3.039Y-3.854
X3.0393Y-3.5726
X3.0628Y-4.1028
X3.071Y-4.692
X3.1213Y-3.958
X3.125Y-3.57
X3.1511Y-3.315
X3.1515Y-3.241
X3.1612Y-3.9585
X3.23Y-3.205
X3.335Y-3.94
X3.425Y-3.7875
X3.623Y-4.084
X3.69Y-4.295
T3
X4.137Y-3.565
X4.2354Y-3.565
T4
X2.505Y-3.89
X2.505Y-3.99
X2.605Y-3.89
X2.605Y-3.99
X2.705Y-3.89
X2.705Y-3.99
X2.805Y-3.89
X2.805Y-3.99
X2.829Y-5.331
X2.829Y-5.431
X2.829Y-5.531
X2.829Y-5.631
X2.829Y-5.731
X2.929Y-5.231
X2.929Y-5.331
X2.929Y-5.431
X2.929Y-5.531
X2.929Y-5.631
X2.929Y-5.731
X2.929Y-5.831
X3.029Y-5.231
X3.029Y-5.331
X3.029Y-5.431
X3.029Y-5.531
X3.029Y-5.631
X3.029Y-5.731
X3.029Y-5.831
X3.129Y-5.231
X3.129Y-5.331
X3.129Y-5.431
X3.129Y-5.531
X3.129Y-5.631
X3.129Y-5.731
X3.129Y-5.831
X3.229Y-5.231
X3.229Y-5.331
X3.229Y-5.431
X3.229Y-5.531
X3.229Y-5.631
X3.229Y-5.731
X3.229Y-5.831
X3.329Y-5.231
X3.329Y-5.331
X3.329Y-5.431
X3.329Y-5.531
X3.329Y-5.631
X3.329Y-5.731
X3.329Y-5.831
X3.3983Y-4.969
X3.403Y-4.869
X3.403Y-5.069
X3.429Y-5.331
X3.429Y-5.431
X3.429Y-5.531
X3.429Y-5.631
X3.429Y-5.731
X3.4983Y-4.969
X3.503Y-4.869
X3.503Y-5.069
X3.5983Y-4.969
X3.603Y-4.869
X3.603Y-5.069
X3.703Y-4.869
X3.703Y-4.969
T5
X3.877Y-5.6482
X3.977Y-3.8482
X4.177Y-3.8482
X4.277Y-5.6482
X4.577Y-3.8482
X4.677Y-5.6482
T6
X2.6924Y-2.9122
X2.7924Y-2.9122
X2.925Y-4.8642
X2.9882Y-2.9117
X3.025Y-4.8642
X3.0882Y-2.9117
X3.125Y-4.8642
X3.1882Y-2.9117
X3.225Y-4.8642
X3.4613Y-2.9117
X3.4613Y-3.2208
X3.5613Y-2.9117
X3.5613Y-3.2208
X3.6613Y-2.9117
X3.6613Y-3.2208
X3.842Y-2.9117
X3.842Y-3.2208
X3.942Y-2.9117
X3.942Y-3.2208
X4.042Y-2.9117
X4.042Y-3.2208
T7
X2.185Y-2.6
X2.185Y-5.98
X7.0Y-2.6
X7.0Y-6.0
T8
X4.59Y-2.9785
X4.59Y-3.4116
X6.438Y-2.9805
X6.438Y-3.4136
T4
G00X5.038Y-5.0971
M15
G01X5.038Y-4.8609
M16
G05
G00X5.0849Y-3.659
M15
G01X5.3211Y-3.659
M16
G05
G00X5.0849Y-3.944
M15
G01X5.3211Y-3.944
M16
G05
G00X5.085Y-3.3609
M15
G01X5.3212Y-3.3609
M16
G05
G00X5.7149Y-3.3609
M15
G01X5.9511Y-3.3609
M16
G05
G00X5.7149Y-3.659
M15
G01X5.9511Y-3.659
M16
G05
G00X5.7149Y-3.944
M15
G01X5.9511Y-3.944
M16
G05
G00X6.003Y-5.0971
M15
G01X6.003Y-4.8609
M16
G05
T0
M30
