%TF.GenerationSoftware,KiCad,Pcbnew,6.0.4-6f826c9f35~116~ubuntu20.04.1*%
%TF.CreationDate,2022-05-18T13:41:16+03:00*%
%TF.ProjectId,oskar_head_rev1,6f736b61-725f-4686-9561-645f72657631,rev?*%
%TF.SameCoordinates,Original*%
%TF.FileFunction,Soldermask,Top*%
%TF.FilePolarity,Negative*%
%FSLAX46Y46*%
G04 Gerber Fmt 4.6, Leading zero omitted, Abs format (unit mm)*
G04 Created by KiCad (PCBNEW 6.0.4-6f826c9f35~116~ubuntu20.04.1) date 2022-05-18 13:41:16*
%MOMM*%
%LPD*%
G01*
G04 APERTURE LIST*
G04 Aperture macros list*
%AMRoundRect*
0 Rectangle with rounded corners*
0 $1 Rounding radius*
0 $2 $3 $4 $5 $6 $7 $8 $9 X,Y pos of 4 corners*
0 Add a 4 corners polygon primitive as box body*
4,1,4,$2,$3,$4,$5,$6,$7,$8,$9,$2,$3,0*
0 Add four circle primitives for the rounded corners*
1,1,$1+$1,$2,$3*
1,1,$1+$1,$4,$5*
1,1,$1+$1,$6,$7*
1,1,$1+$1,$8,$9*
0 Add four rect primitives between the rounded corners*
20,1,$1+$1,$2,$3,$4,$5,0*
20,1,$1+$1,$4,$5,$6,$7,0*
20,1,$1+$1,$6,$7,$8,$9,0*
20,1,$1+$1,$8,$9,$2,$3,0*%
G04 Aperture macros list end*
%ADD10RoundRect,0.218750X-0.256250X0.218750X-0.256250X-0.218750X0.256250X-0.218750X0.256250X0.218750X0*%
%ADD11RoundRect,0.200000X0.275000X-0.200000X0.275000X0.200000X-0.275000X0.200000X-0.275000X-0.200000X0*%
%ADD12RoundRect,0.250000X-0.845000X0.620000X-0.845000X-0.620000X0.845000X-0.620000X0.845000X0.620000X0*%
%ADD13O,2.190000X1.740000*%
%ADD14C,2.000000*%
%ADD15C,3.600000*%
%ADD16C,5.600000*%
%ADD17RoundRect,0.225000X-0.250000X0.225000X-0.250000X-0.225000X0.250000X-0.225000X0.250000X0.225000X0*%
%ADD18RoundRect,0.250000X-0.620000X-0.845000X0.620000X-0.845000X0.620000X0.845000X-0.620000X0.845000X0*%
%ADD19O,1.740000X2.190000*%
%ADD20RoundRect,0.225000X0.250000X-0.225000X0.250000X0.225000X-0.250000X0.225000X-0.250000X-0.225000X0*%
%ADD21RoundRect,0.225000X0.225000X0.250000X-0.225000X0.250000X-0.225000X-0.250000X0.225000X-0.250000X0*%
%ADD22RoundRect,0.250000X0.620000X0.845000X-0.620000X0.845000X-0.620000X-0.845000X0.620000X-0.845000X0*%
%ADD23RoundRect,0.225000X-0.225000X-0.250000X0.225000X-0.250000X0.225000X0.250000X-0.225000X0.250000X0*%
%ADD24R,1.400000X1.200000*%
%ADD25RoundRect,0.200000X0.200000X0.275000X-0.200000X0.275000X-0.200000X-0.275000X0.200000X-0.275000X0*%
%ADD26R,1.700000X1.700000*%
%ADD27O,1.700000X1.700000*%
%ADD28R,3.800000X3.800000*%
%ADD29C,3.800000*%
%ADD30RoundRect,0.075000X-0.662500X-0.075000X0.662500X-0.075000X0.662500X0.075000X-0.662500X0.075000X0*%
%ADD31RoundRect,0.075000X-0.075000X-0.662500X0.075000X-0.662500X0.075000X0.662500X-0.075000X0.662500X0*%
%ADD32RoundRect,0.150000X-0.150000X0.850000X-0.150000X-0.850000X0.150000X-0.850000X0.150000X0.850000X0*%
%ADD33R,1.000000X0.900000*%
%ADD34RoundRect,0.200000X-0.275000X0.200000X-0.275000X-0.200000X0.275000X-0.200000X0.275000X0.200000X0*%
G04 APERTURE END LIST*
D10*
%TO.C,D3*%
X121208800Y-54609800D03*
X121208800Y-56184800D03*
%TD*%
%TO.C,D2*%
X122732800Y-54609800D03*
X122732800Y-56184800D03*
%TD*%
%TO.C,D1*%
X124256800Y-54609900D03*
X124256800Y-56184900D03*
%TD*%
D11*
%TO.C,R5*%
X121208800Y-59245000D03*
X121208800Y-57595000D03*
%TD*%
%TO.C,R4*%
X122732800Y-59245000D03*
X122732800Y-57595000D03*
%TD*%
%TO.C,R3*%
X124256800Y-59245000D03*
X124256800Y-57595000D03*
%TD*%
D12*
%TO.C,J5*%
X121138000Y-105054400D03*
D13*
X121138000Y-107594400D03*
X121138000Y-110134400D03*
%TD*%
D14*
%TO.C,U3*%
X166217600Y-56743600D03*
X156057600Y-56743600D03*
X150977600Y-56743600D03*
X148437600Y-102463600D03*
X158597600Y-102463600D03*
X168757600Y-102463600D03*
%TD*%
D15*
%TO.C,H2*%
X114046000Y-50647600D03*
D16*
X114046000Y-50647600D03*
%TD*%
D17*
%TO.C,C8*%
X127664890Y-76744050D03*
X127664890Y-78294050D03*
%TD*%
D18*
%TO.C,M1*%
X136270440Y-100807200D03*
D19*
X138810440Y-100807200D03*
X141350440Y-100807200D03*
%TD*%
D20*
%TO.C,C2*%
X123896490Y-66703650D03*
X123896490Y-65153650D03*
%TD*%
D21*
%TO.C,C4*%
X120687840Y-61671200D03*
X119137840Y-61671200D03*
%TD*%
D22*
%TO.C,J3*%
X156565600Y-108661200D03*
D19*
X154025600Y-108661200D03*
%TD*%
D18*
%TO.C,M3*%
X136270440Y-108559600D03*
D19*
X138810440Y-108559600D03*
X141350440Y-108559600D03*
%TD*%
D20*
%TO.C,C7*%
X133760890Y-78294050D03*
X133760890Y-76744050D03*
%TD*%
D18*
%TO.C,J7*%
X127249290Y-51318250D03*
D19*
X129789290Y-51318250D03*
%TD*%
D23*
%TO.C,C3*%
X135813200Y-57150000D03*
X137363200Y-57150000D03*
%TD*%
D22*
%TO.C,J4*%
X150215600Y-108661200D03*
D19*
X147675600Y-108661200D03*
%TD*%
D21*
%TO.C,C11*%
X179184600Y-53289200D03*
X177634600Y-53289200D03*
%TD*%
D23*
%TO.C,C6*%
X126829890Y-57140250D03*
X128379890Y-57140250D03*
%TD*%
D18*
%TO.C,M4*%
X126618440Y-100807200D03*
D19*
X129158440Y-100807200D03*
X131698440Y-100807200D03*
%TD*%
D15*
%TO.C,H4*%
X192684400Y-50647600D03*
D16*
X192684400Y-50647600D03*
%TD*%
D24*
%TO.C,Y1*%
X131912890Y-76264250D03*
X129512890Y-76264250D03*
X129512890Y-78164250D03*
X131912890Y-78164250D03*
%TD*%
D17*
%TO.C,C1*%
X143611600Y-65011000D03*
X143611600Y-66561000D03*
%TD*%
D15*
%TO.C,H1*%
X114046000Y-111861600D03*
D16*
X114046000Y-111861600D03*
%TD*%
D25*
%TO.C,R2*%
X131477890Y-57140250D03*
X129827890Y-57140250D03*
%TD*%
D18*
%TO.C,M2*%
X126567640Y-108559600D03*
D19*
X129107640Y-108559600D03*
X131647640Y-108559600D03*
%TD*%
D20*
%TO.C,C9*%
X147015200Y-53353000D03*
X147015200Y-51803000D03*
%TD*%
D21*
%TO.C,C10*%
X135064240Y-55575200D03*
X133514240Y-55575200D03*
%TD*%
D26*
%TO.C,J1*%
X118717945Y-64338450D03*
D27*
X121257945Y-64338450D03*
X118717945Y-66878450D03*
X121257945Y-66878450D03*
X118717945Y-69418450D03*
X121257945Y-69418450D03*
X118717945Y-71958450D03*
X121257945Y-71958450D03*
%TD*%
D15*
%TO.C,H3*%
X192684400Y-111861600D03*
D16*
X192684400Y-111861600D03*
%TD*%
D28*
%TO.C,J2*%
X156006800Y-50952400D03*
D29*
X151006800Y-50952400D03*
%TD*%
D30*
%TO.C,U1*%
X125682790Y-60614450D03*
X125682790Y-61114450D03*
X125682790Y-61614450D03*
X125682790Y-62114450D03*
X125682790Y-62614450D03*
X125682790Y-63114450D03*
X125682790Y-63614450D03*
X125682790Y-64114450D03*
X125682790Y-64614450D03*
X125682790Y-65114450D03*
X125682790Y-65614450D03*
X125682790Y-66114450D03*
X125682790Y-66614450D03*
X125682790Y-67114450D03*
X125682790Y-67614450D03*
X125682790Y-68114450D03*
X125682790Y-68614450D03*
X125682790Y-69114450D03*
X125682790Y-69614450D03*
X125682790Y-70114450D03*
X125682790Y-70614450D03*
X125682790Y-71114450D03*
X125682790Y-71614450D03*
X125682790Y-72114450D03*
X125682790Y-72614450D03*
D31*
X127345290Y-74276950D03*
X127845290Y-74276950D03*
X128345290Y-74276950D03*
X128845290Y-74276950D03*
X129345290Y-74276950D03*
X129845290Y-74276950D03*
X130345290Y-74276950D03*
X130845290Y-74276950D03*
X131345290Y-74276950D03*
X131845290Y-74276950D03*
X132345290Y-74276950D03*
X132845290Y-74276950D03*
X133345290Y-74276950D03*
X133845290Y-74276950D03*
X134345290Y-74276950D03*
X134845290Y-74276950D03*
X135345290Y-74276950D03*
X135845290Y-74276950D03*
X136345290Y-74276950D03*
X136845290Y-74276950D03*
X137345290Y-74276950D03*
X137845290Y-74276950D03*
X138345290Y-74276950D03*
X138845290Y-74276950D03*
X139345290Y-74276950D03*
D30*
X141007790Y-72614450D03*
X141007790Y-72114450D03*
X141007790Y-71614450D03*
X141007790Y-71114450D03*
X141007790Y-70614450D03*
X141007790Y-70114450D03*
X141007790Y-69614450D03*
X141007790Y-69114450D03*
X141007790Y-68614450D03*
X141007790Y-68114450D03*
X141007790Y-67614450D03*
X141007790Y-67114450D03*
X141007790Y-66614450D03*
X141007790Y-66114450D03*
X141007790Y-65614450D03*
X141007790Y-65114450D03*
X141007790Y-64614450D03*
X141007790Y-64114450D03*
X141007790Y-63614450D03*
X141007790Y-63114450D03*
X141007790Y-62614450D03*
X141007790Y-62114450D03*
X141007790Y-61614450D03*
X141007790Y-61114450D03*
X141007790Y-60614450D03*
D31*
X139345290Y-58951950D03*
X138845290Y-58951950D03*
X138345290Y-58951950D03*
X137845290Y-58951950D03*
X137345290Y-58951950D03*
X136845290Y-58951950D03*
X136345290Y-58951950D03*
X135845290Y-58951950D03*
X135345290Y-58951950D03*
X134845290Y-58951950D03*
X134345290Y-58951950D03*
X133845290Y-58951950D03*
X133345290Y-58951950D03*
X132845290Y-58951950D03*
X132345290Y-58951950D03*
X131845290Y-58951950D03*
X131345290Y-58951950D03*
X130845290Y-58951950D03*
X130345290Y-58951950D03*
X129845290Y-58951950D03*
X129345290Y-58951950D03*
X128845290Y-58951950D03*
X128345290Y-58951950D03*
X127845290Y-58951950D03*
X127345290Y-58951950D03*
%TD*%
D32*
%TO.C,U2*%
X125979290Y-75290450D03*
X124709290Y-75290450D03*
X123439290Y-75290450D03*
X122169290Y-75290450D03*
X120899290Y-75290450D03*
X119629290Y-75290450D03*
X118359290Y-75290450D03*
X117089290Y-75290450D03*
X117089290Y-80290450D03*
X118359290Y-80290450D03*
X119629290Y-80290450D03*
X120899290Y-80290450D03*
X122169290Y-80290450D03*
X123439290Y-80290450D03*
X124709290Y-80290450D03*
X125979290Y-80290450D03*
%TD*%
D18*
%TO.C,J6*%
X133476440Y-51308000D03*
D19*
X136016440Y-51308000D03*
X138556440Y-51308000D03*
X141096440Y-51308000D03*
%TD*%
D33*
%TO.C,SW1*%
X114206490Y-67637850D03*
X114206490Y-71737850D03*
X115806490Y-67637850D03*
X115806490Y-71737850D03*
%TD*%
D14*
%TO.C,U4*%
X192019200Y-56743600D03*
X181859200Y-56743600D03*
X176779200Y-56743600D03*
X174239200Y-102463600D03*
X184399200Y-102463600D03*
X194559200Y-102463600D03*
%TD*%
D34*
%TO.C,R1*%
X115928945Y-64392450D03*
X115928945Y-66042450D03*
%TD*%
M02*
