%TF.GenerationSoftware,KiCad,Pcbnew,6.0.4-6f826c9f35~116~ubuntu20.04.1*%
%TF.CreationDate,2022-05-18T13:41:16+03:00*%
%TF.ProjectId,oskar_head_rev1,6f736b61-725f-4686-9561-645f72657631,rev?*%
%TF.SameCoordinates,Original*%
%TF.FileFunction,Legend,Top*%
%TF.FilePolarity,Positive*%
%FSLAX46Y46*%
G04 Gerber Fmt 4.6, Leading zero omitted, Abs format (unit mm)*
G04 Created by KiCad (PCBNEW 6.0.4-6f826c9f35~116~ubuntu20.04.1) date 2022-05-18 13:41:16*
%MOMM*%
%LPD*%
G01*
G04 APERTURE LIST*
%ADD10C,0.150000*%
%ADD11C,0.120000*%
G04 APERTURE END LIST*
D10*
X120266104Y-51971380D02*
X120266104Y-50971380D01*
X120504200Y-50971380D01*
X120647057Y-51019000D01*
X120742295Y-51114238D01*
X120789914Y-51209476D01*
X120837533Y-51399952D01*
X120837533Y-51542809D01*
X120789914Y-51733285D01*
X120742295Y-51828523D01*
X120647057Y-51923761D01*
X120504200Y-51971380D01*
X120266104Y-51971380D01*
X121266104Y-51447571D02*
X121599438Y-51447571D01*
X121742295Y-51971380D02*
X121266104Y-51971380D01*
X121266104Y-50971380D01*
X121742295Y-50971380D01*
X122504200Y-51447571D02*
X122647057Y-51495190D01*
X122694676Y-51542809D01*
X122742295Y-51638047D01*
X122742295Y-51780904D01*
X122694676Y-51876142D01*
X122647057Y-51923761D01*
X122551819Y-51971380D01*
X122170866Y-51971380D01*
X122170866Y-50971380D01*
X122504200Y-50971380D01*
X122599438Y-51019000D01*
X122647057Y-51066619D01*
X122694676Y-51161857D01*
X122694676Y-51257095D01*
X122647057Y-51352333D01*
X122599438Y-51399952D01*
X122504200Y-51447571D01*
X122170866Y-51447571D01*
X123170866Y-50971380D02*
X123170866Y-51780904D01*
X123218485Y-51876142D01*
X123266104Y-51923761D01*
X123361342Y-51971380D01*
X123551819Y-51971380D01*
X123647057Y-51923761D01*
X123694676Y-51876142D01*
X123742295Y-51780904D01*
X123742295Y-50971380D01*
X124742295Y-51019000D02*
X124647057Y-50971380D01*
X124504200Y-50971380D01*
X124361342Y-51019000D01*
X124266104Y-51114238D01*
X124218485Y-51209476D01*
X124170866Y-51399952D01*
X124170866Y-51542809D01*
X124218485Y-51733285D01*
X124266104Y-51828523D01*
X124361342Y-51923761D01*
X124504200Y-51971380D01*
X124599438Y-51971380D01*
X124742295Y-51923761D01*
X124789914Y-51876142D01*
X124789914Y-51542809D01*
X124599438Y-51542809D01*
X121861342Y-53581380D02*
X121385152Y-53581380D01*
X121385152Y-52581380D01*
X122194676Y-53057571D02*
X122528009Y-53057571D01*
X122670866Y-53581380D02*
X122194676Y-53581380D01*
X122194676Y-52581380D01*
X122670866Y-52581380D01*
X123099438Y-53581380D02*
X123099438Y-52581380D01*
X123337533Y-52581380D01*
X123480390Y-52629000D01*
X123575628Y-52724238D01*
X123623247Y-52819476D01*
X123670866Y-53009952D01*
X123670866Y-53152809D01*
X123623247Y-53343285D01*
X123575628Y-53438523D01*
X123480390Y-53533761D01*
X123337533Y-53581380D01*
X123099438Y-53581380D01*
X153176552Y-113228380D02*
X152700361Y-113228380D01*
X152700361Y-112228380D01*
X154747980Y-113228380D02*
X154271790Y-113228380D01*
X154271790Y-112228380D01*
X155081314Y-113228380D02*
X155081314Y-112228380D01*
X156081314Y-112276000D02*
X155986076Y-112228380D01*
X155843219Y-112228380D01*
X155700361Y-112276000D01*
X155605123Y-112371238D01*
X155557504Y-112466476D01*
X155509885Y-112656952D01*
X155509885Y-112799809D01*
X155557504Y-112990285D01*
X155605123Y-113085523D01*
X155700361Y-113180761D01*
X155843219Y-113228380D01*
X155938457Y-113228380D01*
X156081314Y-113180761D01*
X156128933Y-113133142D01*
X156128933Y-112799809D01*
X155938457Y-112799809D01*
X156557504Y-113228380D02*
X156557504Y-112228380D01*
X156557504Y-112704571D02*
X157128933Y-112704571D01*
X157128933Y-113228380D02*
X157128933Y-112228380D01*
X157462266Y-112228380D02*
X158033695Y-112228380D01*
X157747980Y-113228380D02*
X157747980Y-112228380D01*
X120075485Y-102966780D02*
X119599295Y-102966780D01*
X119599295Y-101966780D01*
X120408819Y-102442971D02*
X120742152Y-102442971D01*
X120885009Y-102966780D02*
X120408819Y-102966780D01*
X120408819Y-101966780D01*
X120885009Y-101966780D01*
X121313580Y-102966780D02*
X121313580Y-101966780D01*
X121551676Y-101966780D01*
X121694533Y-102014400D01*
X121789771Y-102109638D01*
X121837390Y-102204876D01*
X121885009Y-102395352D01*
X121885009Y-102538209D01*
X121837390Y-102728685D01*
X121789771Y-102823923D01*
X121694533Y-102919161D01*
X121551676Y-102966780D01*
X121313580Y-102966780D01*
X122361200Y-101966780D02*
X122265961Y-102157257D01*
X122742152Y-102919161D02*
X122837390Y-102966780D01*
X123027866Y-102966780D01*
X123123104Y-102919161D01*
X123170723Y-102823923D01*
X123170723Y-102776304D01*
X123123104Y-102681066D01*
X123027866Y-102633447D01*
X122885009Y-102633447D01*
X122789771Y-102585828D01*
X122742152Y-102490590D01*
X122742152Y-102442971D01*
X122789771Y-102347733D01*
X122885009Y-102300114D01*
X123027866Y-102300114D01*
X123123104Y-102347733D01*
X126500190Y-55741866D02*
X126976380Y-55741866D01*
X126404952Y-56027580D02*
X126738285Y-55027580D01*
X127071619Y-56027580D01*
X127404952Y-55027580D02*
X127404952Y-55837104D01*
X127452571Y-55932342D01*
X127500190Y-55979961D01*
X127595428Y-56027580D01*
X127785904Y-56027580D01*
X127881142Y-55979961D01*
X127928761Y-55932342D01*
X127976380Y-55837104D01*
X127976380Y-55027580D01*
X128452571Y-56027580D02*
X128452571Y-55027580D01*
X128690666Y-55027580D01*
X128833523Y-55075200D01*
X128928761Y-55170438D01*
X128976380Y-55265676D01*
X129024000Y-55456152D01*
X129024000Y-55599009D01*
X128976380Y-55789485D01*
X128928761Y-55884723D01*
X128833523Y-55979961D01*
X128690666Y-56027580D01*
X128452571Y-56027580D01*
X129452571Y-56027580D02*
X129452571Y-55027580D01*
X130119238Y-55027580D02*
X130309714Y-55027580D01*
X130404952Y-55075200D01*
X130500190Y-55170438D01*
X130547809Y-55360914D01*
X130547809Y-55694247D01*
X130500190Y-55884723D01*
X130404952Y-55979961D01*
X130309714Y-56027580D01*
X130119238Y-56027580D01*
X130024000Y-55979961D01*
X129928761Y-55884723D01*
X129881142Y-55694247D01*
X129881142Y-55360914D01*
X129928761Y-55170438D01*
X130024000Y-55075200D01*
X130119238Y-55027580D01*
X146877352Y-113279180D02*
X146544019Y-112802990D01*
X146305923Y-113279180D02*
X146305923Y-112279180D01*
X146686876Y-112279180D01*
X146782114Y-112326800D01*
X146829733Y-112374419D01*
X146877352Y-112469657D01*
X146877352Y-112612514D01*
X146829733Y-112707752D01*
X146782114Y-112755371D01*
X146686876Y-112802990D01*
X146305923Y-112802990D01*
X148544019Y-113279180D02*
X148067828Y-113279180D01*
X148067828Y-112279180D01*
X148877352Y-113279180D02*
X148877352Y-112279180D01*
X149877352Y-112326800D02*
X149782114Y-112279180D01*
X149639257Y-112279180D01*
X149496400Y-112326800D01*
X149401161Y-112422038D01*
X149353542Y-112517276D01*
X149305923Y-112707752D01*
X149305923Y-112850609D01*
X149353542Y-113041085D01*
X149401161Y-113136323D01*
X149496400Y-113231561D01*
X149639257Y-113279180D01*
X149734495Y-113279180D01*
X149877352Y-113231561D01*
X149924971Y-113183942D01*
X149924971Y-112850609D01*
X149734495Y-112850609D01*
X150353542Y-113279180D02*
X150353542Y-112279180D01*
X150353542Y-112755371D02*
X150924971Y-112755371D01*
X150924971Y-113279180D02*
X150924971Y-112279180D01*
X151258304Y-112279180D02*
X151829733Y-112279180D01*
X151544019Y-113279180D02*
X151544019Y-112279180D01*
X137160190Y-105201980D02*
X136826857Y-104725790D01*
X136588761Y-105201980D02*
X136588761Y-104201980D01*
X136969714Y-104201980D01*
X137064952Y-104249600D01*
X137112571Y-104297219D01*
X137160190Y-104392457D01*
X137160190Y-104535314D01*
X137112571Y-104630552D01*
X137064952Y-104678171D01*
X136969714Y-104725790D01*
X136588761Y-104725790D01*
X138350666Y-105201980D02*
X138350666Y-104201980D01*
X139398285Y-105201980D02*
X139064952Y-104725790D01*
X138826857Y-105201980D02*
X138826857Y-104201980D01*
X139207809Y-104201980D01*
X139303047Y-104249600D01*
X139350666Y-104297219D01*
X139398285Y-104392457D01*
X139398285Y-104535314D01*
X139350666Y-104630552D01*
X139303047Y-104678171D01*
X139207809Y-104725790D01*
X138826857Y-104725790D01*
X139826857Y-105201980D02*
X139826857Y-104201980D01*
X140255428Y-105154361D02*
X140398285Y-105201980D01*
X140636380Y-105201980D01*
X140731619Y-105154361D01*
X140779238Y-105106742D01*
X140826857Y-105011504D01*
X140826857Y-104916266D01*
X140779238Y-104821028D01*
X140731619Y-104773409D01*
X140636380Y-104725790D01*
X140445904Y-104678171D01*
X140350666Y-104630552D01*
X140303047Y-104582933D01*
X140255428Y-104487695D01*
X140255428Y-104392457D01*
X140303047Y-104297219D01*
X140350666Y-104249600D01*
X140445904Y-104201980D01*
X140684000Y-104201980D01*
X140826857Y-104249600D01*
X168588376Y-108530561D02*
X168731233Y-108578180D01*
X168969328Y-108578180D01*
X169064566Y-108530561D01*
X169112185Y-108482942D01*
X169159804Y-108387704D01*
X169159804Y-108292466D01*
X169112185Y-108197228D01*
X169064566Y-108149609D01*
X168969328Y-108101990D01*
X168778852Y-108054371D01*
X168683614Y-108006752D01*
X168635995Y-107959133D01*
X168588376Y-107863895D01*
X168588376Y-107768657D01*
X168635995Y-107673419D01*
X168683614Y-107625800D01*
X168778852Y-107578180D01*
X169016947Y-107578180D01*
X169159804Y-107625800D01*
X169540757Y-108292466D02*
X170016947Y-108292466D01*
X169445519Y-108578180D02*
X169778852Y-107578180D01*
X170112185Y-108578180D01*
X171064566Y-107578180D02*
X171635995Y-107578180D01*
X171350280Y-108578180D02*
X171350280Y-107578180D01*
X172350280Y-108530561D02*
X172255042Y-108578180D01*
X172064566Y-108578180D01*
X171969328Y-108530561D01*
X171921709Y-108435323D01*
X171921709Y-108054371D01*
X171969328Y-107959133D01*
X172064566Y-107911514D01*
X172255042Y-107911514D01*
X172350280Y-107959133D01*
X172397900Y-108054371D01*
X172397900Y-108149609D01*
X171921709Y-108244847D01*
X173255042Y-108578180D02*
X173255042Y-108054371D01*
X173207423Y-107959133D01*
X173112185Y-107911514D01*
X172921709Y-107911514D01*
X172826471Y-107959133D01*
X173255042Y-108530561D02*
X173159804Y-108578180D01*
X172921709Y-108578180D01*
X172826471Y-108530561D01*
X172778852Y-108435323D01*
X172778852Y-108340085D01*
X172826471Y-108244847D01*
X172921709Y-108197228D01*
X173159804Y-108197228D01*
X173255042Y-108149609D01*
X174159804Y-108578180D02*
X174159804Y-107578180D01*
X174159804Y-108530561D02*
X174064566Y-108578180D01*
X173874090Y-108578180D01*
X173778852Y-108530561D01*
X173731233Y-108482942D01*
X173683614Y-108387704D01*
X173683614Y-108101990D01*
X173731233Y-108006752D01*
X173778852Y-107959133D01*
X173874090Y-107911514D01*
X174064566Y-107911514D01*
X174159804Y-107959133D01*
X175064566Y-107911514D02*
X175064566Y-108578180D01*
X174635995Y-107911514D02*
X174635995Y-108435323D01*
X174683614Y-108530561D01*
X174778852Y-108578180D01*
X174921709Y-108578180D01*
X175016947Y-108530561D01*
X175064566Y-108482942D01*
X175493138Y-108530561D02*
X175588376Y-108578180D01*
X175778852Y-108578180D01*
X175874090Y-108530561D01*
X175921709Y-108435323D01*
X175921709Y-108387704D01*
X175874090Y-108292466D01*
X175778852Y-108244847D01*
X175635995Y-108244847D01*
X175540757Y-108197228D01*
X175493138Y-108101990D01*
X175493138Y-108054371D01*
X175540757Y-107959133D01*
X175635995Y-107911514D01*
X175778852Y-107911514D01*
X175874090Y-107959133D01*
X176350280Y-108578180D02*
X176350280Y-107578180D01*
X176445519Y-108197228D02*
X176731233Y-108578180D01*
X176731233Y-107911514D02*
X176350280Y-108292466D01*
X177540757Y-108530561D02*
X177445519Y-108578180D01*
X177255042Y-108578180D01*
X177159804Y-108530561D01*
X177112185Y-108435323D01*
X177112185Y-108054371D01*
X177159804Y-107959133D01*
X177255042Y-107911514D01*
X177445519Y-107911514D01*
X177540757Y-107959133D01*
X177588376Y-108054371D01*
X177588376Y-108149609D01*
X177112185Y-108244847D01*
X177969328Y-108530561D02*
X178064566Y-108578180D01*
X178255042Y-108578180D01*
X178350280Y-108530561D01*
X178397900Y-108435323D01*
X178397900Y-108387704D01*
X178350280Y-108292466D01*
X178255042Y-108244847D01*
X178112185Y-108244847D01*
X178016947Y-108197228D01*
X177969328Y-108101990D01*
X177969328Y-108054371D01*
X178016947Y-107959133D01*
X178112185Y-107911514D01*
X178255042Y-107911514D01*
X178350280Y-107959133D01*
X178826471Y-108578180D02*
X178826471Y-107578180D01*
X178921709Y-108197228D02*
X179207423Y-108578180D01*
X179207423Y-107911514D02*
X178826471Y-108292466D01*
X180064566Y-107911514D02*
X180064566Y-108578180D01*
X179635995Y-107911514D02*
X179635995Y-108435323D01*
X179683614Y-108530561D01*
X179778852Y-108578180D01*
X179921709Y-108578180D01*
X180016947Y-108530561D01*
X180064566Y-108482942D01*
X180493138Y-108530561D02*
X180588376Y-108578180D01*
X180778852Y-108578180D01*
X180874090Y-108530561D01*
X180921709Y-108435323D01*
X180921709Y-108387704D01*
X180874090Y-108292466D01*
X180778852Y-108244847D01*
X180635995Y-108244847D01*
X180540757Y-108197228D01*
X180493138Y-108101990D01*
X180493138Y-108054371D01*
X180540757Y-107959133D01*
X180635995Y-107911514D01*
X180778852Y-107911514D01*
X180874090Y-107959133D01*
X182064566Y-108292466D02*
X182540757Y-108292466D01*
X181969328Y-108578180D02*
X182302661Y-107578180D01*
X182635995Y-108578180D01*
X182969328Y-108578180D02*
X182969328Y-107578180D01*
X182969328Y-108054371D02*
X183540757Y-108054371D01*
X183540757Y-108578180D02*
X183540757Y-107578180D01*
X184016947Y-108578180D02*
X184016947Y-107578180D01*
X184016947Y-108054371D02*
X184588376Y-108054371D01*
X184588376Y-108578180D02*
X184588376Y-107578180D01*
X185016947Y-108292466D02*
X185493138Y-108292466D01*
X184921709Y-108578180D02*
X185255042Y-107578180D01*
X185588376Y-108578180D01*
X185874090Y-108292466D02*
X186350280Y-108292466D01*
X185778852Y-108578180D02*
X186112185Y-107578180D01*
X186445519Y-108578180D01*
X168826471Y-109188180D02*
X169016947Y-109188180D01*
X169112185Y-109235800D01*
X169207423Y-109331038D01*
X169255042Y-109521514D01*
X169255042Y-109854847D01*
X169207423Y-110045323D01*
X169112185Y-110140561D01*
X169016947Y-110188180D01*
X168826471Y-110188180D01*
X168731233Y-110140561D01*
X168635995Y-110045323D01*
X168588376Y-109854847D01*
X168588376Y-109521514D01*
X168635995Y-109331038D01*
X168731233Y-109235800D01*
X168826471Y-109188180D01*
X169635995Y-110140561D02*
X169778852Y-110188180D01*
X170016947Y-110188180D01*
X170112185Y-110140561D01*
X170159804Y-110092942D01*
X170207423Y-109997704D01*
X170207423Y-109902466D01*
X170159804Y-109807228D01*
X170112185Y-109759609D01*
X170016947Y-109711990D01*
X169826471Y-109664371D01*
X169731233Y-109616752D01*
X169683614Y-109569133D01*
X169635995Y-109473895D01*
X169635995Y-109378657D01*
X169683614Y-109283419D01*
X169731233Y-109235800D01*
X169826471Y-109188180D01*
X170064566Y-109188180D01*
X170207423Y-109235800D01*
X170635995Y-110188180D02*
X170635995Y-109188180D01*
X171207423Y-110188180D02*
X170778852Y-109616752D01*
X171207423Y-109188180D02*
X170635995Y-109759609D01*
X171588376Y-109902466D02*
X172064566Y-109902466D01*
X171493138Y-110188180D02*
X171826471Y-109188180D01*
X172159804Y-110188180D01*
X173064566Y-110188180D02*
X172731233Y-109711990D01*
X172493138Y-110188180D02*
X172493138Y-109188180D01*
X172874090Y-109188180D01*
X172969328Y-109235800D01*
X173016947Y-109283419D01*
X173064566Y-109378657D01*
X173064566Y-109521514D01*
X173016947Y-109616752D01*
X172969328Y-109664371D01*
X172874090Y-109711990D01*
X172493138Y-109711990D01*
X174255042Y-110188180D02*
X174255042Y-109188180D01*
X174731233Y-110188180D02*
X174731233Y-109188180D01*
X175207423Y-110188180D02*
X175207423Y-109188180D01*
X176445519Y-110188180D02*
X176445519Y-109188180D01*
X176445519Y-109664371D02*
X177016947Y-109664371D01*
X177016947Y-110188180D02*
X177016947Y-109188180D01*
X177874090Y-110140561D02*
X177778852Y-110188180D01*
X177588376Y-110188180D01*
X177493138Y-110140561D01*
X177445519Y-110045323D01*
X177445519Y-109664371D01*
X177493138Y-109569133D01*
X177588376Y-109521514D01*
X177778852Y-109521514D01*
X177874090Y-109569133D01*
X177921709Y-109664371D01*
X177921709Y-109759609D01*
X177445519Y-109854847D01*
X178778852Y-110188180D02*
X178778852Y-109664371D01*
X178731233Y-109569133D01*
X178635995Y-109521514D01*
X178445519Y-109521514D01*
X178350280Y-109569133D01*
X178778852Y-110140561D02*
X178683614Y-110188180D01*
X178445519Y-110188180D01*
X178350280Y-110140561D01*
X178302661Y-110045323D01*
X178302661Y-109950085D01*
X178350280Y-109854847D01*
X178445519Y-109807228D01*
X178683614Y-109807228D01*
X178778852Y-109759609D01*
X179683614Y-110188180D02*
X179683614Y-109188180D01*
X179683614Y-110140561D02*
X179588376Y-110188180D01*
X179397900Y-110188180D01*
X179302661Y-110140561D01*
X179255042Y-110092942D01*
X179207423Y-109997704D01*
X179207423Y-109711990D01*
X179255042Y-109616752D01*
X179302661Y-109569133D01*
X179397900Y-109521514D01*
X179588376Y-109521514D01*
X179683614Y-109569133D01*
X181493138Y-110092942D02*
X181445519Y-110140561D01*
X181302661Y-110188180D01*
X181207423Y-110188180D01*
X181064566Y-110140561D01*
X180969328Y-110045323D01*
X180921709Y-109950085D01*
X180874090Y-109759609D01*
X180874090Y-109616752D01*
X180921709Y-109426276D01*
X180969328Y-109331038D01*
X181064566Y-109235800D01*
X181207423Y-109188180D01*
X181302661Y-109188180D01*
X181445519Y-109235800D01*
X181493138Y-109283419D01*
X182064566Y-110188180D02*
X181969328Y-110140561D01*
X181921709Y-110092942D01*
X181874090Y-109997704D01*
X181874090Y-109711990D01*
X181921709Y-109616752D01*
X181969328Y-109569133D01*
X182064566Y-109521514D01*
X182207423Y-109521514D01*
X182302661Y-109569133D01*
X182350280Y-109616752D01*
X182397900Y-109711990D01*
X182397900Y-109997704D01*
X182350280Y-110092942D01*
X182302661Y-110140561D01*
X182207423Y-110188180D01*
X182064566Y-110188180D01*
X182826471Y-109521514D02*
X182826471Y-110188180D01*
X182826471Y-109616752D02*
X182874090Y-109569133D01*
X182969328Y-109521514D01*
X183112185Y-109521514D01*
X183207423Y-109569133D01*
X183255042Y-109664371D01*
X183255042Y-110188180D01*
X183588376Y-109521514D02*
X183969328Y-109521514D01*
X183731233Y-109188180D02*
X183731233Y-110045323D01*
X183778852Y-110140561D01*
X183874090Y-110188180D01*
X183969328Y-110188180D01*
X184302661Y-110188180D02*
X184302661Y-109521514D01*
X184302661Y-109711990D02*
X184350280Y-109616752D01*
X184397900Y-109569133D01*
X184493138Y-109521514D01*
X184588376Y-109521514D01*
X185064566Y-110188180D02*
X184969328Y-110140561D01*
X184921709Y-110092942D01*
X184874090Y-109997704D01*
X184874090Y-109711990D01*
X184921709Y-109616752D01*
X184969328Y-109569133D01*
X185064566Y-109521514D01*
X185207423Y-109521514D01*
X185302661Y-109569133D01*
X185350280Y-109616752D01*
X185397900Y-109711990D01*
X185397900Y-109997704D01*
X185350280Y-110092942D01*
X185302661Y-110140561D01*
X185207423Y-110188180D01*
X185064566Y-110188180D01*
X185969328Y-110188180D02*
X185874090Y-110140561D01*
X185826471Y-110045323D01*
X185826471Y-109188180D01*
X186493138Y-110188180D02*
X186397900Y-110140561D01*
X186350280Y-110045323D01*
X186350280Y-109188180D01*
X187255042Y-110140561D02*
X187159804Y-110188180D01*
X186969328Y-110188180D01*
X186874090Y-110140561D01*
X186826471Y-110045323D01*
X186826471Y-109664371D01*
X186874090Y-109569133D01*
X186969328Y-109521514D01*
X187159804Y-109521514D01*
X187255042Y-109569133D01*
X187302661Y-109664371D01*
X187302661Y-109759609D01*
X186826471Y-109854847D01*
X187731233Y-110188180D02*
X187731233Y-109521514D01*
X187731233Y-109711990D02*
X187778852Y-109616752D01*
X187826471Y-109569133D01*
X187921709Y-109521514D01*
X188016947Y-109521514D01*
X169207423Y-111798180D02*
X168874090Y-111321990D01*
X168635995Y-111798180D02*
X168635995Y-110798180D01*
X169016947Y-110798180D01*
X169112185Y-110845800D01*
X169159804Y-110893419D01*
X169207423Y-110988657D01*
X169207423Y-111131514D01*
X169159804Y-111226752D01*
X169112185Y-111274371D01*
X169016947Y-111321990D01*
X168635995Y-111321990D01*
X170016947Y-111750561D02*
X169921709Y-111798180D01*
X169731233Y-111798180D01*
X169635995Y-111750561D01*
X169588376Y-111655323D01*
X169588376Y-111274371D01*
X169635995Y-111179133D01*
X169731233Y-111131514D01*
X169921709Y-111131514D01*
X170016947Y-111179133D01*
X170064566Y-111274371D01*
X170064566Y-111369609D01*
X169588376Y-111464847D01*
X170397900Y-111131514D02*
X170635995Y-111798180D01*
X170874090Y-111131514D01*
X172540757Y-111798180D02*
X171969328Y-111798180D01*
X172255042Y-111798180D02*
X172255042Y-110798180D01*
X172159804Y-110941038D01*
X172064566Y-111036276D01*
X171969328Y-111083895D01*
X173731233Y-111417228D02*
X174493138Y-111417228D01*
X175921709Y-110798180D02*
X176016947Y-110798180D01*
X176112185Y-110845800D01*
X176159804Y-110893419D01*
X176207423Y-110988657D01*
X176255042Y-111179133D01*
X176255042Y-111417228D01*
X176207423Y-111607704D01*
X176159804Y-111702942D01*
X176112185Y-111750561D01*
X176016947Y-111798180D01*
X175921709Y-111798180D01*
X175826471Y-111750561D01*
X175778852Y-111702942D01*
X175731233Y-111607704D01*
X175683614Y-111417228D01*
X175683614Y-111179133D01*
X175731233Y-110988657D01*
X175778852Y-110893419D01*
X175826471Y-110845800D01*
X175921709Y-110798180D01*
X177159804Y-110798180D02*
X176683614Y-110798180D01*
X176635995Y-111274371D01*
X176683614Y-111226752D01*
X176778852Y-111179133D01*
X177016947Y-111179133D01*
X177112185Y-111226752D01*
X177159804Y-111274371D01*
X177207423Y-111369609D01*
X177207423Y-111607704D01*
X177159804Y-111702942D01*
X177112185Y-111750561D01*
X177016947Y-111798180D01*
X176778852Y-111798180D01*
X176683614Y-111750561D01*
X176635995Y-111702942D01*
X177635995Y-111702942D02*
X177683614Y-111750561D01*
X177635995Y-111798180D01*
X177588376Y-111750561D01*
X177635995Y-111702942D01*
X177635995Y-111798180D01*
X178064566Y-110893419D02*
X178112185Y-110845800D01*
X178207423Y-110798180D01*
X178445519Y-110798180D01*
X178540757Y-110845800D01*
X178588376Y-110893419D01*
X178635995Y-110988657D01*
X178635995Y-111083895D01*
X178588376Y-111226752D01*
X178016947Y-111798180D01*
X178635995Y-111798180D01*
X179255042Y-110798180D02*
X179350280Y-110798180D01*
X179445519Y-110845800D01*
X179493138Y-110893419D01*
X179540757Y-110988657D01*
X179588376Y-111179133D01*
X179588376Y-111417228D01*
X179540757Y-111607704D01*
X179493138Y-111702942D01*
X179445519Y-111750561D01*
X179350280Y-111798180D01*
X179255042Y-111798180D01*
X179159804Y-111750561D01*
X179112185Y-111702942D01*
X179064566Y-111607704D01*
X179016947Y-111417228D01*
X179016947Y-111179133D01*
X179064566Y-110988657D01*
X179112185Y-110893419D01*
X179159804Y-110845800D01*
X179255042Y-110798180D01*
X179969328Y-110893419D02*
X180016947Y-110845800D01*
X180112185Y-110798180D01*
X180350280Y-110798180D01*
X180445519Y-110845800D01*
X180493138Y-110893419D01*
X180540757Y-110988657D01*
X180540757Y-111083895D01*
X180493138Y-111226752D01*
X179921709Y-111798180D01*
X180540757Y-111798180D01*
X180921709Y-110893419D02*
X180969328Y-110845800D01*
X181064566Y-110798180D01*
X181302661Y-110798180D01*
X181397900Y-110845800D01*
X181445519Y-110893419D01*
X181493138Y-110988657D01*
X181493138Y-111083895D01*
X181445519Y-111226752D01*
X180874090Y-111798180D01*
X181493138Y-111798180D01*
X169207423Y-113408180D02*
X168874090Y-112931990D01*
X168635995Y-113408180D02*
X168635995Y-112408180D01*
X169016947Y-112408180D01*
X169112185Y-112455800D01*
X169159804Y-112503419D01*
X169207423Y-112598657D01*
X169207423Y-112741514D01*
X169159804Y-112836752D01*
X169112185Y-112884371D01*
X169016947Y-112931990D01*
X168635995Y-112931990D01*
X170064566Y-113408180D02*
X170064566Y-112884371D01*
X170016947Y-112789133D01*
X169921709Y-112741514D01*
X169731233Y-112741514D01*
X169635995Y-112789133D01*
X170064566Y-113360561D02*
X169969328Y-113408180D01*
X169731233Y-113408180D01*
X169635995Y-113360561D01*
X169588376Y-113265323D01*
X169588376Y-113170085D01*
X169635995Y-113074847D01*
X169731233Y-113027228D01*
X169969328Y-113027228D01*
X170064566Y-112979609D01*
X170540757Y-112741514D02*
X170540757Y-113408180D01*
X170540757Y-112836752D02*
X170588376Y-112789133D01*
X170683614Y-112741514D01*
X170826471Y-112741514D01*
X170921709Y-112789133D01*
X170969328Y-112884371D01*
X170969328Y-113408180D01*
X171874090Y-113408180D02*
X171874090Y-112408180D01*
X171874090Y-113360561D02*
X171778852Y-113408180D01*
X171588376Y-113408180D01*
X171493138Y-113360561D01*
X171445519Y-113312942D01*
X171397900Y-113217704D01*
X171397900Y-112931990D01*
X171445519Y-112836752D01*
X171493138Y-112789133D01*
X171588376Y-112741514D01*
X171778852Y-112741514D01*
X171874090Y-112789133D01*
X172493138Y-113408180D02*
X172397900Y-113360561D01*
X172350280Y-113312942D01*
X172302661Y-113217704D01*
X172302661Y-112931990D01*
X172350280Y-112836752D01*
X172397900Y-112789133D01*
X172493138Y-112741514D01*
X172635995Y-112741514D01*
X172731233Y-112789133D01*
X172778852Y-112836752D01*
X172826471Y-112931990D01*
X172826471Y-113217704D01*
X172778852Y-113312942D01*
X172731233Y-113360561D01*
X172635995Y-113408180D01*
X172493138Y-113408180D01*
X174016947Y-113408180D02*
X174016947Y-112408180D01*
X174016947Y-112884371D02*
X174588376Y-112884371D01*
X174588376Y-113408180D02*
X174588376Y-112408180D01*
X175064566Y-113408180D02*
X175064566Y-112741514D01*
X175064566Y-112408180D02*
X175016947Y-112455800D01*
X175064566Y-112503419D01*
X175112185Y-112455800D01*
X175064566Y-112408180D01*
X175064566Y-112503419D01*
X175540757Y-112741514D02*
X175540757Y-113408180D01*
X175540757Y-112836752D02*
X175588376Y-112789133D01*
X175683614Y-112741514D01*
X175826471Y-112741514D01*
X175921709Y-112789133D01*
X175969328Y-112884371D01*
X175969328Y-113408180D01*
X176445519Y-112741514D02*
X176445519Y-113408180D01*
X176445519Y-112836752D02*
X176493138Y-112789133D01*
X176588376Y-112741514D01*
X176731233Y-112741514D01*
X176826471Y-112789133D01*
X176874090Y-112884371D01*
X176874090Y-113408180D01*
X138679466Y-55983142D02*
X138631847Y-56030761D01*
X138488990Y-56078380D01*
X138393752Y-56078380D01*
X138250895Y-56030761D01*
X138155657Y-55935523D01*
X138108038Y-55840285D01*
X138060419Y-55649809D01*
X138060419Y-55506952D01*
X138108038Y-55316476D01*
X138155657Y-55221238D01*
X138250895Y-55126000D01*
X138393752Y-55078380D01*
X138488990Y-55078380D01*
X138631847Y-55126000D01*
X138679466Y-55173619D01*
X139298514Y-55078380D02*
X139488990Y-55078380D01*
X139584228Y-55126000D01*
X139679466Y-55221238D01*
X139727085Y-55411714D01*
X139727085Y-55745047D01*
X139679466Y-55935523D01*
X139584228Y-56030761D01*
X139488990Y-56078380D01*
X139298514Y-56078380D01*
X139203276Y-56030761D01*
X139108038Y-55935523D01*
X139060419Y-55745047D01*
X139060419Y-55411714D01*
X139108038Y-55221238D01*
X139203276Y-55126000D01*
X139298514Y-55078380D01*
X140155657Y-56078380D02*
X140155657Y-55078380D01*
X140488990Y-55792666D01*
X140822323Y-55078380D01*
X140822323Y-56078380D01*
X141298514Y-56078380D02*
X141298514Y-55078380D01*
X141631847Y-55792666D01*
X141965180Y-55078380D01*
X141965180Y-56078380D01*
X142393752Y-56030761D02*
X142536609Y-56078380D01*
X142774704Y-56078380D01*
X142869942Y-56030761D01*
X142917561Y-55983142D01*
X142965180Y-55887904D01*
X142965180Y-55792666D01*
X142917561Y-55697428D01*
X142869942Y-55649809D01*
X142774704Y-55602190D01*
X142584228Y-55554571D01*
X142488990Y-55506952D01*
X142441371Y-55459333D01*
X142393752Y-55364095D01*
X142393752Y-55268857D01*
X142441371Y-55173619D01*
X142488990Y-55126000D01*
X142584228Y-55078380D01*
X142822323Y-55078380D01*
X142965180Y-55126000D01*
X137210990Y-97073980D02*
X136734800Y-97073980D01*
X136734800Y-96073980D01*
X138306228Y-97073980D02*
X138306228Y-96073980D01*
X139353847Y-97073980D02*
X139020514Y-96597790D01*
X138782419Y-97073980D02*
X138782419Y-96073980D01*
X139163371Y-96073980D01*
X139258609Y-96121600D01*
X139306228Y-96169219D01*
X139353847Y-96264457D01*
X139353847Y-96407314D01*
X139306228Y-96502552D01*
X139258609Y-96550171D01*
X139163371Y-96597790D01*
X138782419Y-96597790D01*
X139782419Y-97073980D02*
X139782419Y-96073980D01*
X140210990Y-97026361D02*
X140353847Y-97073980D01*
X140591942Y-97073980D01*
X140687180Y-97026361D01*
X140734800Y-96978742D01*
X140782419Y-96883504D01*
X140782419Y-96788266D01*
X140734800Y-96693028D01*
X140687180Y-96645409D01*
X140591942Y-96597790D01*
X140401466Y-96550171D01*
X140306228Y-96502552D01*
X140258609Y-96454933D01*
X140210990Y-96359695D01*
X140210990Y-96264457D01*
X140258609Y-96169219D01*
X140306228Y-96121600D01*
X140401466Y-96073980D01*
X140639561Y-96073980D01*
X140782419Y-96121600D01*
X125684400Y-105151180D02*
X125208209Y-105151180D01*
X125208209Y-104151180D01*
X126779638Y-104627371D02*
X127112971Y-104627371D01*
X127255828Y-105151180D02*
X126779638Y-105151180D01*
X126779638Y-104151180D01*
X127255828Y-104151180D01*
X127874876Y-104674990D02*
X127874876Y-105151180D01*
X127541542Y-104151180D02*
X127874876Y-104674990D01*
X128208209Y-104151180D01*
X128541542Y-104627371D02*
X128874876Y-104627371D01*
X129017733Y-105151180D02*
X128541542Y-105151180D01*
X128541542Y-104151180D01*
X129017733Y-104151180D01*
X129779638Y-104627371D02*
X129922495Y-104674990D01*
X129970114Y-104722609D01*
X130017733Y-104817847D01*
X130017733Y-104960704D01*
X129970114Y-105055942D01*
X129922495Y-105103561D01*
X129827257Y-105151180D01*
X129446304Y-105151180D01*
X129446304Y-104151180D01*
X129779638Y-104151180D01*
X129874876Y-104198800D01*
X129922495Y-104246419D01*
X129970114Y-104341657D01*
X129970114Y-104436895D01*
X129922495Y-104532133D01*
X129874876Y-104579752D01*
X129779638Y-104627371D01*
X129446304Y-104627371D01*
X131017733Y-105151180D02*
X130684400Y-104674990D01*
X130446304Y-105151180D02*
X130446304Y-104151180D01*
X130827257Y-104151180D01*
X130922495Y-104198800D01*
X130970114Y-104246419D01*
X131017733Y-104341657D01*
X131017733Y-104484514D01*
X130970114Y-104579752D01*
X130922495Y-104627371D01*
X130827257Y-104674990D01*
X130446304Y-104674990D01*
X131636780Y-104151180D02*
X131827257Y-104151180D01*
X131922495Y-104198800D01*
X132017733Y-104294038D01*
X132065352Y-104484514D01*
X132065352Y-104817847D01*
X132017733Y-105008323D01*
X131922495Y-105103561D01*
X131827257Y-105151180D01*
X131636780Y-105151180D01*
X131541542Y-105103561D01*
X131446304Y-105008323D01*
X131398685Y-104817847D01*
X131398685Y-104484514D01*
X131446304Y-104294038D01*
X131541542Y-104198800D01*
X131636780Y-104151180D01*
X132398685Y-104151180D02*
X132636780Y-105151180D01*
X132827257Y-104436895D01*
X133017733Y-105151180D01*
X133255828Y-104151180D01*
X125582800Y-96972380D02*
X125249466Y-96496190D01*
X125011371Y-96972380D02*
X125011371Y-95972380D01*
X125392323Y-95972380D01*
X125487561Y-96020000D01*
X125535180Y-96067619D01*
X125582800Y-96162857D01*
X125582800Y-96305714D01*
X125535180Y-96400952D01*
X125487561Y-96448571D01*
X125392323Y-96496190D01*
X125011371Y-96496190D01*
X126773276Y-96448571D02*
X127106609Y-96448571D01*
X127249466Y-96972380D02*
X126773276Y-96972380D01*
X126773276Y-95972380D01*
X127249466Y-95972380D01*
X127868514Y-96496190D02*
X127868514Y-96972380D01*
X127535180Y-95972380D02*
X127868514Y-96496190D01*
X128201847Y-95972380D01*
X128535180Y-96448571D02*
X128868514Y-96448571D01*
X129011371Y-96972380D02*
X128535180Y-96972380D01*
X128535180Y-95972380D01*
X129011371Y-95972380D01*
X129773276Y-96448571D02*
X129916133Y-96496190D01*
X129963752Y-96543809D01*
X130011371Y-96639047D01*
X130011371Y-96781904D01*
X129963752Y-96877142D01*
X129916133Y-96924761D01*
X129820895Y-96972380D01*
X129439942Y-96972380D01*
X129439942Y-95972380D01*
X129773276Y-95972380D01*
X129868514Y-96020000D01*
X129916133Y-96067619D01*
X129963752Y-96162857D01*
X129963752Y-96258095D01*
X129916133Y-96353333D01*
X129868514Y-96400952D01*
X129773276Y-96448571D01*
X129439942Y-96448571D01*
X131011371Y-96972380D02*
X130678038Y-96496190D01*
X130439942Y-96972380D02*
X130439942Y-95972380D01*
X130820895Y-95972380D01*
X130916133Y-96020000D01*
X130963752Y-96067619D01*
X131011371Y-96162857D01*
X131011371Y-96305714D01*
X130963752Y-96400952D01*
X130916133Y-96448571D01*
X130820895Y-96496190D01*
X130439942Y-96496190D01*
X131630419Y-95972380D02*
X131820895Y-95972380D01*
X131916133Y-96020000D01*
X132011371Y-96115238D01*
X132058990Y-96305714D01*
X132058990Y-96639047D01*
X132011371Y-96829523D01*
X131916133Y-96924761D01*
X131820895Y-96972380D01*
X131630419Y-96972380D01*
X131535180Y-96924761D01*
X131439942Y-96829523D01*
X131392323Y-96639047D01*
X131392323Y-96305714D01*
X131439942Y-96115238D01*
X131535180Y-96020000D01*
X131630419Y-95972380D01*
X132392323Y-95972380D02*
X132630419Y-96972380D01*
X132820895Y-96258095D01*
X133011371Y-96972380D01*
X133249466Y-95972380D01*
%TO.C,J2*%
X146443771Y-49992742D02*
X147586628Y-49992742D01*
X147015200Y-50564171D02*
X147015200Y-49421314D01*
X159435371Y-51059542D02*
X160578228Y-51059542D01*
D11*
%TO.C,D3*%
X120473800Y-53912300D02*
X120473800Y-56197300D01*
X121943800Y-53912300D02*
X120473800Y-53912300D01*
X121943800Y-56197300D02*
X121943800Y-53912300D01*
%TO.C,D2*%
X121997800Y-53912300D02*
X121997800Y-56197300D01*
X123467800Y-53912300D02*
X121997800Y-53912300D01*
X123467800Y-56197300D02*
X123467800Y-53912300D01*
%TO.C,D1*%
X123521800Y-53912400D02*
X123521800Y-56197400D01*
X124991800Y-53912400D02*
X123521800Y-53912400D01*
X124991800Y-56197400D02*
X124991800Y-53912400D01*
%TO.C,R5*%
X121731300Y-58657258D02*
X121731300Y-58182742D01*
X120686300Y-58657258D02*
X120686300Y-58182742D01*
%TO.C,R4*%
X123255300Y-58657258D02*
X123255300Y-58182742D01*
X122210300Y-58657258D02*
X122210300Y-58182742D01*
%TO.C,R3*%
X124779300Y-58657258D02*
X124779300Y-58182742D01*
X123734300Y-58657258D02*
X123734300Y-58182742D01*
%TO.C,J5*%
X124168000Y-103674400D02*
X118148000Y-103674400D01*
X124168000Y-104254400D02*
X123568000Y-104254400D01*
X123568000Y-110934400D02*
X124168000Y-110934400D01*
X124168000Y-111514400D02*
X124168000Y-103674400D01*
X123568000Y-106794400D02*
X123568000Y-108394400D01*
X118148000Y-109884400D02*
X119148000Y-109884400D01*
X119148000Y-105054400D02*
X119148000Y-110134400D01*
X119678000Y-105304400D02*
X119678000Y-109884400D01*
X119678000Y-109884400D02*
X119148000Y-110134400D01*
X118148000Y-105054400D02*
X119148000Y-105054400D01*
X123568000Y-104254400D02*
X123568000Y-105854400D01*
X119148000Y-105054400D02*
X119678000Y-105304400D01*
X123568000Y-108394400D02*
X124168000Y-108394400D01*
X124168000Y-109334400D02*
X123568000Y-109334400D01*
X118148000Y-103674400D02*
X118148000Y-111514400D01*
X118148000Y-111514400D02*
X124168000Y-111514400D01*
X123138000Y-103384400D02*
X119138000Y-103384400D01*
X123568000Y-109334400D02*
X123568000Y-110934400D01*
X118148000Y-105304400D02*
X119148000Y-105304400D01*
X119148000Y-110134400D02*
X118148000Y-110134400D01*
X123568000Y-105854400D02*
X124168000Y-105854400D01*
X124168000Y-106794400D02*
X123568000Y-106794400D01*
%TO.C,U3*%
X145897600Y-54203600D02*
X145897600Y-105003600D01*
X171297600Y-105003600D02*
X171297600Y-54203600D01*
X145897600Y-105003600D02*
X171297600Y-105003600D01*
X171297600Y-54203600D02*
X145897600Y-54203600D01*
X145897600Y-54203600D02*
X145897600Y-54203600D01*
X145897600Y-54203600D02*
X171297600Y-54203600D01*
X171297600Y-54203600D02*
X171297600Y-54203600D01*
%TO.C,C8*%
X128174890Y-77378470D02*
X128174890Y-77659630D01*
X127154890Y-77378470D02*
X127154890Y-77659630D01*
%TO.C,M1*%
X142730440Y-103797200D02*
X142730440Y-97777200D01*
X138010440Y-98377200D02*
X139610440Y-98377200D01*
X141350440Y-102797200D02*
X141350440Y-103797200D01*
X135470440Y-97777200D02*
X135470440Y-98377200D01*
X142150440Y-98377200D02*
X142150440Y-97777200D01*
X136270440Y-102797200D02*
X141350440Y-102797200D01*
X135470440Y-98377200D02*
X137070440Y-98377200D01*
X140550440Y-98377200D02*
X142150440Y-98377200D01*
X136270440Y-102797200D02*
X136520440Y-102267200D01*
X136520440Y-102267200D02*
X141100440Y-102267200D01*
X138010440Y-97777200D02*
X138010440Y-98377200D01*
X141100440Y-103797200D02*
X141100440Y-102797200D01*
X134890440Y-97777200D02*
X134890440Y-103797200D01*
X137070440Y-98377200D02*
X137070440Y-97777200D01*
X140550440Y-97777200D02*
X140550440Y-98377200D01*
X141100440Y-102267200D02*
X141350440Y-102797200D01*
X142730440Y-97777200D02*
X134890440Y-97777200D01*
X136520440Y-103797200D02*
X136520440Y-102797200D01*
X134890440Y-103797200D02*
X142730440Y-103797200D01*
X136270440Y-103797200D02*
X136270440Y-102797200D01*
X139610440Y-98377200D02*
X139610440Y-97777200D01*
X134600440Y-98807200D02*
X134600440Y-102807200D01*
%TO.C,C2*%
X123386490Y-66069230D02*
X123386490Y-65788070D01*
X124406490Y-66069230D02*
X124406490Y-65788070D01*
%TO.C,C4*%
X120053420Y-62181200D02*
X119772260Y-62181200D01*
X120053420Y-61161200D02*
X119772260Y-61161200D01*
%TO.C,J3*%
X154275600Y-105671200D02*
X154275600Y-106671200D01*
X156315600Y-107201200D02*
X154275600Y-107201200D01*
X155765600Y-111091200D02*
X155765600Y-111691200D01*
X156315600Y-105671200D02*
X156315600Y-106671200D01*
X157365600Y-111691200D02*
X157365600Y-111091200D01*
X156565600Y-106671200D02*
X156315600Y-107201200D01*
X154025600Y-106671200D02*
X154025600Y-105671200D01*
X157945600Y-105671200D02*
X152645600Y-105671200D01*
X157945600Y-111691200D02*
X157945600Y-105671200D01*
X156565600Y-106671200D02*
X154025600Y-106671200D01*
X156565600Y-105671200D02*
X156565600Y-106671200D01*
X157365600Y-111091200D02*
X155765600Y-111091200D01*
X158235600Y-110661200D02*
X158235600Y-106661200D01*
X154825600Y-111091200D02*
X153225600Y-111091200D01*
X154825600Y-111691200D02*
X154825600Y-111091200D01*
X153225600Y-111091200D02*
X153225600Y-111691200D01*
X152645600Y-111691200D02*
X157945600Y-111691200D01*
X154275600Y-107201200D02*
X154025600Y-106671200D01*
X152645600Y-105671200D02*
X152645600Y-111691200D01*
%TO.C,M3*%
X142730440Y-111549600D02*
X142730440Y-105529600D01*
X136520440Y-110019600D02*
X141100440Y-110019600D01*
X141100440Y-111549600D02*
X141100440Y-110549600D01*
X134600440Y-106559600D02*
X134600440Y-110559600D01*
X136270440Y-110549600D02*
X141350440Y-110549600D01*
X141100440Y-110019600D02*
X141350440Y-110549600D01*
X135470440Y-106129600D02*
X137070440Y-106129600D01*
X135470440Y-105529600D02*
X135470440Y-106129600D01*
X136270440Y-111549600D02*
X136270440Y-110549600D01*
X142730440Y-105529600D02*
X134890440Y-105529600D01*
X141350440Y-110549600D02*
X141350440Y-111549600D01*
X137070440Y-106129600D02*
X137070440Y-105529600D01*
X140550440Y-105529600D02*
X140550440Y-106129600D01*
X138010440Y-105529600D02*
X138010440Y-106129600D01*
X142150440Y-106129600D02*
X142150440Y-105529600D01*
X140550440Y-106129600D02*
X142150440Y-106129600D01*
X139610440Y-106129600D02*
X139610440Y-105529600D01*
X134890440Y-105529600D02*
X134890440Y-111549600D01*
X136270440Y-110549600D02*
X136520440Y-110019600D01*
X134890440Y-111549600D02*
X142730440Y-111549600D01*
X136520440Y-111549600D02*
X136520440Y-110549600D01*
X138010440Y-106129600D02*
X139610440Y-106129600D01*
%TO.C,C7*%
X133250890Y-77659630D02*
X133250890Y-77378470D01*
X134270890Y-77659630D02*
X134270890Y-77378470D01*
%TO.C,J7*%
X129539290Y-52778250D02*
X129789290Y-53308250D01*
X127499290Y-52778250D02*
X129539290Y-52778250D01*
X128989290Y-48888250D02*
X130589290Y-48888250D01*
X127249290Y-53308250D02*
X129789290Y-53308250D01*
X126449290Y-48888250D02*
X128049290Y-48888250D01*
X125579290Y-49318250D02*
X125579290Y-53318250D01*
X129539290Y-54308250D02*
X129539290Y-53308250D01*
X128049290Y-48888250D02*
X128049290Y-48288250D01*
X131169290Y-48288250D02*
X125869290Y-48288250D01*
X129789290Y-53308250D02*
X129789290Y-54308250D01*
X127249290Y-53308250D02*
X127499290Y-52778250D01*
X128989290Y-48288250D02*
X128989290Y-48888250D01*
X125869290Y-48288250D02*
X125869290Y-54308250D01*
X126449290Y-48288250D02*
X126449290Y-48888250D01*
X125869290Y-54308250D02*
X131169290Y-54308250D01*
X131169290Y-54308250D02*
X131169290Y-48288250D01*
X127499290Y-54308250D02*
X127499290Y-53308250D01*
X130589290Y-48888250D02*
X130589290Y-48288250D01*
X127249290Y-54308250D02*
X127249290Y-53308250D01*
%TO.C,C3*%
X136447620Y-57660000D02*
X136728780Y-57660000D01*
X136447620Y-56640000D02*
X136728780Y-56640000D01*
%TO.C,J4*%
X148475600Y-111691200D02*
X148475600Y-111091200D01*
X151595600Y-111691200D02*
X151595600Y-105671200D01*
X146295600Y-105671200D02*
X146295600Y-111691200D01*
X149415600Y-111091200D02*
X149415600Y-111691200D01*
X150215600Y-106671200D02*
X149965600Y-107201200D01*
X146295600Y-111691200D02*
X151595600Y-111691200D01*
X151595600Y-105671200D02*
X146295600Y-105671200D01*
X147925600Y-107201200D02*
X147675600Y-106671200D01*
X151015600Y-111091200D02*
X149415600Y-111091200D01*
X147675600Y-106671200D02*
X147675600Y-105671200D01*
X150215600Y-106671200D02*
X147675600Y-106671200D01*
X151015600Y-111691200D02*
X151015600Y-111091200D01*
X150215600Y-105671200D02*
X150215600Y-106671200D01*
X151885600Y-110661200D02*
X151885600Y-106661200D01*
X146875600Y-111091200D02*
X146875600Y-111691200D01*
X148475600Y-111091200D02*
X146875600Y-111091200D01*
X149965600Y-107201200D02*
X147925600Y-107201200D01*
X149965600Y-105671200D02*
X149965600Y-106671200D01*
X147925600Y-105671200D02*
X147925600Y-106671200D01*
%TO.C,C11*%
X178550180Y-52779200D02*
X178269020Y-52779200D01*
X178550180Y-53799200D02*
X178269020Y-53799200D01*
%TO.C,C6*%
X127464310Y-57650250D02*
X127745470Y-57650250D01*
X127464310Y-56630250D02*
X127745470Y-56630250D01*
%TO.C,M4*%
X128358440Y-97777200D02*
X128358440Y-98377200D01*
X131448440Y-102267200D02*
X131698440Y-102797200D01*
X131448440Y-103797200D02*
X131448440Y-102797200D01*
X125238440Y-103797200D02*
X133078440Y-103797200D01*
X126618440Y-102797200D02*
X126868440Y-102267200D01*
X129958440Y-98377200D02*
X129958440Y-97777200D01*
X133078440Y-103797200D02*
X133078440Y-97777200D01*
X126618440Y-103797200D02*
X126618440Y-102797200D01*
X126618440Y-102797200D02*
X131698440Y-102797200D01*
X127418440Y-98377200D02*
X127418440Y-97777200D01*
X125818440Y-97777200D02*
X125818440Y-98377200D01*
X133078440Y-97777200D02*
X125238440Y-97777200D01*
X125238440Y-97777200D02*
X125238440Y-103797200D01*
X126868440Y-102267200D02*
X131448440Y-102267200D01*
X131698440Y-102797200D02*
X131698440Y-103797200D01*
X124948440Y-98807200D02*
X124948440Y-102807200D01*
X125818440Y-98377200D02*
X127418440Y-98377200D01*
X132498440Y-98377200D02*
X132498440Y-97777200D01*
X126868440Y-103797200D02*
X126868440Y-102797200D01*
X128358440Y-98377200D02*
X129958440Y-98377200D01*
X130898440Y-97777200D02*
X130898440Y-98377200D01*
X130898440Y-98377200D02*
X132498440Y-98377200D01*
%TO.C,Y1*%
X132812890Y-75464250D02*
X128612890Y-75464250D01*
X132812890Y-78964250D02*
X132812890Y-75464250D01*
%TO.C,C1*%
X144121600Y-65645420D02*
X144121600Y-65926580D01*
X143101600Y-65645420D02*
X143101600Y-65926580D01*
%TO.C,R2*%
X130890148Y-57662750D02*
X130415632Y-57662750D01*
X130890148Y-56617750D02*
X130415632Y-56617750D01*
%TO.C,M2*%
X126817640Y-111549600D02*
X126817640Y-110549600D01*
X127367640Y-106129600D02*
X127367640Y-105529600D01*
X130847640Y-105529600D02*
X130847640Y-106129600D01*
X129907640Y-106129600D02*
X129907640Y-105529600D01*
X132447640Y-106129600D02*
X132447640Y-105529600D01*
X128307640Y-106129600D02*
X129907640Y-106129600D01*
X125187640Y-111549600D02*
X133027640Y-111549600D01*
X126817640Y-110019600D02*
X131397640Y-110019600D01*
X126567640Y-111549600D02*
X126567640Y-110549600D01*
X126567640Y-110549600D02*
X131647640Y-110549600D01*
X131397640Y-111549600D02*
X131397640Y-110549600D01*
X133027640Y-105529600D02*
X125187640Y-105529600D01*
X131647640Y-110549600D02*
X131647640Y-111549600D01*
X125187640Y-105529600D02*
X125187640Y-111549600D01*
X125767640Y-105529600D02*
X125767640Y-106129600D01*
X131397640Y-110019600D02*
X131647640Y-110549600D01*
X125767640Y-106129600D02*
X127367640Y-106129600D01*
X133027640Y-111549600D02*
X133027640Y-105529600D01*
X130847640Y-106129600D02*
X132447640Y-106129600D01*
X126567640Y-110549600D02*
X126817640Y-110019600D01*
X124897640Y-106559600D02*
X124897640Y-110559600D01*
X128307640Y-105529600D02*
X128307640Y-106129600D01*
%TO.C,C9*%
X146505200Y-52718580D02*
X146505200Y-52437420D01*
X147525200Y-52718580D02*
X147525200Y-52437420D01*
%TO.C,C10*%
X134429820Y-55065200D02*
X134148660Y-55065200D01*
X134429820Y-56085200D02*
X134148660Y-56085200D01*
%TO.C,J1*%
X117387945Y-73288450D02*
X122587945Y-73288450D01*
X117387945Y-65608450D02*
X117387945Y-73288450D01*
X117387945Y-63008450D02*
X118717945Y-63008450D01*
X117387945Y-64338450D02*
X117387945Y-63008450D01*
X119987945Y-63008450D02*
X122587945Y-63008450D01*
X122587945Y-63008450D02*
X122587945Y-73288450D01*
X117387945Y-65608450D02*
X119987945Y-65608450D01*
X119987945Y-65608450D02*
X119987945Y-63008450D01*
%TO.C,J2*%
X158716800Y-49542400D02*
X157016800Y-48242400D01*
X158716800Y-52362400D02*
X158716800Y-49542400D01*
X148296800Y-53662400D02*
X148296800Y-48242400D01*
X158716800Y-52362400D02*
X157016800Y-53662400D01*
X157016800Y-53662400D02*
X148296800Y-53662400D01*
X157016800Y-48242400D02*
X148296800Y-48242400D01*
%TO.C,U1*%
X139755290Y-73724450D02*
X140455290Y-73724450D01*
X126935290Y-59504450D02*
X126235290Y-59504450D01*
X139755290Y-59504450D02*
X140455290Y-59504450D01*
X140455290Y-59504450D02*
X140455290Y-60204450D01*
X126935290Y-73724450D02*
X126235290Y-73724450D01*
X140455290Y-73724450D02*
X140455290Y-73024450D01*
X126235290Y-60204450D02*
X124945290Y-60204450D01*
X126235290Y-73724450D02*
X126235290Y-73024450D01*
X126235290Y-59504450D02*
X126235290Y-60204450D01*
%TO.C,U2*%
X116474290Y-77790450D02*
X116474290Y-79740450D01*
X116474290Y-77790450D02*
X116474290Y-75840450D01*
X126594290Y-77790450D02*
X126594290Y-79740450D01*
X126594290Y-77790450D02*
X126594290Y-74290450D01*
%TO.C,J6*%
X135216440Y-48278000D02*
X135216440Y-48878000D01*
X141896440Y-48878000D02*
X141896440Y-48278000D01*
X137756440Y-48878000D02*
X139356440Y-48878000D01*
X136816440Y-48878000D02*
X136816440Y-48278000D01*
X132096440Y-54298000D02*
X142476440Y-54298000D01*
X133476440Y-53298000D02*
X141096440Y-53298000D01*
X132676440Y-48278000D02*
X132676440Y-48878000D01*
X132676440Y-48878000D02*
X134276440Y-48878000D01*
X133476440Y-53298000D02*
X133726440Y-52768000D01*
X139356440Y-48878000D02*
X139356440Y-48278000D01*
X137756440Y-48278000D02*
X137756440Y-48878000D01*
X141096440Y-53298000D02*
X141096440Y-54298000D01*
X140846440Y-54298000D02*
X140846440Y-53298000D01*
X140296440Y-48878000D02*
X141896440Y-48878000D01*
X142476440Y-54298000D02*
X142476440Y-48278000D01*
X134276440Y-48878000D02*
X134276440Y-48278000D01*
X142476440Y-48278000D02*
X132096440Y-48278000D01*
X131806440Y-49308000D02*
X131806440Y-53308000D01*
X140846440Y-52768000D02*
X141096440Y-53298000D01*
X135216440Y-48878000D02*
X136816440Y-48878000D01*
X133726440Y-54298000D02*
X133726440Y-53298000D01*
X133476440Y-54298000D02*
X133476440Y-53298000D01*
X140296440Y-48278000D02*
X140296440Y-48878000D01*
X132096440Y-48278000D02*
X132096440Y-54298000D01*
X133726440Y-52768000D02*
X140846440Y-52768000D01*
%TO.C,SW1*%
X116556490Y-71887850D02*
X116556490Y-67487850D01*
X113456490Y-67487850D02*
X113456490Y-71887850D01*
X115056490Y-67487850D02*
X114956490Y-67487850D01*
X115056490Y-71887850D02*
X114956490Y-71887850D01*
%TO.C,U4*%
X197099200Y-105003600D02*
X197099200Y-54203600D01*
X171699200Y-105003600D02*
X197099200Y-105003600D01*
X171699200Y-54203600D02*
X171699200Y-105003600D01*
X197099200Y-54203600D02*
X171699200Y-54203600D01*
X171699200Y-54203600D02*
X171699200Y-54203600D01*
X171699200Y-54203600D02*
X197099200Y-54203600D01*
X197099200Y-54203600D02*
X197099200Y-54203600D01*
%TO.C,R1*%
X115406445Y-64980192D02*
X115406445Y-65454708D01*
X116451445Y-64980192D02*
X116451445Y-65454708D01*
%TD*%
M02*
