%TF.GenerationSoftware,KiCad,Pcbnew,6.0.4-6f826c9f35~116~ubuntu20.04.1*%
%TF.CreationDate,2022-05-18T13:41:16+03:00*%
%TF.ProjectId,oskar_head_rev1,6f736b61-725f-4686-9561-645f72657631,rev?*%
%TF.SameCoordinates,Original*%
%TF.FileFunction,Soldermask,Bot*%
%TF.FilePolarity,Negative*%
%FSLAX46Y46*%
G04 Gerber Fmt 4.6, Leading zero omitted, Abs format (unit mm)*
G04 Created by KiCad (PCBNEW 6.0.4-6f826c9f35~116~ubuntu20.04.1) date 2022-05-18 13:41:16*
%MOMM*%
%LPD*%
G01*
G04 APERTURE LIST*
G04 Aperture macros list*
%AMRoundRect*
0 Rectangle with rounded corners*
0 $1 Rounding radius*
0 $2 $3 $4 $5 $6 $7 $8 $9 X,Y pos of 4 corners*
0 Add a 4 corners polygon primitive as box body*
4,1,4,$2,$3,$4,$5,$6,$7,$8,$9,$2,$3,0*
0 Add four circle primitives for the rounded corners*
1,1,$1+$1,$2,$3*
1,1,$1+$1,$4,$5*
1,1,$1+$1,$6,$7*
1,1,$1+$1,$8,$9*
0 Add four rect primitives between the rounded corners*
20,1,$1+$1,$2,$3,$4,$5,0*
20,1,$1+$1,$4,$5,$6,$7,0*
20,1,$1+$1,$6,$7,$8,$9,0*
20,1,$1+$1,$8,$9,$2,$3,0*%
G04 Aperture macros list end*
%ADD10RoundRect,0.250000X-0.845000X0.620000X-0.845000X-0.620000X0.845000X-0.620000X0.845000X0.620000X0*%
%ADD11O,2.190000X1.740000*%
%ADD12C,2.000000*%
%ADD13C,3.600000*%
%ADD14C,5.600000*%
%ADD15RoundRect,0.250000X-0.620000X-0.845000X0.620000X-0.845000X0.620000X0.845000X-0.620000X0.845000X0*%
%ADD16O,1.740000X2.190000*%
%ADD17RoundRect,0.250000X0.620000X0.845000X-0.620000X0.845000X-0.620000X-0.845000X0.620000X-0.845000X0*%
%ADD18R,1.700000X1.700000*%
%ADD19O,1.700000X1.700000*%
%ADD20R,3.800000X3.800000*%
%ADD21C,3.800000*%
G04 APERTURE END LIST*
D10*
%TO.C,J5*%
X121138000Y-105054400D03*
D11*
X121138000Y-107594400D03*
X121138000Y-110134400D03*
%TD*%
D12*
%TO.C,U3*%
X166217600Y-56743600D03*
X156057600Y-56743600D03*
X150977600Y-56743600D03*
X148437600Y-102463600D03*
X158597600Y-102463600D03*
X168757600Y-102463600D03*
%TD*%
D13*
%TO.C,H2*%
X114046000Y-50647600D03*
D14*
X114046000Y-50647600D03*
%TD*%
D15*
%TO.C,M1*%
X136270440Y-100807200D03*
D16*
X138810440Y-100807200D03*
X141350440Y-100807200D03*
%TD*%
D17*
%TO.C,J3*%
X156565600Y-108661200D03*
D16*
X154025600Y-108661200D03*
%TD*%
D15*
%TO.C,M3*%
X136270440Y-108559600D03*
D16*
X138810440Y-108559600D03*
X141350440Y-108559600D03*
%TD*%
D15*
%TO.C,J7*%
X127249290Y-51318250D03*
D16*
X129789290Y-51318250D03*
%TD*%
D17*
%TO.C,J4*%
X150215600Y-108661200D03*
D16*
X147675600Y-108661200D03*
%TD*%
D15*
%TO.C,M4*%
X126618440Y-100807200D03*
D16*
X129158440Y-100807200D03*
X131698440Y-100807200D03*
%TD*%
D14*
%TO.C,H4*%
X192684400Y-50647600D03*
D13*
X192684400Y-50647600D03*
%TD*%
D14*
%TO.C,H1*%
X114046000Y-111861600D03*
D13*
X114046000Y-111861600D03*
%TD*%
D15*
%TO.C,M2*%
X126567640Y-108559600D03*
D16*
X129107640Y-108559600D03*
X131647640Y-108559600D03*
%TD*%
D18*
%TO.C,J1*%
X118717945Y-64338450D03*
D19*
X121257945Y-64338450D03*
X118717945Y-66878450D03*
X121257945Y-66878450D03*
X118717945Y-69418450D03*
X121257945Y-69418450D03*
X118717945Y-71958450D03*
X121257945Y-71958450D03*
%TD*%
D14*
%TO.C,H3*%
X192684400Y-111861600D03*
D13*
X192684400Y-111861600D03*
%TD*%
D20*
%TO.C,J2*%
X156006800Y-50952400D03*
D21*
X151006800Y-50952400D03*
%TD*%
D15*
%TO.C,J6*%
X133476440Y-51308000D03*
D16*
X136016440Y-51308000D03*
X138556440Y-51308000D03*
X141096440Y-51308000D03*
%TD*%
D12*
%TO.C,U4*%
X192019200Y-56743600D03*
X181859200Y-56743600D03*
X176779200Y-56743600D03*
X174239200Y-102463600D03*
X184399200Y-102463600D03*
X194559200Y-102463600D03*
%TD*%
M02*
