%TF.GenerationSoftware,KiCad,Pcbnew,6.0.4-6f826c9f35~116~ubuntu20.04.1*%
%TF.CreationDate,2022-05-18T13:41:16+03:00*%
%TF.ProjectId,oskar_head_rev1,6f736b61-725f-4686-9561-645f72657631,rev?*%
%TF.SameCoordinates,Original*%
%TF.FileFunction,Copper,L2,Bot*%
%TF.FilePolarity,Positive*%
%FSLAX46Y46*%
G04 Gerber Fmt 4.6, Leading zero omitted, Abs format (unit mm)*
G04 Created by KiCad (PCBNEW 6.0.4-6f826c9f35~116~ubuntu20.04.1) date 2022-05-18 13:41:16*
%MOMM*%
%LPD*%
G01*
G04 APERTURE LIST*
G04 Aperture macros list*
%AMRoundRect*
0 Rectangle with rounded corners*
0 $1 Rounding radius*
0 $2 $3 $4 $5 $6 $7 $8 $9 X,Y pos of 4 corners*
0 Add a 4 corners polygon primitive as box body*
4,1,4,$2,$3,$4,$5,$6,$7,$8,$9,$2,$3,0*
0 Add four circle primitives for the rounded corners*
1,1,$1+$1,$2,$3*
1,1,$1+$1,$4,$5*
1,1,$1+$1,$6,$7*
1,1,$1+$1,$8,$9*
0 Add four rect primitives between the rounded corners*
20,1,$1+$1,$2,$3,$4,$5,0*
20,1,$1+$1,$4,$5,$6,$7,0*
20,1,$1+$1,$6,$7,$8,$9,0*
20,1,$1+$1,$8,$9,$2,$3,0*%
G04 Aperture macros list end*
%TA.AperFunction,ComponentPad*%
%ADD10RoundRect,0.250000X-0.845000X0.620000X-0.845000X-0.620000X0.845000X-0.620000X0.845000X0.620000X0*%
%TD*%
%TA.AperFunction,ComponentPad*%
%ADD11O,2.190000X1.740000*%
%TD*%
%TA.AperFunction,ComponentPad*%
%ADD12C,2.000000*%
%TD*%
%TA.AperFunction,ComponentPad*%
%ADD13C,3.600000*%
%TD*%
%TA.AperFunction,ConnectorPad*%
%ADD14C,5.600000*%
%TD*%
%TA.AperFunction,ComponentPad*%
%ADD15RoundRect,0.250000X-0.620000X-0.845000X0.620000X-0.845000X0.620000X0.845000X-0.620000X0.845000X0*%
%TD*%
%TA.AperFunction,ComponentPad*%
%ADD16O,1.740000X2.190000*%
%TD*%
%TA.AperFunction,ComponentPad*%
%ADD17RoundRect,0.250000X0.620000X0.845000X-0.620000X0.845000X-0.620000X-0.845000X0.620000X-0.845000X0*%
%TD*%
%TA.AperFunction,ComponentPad*%
%ADD18R,1.700000X1.700000*%
%TD*%
%TA.AperFunction,ComponentPad*%
%ADD19O,1.700000X1.700000*%
%TD*%
%TA.AperFunction,ComponentPad*%
%ADD20R,3.800000X3.800000*%
%TD*%
%TA.AperFunction,ComponentPad*%
%ADD21C,3.800000*%
%TD*%
%TA.AperFunction,ViaPad*%
%ADD22C,0.400000*%
%TD*%
%TA.AperFunction,ViaPad*%
%ADD23C,0.800000*%
%TD*%
%TA.AperFunction,Conductor*%
%ADD24C,0.250000*%
%TD*%
%TA.AperFunction,Conductor*%
%ADD25C,0.200000*%
%TD*%
%TA.AperFunction,Conductor*%
%ADD26C,1.000000*%
%TD*%
G04 APERTURE END LIST*
D10*
%TO.P,J5,1,Pin_1*%
%TO.N,GND*%
X121138000Y-105054400D03*
D11*
%TO.P,J5,2,Pin_2*%
%TO.N,/PX_LED*%
X121138000Y-107594400D03*
%TO.P,J5,3,Pin_3*%
%TO.N,+5V*%
X121138000Y-110134400D03*
%TD*%
D12*
%TO.P,U3,1,Ctrl*%
%TO.N,+5V*%
X166217600Y-56743600D03*
%TO.P,U3,2,GND*%
%TO.N,GND*%
X156057600Y-56743600D03*
%TO.P,U3,3,Vin*%
%TO.N,+48V*%
X150977600Y-56743600D03*
%TO.P,U3,4,+Vo*%
%TO.N,+15V*%
X148437600Y-102463600D03*
%TO.P,U3,5,0V*%
%TO.N,GND*%
X158597600Y-102463600D03*
%TO.P,U3,6,Trim/-Vo*%
%TO.N,unconnected-(U3-Pad6)*%
X168757600Y-102463600D03*
%TD*%
D13*
%TO.P,H2,1,1*%
%TO.N,GND*%
X114046000Y-50647600D03*
D14*
X114046000Y-50647600D03*
%TD*%
D15*
%TO.P,M1,1,PWM*%
%TO.N,/L_IRIS*%
X136270440Y-100807200D03*
D16*
%TO.P,M1,2,+*%
%TO.N,+5V*%
X138810440Y-100807200D03*
%TO.P,M1,3,-*%
%TO.N,GND*%
X141350440Y-100807200D03*
%TD*%
D17*
%TO.P,J3,1,Pin_1*%
%TO.N,/L_LIGHT*%
X156565600Y-108661200D03*
D16*
%TO.P,J3,2,Pin_2*%
%TO.N,+15V*%
X154025600Y-108661200D03*
%TD*%
D15*
%TO.P,M3,1,PWM*%
%TO.N,/R_IRIS*%
X136270440Y-108559600D03*
D16*
%TO.P,M3,2,+*%
%TO.N,+5V*%
X138810440Y-108559600D03*
%TO.P,M3,3,-*%
%TO.N,GND*%
X141350440Y-108559600D03*
%TD*%
D15*
%TO.P,J7,1,Pin_1*%
%TO.N,Net-(J7-Pad1)*%
X127249290Y-51318250D03*
D16*
%TO.P,J7,2,Pin_2*%
%TO.N,GND*%
X129789290Y-51318250D03*
%TD*%
D17*
%TO.P,J4,1,Pin_1*%
%TO.N,/R_LIGHT*%
X150215600Y-108661200D03*
D16*
%TO.P,J4,2,Pin_2*%
%TO.N,+15V*%
X147675600Y-108661200D03*
%TD*%
D15*
%TO.P,M4,1,PWM*%
%TO.N,/R_BROW*%
X126618440Y-100807200D03*
D16*
%TO.P,M4,2,+*%
%TO.N,+5V*%
X129158440Y-100807200D03*
%TO.P,M4,3,-*%
%TO.N,GND*%
X131698440Y-100807200D03*
%TD*%
D14*
%TO.P,H4,1,1*%
%TO.N,GND*%
X192684400Y-50647600D03*
D13*
X192684400Y-50647600D03*
%TD*%
D14*
%TO.P,H1,1,1*%
%TO.N,GND*%
X114046000Y-111861600D03*
D13*
X114046000Y-111861600D03*
%TD*%
D15*
%TO.P,M2,1,PWM*%
%TO.N,/L_BROW*%
X126567640Y-108559600D03*
D16*
%TO.P,M2,2,+*%
%TO.N,+5V*%
X129107640Y-108559600D03*
%TO.P,M2,3,-*%
%TO.N,GND*%
X131647640Y-108559600D03*
%TD*%
D18*
%TO.P,J1,1,Pin_1*%
%TO.N,+5V*%
X118717945Y-64338450D03*
D19*
%TO.P,J1,2,Pin_2*%
%TO.N,GND*%
X121257945Y-64338450D03*
%TO.P,J1,3,Pin_3*%
%TO.N,/SCK*%
X118717945Y-66878450D03*
%TO.P,J1,4,Pin_4*%
%TO.N,/RESET*%
X121257945Y-66878450D03*
%TO.P,J1,5,Pin_5*%
%TO.N,/MISO*%
X118717945Y-69418450D03*
%TO.P,J1,6,Pin_6*%
%TO.N,/RESET*%
X121257945Y-69418450D03*
%TO.P,J1,7,Pin_7*%
%TO.N,/MOSI*%
X118717945Y-71958450D03*
%TO.P,J1,8,Pin_8*%
%TO.N,unconnected-(J1-Pad8)*%
X121257945Y-71958450D03*
%TD*%
D14*
%TO.P,H3,1,1*%
%TO.N,GND*%
X192684400Y-111861600D03*
D13*
X192684400Y-111861600D03*
%TD*%
D20*
%TO.P,J2,1,Pin_1*%
%TO.N,GND*%
X156006800Y-50952400D03*
D21*
%TO.P,J2,2,Pin_2*%
%TO.N,+48V*%
X151006800Y-50952400D03*
%TD*%
D15*
%TO.P,J6,1,Pin_1*%
%TO.N,+5V*%
X133476440Y-51308000D03*
D16*
%TO.P,J6,2,Pin_2*%
%TO.N,GND*%
X136016440Y-51308000D03*
%TO.P,J6,3,Pin_3*%
%TO.N,/SCL*%
X138556440Y-51308000D03*
%TO.P,J6,4,Pin_4*%
%TO.N,/SDA*%
X141096440Y-51308000D03*
%TD*%
D12*
%TO.P,U4,1,Ctrl*%
%TO.N,+5V*%
X192019200Y-56743600D03*
%TO.P,U4,2,GND*%
%TO.N,GND*%
X181859200Y-56743600D03*
%TO.P,U4,3,Vin*%
%TO.N,+48V*%
X176779200Y-56743600D03*
%TO.P,U4,4,+Vo*%
%TO.N,+5V*%
X174239200Y-102463600D03*
%TO.P,U4,5,0V*%
%TO.N,GND*%
X184399200Y-102463600D03*
%TO.P,U4,6,Trim/-Vo*%
%TO.N,unconnected-(U4-Pad6)*%
X194559200Y-102463600D03*
%TD*%
D22*
%TO.N,+5V*%
X143137260Y-67564000D03*
X123896490Y-65153650D03*
X139906909Y-67857867D03*
D23*
%TO.N,GND*%
X131925890Y-78164250D03*
X129512890Y-76264250D03*
%TO.N,/PX_LED*%
X127254000Y-61163200D03*
D22*
%TO.N,/R_IRIS*%
X127296899Y-71839653D03*
X127380440Y-99314000D03*
%TO.N,/R_BROW*%
X126821640Y-72288400D03*
D23*
%TO.N,/RESET*%
X129281290Y-72227850D03*
D22*
%TO.N,/L_BROW*%
X133374840Y-75590400D03*
%TO.N,/L_IRIS*%
X134086040Y-75590400D03*
D23*
%TO.N,/MISO*%
X127122290Y-71059450D03*
D22*
%TO.N,/SCL*%
X145323522Y-63210478D03*
X142110221Y-73657781D03*
D23*
X135620790Y-75895200D03*
X137083240Y-75721820D03*
%TO.N,/R_LIGHT*%
X146812000Y-94843600D03*
X142237760Y-94843600D03*
%TO.N,/L_LIGHT*%
X142112440Y-96164400D03*
X150317200Y-96164400D03*
D22*
%TO.N,/SDA*%
X142445498Y-74170298D03*
X145999200Y-63144400D03*
%TO.N,Net-(J7-Pad1)*%
X131495240Y-55930800D03*
%TD*%
D24*
%TO.N,+5V*%
X123537179Y-65512961D02*
X123896490Y-65153650D01*
X143137260Y-67564000D02*
X140200776Y-67564000D01*
X140200776Y-67564000D02*
X139906909Y-67857867D01*
X118717945Y-64338450D02*
X119892456Y-65512961D01*
X119892456Y-65512961D02*
X123537179Y-65512961D01*
%TO.N,GND*%
X131925890Y-78164250D02*
X131412890Y-78164250D01*
X131412890Y-78164250D02*
X129512890Y-76264250D01*
%TO.N,/PX_LED*%
X130005801Y-71890601D02*
X130005801Y-72527953D01*
X123596400Y-106476800D02*
X122913120Y-107160080D01*
X127254000Y-61163200D02*
X127254000Y-69138800D01*
X127904951Y-102168249D02*
X123596400Y-106476800D01*
X121138000Y-107594400D02*
X122478800Y-107594400D01*
X127904951Y-74628803D02*
X127904951Y-102168249D01*
X130005801Y-72527953D02*
X127904951Y-74628803D01*
X122478800Y-107594400D02*
X123596400Y-106476800D01*
X127254000Y-69138800D02*
X130005801Y-71890601D01*
D25*
%TO.N,/R_IRIS*%
X127380440Y-99314000D02*
X127380440Y-71923194D01*
X127380440Y-71923194D02*
X127296899Y-71839653D01*
%TO.N,/R_BROW*%
X126821640Y-100604000D02*
X126618440Y-100807200D01*
X126821640Y-72288400D02*
X126821640Y-100604000D01*
D24*
%TO.N,/RESET*%
X129303450Y-72215996D02*
X129293144Y-72215996D01*
X121257945Y-69418450D02*
X126505904Y-69418450D01*
X121257945Y-66878450D02*
X121257945Y-69418450D01*
X126505904Y-69418450D02*
X129303450Y-72215996D01*
X129293144Y-72215996D02*
X129281290Y-72227850D01*
D25*
%TO.N,/L_BROW*%
X133399840Y-75615400D02*
X133374840Y-75590400D01*
X133399840Y-101727400D02*
X133399840Y-75615400D01*
D24*
X126567640Y-108204000D02*
X126567640Y-108559600D01*
D25*
X126567640Y-108559600D02*
X133399840Y-101727400D01*
%TO.N,/L_IRIS*%
X134086040Y-75590400D02*
X133799360Y-75877080D01*
X133799360Y-98336120D02*
X136270440Y-100807200D01*
X133799360Y-75877080D02*
X133799360Y-98336120D01*
D24*
%TO.N,/MISO*%
X120083434Y-70783939D02*
X126846779Y-70783939D01*
X126846779Y-70783939D02*
X127122290Y-71059450D01*
X118717945Y-69418450D02*
X120083434Y-70783939D01*
%TO.N,/SCL*%
X145338800Y-70429202D02*
X142110221Y-73657781D01*
X145338800Y-67259200D02*
X145338800Y-70429202D01*
X135794170Y-75721820D02*
X135620790Y-75895200D01*
X145338800Y-63225756D02*
X145338800Y-67259200D01*
X145323522Y-63210478D02*
X145338800Y-63225756D01*
X137083240Y-75721820D02*
X135794170Y-75721820D01*
D26*
%TO.N,/R_LIGHT*%
X146812000Y-94843600D02*
X142237760Y-94843600D01*
%TO.N,/L_LIGHT*%
X150317200Y-96164400D02*
X142112440Y-96164400D01*
D24*
%TO.N,/SDA*%
X145948400Y-64363600D02*
X145948400Y-66802000D01*
X145948400Y-63195200D02*
X145948400Y-66802000D01*
X145999200Y-63144400D02*
X145948400Y-63195200D01*
X145948400Y-66802000D02*
X145948400Y-70667396D01*
X145948400Y-70667396D02*
X142445498Y-74170298D01*
D25*
%TO.N,Net-(J7-Pad1)*%
X127249290Y-51318250D02*
X127249290Y-51684850D01*
X127249290Y-51684850D02*
X131495240Y-55930800D01*
%TD*%
%TA.AperFunction,Conductor*%
%TO.N,GND*%
G36*
X113490419Y-47162902D02*
G01*
X113536912Y-47216558D01*
X113547016Y-47286832D01*
X113517522Y-47351412D01*
X113457796Y-47389796D01*
X113449140Y-47392008D01*
X113169586Y-47452961D01*
X113163011Y-47454772D01*
X112829683Y-47566302D01*
X112823361Y-47568805D01*
X112504034Y-47715679D01*
X112497991Y-47718865D01*
X112196401Y-47899363D01*
X112190755Y-47903171D01*
X111910408Y-48115196D01*
X111905211Y-48119587D01*
X111903972Y-48120755D01*
X111895950Y-48134462D01*
X111895986Y-48135304D01*
X111901037Y-48143426D01*
X114033190Y-50275580D01*
X114047131Y-50283192D01*
X114048966Y-50283061D01*
X114055580Y-50278810D01*
X114800470Y-49533920D01*
X116188798Y-48145591D01*
X116196412Y-48131647D01*
X116196344Y-48130690D01*
X116191834Y-48123871D01*
X116190418Y-48122665D01*
X115910813Y-47909664D01*
X115905187Y-47905840D01*
X115604214Y-47724281D01*
X115598202Y-47721084D01*
X115279370Y-47573087D01*
X115273070Y-47570567D01*
X114940129Y-47457873D01*
X114933551Y-47456037D01*
X114644304Y-47391913D01*
X114582127Y-47357641D01*
X114548349Y-47295195D01*
X114553695Y-47224400D01*
X114596467Y-47167733D01*
X114663085Y-47143186D01*
X114671575Y-47142900D01*
X192060698Y-47142900D01*
X192128819Y-47162902D01*
X192175312Y-47216558D01*
X192185416Y-47286832D01*
X192155922Y-47351412D01*
X192096196Y-47389796D01*
X192087540Y-47392008D01*
X191807986Y-47452961D01*
X191801411Y-47454772D01*
X191468083Y-47566302D01*
X191461761Y-47568805D01*
X191142434Y-47715679D01*
X191136391Y-47718865D01*
X190834801Y-47899363D01*
X190829155Y-47903171D01*
X190548808Y-48115196D01*
X190543611Y-48119587D01*
X190542372Y-48120755D01*
X190534350Y-48134462D01*
X190534386Y-48135304D01*
X190539437Y-48143426D01*
X192671590Y-50275580D01*
X192685531Y-50283192D01*
X192687366Y-50283061D01*
X192693980Y-50278810D01*
X194827198Y-48145591D01*
X194834812Y-48131647D01*
X194834744Y-48130689D01*
X194830236Y-48123872D01*
X194828818Y-48122665D01*
X194549213Y-47909664D01*
X194543587Y-47905840D01*
X194242614Y-47724281D01*
X194236602Y-47721084D01*
X193917770Y-47573087D01*
X193911470Y-47570567D01*
X193578529Y-47457873D01*
X193571951Y-47456037D01*
X193282704Y-47391913D01*
X193220527Y-47357641D01*
X193186749Y-47295195D01*
X193192095Y-47224400D01*
X193234867Y-47167733D01*
X193301485Y-47143186D01*
X193309975Y-47142900D01*
X196698100Y-47142900D01*
X196766221Y-47162902D01*
X196812714Y-47216558D01*
X196824100Y-47268900D01*
X196824100Y-114833900D01*
X196804098Y-114902021D01*
X196750442Y-114948514D01*
X196698100Y-114959900D01*
X194404671Y-114959900D01*
X194336550Y-114939898D01*
X194290057Y-114886242D01*
X194279953Y-114815968D01*
X194309447Y-114751388D01*
X194340342Y-114725559D01*
X194524395Y-114616276D01*
X194530059Y-114612484D01*
X194811132Y-114401449D01*
X194816358Y-114397064D01*
X194826013Y-114388028D01*
X194834082Y-114374350D01*
X194834054Y-114373624D01*
X194828912Y-114365323D01*
X192697210Y-112233620D01*
X192683269Y-112226008D01*
X192681434Y-112226139D01*
X192674820Y-112230390D01*
X190541174Y-114364037D01*
X190533560Y-114377981D01*
X190533637Y-114379070D01*
X190536098Y-114382806D01*
X190810032Y-114593004D01*
X190815662Y-114596859D01*
X191028453Y-114726238D01*
X191076268Y-114778719D01*
X191088119Y-114848720D01*
X191060244Y-114914015D01*
X191001493Y-114953874D01*
X190962994Y-114959900D01*
X115766271Y-114959900D01*
X115698150Y-114939898D01*
X115651657Y-114886242D01*
X115641553Y-114815968D01*
X115671047Y-114751388D01*
X115701942Y-114725559D01*
X115885995Y-114616276D01*
X115891659Y-114612484D01*
X116172732Y-114401449D01*
X116177958Y-114397064D01*
X116187613Y-114388028D01*
X116195682Y-114374350D01*
X116195654Y-114373624D01*
X116190512Y-114365323D01*
X114058810Y-112233620D01*
X114044869Y-112226008D01*
X114043034Y-112226139D01*
X114036420Y-112230390D01*
X111902774Y-114364037D01*
X111895160Y-114377981D01*
X111895237Y-114379070D01*
X111897698Y-114382806D01*
X112171632Y-114593004D01*
X112177262Y-114596859D01*
X112390053Y-114726238D01*
X112437868Y-114778719D01*
X112449719Y-114848720D01*
X112421844Y-114914015D01*
X112363093Y-114953874D01*
X112324594Y-114959900D01*
X110641900Y-114959900D01*
X110573779Y-114939898D01*
X110527286Y-114886242D01*
X110515900Y-114833900D01*
X110515900Y-112321620D01*
X110535902Y-112253499D01*
X110589558Y-112207006D01*
X110659832Y-112196902D01*
X110724412Y-112226396D01*
X110762796Y-112286122D01*
X110766314Y-112301692D01*
X110807420Y-112558323D01*
X110808859Y-112564978D01*
X110901608Y-112904010D01*
X110903757Y-112910471D01*
X111032581Y-113237512D01*
X111035412Y-113243695D01*
X111198803Y-113554910D01*
X111202286Y-113560752D01*
X111398330Y-113852496D01*
X111402433Y-113857940D01*
X111522425Y-114000436D01*
X111535164Y-114008879D01*
X111545608Y-114002781D01*
X113673980Y-111874410D01*
X113680357Y-111862731D01*
X114410408Y-111862731D01*
X114410539Y-111864566D01*
X114414790Y-111871180D01*
X116545009Y-114001398D01*
X116558605Y-114008823D01*
X116568218Y-114002122D01*
X116668518Y-113885512D01*
X116672676Y-113880114D01*
X116871762Y-113590440D01*
X116875310Y-113584629D01*
X117041942Y-113275159D01*
X117044849Y-113268981D01*
X117177090Y-112943313D01*
X117179304Y-112936883D01*
X117275598Y-112598837D01*
X117277105Y-112592207D01*
X117336332Y-112245718D01*
X117337112Y-112238978D01*
X117358668Y-111886525D01*
X117358784Y-111882923D01*
X117358853Y-111863419D01*
X117358761Y-111859794D01*
X117358416Y-111853432D01*
X189371733Y-111853432D01*
X189389517Y-112204493D01*
X189390227Y-112211249D01*
X189445820Y-112558323D01*
X189447259Y-112564978D01*
X189540008Y-112904010D01*
X189542157Y-112910471D01*
X189670981Y-113237512D01*
X189673812Y-113243695D01*
X189837203Y-113554910D01*
X189840686Y-113560752D01*
X190036730Y-113852496D01*
X190040833Y-113857940D01*
X190160825Y-114000436D01*
X190173564Y-114008879D01*
X190184008Y-114002781D01*
X192312380Y-111874410D01*
X192318757Y-111862731D01*
X193048808Y-111862731D01*
X193048939Y-111864566D01*
X193053190Y-111871180D01*
X195183409Y-114001398D01*
X195197005Y-114008823D01*
X195206618Y-114002122D01*
X195306918Y-113885512D01*
X195311076Y-113880114D01*
X195510162Y-113590440D01*
X195513710Y-113584629D01*
X195680342Y-113275159D01*
X195683249Y-113268981D01*
X195815490Y-112943313D01*
X195817704Y-112936883D01*
X195913998Y-112598837D01*
X195915505Y-112592207D01*
X195974732Y-112245718D01*
X195975512Y-112238978D01*
X195997068Y-111886525D01*
X195997184Y-111882923D01*
X195997253Y-111863419D01*
X195997161Y-111859794D01*
X195978066Y-111507215D01*
X195977331Y-111500449D01*
X195920530Y-111153585D01*
X195919063Y-111146913D01*
X195825136Y-110808227D01*
X195822962Y-110801763D01*
X195692998Y-110475178D01*
X195690142Y-110468998D01*
X195525669Y-110158363D01*
X195522169Y-110152537D01*
X195325097Y-109861462D01*
X195320990Y-109856053D01*
X195207965Y-109722779D01*
X195195140Y-109714343D01*
X195184816Y-109720395D01*
X193056420Y-111848790D01*
X193048808Y-111862731D01*
X192318757Y-111862731D01*
X192319992Y-111860469D01*
X192319861Y-111858634D01*
X192315610Y-111852020D01*
X190185392Y-109721803D01*
X190171855Y-109714411D01*
X190162153Y-109721199D01*
X190054830Y-109846857D01*
X190050696Y-109852264D01*
X189852615Y-110142641D01*
X189849097Y-110148451D01*
X189683534Y-110458522D01*
X189680659Y-110464687D01*
X189549555Y-110790818D01*
X189547362Y-110797258D01*
X189452246Y-111135644D01*
X189450763Y-111142279D01*
X189392750Y-111488954D01*
X189391991Y-111495726D01*
X189371757Y-111846637D01*
X189371733Y-111853432D01*
X117358416Y-111853432D01*
X117339666Y-111507215D01*
X117338931Y-111500449D01*
X117282130Y-111153585D01*
X117280663Y-111146913D01*
X117186736Y-110808227D01*
X117184562Y-110801763D01*
X117054598Y-110475178D01*
X117051742Y-110468998D01*
X116887269Y-110158363D01*
X116883769Y-110152537D01*
X116686697Y-109861462D01*
X116682590Y-109856053D01*
X116569565Y-109722779D01*
X116556740Y-109714343D01*
X116546416Y-109720395D01*
X114418020Y-111848790D01*
X114410408Y-111862731D01*
X113680357Y-111862731D01*
X113681592Y-111860469D01*
X113681461Y-111858634D01*
X113677210Y-111852020D01*
X111546992Y-109721803D01*
X111533455Y-109714411D01*
X111523753Y-109721199D01*
X111416430Y-109846857D01*
X111412296Y-109852264D01*
X111214215Y-110142641D01*
X111210697Y-110148451D01*
X111045134Y-110458522D01*
X111042259Y-110464687D01*
X110911155Y-110790818D01*
X110908962Y-110797258D01*
X110813846Y-111135644D01*
X110812363Y-111142279D01*
X110766172Y-111418309D01*
X110735201Y-111482194D01*
X110674608Y-111519194D01*
X110603630Y-111517561D01*
X110544803Y-111477813D01*
X110516803Y-111412571D01*
X110515900Y-111397513D01*
X110515900Y-109348462D01*
X111895950Y-109348462D01*
X111895986Y-109349304D01*
X111901037Y-109357426D01*
X113198510Y-110654900D01*
X114033190Y-111489580D01*
X114047131Y-111497192D01*
X114048966Y-111497061D01*
X114055580Y-111492810D01*
X116188798Y-109359591D01*
X116196412Y-109345647D01*
X116196344Y-109344689D01*
X116191836Y-109337872D01*
X116190418Y-109336665D01*
X115910813Y-109123664D01*
X115905187Y-109119840D01*
X115604214Y-108938281D01*
X115598202Y-108935084D01*
X115279370Y-108787087D01*
X115273070Y-108784567D01*
X114940129Y-108671873D01*
X114933551Y-108670037D01*
X114590417Y-108593967D01*
X114583678Y-108592851D01*
X114234310Y-108554280D01*
X114227529Y-108553901D01*
X113876015Y-108553287D01*
X113869242Y-108553642D01*
X113519720Y-108590995D01*
X113513010Y-108592082D01*
X113169586Y-108666961D01*
X113163011Y-108668772D01*
X112829683Y-108780302D01*
X112823361Y-108782805D01*
X112504034Y-108929679D01*
X112497991Y-108932865D01*
X112196401Y-109113363D01*
X112190755Y-109117171D01*
X111910408Y-109329196D01*
X111905211Y-109333587D01*
X111903972Y-109334755D01*
X111895950Y-109348462D01*
X110515900Y-109348462D01*
X110515900Y-104782285D01*
X119535000Y-104782285D01*
X119539475Y-104797524D01*
X119540865Y-104798729D01*
X119548548Y-104800400D01*
X120865885Y-104800400D01*
X120881124Y-104795925D01*
X120882329Y-104794535D01*
X120884000Y-104786852D01*
X120884000Y-104782285D01*
X121392000Y-104782285D01*
X121396475Y-104797524D01*
X121397865Y-104798729D01*
X121405548Y-104800400D01*
X122722884Y-104800400D01*
X122738123Y-104795925D01*
X122739328Y-104794535D01*
X122740999Y-104786852D01*
X122740999Y-104387305D01*
X122740662Y-104380786D01*
X122730743Y-104285194D01*
X122727851Y-104271800D01*
X122676412Y-104117616D01*
X122670239Y-104104438D01*
X122584937Y-103966593D01*
X122575901Y-103955192D01*
X122461171Y-103840661D01*
X122449760Y-103831649D01*
X122311757Y-103746584D01*
X122298576Y-103740437D01*
X122144290Y-103689262D01*
X122130914Y-103686395D01*
X122036562Y-103676728D01*
X122030145Y-103676400D01*
X121410115Y-103676400D01*
X121394876Y-103680875D01*
X121393671Y-103682265D01*
X121392000Y-103689948D01*
X121392000Y-104782285D01*
X120884000Y-104782285D01*
X120884000Y-103694516D01*
X120879525Y-103679277D01*
X120878135Y-103678072D01*
X120870452Y-103676401D01*
X120245905Y-103676401D01*
X120239386Y-103676738D01*
X120143794Y-103686657D01*
X120130400Y-103689549D01*
X119976216Y-103740988D01*
X119963038Y-103747161D01*
X119825193Y-103832463D01*
X119813792Y-103841499D01*
X119699261Y-103956229D01*
X119690249Y-103967640D01*
X119605184Y-104105643D01*
X119599037Y-104118824D01*
X119547862Y-104273110D01*
X119544995Y-104286486D01*
X119535328Y-104380838D01*
X119535000Y-104387255D01*
X119535000Y-104782285D01*
X110515900Y-104782285D01*
X110515900Y-71925145D01*
X117355196Y-71925145D01*
X117355493Y-71930298D01*
X117355493Y-71930301D01*
X117360956Y-72025040D01*
X117368055Y-72148165D01*
X117369192Y-72153211D01*
X117369193Y-72153217D01*
X117389064Y-72241389D01*
X117417167Y-72366089D01*
X117501211Y-72573066D01*
X117548852Y-72650809D01*
X117615236Y-72759138D01*
X117617932Y-72763538D01*
X117764195Y-72932388D01*
X117936071Y-73075082D01*
X118128945Y-73187788D01*
X118337637Y-73267480D01*
X118342705Y-73268511D01*
X118342708Y-73268512D01*
X118449962Y-73290333D01*
X118556542Y-73312017D01*
X118561717Y-73312207D01*
X118561719Y-73312207D01*
X118774618Y-73320014D01*
X118774622Y-73320014D01*
X118779782Y-73320203D01*
X118784902Y-73319547D01*
X118784904Y-73319547D01*
X118996233Y-73292475D01*
X118996234Y-73292475D01*
X119001361Y-73291818D01*
X119006311Y-73290333D01*
X119210374Y-73229111D01*
X119210379Y-73229109D01*
X119215329Y-73227624D01*
X119415939Y-73129346D01*
X119597805Y-72999623D01*
X119756041Y-72841939D01*
X119807762Y-72769962D01*
X119886398Y-72660527D01*
X119887721Y-72661478D01*
X119934590Y-72618307D01*
X120004525Y-72606075D01*
X120069971Y-72633594D01*
X120097820Y-72665444D01*
X120157932Y-72763538D01*
X120304195Y-72932388D01*
X120476071Y-73075082D01*
X120668945Y-73187788D01*
X120877637Y-73267480D01*
X120882705Y-73268511D01*
X120882708Y-73268512D01*
X120989962Y-73290333D01*
X121096542Y-73312017D01*
X121101717Y-73312207D01*
X121101719Y-73312207D01*
X121314618Y-73320014D01*
X121314622Y-73320014D01*
X121319782Y-73320203D01*
X121324902Y-73319547D01*
X121324904Y-73319547D01*
X121536233Y-73292475D01*
X121536234Y-73292475D01*
X121541361Y-73291818D01*
X121546311Y-73290333D01*
X121750374Y-73229111D01*
X121750379Y-73229109D01*
X121755329Y-73227624D01*
X121955939Y-73129346D01*
X122137805Y-72999623D01*
X122296041Y-72841939D01*
X122347762Y-72769962D01*
X122423380Y-72664727D01*
X122426398Y-72660527D01*
X122443715Y-72625490D01*
X122523081Y-72464903D01*
X122523082Y-72464901D01*
X122525375Y-72460261D01*
X122557845Y-72353390D01*
X122588810Y-72251473D01*
X122588810Y-72251471D01*
X122590315Y-72246519D01*
X122619474Y-72025040D01*
X122621101Y-71958450D01*
X122602797Y-71735811D01*
X122595851Y-71708157D01*
X122562187Y-71574134D01*
X122564991Y-71503193D01*
X122605704Y-71445030D01*
X122671400Y-71418111D01*
X122684391Y-71417439D01*
X126207184Y-71417439D01*
X126275305Y-71437441D01*
X126316302Y-71480437D01*
X126382935Y-71595848D01*
X126399672Y-71664841D01*
X126376452Y-71731933D01*
X126356645Y-71753795D01*
X126291255Y-71810839D01*
X126192650Y-71951139D01*
X126130358Y-72110909D01*
X126129366Y-72118442D01*
X126129366Y-72118443D01*
X126111853Y-72251473D01*
X126107975Y-72280926D01*
X126108809Y-72288476D01*
X126123084Y-72417778D01*
X126126793Y-72451375D01*
X126129402Y-72458506D01*
X126129403Y-72458508D01*
X126183059Y-72605129D01*
X126185725Y-72612415D01*
X126189960Y-72618718D01*
X126189965Y-72618727D01*
X126191723Y-72621343D01*
X126192356Y-72623418D01*
X126193411Y-72625490D01*
X126193044Y-72625677D01*
X126213140Y-72691616D01*
X126213140Y-99077700D01*
X126193138Y-99145821D01*
X126139482Y-99192314D01*
X126087140Y-99203700D01*
X125948040Y-99203700D01*
X125944794Y-99204037D01*
X125944790Y-99204037D01*
X125849132Y-99213962D01*
X125849128Y-99213963D01*
X125842274Y-99214674D01*
X125835738Y-99216855D01*
X125835736Y-99216855D01*
X125718492Y-99255971D01*
X125674494Y-99270650D01*
X125524092Y-99363722D01*
X125399135Y-99488897D01*
X125395295Y-99495127D01*
X125395294Y-99495128D01*
X125316988Y-99622164D01*
X125306325Y-99639462D01*
X125250643Y-99807339D01*
X125239940Y-99911800D01*
X125239940Y-101702600D01*
X125240277Y-101705846D01*
X125240277Y-101705850D01*
X125246652Y-101767285D01*
X125250914Y-101808366D01*
X125253095Y-101814902D01*
X125253095Y-101814904D01*
X125279444Y-101893880D01*
X125306890Y-101976146D01*
X125399962Y-102126548D01*
X125405144Y-102131721D01*
X125465243Y-102191715D01*
X125525137Y-102251505D01*
X125531367Y-102255345D01*
X125531368Y-102255346D01*
X125668530Y-102339894D01*
X125675702Y-102344315D01*
X125718255Y-102358429D01*
X125837051Y-102397832D01*
X125837053Y-102397832D01*
X125843579Y-102399997D01*
X125850415Y-102400697D01*
X125850418Y-102400698D01*
X125893471Y-102405109D01*
X125948040Y-102410700D01*
X126462405Y-102410700D01*
X126530526Y-102430702D01*
X126577019Y-102484358D01*
X126587123Y-102554632D01*
X126557629Y-102619212D01*
X126551500Y-102625795D01*
X123120265Y-106057030D01*
X123120262Y-106057034D01*
X122661098Y-106516198D01*
X122537998Y-106639297D01*
X122475686Y-106673323D01*
X122404871Y-106668258D01*
X122353737Y-106632782D01*
X122331017Y-106606599D01*
X122331015Y-106606597D01*
X122327517Y-106602566D01*
X122289799Y-106571639D01*
X122249804Y-106512979D01*
X122247873Y-106442009D01*
X122284617Y-106381261D01*
X122307157Y-106366180D01*
X122306732Y-106365494D01*
X122450807Y-106276337D01*
X122462208Y-106267301D01*
X122576739Y-106152571D01*
X122585751Y-106141160D01*
X122670816Y-106003157D01*
X122676963Y-105989976D01*
X122728138Y-105835690D01*
X122731005Y-105822314D01*
X122740672Y-105727962D01*
X122741000Y-105721546D01*
X122741000Y-105326515D01*
X122736525Y-105311276D01*
X122735135Y-105310071D01*
X122727452Y-105308400D01*
X119553116Y-105308400D01*
X119537877Y-105312875D01*
X119536672Y-105314265D01*
X119535001Y-105321948D01*
X119535001Y-105721495D01*
X119535338Y-105728014D01*
X119545257Y-105823606D01*
X119548149Y-105837000D01*
X119599588Y-105991184D01*
X119605761Y-106004362D01*
X119691063Y-106142207D01*
X119700099Y-106153608D01*
X119814829Y-106268139D01*
X119826240Y-106277151D01*
X119970475Y-106366058D01*
X119969183Y-106368155D01*
X120013692Y-106407356D01*
X120033144Y-106475636D01*
X120012593Y-106543593D01*
X119994122Y-106565786D01*
X119876832Y-106677676D01*
X119737187Y-106865365D01*
X119734771Y-106870116D01*
X119734769Y-106870120D01*
X119639232Y-107058028D01*
X119631162Y-107073900D01*
X119561790Y-107297317D01*
X119561089Y-107302604D01*
X119561089Y-107302605D01*
X119535793Y-107493462D01*
X119531052Y-107529229D01*
X119531252Y-107534558D01*
X119531252Y-107534560D01*
X119532055Y-107555952D01*
X119539828Y-107763004D01*
X119587868Y-107991959D01*
X119673797Y-108209546D01*
X119681123Y-108221619D01*
X119747204Y-108330516D01*
X119795159Y-108409544D01*
X119948483Y-108586234D01*
X120129386Y-108734565D01*
X120134016Y-108737201D01*
X120134021Y-108737204D01*
X120166516Y-108755701D01*
X120215822Y-108806784D01*
X120229683Y-108876415D01*
X120203699Y-108942485D01*
X120174550Y-108969723D01*
X120142061Y-108991596D01*
X120046104Y-109056198D01*
X120042247Y-109059877D01*
X120042245Y-109059879D01*
X119982188Y-109117171D01*
X119876832Y-109217676D01*
X119737187Y-109405365D01*
X119734771Y-109410116D01*
X119734769Y-109410120D01*
X119652292Y-109572341D01*
X119631162Y-109613900D01*
X119561790Y-109837317D01*
X119561089Y-109842604D01*
X119561089Y-109842605D01*
X119532431Y-110058827D01*
X119531052Y-110069229D01*
X119539828Y-110303004D01*
X119587868Y-110531959D01*
X119673797Y-110749546D01*
X119795159Y-110949544D01*
X119948483Y-111126234D01*
X120129386Y-111274565D01*
X120332695Y-111390296D01*
X120552596Y-111470116D01*
X120557845Y-111471065D01*
X120557848Y-111471066D01*
X120639040Y-111485748D01*
X120782803Y-111511744D01*
X120786942Y-111511939D01*
X120786949Y-111511940D01*
X120805828Y-111512830D01*
X120805835Y-111512830D01*
X120807316Y-111512900D01*
X121421738Y-111512900D01*
X121489641Y-111507138D01*
X121590791Y-111498556D01*
X121590795Y-111498555D01*
X121596102Y-111498105D01*
X121601259Y-111496767D01*
X121601262Y-111496766D01*
X121817371Y-111440675D01*
X121817375Y-111440674D01*
X121822540Y-111439333D01*
X121827406Y-111437141D01*
X121827409Y-111437140D01*
X122030964Y-111345445D01*
X122035837Y-111343250D01*
X122229896Y-111212602D01*
X122399168Y-111051124D01*
X122538813Y-110863435D01*
X122566883Y-110808227D01*
X122642420Y-110659656D01*
X122642420Y-110659655D01*
X122644838Y-110654900D01*
X122714210Y-110431483D01*
X122731239Y-110303004D01*
X122744248Y-110204855D01*
X122744248Y-110204851D01*
X122744948Y-110199571D01*
X122743674Y-110165620D01*
X122737603Y-110003905D01*
X122736172Y-109965796D01*
X122706332Y-109823579D01*
X122689229Y-109742068D01*
X122689228Y-109742065D01*
X122688132Y-109736841D01*
X122602203Y-109519254D01*
X122508542Y-109364905D01*
X122483609Y-109323817D01*
X122483607Y-109323814D01*
X122480841Y-109319256D01*
X122327517Y-109142566D01*
X122146614Y-108994235D01*
X122141984Y-108991599D01*
X122141979Y-108991596D01*
X122109484Y-108973099D01*
X122060178Y-108922016D01*
X122046317Y-108852385D01*
X122072301Y-108786315D01*
X122101450Y-108759077D01*
X122142885Y-108731181D01*
X122229896Y-108672602D01*
X122235810Y-108666961D01*
X122320433Y-108586234D01*
X122399168Y-108511124D01*
X122538813Y-108323435D01*
X122548731Y-108303929D01*
X122563419Y-108275039D01*
X122612122Y-108223381D01*
X122637607Y-108212897D01*
X122637598Y-108212874D01*
X122639298Y-108212201D01*
X122639329Y-108212188D01*
X122644967Y-108209956D01*
X122678712Y-108196596D01*
X122689942Y-108192751D01*
X122724783Y-108182629D01*
X122724784Y-108182629D01*
X122732393Y-108180418D01*
X122739212Y-108176385D01*
X122739217Y-108176383D01*
X122749828Y-108170107D01*
X122767576Y-108161412D01*
X122786417Y-108153952D01*
X122822187Y-108127964D01*
X122832107Y-108121448D01*
X122863335Y-108102980D01*
X122863338Y-108102978D01*
X122870162Y-108098942D01*
X122884483Y-108084621D01*
X122899517Y-108071780D01*
X122909494Y-108064531D01*
X122915907Y-108059872D01*
X122944098Y-108025795D01*
X122952088Y-108017016D01*
X124072535Y-106896570D01*
X124072538Y-106896566D01*
X128297198Y-102671906D01*
X128305488Y-102664362D01*
X128311969Y-102660249D01*
X128358610Y-102610581D01*
X128361364Y-102607740D01*
X128381085Y-102588019D01*
X128383563Y-102584824D01*
X128391269Y-102575802D01*
X128416109Y-102549350D01*
X128421537Y-102543570D01*
X128431297Y-102525817D01*
X128442150Y-102509294D01*
X128449704Y-102499555D01*
X128454564Y-102493290D01*
X128472127Y-102452706D01*
X128477334Y-102442076D01*
X128498646Y-102403309D01*
X128500618Y-102395629D01*
X128501430Y-102393578D01*
X128545105Y-102337604D01*
X128612108Y-102314128D01*
X128655946Y-102319629D01*
X128861357Y-102383410D01*
X128866644Y-102384111D01*
X128866645Y-102384111D01*
X129087985Y-102413448D01*
X129087989Y-102413448D01*
X129093269Y-102414148D01*
X129098598Y-102413948D01*
X129098600Y-102413948D01*
X129210157Y-102409760D01*
X129327044Y-102405372D01*
X129430708Y-102383621D01*
X129550772Y-102358429D01*
X129550775Y-102358428D01*
X129555999Y-102357332D01*
X129773586Y-102271403D01*
X129883300Y-102204827D01*
X129969023Y-102152809D01*
X129969026Y-102152807D01*
X129973584Y-102150041D01*
X130150274Y-101996717D01*
X130298605Y-101815814D01*
X130301408Y-101810891D01*
X130320017Y-101778199D01*
X130371099Y-101728893D01*
X130440729Y-101715031D01*
X130506800Y-101741014D01*
X130534039Y-101770164D01*
X130617650Y-101894355D01*
X130624311Y-101902641D01*
X130778364Y-102064130D01*
X130786332Y-102071179D01*
X130965392Y-102204403D01*
X130974422Y-102210002D01*
X131173371Y-102311153D01*
X131183232Y-102315156D01*
X131396369Y-102381338D01*
X131406750Y-102383621D01*
X131574318Y-102405830D01*
X131639220Y-102434609D01*
X131678260Y-102493909D01*
X131679043Y-102564901D01*
X131646858Y-102619833D01*
X127346202Y-106920489D01*
X127283890Y-106954515D01*
X127244259Y-106956737D01*
X127241245Y-106956428D01*
X127241237Y-106956428D01*
X127238040Y-106956100D01*
X125897240Y-106956100D01*
X125893994Y-106956437D01*
X125893990Y-106956437D01*
X125798332Y-106966362D01*
X125798328Y-106966363D01*
X125791474Y-106967074D01*
X125784938Y-106969255D01*
X125784936Y-106969255D01*
X125667692Y-107008371D01*
X125623694Y-107023050D01*
X125473292Y-107116122D01*
X125348335Y-107241297D01*
X125344495Y-107247527D01*
X125344494Y-107247528D01*
X125266188Y-107374564D01*
X125255525Y-107391862D01*
X125253221Y-107398809D01*
X125209963Y-107529229D01*
X125199843Y-107559739D01*
X125189140Y-107664200D01*
X125189140Y-109455000D01*
X125189477Y-109458246D01*
X125189477Y-109458250D01*
X125195807Y-109519254D01*
X125200114Y-109560766D01*
X125202295Y-109567302D01*
X125202295Y-109567304D01*
X125234839Y-109664848D01*
X125256090Y-109728546D01*
X125349162Y-109878948D01*
X125474337Y-110003905D01*
X125480567Y-110007745D01*
X125480568Y-110007746D01*
X125617730Y-110092294D01*
X125624902Y-110096715D01*
X125667455Y-110110829D01*
X125786251Y-110150232D01*
X125786253Y-110150232D01*
X125792779Y-110152397D01*
X125799615Y-110153097D01*
X125799618Y-110153098D01*
X125842671Y-110157509D01*
X125897240Y-110163100D01*
X127238040Y-110163100D01*
X127241286Y-110162763D01*
X127241290Y-110162763D01*
X127336948Y-110152838D01*
X127336952Y-110152837D01*
X127343806Y-110152126D01*
X127350342Y-110149945D01*
X127350344Y-110149945D01*
X127501557Y-110099496D01*
X127511586Y-110096150D01*
X127661988Y-110003078D01*
X127786945Y-109877903D01*
X127797080Y-109861462D01*
X127879755Y-109727338D01*
X127881902Y-109728662D01*
X127920952Y-109684310D01*
X127989229Y-109664848D01*
X128057189Y-109685388D01*
X128079401Y-109703872D01*
X128187230Y-109816906D01*
X128187242Y-109816916D01*
X128190916Y-109820768D01*
X128195194Y-109823951D01*
X128259333Y-109871672D01*
X128378605Y-109960413D01*
X128383356Y-109962829D01*
X128383360Y-109962831D01*
X128582384Y-110064020D01*
X128587140Y-110066438D01*
X128810557Y-110135810D01*
X128815844Y-110136511D01*
X128815845Y-110136511D01*
X129037185Y-110165848D01*
X129037189Y-110165848D01*
X129042469Y-110166548D01*
X129047798Y-110166348D01*
X129047800Y-110166348D01*
X129159357Y-110162160D01*
X129276244Y-110157772D01*
X129378659Y-110136283D01*
X129499972Y-110110829D01*
X129499975Y-110110828D01*
X129505199Y-110109732D01*
X129722786Y-110023803D01*
X129809593Y-109971127D01*
X129918223Y-109905209D01*
X129918226Y-109905207D01*
X129922784Y-109902441D01*
X130099474Y-109749117D01*
X130247805Y-109568214D01*
X130250608Y-109563291D01*
X130269217Y-109530599D01*
X130320299Y-109481293D01*
X130389929Y-109467431D01*
X130456000Y-109493414D01*
X130483239Y-109522564D01*
X130566850Y-109646755D01*
X130573511Y-109655041D01*
X130727564Y-109816530D01*
X130735532Y-109823579D01*
X130914592Y-109956803D01*
X130923622Y-109962402D01*
X131122571Y-110063553D01*
X131132432Y-110067556D01*
X131345569Y-110133738D01*
X131355949Y-110136020D01*
X131375683Y-110138636D01*
X131389847Y-110136440D01*
X131393640Y-110123255D01*
X131393640Y-110121227D01*
X131901640Y-110121227D01*
X131905613Y-110134758D01*
X131916220Y-110136283D01*
X132039828Y-110110348D01*
X132050024Y-110107288D01*
X132257592Y-110025316D01*
X132267129Y-110020582D01*
X132457925Y-109904804D01*
X132466518Y-109898538D01*
X132635081Y-109752267D01*
X132642501Y-109744636D01*
X132784008Y-109572058D01*
X132790033Y-109563291D01*
X132851676Y-109455000D01*
X134891940Y-109455000D01*
X134892277Y-109458246D01*
X134892277Y-109458250D01*
X134898607Y-109519254D01*
X134902914Y-109560766D01*
X134905095Y-109567302D01*
X134905095Y-109567304D01*
X134937639Y-109664848D01*
X134958890Y-109728546D01*
X135051962Y-109878948D01*
X135177137Y-110003905D01*
X135183367Y-110007745D01*
X135183368Y-110007746D01*
X135320530Y-110092294D01*
X135327702Y-110096715D01*
X135370255Y-110110829D01*
X135489051Y-110150232D01*
X135489053Y-110150232D01*
X135495579Y-110152397D01*
X135502415Y-110153097D01*
X135502418Y-110153098D01*
X135545471Y-110157509D01*
X135600040Y-110163100D01*
X136940840Y-110163100D01*
X136944086Y-110162763D01*
X136944090Y-110162763D01*
X137039748Y-110152838D01*
X137039752Y-110152837D01*
X137046606Y-110152126D01*
X137053142Y-110149945D01*
X137053144Y-110149945D01*
X137204357Y-110099496D01*
X137214386Y-110096150D01*
X137364788Y-110003078D01*
X137489745Y-109877903D01*
X137499880Y-109861462D01*
X137582555Y-109727338D01*
X137584702Y-109728662D01*
X137623752Y-109684310D01*
X137692029Y-109664848D01*
X137759989Y-109685388D01*
X137782201Y-109703872D01*
X137890030Y-109816906D01*
X137890042Y-109816916D01*
X137893716Y-109820768D01*
X137897994Y-109823951D01*
X137962133Y-109871672D01*
X138081405Y-109960413D01*
X138086156Y-109962829D01*
X138086160Y-109962831D01*
X138285184Y-110064020D01*
X138289940Y-110066438D01*
X138513357Y-110135810D01*
X138518644Y-110136511D01*
X138518645Y-110136511D01*
X138739985Y-110165848D01*
X138739989Y-110165848D01*
X138745269Y-110166548D01*
X138750598Y-110166348D01*
X138750600Y-110166348D01*
X138862157Y-110162160D01*
X138979044Y-110157772D01*
X139081459Y-110136283D01*
X139202772Y-110110829D01*
X139202775Y-110110828D01*
X139207999Y-110109732D01*
X139425586Y-110023803D01*
X139512393Y-109971127D01*
X139621023Y-109905209D01*
X139621026Y-109905207D01*
X139625584Y-109902441D01*
X139802274Y-109749117D01*
X139950605Y-109568214D01*
X139953408Y-109563291D01*
X139972017Y-109530599D01*
X140023099Y-109481293D01*
X140092729Y-109467431D01*
X140158800Y-109493414D01*
X140186039Y-109522564D01*
X140269650Y-109646755D01*
X140276311Y-109655041D01*
X140430364Y-109816530D01*
X140438332Y-109823579D01*
X140617392Y-109956803D01*
X140626422Y-109962402D01*
X140825371Y-110063553D01*
X140835232Y-110067556D01*
X141048369Y-110133738D01*
X141058749Y-110136020D01*
X141078483Y-110138636D01*
X141092647Y-110136440D01*
X141096440Y-110123255D01*
X141096440Y-110121227D01*
X141604440Y-110121227D01*
X141608413Y-110134758D01*
X141619020Y-110136283D01*
X141742628Y-110110348D01*
X141752824Y-110107288D01*
X141960392Y-110025316D01*
X141969929Y-110020582D01*
X142160725Y-109904804D01*
X142169318Y-109898538D01*
X142337881Y-109752267D01*
X142345301Y-109744636D01*
X142486808Y-109572058D01*
X142492833Y-109563291D01*
X142603237Y-109369338D01*
X142607702Y-109359674D01*
X142683850Y-109149889D01*
X142686621Y-109139621D01*
X142721826Y-108944938D01*
X146297100Y-108944938D01*
X146301059Y-108991596D01*
X146306541Y-109056198D01*
X146311895Y-109119302D01*
X146313233Y-109124459D01*
X146313234Y-109124462D01*
X146368625Y-109337872D01*
X146370667Y-109345740D01*
X146372859Y-109350606D01*
X146372860Y-109350609D01*
X146379300Y-109364905D01*
X146466750Y-109559037D01*
X146597398Y-109753096D01*
X146758876Y-109922368D01*
X146946565Y-110062013D01*
X146951316Y-110064429D01*
X146951320Y-110064431D01*
X147145388Y-110163100D01*
X147155100Y-110168038D01*
X147378517Y-110237410D01*
X147383804Y-110238111D01*
X147383805Y-110238111D01*
X147605145Y-110267448D01*
X147605149Y-110267448D01*
X147610429Y-110268148D01*
X147615758Y-110267948D01*
X147615760Y-110267948D01*
X147727317Y-110263760D01*
X147844204Y-110259372D01*
X147956413Y-110235828D01*
X148067932Y-110212429D01*
X148067935Y-110212428D01*
X148073159Y-110211332D01*
X148290746Y-110125403D01*
X148391902Y-110064020D01*
X148486183Y-110006809D01*
X148486186Y-110006807D01*
X148490744Y-110004041D01*
X148667434Y-109850717D01*
X148698008Y-109813429D01*
X148756667Y-109773436D01*
X148827638Y-109771505D01*
X148888386Y-109808250D01*
X148903333Y-109830590D01*
X148904050Y-109830146D01*
X148997122Y-109980548D01*
X149122297Y-110105505D01*
X149128527Y-110109345D01*
X149128528Y-110109346D01*
X149265690Y-110193894D01*
X149272862Y-110198315D01*
X149315415Y-110212429D01*
X149434211Y-110251832D01*
X149434213Y-110251832D01*
X149440739Y-110253997D01*
X149447575Y-110254697D01*
X149447578Y-110254698D01*
X149490631Y-110259109D01*
X149545200Y-110264700D01*
X150886000Y-110264700D01*
X150889246Y-110264363D01*
X150889250Y-110264363D01*
X150984908Y-110254438D01*
X150984912Y-110254437D01*
X150991766Y-110253726D01*
X150998302Y-110251545D01*
X150998304Y-110251545D01*
X151138250Y-110204855D01*
X151159546Y-110197750D01*
X151309948Y-110104678D01*
X151434905Y-109979503D01*
X151480701Y-109905209D01*
X151523875Y-109835168D01*
X151523876Y-109835166D01*
X151527715Y-109828938D01*
X151583397Y-109661061D01*
X151594100Y-109556600D01*
X151594100Y-108944938D01*
X152647100Y-108944938D01*
X152651059Y-108991596D01*
X152656541Y-109056198D01*
X152661895Y-109119302D01*
X152663233Y-109124459D01*
X152663234Y-109124462D01*
X152718625Y-109337872D01*
X152720667Y-109345740D01*
X152722859Y-109350606D01*
X152722860Y-109350609D01*
X152729300Y-109364905D01*
X152816750Y-109559037D01*
X152947398Y-109753096D01*
X153108876Y-109922368D01*
X153296565Y-110062013D01*
X153301316Y-110064429D01*
X153301320Y-110064431D01*
X153495388Y-110163100D01*
X153505100Y-110168038D01*
X153728517Y-110237410D01*
X153733804Y-110238111D01*
X153733805Y-110238111D01*
X153955145Y-110267448D01*
X153955149Y-110267448D01*
X153960429Y-110268148D01*
X153965758Y-110267948D01*
X153965760Y-110267948D01*
X154077317Y-110263760D01*
X154194204Y-110259372D01*
X154306413Y-110235828D01*
X154417932Y-110212429D01*
X154417935Y-110212428D01*
X154423159Y-110211332D01*
X154640746Y-110125403D01*
X154741902Y-110064020D01*
X154836183Y-110006809D01*
X154836186Y-110006807D01*
X154840744Y-110004041D01*
X155017434Y-109850717D01*
X155048008Y-109813429D01*
X155106667Y-109773436D01*
X155177638Y-109771505D01*
X155238386Y-109808250D01*
X155253333Y-109830590D01*
X155254050Y-109830146D01*
X155347122Y-109980548D01*
X155472297Y-110105505D01*
X155478527Y-110109345D01*
X155478528Y-110109346D01*
X155615690Y-110193894D01*
X155622862Y-110198315D01*
X155665415Y-110212429D01*
X155784211Y-110251832D01*
X155784213Y-110251832D01*
X155790739Y-110253997D01*
X155797575Y-110254697D01*
X155797578Y-110254698D01*
X155840631Y-110259109D01*
X155895200Y-110264700D01*
X157236000Y-110264700D01*
X157239246Y-110264363D01*
X157239250Y-110264363D01*
X157334908Y-110254438D01*
X157334912Y-110254437D01*
X157341766Y-110253726D01*
X157348302Y-110251545D01*
X157348304Y-110251545D01*
X157488250Y-110204855D01*
X157509546Y-110197750D01*
X157659948Y-110104678D01*
X157784905Y-109979503D01*
X157830701Y-109905209D01*
X157873875Y-109835168D01*
X157873876Y-109835166D01*
X157877715Y-109828938D01*
X157933397Y-109661061D01*
X157944100Y-109556600D01*
X157944100Y-109348462D01*
X190534350Y-109348462D01*
X190534386Y-109349304D01*
X190539437Y-109357426D01*
X192671590Y-111489580D01*
X192685531Y-111497192D01*
X192687366Y-111497061D01*
X192693980Y-111492810D01*
X193531890Y-110654900D01*
X194827198Y-109359591D01*
X194834812Y-109345647D01*
X194834744Y-109344690D01*
X194830234Y-109337871D01*
X194828818Y-109336665D01*
X194549213Y-109123664D01*
X194543587Y-109119840D01*
X194242614Y-108938281D01*
X194236602Y-108935084D01*
X193917770Y-108787087D01*
X193911470Y-108784567D01*
X193578529Y-108671873D01*
X193571951Y-108670037D01*
X193228817Y-108593967D01*
X193222078Y-108592851D01*
X192872710Y-108554280D01*
X192865929Y-108553901D01*
X192514415Y-108553287D01*
X192507642Y-108553642D01*
X192158120Y-108590995D01*
X192151410Y-108592082D01*
X191807986Y-108666961D01*
X191801411Y-108668772D01*
X191468083Y-108780302D01*
X191461761Y-108782805D01*
X191142434Y-108929679D01*
X191136391Y-108932865D01*
X190834801Y-109113363D01*
X190829155Y-109117171D01*
X190548808Y-109329196D01*
X190543611Y-109333587D01*
X190542372Y-109334755D01*
X190534350Y-109348462D01*
X157944100Y-109348462D01*
X157944100Y-107765800D01*
X157933126Y-107660034D01*
X157929265Y-107648459D01*
X157879468Y-107499202D01*
X157877150Y-107492254D01*
X157784078Y-107341852D01*
X157658903Y-107216895D01*
X157623440Y-107195035D01*
X157514568Y-107127925D01*
X157514566Y-107127924D01*
X157508338Y-107124085D01*
X157388356Y-107084289D01*
X157346989Y-107070568D01*
X157346987Y-107070568D01*
X157340461Y-107068403D01*
X157333625Y-107067703D01*
X157333622Y-107067702D01*
X157286049Y-107062828D01*
X157236000Y-107057700D01*
X155895200Y-107057700D01*
X155891954Y-107058037D01*
X155891950Y-107058037D01*
X155796292Y-107067962D01*
X155796288Y-107067963D01*
X155789434Y-107068674D01*
X155782898Y-107070855D01*
X155782896Y-107070855D01*
X155701036Y-107098166D01*
X155621654Y-107124650D01*
X155471252Y-107217722D01*
X155346295Y-107342897D01*
X155253485Y-107493462D01*
X155251338Y-107492138D01*
X155212288Y-107536490D01*
X155144011Y-107555952D01*
X155076051Y-107535412D01*
X155053839Y-107516928D01*
X154946010Y-107403894D01*
X154945998Y-107403884D01*
X154942324Y-107400032D01*
X154897838Y-107366933D01*
X154805769Y-107298432D01*
X154754635Y-107260387D01*
X154749884Y-107257971D01*
X154749880Y-107257969D01*
X154550856Y-107156780D01*
X154550855Y-107156780D01*
X154546100Y-107154362D01*
X154322683Y-107084990D01*
X154317396Y-107084289D01*
X154317395Y-107084289D01*
X154096055Y-107054952D01*
X154096051Y-107054952D01*
X154090771Y-107054252D01*
X154085442Y-107054452D01*
X154085440Y-107054452D01*
X153989946Y-107058037D01*
X153856996Y-107063028D01*
X153773011Y-107080650D01*
X153633268Y-107109971D01*
X153633265Y-107109972D01*
X153628041Y-107111068D01*
X153410454Y-107196997D01*
X153405890Y-107199766D01*
X153405891Y-107199766D01*
X153215017Y-107315591D01*
X153215014Y-107315593D01*
X153210456Y-107318359D01*
X153033766Y-107471683D01*
X152885435Y-107652586D01*
X152769704Y-107855895D01*
X152689884Y-108075796D01*
X152688935Y-108081045D01*
X152688934Y-108081048D01*
X152676594Y-108149290D01*
X152648256Y-108306003D01*
X152647100Y-108330516D01*
X152647100Y-108944938D01*
X151594100Y-108944938D01*
X151594100Y-107765800D01*
X151583126Y-107660034D01*
X151579265Y-107648459D01*
X151529468Y-107499202D01*
X151527150Y-107492254D01*
X151434078Y-107341852D01*
X151308903Y-107216895D01*
X151273440Y-107195035D01*
X151164568Y-107127925D01*
X151164566Y-107127924D01*
X151158338Y-107124085D01*
X151038356Y-107084289D01*
X150996989Y-107070568D01*
X150996987Y-107070568D01*
X150990461Y-107068403D01*
X150983625Y-107067703D01*
X150983622Y-107067702D01*
X150936049Y-107062828D01*
X150886000Y-107057700D01*
X149545200Y-107057700D01*
X149541954Y-107058037D01*
X149541950Y-107058037D01*
X149446292Y-107067962D01*
X149446288Y-107067963D01*
X149439434Y-107068674D01*
X149432898Y-107070855D01*
X149432896Y-107070855D01*
X149351036Y-107098166D01*
X149271654Y-107124650D01*
X149121252Y-107217722D01*
X148996295Y-107342897D01*
X148903485Y-107493462D01*
X148901338Y-107492138D01*
X148862288Y-107536490D01*
X148794011Y-107555952D01*
X148726051Y-107535412D01*
X148703839Y-107516928D01*
X148596010Y-107403894D01*
X148595998Y-107403884D01*
X148592324Y-107400032D01*
X148547838Y-107366933D01*
X148455769Y-107298432D01*
X148404635Y-107260387D01*
X148399884Y-107257971D01*
X148399880Y-107257969D01*
X148200856Y-107156780D01*
X148200855Y-107156780D01*
X148196100Y-107154362D01*
X147972683Y-107084990D01*
X147967396Y-107084289D01*
X147967395Y-107084289D01*
X147746055Y-107054952D01*
X147746051Y-107054952D01*
X147740771Y-107054252D01*
X147735442Y-107054452D01*
X147735440Y-107054452D01*
X147639946Y-107058037D01*
X147506996Y-107063028D01*
X147423011Y-107080650D01*
X147283268Y-107109971D01*
X147283265Y-107109972D01*
X147278041Y-107111068D01*
X147060454Y-107196997D01*
X147055890Y-107199766D01*
X147055891Y-107199766D01*
X146865017Y-107315591D01*
X146865014Y-107315593D01*
X146860456Y-107318359D01*
X146683766Y-107471683D01*
X146535435Y-107652586D01*
X146419704Y-107855895D01*
X146339884Y-108075796D01*
X146338935Y-108081045D01*
X146338934Y-108081048D01*
X146326594Y-108149290D01*
X146298256Y-108306003D01*
X146297100Y-108330516D01*
X146297100Y-108944938D01*
X142721826Y-108944938D01*
X142726546Y-108918834D01*
X142727479Y-108910605D01*
X142728370Y-108891726D01*
X142728440Y-108888751D01*
X142728440Y-108831715D01*
X142723965Y-108816476D01*
X142722575Y-108815271D01*
X142714892Y-108813600D01*
X141622555Y-108813600D01*
X141607316Y-108818075D01*
X141606111Y-108819465D01*
X141604440Y-108827148D01*
X141604440Y-110121227D01*
X141096440Y-110121227D01*
X141096440Y-108287485D01*
X141604440Y-108287485D01*
X141608915Y-108302724D01*
X141610305Y-108303929D01*
X141617988Y-108305600D01*
X142710325Y-108305600D01*
X142725564Y-108301125D01*
X142726769Y-108299735D01*
X142728440Y-108292052D01*
X142728440Y-108278546D01*
X142728215Y-108273237D01*
X142714101Y-108106893D01*
X142712311Y-108096421D01*
X142656242Y-107880398D01*
X142652706Y-107870358D01*
X142561041Y-107666868D01*
X142555872Y-107657582D01*
X142431230Y-107472445D01*
X142424569Y-107464159D01*
X142270516Y-107302670D01*
X142262548Y-107295621D01*
X142083488Y-107162397D01*
X142074458Y-107156798D01*
X141875509Y-107055647D01*
X141865648Y-107051644D01*
X141652511Y-106985462D01*
X141642131Y-106983180D01*
X141622397Y-106980564D01*
X141608233Y-106982760D01*
X141604440Y-106995945D01*
X141604440Y-108287485D01*
X141096440Y-108287485D01*
X141096440Y-106997973D01*
X141092467Y-106984442D01*
X141081860Y-106982917D01*
X140958252Y-107008852D01*
X140948056Y-107011912D01*
X140740488Y-107093884D01*
X140730951Y-107098618D01*
X140540155Y-107214396D01*
X140531562Y-107220662D01*
X140362999Y-107366933D01*
X140355579Y-107374564D01*
X140214072Y-107547142D01*
X140208047Y-107555909D01*
X140189451Y-107588578D01*
X140138369Y-107637885D01*
X140068738Y-107651746D01*
X140002667Y-107625763D01*
X139975429Y-107596613D01*
X139921781Y-107516928D01*
X139888642Y-107467704D01*
X139727164Y-107298432D01*
X139539475Y-107158787D01*
X139534724Y-107156371D01*
X139534720Y-107156369D01*
X139335696Y-107055180D01*
X139335695Y-107055180D01*
X139330940Y-107052762D01*
X139107523Y-106983390D01*
X139102236Y-106982689D01*
X139102235Y-106982689D01*
X138880895Y-106953352D01*
X138880891Y-106953352D01*
X138875611Y-106952652D01*
X138870282Y-106952852D01*
X138870280Y-106952852D01*
X138774786Y-106956437D01*
X138641836Y-106961428D01*
X138600630Y-106970074D01*
X138418108Y-107008371D01*
X138418105Y-107008372D01*
X138412881Y-107009468D01*
X138195294Y-107095397D01*
X138190730Y-107098166D01*
X138190731Y-107098166D01*
X137999857Y-107213991D01*
X137999854Y-107213993D01*
X137995296Y-107216759D01*
X137818606Y-107370083D01*
X137794050Y-107400032D01*
X137788033Y-107407370D01*
X137729373Y-107447364D01*
X137658402Y-107449295D01*
X137597654Y-107412550D01*
X137582707Y-107390210D01*
X137581990Y-107390654D01*
X137492772Y-107246480D01*
X137488918Y-107240252D01*
X137363743Y-107115295D01*
X137317146Y-107086572D01*
X137219408Y-107026325D01*
X137219406Y-107026324D01*
X137213178Y-107022485D01*
X137133162Y-106995945D01*
X137051829Y-106968968D01*
X137051827Y-106968968D01*
X137045301Y-106966803D01*
X137038465Y-106966103D01*
X137038462Y-106966102D01*
X136990889Y-106961228D01*
X136940840Y-106956100D01*
X135600040Y-106956100D01*
X135596794Y-106956437D01*
X135596790Y-106956437D01*
X135501132Y-106966362D01*
X135501128Y-106966363D01*
X135494274Y-106967074D01*
X135487738Y-106969255D01*
X135487736Y-106969255D01*
X135370492Y-107008371D01*
X135326494Y-107023050D01*
X135176092Y-107116122D01*
X135051135Y-107241297D01*
X135047295Y-107247527D01*
X135047294Y-107247528D01*
X134968988Y-107374564D01*
X134958325Y-107391862D01*
X134956021Y-107398809D01*
X134912763Y-107529229D01*
X134902643Y-107559739D01*
X134891940Y-107664200D01*
X134891940Y-109455000D01*
X132851676Y-109455000D01*
X132900437Y-109369338D01*
X132904902Y-109359674D01*
X132981050Y-109149889D01*
X132983821Y-109139621D01*
X133023746Y-108918834D01*
X133024679Y-108910605D01*
X133025570Y-108891726D01*
X133025640Y-108888751D01*
X133025640Y-108831715D01*
X133021165Y-108816476D01*
X133019775Y-108815271D01*
X133012092Y-108813600D01*
X131919755Y-108813600D01*
X131904516Y-108818075D01*
X131903311Y-108819465D01*
X131901640Y-108827148D01*
X131901640Y-110121227D01*
X131393640Y-110121227D01*
X131393640Y-108287485D01*
X131901640Y-108287485D01*
X131906115Y-108302724D01*
X131907505Y-108303929D01*
X131915188Y-108305600D01*
X133007525Y-108305600D01*
X133022764Y-108301125D01*
X133023969Y-108299735D01*
X133025640Y-108292052D01*
X133025640Y-108278546D01*
X133025415Y-108273237D01*
X133011301Y-108106893D01*
X133009511Y-108096421D01*
X132953442Y-107880398D01*
X132949906Y-107870358D01*
X132858241Y-107666868D01*
X132853072Y-107657582D01*
X132728430Y-107472445D01*
X132721769Y-107464159D01*
X132567716Y-107302670D01*
X132559748Y-107295621D01*
X132380688Y-107162397D01*
X132371658Y-107156798D01*
X132172709Y-107055647D01*
X132162848Y-107051644D01*
X131949711Y-106985462D01*
X131939331Y-106983180D01*
X131919597Y-106980564D01*
X131905433Y-106982760D01*
X131901640Y-106995945D01*
X131901640Y-108287485D01*
X131393640Y-108287485D01*
X131393640Y-106997973D01*
X131389667Y-106984442D01*
X131379060Y-106982917D01*
X131255452Y-107008852D01*
X131245256Y-107011912D01*
X131037688Y-107093884D01*
X131028151Y-107098618D01*
X130837355Y-107214396D01*
X130828762Y-107220662D01*
X130660199Y-107366933D01*
X130652779Y-107374564D01*
X130511272Y-107547142D01*
X130505247Y-107555909D01*
X130486651Y-107588578D01*
X130435569Y-107637885D01*
X130365938Y-107651746D01*
X130299867Y-107625763D01*
X130272629Y-107596613D01*
X130218981Y-107516928D01*
X130185842Y-107467704D01*
X130024364Y-107298432D01*
X129836675Y-107158787D01*
X129831924Y-107156371D01*
X129831920Y-107156369D01*
X129632896Y-107055180D01*
X129632895Y-107055180D01*
X129628140Y-107052762D01*
X129404723Y-106983390D01*
X129399439Y-106982690D01*
X129399436Y-106982689D01*
X129304257Y-106970074D01*
X129239355Y-106941294D01*
X129200316Y-106881995D01*
X129199533Y-106811003D01*
X129231718Y-106756071D01*
X133524189Y-102463600D01*
X146924435Y-102463600D01*
X146943065Y-102700311D01*
X146998495Y-102931194D01*
X147000388Y-102935765D01*
X147000389Y-102935767D01*
X147087372Y-103145763D01*
X147089360Y-103150563D01*
X147091946Y-103154783D01*
X147210841Y-103348802D01*
X147210845Y-103348808D01*
X147213424Y-103353016D01*
X147367631Y-103533569D01*
X147548184Y-103687776D01*
X147552392Y-103690355D01*
X147552398Y-103690359D01*
X147745684Y-103808805D01*
X147750637Y-103811840D01*
X147755207Y-103813733D01*
X147755211Y-103813735D01*
X147965433Y-103900811D01*
X147970006Y-103902705D01*
X148050209Y-103921960D01*
X148196076Y-103956980D01*
X148196082Y-103956981D01*
X148200889Y-103958135D01*
X148437600Y-103976765D01*
X148674311Y-103958135D01*
X148679118Y-103956981D01*
X148679124Y-103956980D01*
X148824991Y-103921960D01*
X148905194Y-103902705D01*
X148909767Y-103900811D01*
X149119989Y-103813735D01*
X149119993Y-103813733D01*
X149124563Y-103811840D01*
X149129516Y-103808805D01*
X149313156Y-103696270D01*
X157729760Y-103696270D01*
X157735487Y-103703920D01*
X157906642Y-103808805D01*
X157915437Y-103813287D01*
X158125588Y-103900334D01*
X158134973Y-103903383D01*
X158356154Y-103956485D01*
X158365901Y-103958028D01*
X158592670Y-103975875D01*
X158602530Y-103975875D01*
X158829299Y-103958028D01*
X158839046Y-103956485D01*
X159060227Y-103903383D01*
X159069612Y-103900334D01*
X159279763Y-103813287D01*
X159288558Y-103808805D01*
X159456045Y-103706168D01*
X159465507Y-103695710D01*
X159461724Y-103686934D01*
X158610412Y-102835622D01*
X158596468Y-102828008D01*
X158594635Y-102828139D01*
X158588020Y-102832390D01*
X157736520Y-103683890D01*
X157729760Y-103696270D01*
X149313156Y-103696270D01*
X149322802Y-103690359D01*
X149322808Y-103690355D01*
X149327016Y-103687776D01*
X149507569Y-103533569D01*
X149661776Y-103353016D01*
X149664355Y-103348808D01*
X149664359Y-103348802D01*
X149783254Y-103154783D01*
X149785840Y-103150563D01*
X149787829Y-103145763D01*
X149874811Y-102935767D01*
X149874812Y-102935765D01*
X149876705Y-102931194D01*
X149932135Y-102700311D01*
X149950377Y-102468530D01*
X157085325Y-102468530D01*
X157103172Y-102695299D01*
X157104715Y-102705046D01*
X157157817Y-102926227D01*
X157160866Y-102935612D01*
X157247913Y-103145763D01*
X157252395Y-103154558D01*
X157355032Y-103322045D01*
X157365490Y-103331507D01*
X157374266Y-103327724D01*
X158225578Y-102476412D01*
X158231956Y-102464732D01*
X158962008Y-102464732D01*
X158962139Y-102466565D01*
X158966390Y-102473180D01*
X159817890Y-103324680D01*
X159830270Y-103331440D01*
X159837920Y-103325713D01*
X159942805Y-103154558D01*
X159947287Y-103145763D01*
X160034334Y-102935612D01*
X160037383Y-102926227D01*
X160090485Y-102705046D01*
X160092028Y-102695299D01*
X160109875Y-102468530D01*
X160109875Y-102463600D01*
X167244435Y-102463600D01*
X167263065Y-102700311D01*
X167318495Y-102931194D01*
X167320388Y-102935765D01*
X167320389Y-102935767D01*
X167407372Y-103145763D01*
X167409360Y-103150563D01*
X167411946Y-103154783D01*
X167530841Y-103348802D01*
X167530845Y-103348808D01*
X167533424Y-103353016D01*
X167687631Y-103533569D01*
X167868184Y-103687776D01*
X167872392Y-103690355D01*
X167872398Y-103690359D01*
X168065684Y-103808805D01*
X168070637Y-103811840D01*
X168075207Y-103813733D01*
X168075211Y-103813735D01*
X168285433Y-103900811D01*
X168290006Y-103902705D01*
X168370209Y-103921960D01*
X168516076Y-103956980D01*
X168516082Y-103956981D01*
X168520889Y-103958135D01*
X168757600Y-103976765D01*
X168994311Y-103958135D01*
X168999118Y-103956981D01*
X168999124Y-103956980D01*
X169144991Y-103921960D01*
X169225194Y-103902705D01*
X169229767Y-103900811D01*
X169439989Y-103813735D01*
X169439993Y-103813733D01*
X169444563Y-103811840D01*
X169449516Y-103808805D01*
X169642802Y-103690359D01*
X169642808Y-103690355D01*
X169647016Y-103687776D01*
X169827569Y-103533569D01*
X169981776Y-103353016D01*
X169984355Y-103348808D01*
X169984359Y-103348802D01*
X170103254Y-103154783D01*
X170105840Y-103150563D01*
X170107829Y-103145763D01*
X170194811Y-102935767D01*
X170194812Y-102935765D01*
X170196705Y-102931194D01*
X170252135Y-102700311D01*
X170270765Y-102463600D01*
X172726035Y-102463600D01*
X172744665Y-102700311D01*
X172800095Y-102931194D01*
X172801988Y-102935765D01*
X172801989Y-102935767D01*
X172888972Y-103145763D01*
X172890960Y-103150563D01*
X172893546Y-103154783D01*
X173012441Y-103348802D01*
X173012445Y-103348808D01*
X173015024Y-103353016D01*
X173169231Y-103533569D01*
X173349784Y-103687776D01*
X173353992Y-103690355D01*
X173353998Y-103690359D01*
X173547284Y-103808805D01*
X173552237Y-103811840D01*
X173556807Y-103813733D01*
X173556811Y-103813735D01*
X173767033Y-103900811D01*
X173771606Y-103902705D01*
X173851809Y-103921960D01*
X173997676Y-103956980D01*
X173997682Y-103956981D01*
X174002489Y-103958135D01*
X174239200Y-103976765D01*
X174475911Y-103958135D01*
X174480718Y-103956981D01*
X174480724Y-103956980D01*
X174626591Y-103921960D01*
X174706794Y-103902705D01*
X174711367Y-103900811D01*
X174921589Y-103813735D01*
X174921593Y-103813733D01*
X174926163Y-103811840D01*
X174931116Y-103808805D01*
X175114756Y-103696270D01*
X183531360Y-103696270D01*
X183537087Y-103703920D01*
X183708242Y-103808805D01*
X183717037Y-103813287D01*
X183927188Y-103900334D01*
X183936573Y-103903383D01*
X184157754Y-103956485D01*
X184167501Y-103958028D01*
X184394270Y-103975875D01*
X184404130Y-103975875D01*
X184630899Y-103958028D01*
X184640646Y-103956485D01*
X184861827Y-103903383D01*
X184871212Y-103900334D01*
X185081363Y-103813287D01*
X185090158Y-103808805D01*
X185257645Y-103706168D01*
X185267107Y-103695710D01*
X185263324Y-103686934D01*
X184412012Y-102835622D01*
X184398068Y-102828008D01*
X184396235Y-102828139D01*
X184389620Y-102832390D01*
X183538120Y-103683890D01*
X183531360Y-103696270D01*
X175114756Y-103696270D01*
X175124402Y-103690359D01*
X175124408Y-103690355D01*
X175128616Y-103687776D01*
X175309169Y-103533569D01*
X175463376Y-103353016D01*
X175465955Y-103348808D01*
X175465959Y-103348802D01*
X175584854Y-103154783D01*
X175587440Y-103150563D01*
X175589429Y-103145763D01*
X175676411Y-102935767D01*
X175676412Y-102935765D01*
X175678305Y-102931194D01*
X175733735Y-102700311D01*
X175751977Y-102468530D01*
X182886925Y-102468530D01*
X182904772Y-102695299D01*
X182906315Y-102705046D01*
X182959417Y-102926227D01*
X182962466Y-102935612D01*
X183049513Y-103145763D01*
X183053995Y-103154558D01*
X183156632Y-103322045D01*
X183167090Y-103331507D01*
X183175866Y-103327724D01*
X184027178Y-102476412D01*
X184033556Y-102464732D01*
X184763608Y-102464732D01*
X184763739Y-102466565D01*
X184767990Y-102473180D01*
X185619490Y-103324680D01*
X185631870Y-103331440D01*
X185639520Y-103325713D01*
X185744405Y-103154558D01*
X185748887Y-103145763D01*
X185835934Y-102935612D01*
X185838983Y-102926227D01*
X185892085Y-102705046D01*
X185893628Y-102695299D01*
X185911475Y-102468530D01*
X185911475Y-102463600D01*
X193046035Y-102463600D01*
X193064665Y-102700311D01*
X193120095Y-102931194D01*
X193121988Y-102935765D01*
X193121989Y-102935767D01*
X193208972Y-103145763D01*
X193210960Y-103150563D01*
X193213546Y-103154783D01*
X193332441Y-103348802D01*
X193332445Y-103348808D01*
X193335024Y-103353016D01*
X193489231Y-103533569D01*
X193669784Y-103687776D01*
X193673992Y-103690355D01*
X193673998Y-103690359D01*
X193867284Y-103808805D01*
X193872237Y-103811840D01*
X193876807Y-103813733D01*
X193876811Y-103813735D01*
X194087033Y-103900811D01*
X194091606Y-103902705D01*
X194171809Y-103921960D01*
X194317676Y-103956980D01*
X194317682Y-103956981D01*
X194322489Y-103958135D01*
X194559200Y-103976765D01*
X194795911Y-103958135D01*
X194800718Y-103956981D01*
X194800724Y-103956980D01*
X194946591Y-103921960D01*
X195026794Y-103902705D01*
X195031367Y-103900811D01*
X195241589Y-103813735D01*
X195241593Y-103813733D01*
X195246163Y-103811840D01*
X195251116Y-103808805D01*
X195444402Y-103690359D01*
X195444408Y-103690355D01*
X195448616Y-103687776D01*
X195629169Y-103533569D01*
X195783376Y-103353016D01*
X195785955Y-103348808D01*
X195785959Y-103348802D01*
X195904854Y-103154783D01*
X195907440Y-103150563D01*
X195909429Y-103145763D01*
X195996411Y-102935767D01*
X195996412Y-102935765D01*
X195998305Y-102931194D01*
X196053735Y-102700311D01*
X196072365Y-102463600D01*
X196053735Y-102226889D01*
X196049204Y-102208013D01*
X195999460Y-102000818D01*
X195998305Y-101996006D01*
X195996411Y-101991433D01*
X195909335Y-101781211D01*
X195909333Y-101781207D01*
X195907440Y-101776637D01*
X195878182Y-101728893D01*
X195785959Y-101578398D01*
X195785955Y-101578392D01*
X195783376Y-101574184D01*
X195629169Y-101393631D01*
X195448616Y-101239424D01*
X195444408Y-101236845D01*
X195444402Y-101236841D01*
X195250383Y-101117946D01*
X195246163Y-101115360D01*
X195241593Y-101113467D01*
X195241589Y-101113465D01*
X195031367Y-101026389D01*
X195031365Y-101026388D01*
X195026794Y-101024495D01*
X194938598Y-101003321D01*
X194800724Y-100970220D01*
X194800718Y-100970219D01*
X194795911Y-100969065D01*
X194559200Y-100950435D01*
X194322489Y-100969065D01*
X194317682Y-100970219D01*
X194317676Y-100970220D01*
X194179802Y-101003321D01*
X194091606Y-101024495D01*
X194087035Y-101026388D01*
X194087033Y-101026389D01*
X193876811Y-101113465D01*
X193876807Y-101113467D01*
X193872237Y-101115360D01*
X193868017Y-101117946D01*
X193673998Y-101236841D01*
X193673992Y-101236845D01*
X193669784Y-101239424D01*
X193489231Y-101393631D01*
X193335024Y-101574184D01*
X193332445Y-101578392D01*
X193332441Y-101578398D01*
X193240218Y-101728893D01*
X193210960Y-101776637D01*
X193209067Y-101781207D01*
X193209065Y-101781211D01*
X193121989Y-101991433D01*
X193120095Y-101996006D01*
X193118940Y-102000818D01*
X193069197Y-102208013D01*
X193064665Y-102226889D01*
X193046035Y-102463600D01*
X185911475Y-102463600D01*
X185911475Y-102458670D01*
X185893628Y-102231901D01*
X185892085Y-102222154D01*
X185838983Y-102000973D01*
X185835934Y-101991588D01*
X185748887Y-101781437D01*
X185744405Y-101772642D01*
X185641768Y-101605155D01*
X185631310Y-101595693D01*
X185622534Y-101599476D01*
X184771222Y-102450788D01*
X184763608Y-102464732D01*
X184033556Y-102464732D01*
X184034792Y-102462468D01*
X184034661Y-102460635D01*
X184030410Y-102454020D01*
X183178910Y-101602520D01*
X183166530Y-101595760D01*
X183158880Y-101601487D01*
X183053995Y-101772642D01*
X183049513Y-101781437D01*
X182962466Y-101991588D01*
X182959417Y-102000973D01*
X182906315Y-102222154D01*
X182904772Y-102231901D01*
X182886925Y-102458670D01*
X182886925Y-102468530D01*
X175751977Y-102468530D01*
X175752365Y-102463600D01*
X175733735Y-102226889D01*
X175729204Y-102208013D01*
X175679460Y-102000818D01*
X175678305Y-101996006D01*
X175676411Y-101991433D01*
X175589335Y-101781211D01*
X175589333Y-101781207D01*
X175587440Y-101776637D01*
X175558182Y-101728893D01*
X175465959Y-101578398D01*
X175465955Y-101578392D01*
X175463376Y-101574184D01*
X175309169Y-101393631D01*
X175128616Y-101239424D01*
X175124408Y-101236845D01*
X175124402Y-101236841D01*
X175115670Y-101231490D01*
X183531293Y-101231490D01*
X183535076Y-101240266D01*
X184386388Y-102091578D01*
X184400332Y-102099192D01*
X184402165Y-102099061D01*
X184408780Y-102094810D01*
X185260280Y-101243310D01*
X185267040Y-101230930D01*
X185261313Y-101223280D01*
X185090158Y-101118395D01*
X185081363Y-101113913D01*
X184871212Y-101026866D01*
X184861827Y-101023817D01*
X184640646Y-100970715D01*
X184630899Y-100969172D01*
X184404130Y-100951325D01*
X184394270Y-100951325D01*
X184167501Y-100969172D01*
X184157754Y-100970715D01*
X183936573Y-101023817D01*
X183927188Y-101026866D01*
X183717037Y-101113913D01*
X183708242Y-101118395D01*
X183540755Y-101221032D01*
X183531293Y-101231490D01*
X175115670Y-101231490D01*
X174930383Y-101117946D01*
X174926163Y-101115360D01*
X174921593Y-101113467D01*
X174921589Y-101113465D01*
X174711367Y-101026389D01*
X174711365Y-101026388D01*
X174706794Y-101024495D01*
X174618598Y-101003321D01*
X174480724Y-100970220D01*
X174480718Y-100970219D01*
X174475911Y-100969065D01*
X174239200Y-100950435D01*
X174002489Y-100969065D01*
X173997682Y-100970219D01*
X173997676Y-100970220D01*
X173859802Y-101003321D01*
X173771606Y-101024495D01*
X173767035Y-101026388D01*
X173767033Y-101026389D01*
X173556811Y-101113465D01*
X173556807Y-101113467D01*
X173552237Y-101115360D01*
X173548017Y-101117946D01*
X173353998Y-101236841D01*
X173353992Y-101236845D01*
X173349784Y-101239424D01*
X173169231Y-101393631D01*
X173015024Y-101574184D01*
X173012445Y-101578392D01*
X173012441Y-101578398D01*
X172920218Y-101728893D01*
X172890960Y-101776637D01*
X172889067Y-101781207D01*
X172889065Y-101781211D01*
X172801989Y-101991433D01*
X172800095Y-101996006D01*
X172798940Y-102000818D01*
X172749197Y-102208013D01*
X172744665Y-102226889D01*
X172726035Y-102463600D01*
X170270765Y-102463600D01*
X170252135Y-102226889D01*
X170247604Y-102208013D01*
X170197860Y-102000818D01*
X170196705Y-101996006D01*
X170194811Y-101991433D01*
X170107735Y-101781211D01*
X170107733Y-101781207D01*
X170105840Y-101776637D01*
X170076582Y-101728893D01*
X169984359Y-101578398D01*
X169984355Y-101578392D01*
X169981776Y-101574184D01*
X169827569Y-101393631D01*
X169647016Y-101239424D01*
X169642808Y-101236845D01*
X169642802Y-101236841D01*
X169448783Y-101117946D01*
X169444563Y-101115360D01*
X169439993Y-101113467D01*
X169439989Y-101113465D01*
X169229767Y-101026389D01*
X169229765Y-101026388D01*
X169225194Y-101024495D01*
X169136998Y-101003321D01*
X168999124Y-100970220D01*
X168999118Y-100970219D01*
X168994311Y-100969065D01*
X168757600Y-100950435D01*
X168520889Y-100969065D01*
X168516082Y-100970219D01*
X168516076Y-100970220D01*
X168378202Y-101003321D01*
X168290006Y-101024495D01*
X168285435Y-101026388D01*
X168285433Y-101026389D01*
X168075211Y-101113465D01*
X168075207Y-101113467D01*
X168070637Y-101115360D01*
X168066417Y-101117946D01*
X167872398Y-101236841D01*
X167872392Y-101236845D01*
X167868184Y-101239424D01*
X167687631Y-101393631D01*
X167533424Y-101574184D01*
X167530845Y-101578392D01*
X167530841Y-101578398D01*
X167438618Y-101728893D01*
X167409360Y-101776637D01*
X167407467Y-101781207D01*
X167407465Y-101781211D01*
X167320389Y-101991433D01*
X167318495Y-101996006D01*
X167317340Y-102000818D01*
X167267597Y-102208013D01*
X167263065Y-102226889D01*
X167244435Y-102463600D01*
X160109875Y-102463600D01*
X160109875Y-102458670D01*
X160092028Y-102231901D01*
X160090485Y-102222154D01*
X160037383Y-102000973D01*
X160034334Y-101991588D01*
X159947287Y-101781437D01*
X159942805Y-101772642D01*
X159840168Y-101605155D01*
X159829710Y-101595693D01*
X159820934Y-101599476D01*
X158969622Y-102450788D01*
X158962008Y-102464732D01*
X158231956Y-102464732D01*
X158233192Y-102462468D01*
X158233061Y-102460635D01*
X158228810Y-102454020D01*
X157377310Y-101602520D01*
X157364930Y-101595760D01*
X157357280Y-101601487D01*
X157252395Y-101772642D01*
X157247913Y-101781437D01*
X157160866Y-101991588D01*
X157157817Y-102000973D01*
X157104715Y-102222154D01*
X157103172Y-102231901D01*
X157085325Y-102458670D01*
X157085325Y-102468530D01*
X149950377Y-102468530D01*
X149950765Y-102463600D01*
X149932135Y-102226889D01*
X149927604Y-102208013D01*
X149877860Y-102000818D01*
X149876705Y-101996006D01*
X149874811Y-101991433D01*
X149787735Y-101781211D01*
X149787733Y-101781207D01*
X149785840Y-101776637D01*
X149756582Y-101728893D01*
X149664359Y-101578398D01*
X149664355Y-101578392D01*
X149661776Y-101574184D01*
X149507569Y-101393631D01*
X149327016Y-101239424D01*
X149322808Y-101236845D01*
X149322802Y-101236841D01*
X149314070Y-101231490D01*
X157729693Y-101231490D01*
X157733476Y-101240266D01*
X158584788Y-102091578D01*
X158598732Y-102099192D01*
X158600565Y-102099061D01*
X158607180Y-102094810D01*
X159458680Y-101243310D01*
X159465440Y-101230930D01*
X159459713Y-101223280D01*
X159288558Y-101118395D01*
X159279763Y-101113913D01*
X159069612Y-101026866D01*
X159060227Y-101023817D01*
X158839046Y-100970715D01*
X158829299Y-100969172D01*
X158602530Y-100951325D01*
X158592670Y-100951325D01*
X158365901Y-100969172D01*
X158356154Y-100970715D01*
X158134973Y-101023817D01*
X158125588Y-101026866D01*
X157915437Y-101113913D01*
X157906642Y-101118395D01*
X157739155Y-101221032D01*
X157729693Y-101231490D01*
X149314070Y-101231490D01*
X149128783Y-101117946D01*
X149124563Y-101115360D01*
X149119993Y-101113467D01*
X149119989Y-101113465D01*
X148909767Y-101026389D01*
X148909765Y-101026388D01*
X148905194Y-101024495D01*
X148816998Y-101003321D01*
X148679124Y-100970220D01*
X148679118Y-100970219D01*
X148674311Y-100969065D01*
X148437600Y-100950435D01*
X148200889Y-100969065D01*
X148196082Y-100970219D01*
X148196076Y-100970220D01*
X148058202Y-101003321D01*
X147970006Y-101024495D01*
X147965435Y-101026388D01*
X147965433Y-101026389D01*
X147755211Y-101113465D01*
X147755207Y-101113467D01*
X147750637Y-101115360D01*
X147746417Y-101117946D01*
X147552398Y-101236841D01*
X147552392Y-101236845D01*
X147548184Y-101239424D01*
X147367631Y-101393631D01*
X147213424Y-101574184D01*
X147210845Y-101578392D01*
X147210841Y-101578398D01*
X147118618Y-101728893D01*
X147089360Y-101776637D01*
X147087467Y-101781207D01*
X147087465Y-101781211D01*
X147000389Y-101991433D01*
X146998495Y-101996006D01*
X146997340Y-102000818D01*
X146947597Y-102208013D01*
X146943065Y-102226889D01*
X146924435Y-102463600D01*
X133524189Y-102463600D01*
X133796074Y-102191715D01*
X133808465Y-102180848D01*
X133827277Y-102166413D01*
X133833827Y-102161387D01*
X133858314Y-102129475D01*
X133858318Y-102129471D01*
X133931364Y-102034276D01*
X133992678Y-101886251D01*
X134001951Y-101815814D01*
X134008340Y-101767285D01*
X134008340Y-101767280D01*
X134013590Y-101727400D01*
X134009418Y-101695707D01*
X134008340Y-101679264D01*
X134008340Y-99709839D01*
X134028342Y-99641718D01*
X134081998Y-99595225D01*
X134152272Y-99585121D01*
X134216852Y-99614615D01*
X134223435Y-99620744D01*
X134855035Y-100252344D01*
X134889061Y-100314656D01*
X134891940Y-100341439D01*
X134891940Y-101702600D01*
X134892277Y-101705846D01*
X134892277Y-101705850D01*
X134898652Y-101767285D01*
X134902914Y-101808366D01*
X134905095Y-101814902D01*
X134905095Y-101814904D01*
X134931444Y-101893880D01*
X134958890Y-101976146D01*
X135051962Y-102126548D01*
X135057144Y-102131721D01*
X135117243Y-102191715D01*
X135177137Y-102251505D01*
X135183367Y-102255345D01*
X135183368Y-102255346D01*
X135320530Y-102339894D01*
X135327702Y-102344315D01*
X135370255Y-102358429D01*
X135489051Y-102397832D01*
X135489053Y-102397832D01*
X135495579Y-102399997D01*
X135502415Y-102400697D01*
X135502418Y-102400698D01*
X135545471Y-102405109D01*
X135600040Y-102410700D01*
X136940840Y-102410700D01*
X136944086Y-102410363D01*
X136944090Y-102410363D01*
X137039748Y-102400438D01*
X137039752Y-102400437D01*
X137046606Y-102399726D01*
X137053142Y-102397545D01*
X137053144Y-102397545D01*
X137185246Y-102353472D01*
X137214386Y-102343750D01*
X137364788Y-102250678D01*
X137489745Y-102125503D01*
X137505964Y-102099192D01*
X137582555Y-101974938D01*
X137584702Y-101976262D01*
X137623752Y-101931910D01*
X137692029Y-101912448D01*
X137759989Y-101932988D01*
X137782201Y-101951472D01*
X137890030Y-102064506D01*
X137890042Y-102064516D01*
X137893716Y-102068368D01*
X138081405Y-102208013D01*
X138086156Y-102210429D01*
X138086160Y-102210431D01*
X138285184Y-102311620D01*
X138289940Y-102314038D01*
X138513357Y-102383410D01*
X138518644Y-102384111D01*
X138518645Y-102384111D01*
X138739985Y-102413448D01*
X138739989Y-102413448D01*
X138745269Y-102414148D01*
X138750598Y-102413948D01*
X138750600Y-102413948D01*
X138862157Y-102409760D01*
X138979044Y-102405372D01*
X139082708Y-102383621D01*
X139202772Y-102358429D01*
X139202775Y-102358428D01*
X139207999Y-102357332D01*
X139425586Y-102271403D01*
X139535300Y-102204827D01*
X139621023Y-102152809D01*
X139621026Y-102152807D01*
X139625584Y-102150041D01*
X139802274Y-101996717D01*
X139950605Y-101815814D01*
X139953408Y-101810891D01*
X139972017Y-101778199D01*
X140023099Y-101728893D01*
X140092729Y-101715031D01*
X140158800Y-101741014D01*
X140186039Y-101770164D01*
X140269650Y-101894355D01*
X140276311Y-101902641D01*
X140430364Y-102064130D01*
X140438332Y-102071179D01*
X140617392Y-102204403D01*
X140626422Y-102210002D01*
X140825371Y-102311153D01*
X140835232Y-102315156D01*
X141048369Y-102381338D01*
X141058749Y-102383620D01*
X141078483Y-102386236D01*
X141092647Y-102384040D01*
X141096440Y-102370855D01*
X141096440Y-102368827D01*
X141604440Y-102368827D01*
X141608413Y-102382358D01*
X141619020Y-102383883D01*
X141742628Y-102357948D01*
X141752824Y-102354888D01*
X141960392Y-102272916D01*
X141969929Y-102268182D01*
X142160725Y-102152404D01*
X142169318Y-102146138D01*
X142337881Y-101999867D01*
X142345301Y-101992236D01*
X142486808Y-101819658D01*
X142492833Y-101810891D01*
X142603237Y-101616938D01*
X142607702Y-101607274D01*
X142683850Y-101397489D01*
X142686621Y-101387221D01*
X142726546Y-101166434D01*
X142727479Y-101158205D01*
X142728370Y-101139326D01*
X142728440Y-101136351D01*
X142728440Y-101079315D01*
X142723965Y-101064076D01*
X142722575Y-101062871D01*
X142714892Y-101061200D01*
X141622555Y-101061200D01*
X141607316Y-101065675D01*
X141606111Y-101067065D01*
X141604440Y-101074748D01*
X141604440Y-102368827D01*
X141096440Y-102368827D01*
X141096440Y-100535085D01*
X141604440Y-100535085D01*
X141608915Y-100550324D01*
X141610305Y-100551529D01*
X141617988Y-100553200D01*
X142710325Y-100553200D01*
X142725564Y-100548725D01*
X142726769Y-100547335D01*
X142728440Y-100539652D01*
X142728440Y-100526146D01*
X142728215Y-100520837D01*
X142714101Y-100354493D01*
X142712311Y-100344021D01*
X142656242Y-100127998D01*
X142652706Y-100117958D01*
X142561041Y-99914468D01*
X142555872Y-99905182D01*
X142431230Y-99720045D01*
X142424569Y-99711759D01*
X142270516Y-99550270D01*
X142262548Y-99543221D01*
X142083488Y-99409997D01*
X142074458Y-99404398D01*
X141875509Y-99303247D01*
X141865648Y-99299244D01*
X141652511Y-99233062D01*
X141642131Y-99230780D01*
X141622397Y-99228164D01*
X141608233Y-99230360D01*
X141604440Y-99243545D01*
X141604440Y-100535085D01*
X141096440Y-100535085D01*
X141096440Y-99245573D01*
X141092467Y-99232042D01*
X141081860Y-99230517D01*
X140958252Y-99256452D01*
X140948056Y-99259512D01*
X140740488Y-99341484D01*
X140730951Y-99346218D01*
X140540155Y-99461996D01*
X140531562Y-99468262D01*
X140362999Y-99614533D01*
X140355579Y-99622164D01*
X140214072Y-99794742D01*
X140208047Y-99803509D01*
X140189451Y-99836178D01*
X140138369Y-99885485D01*
X140068738Y-99899346D01*
X140002667Y-99873363D01*
X139975429Y-99844213D01*
X139930582Y-99777599D01*
X139888642Y-99715304D01*
X139727164Y-99546032D01*
X139702965Y-99528027D01*
X139543757Y-99409573D01*
X139543758Y-99409573D01*
X139539475Y-99406387D01*
X139534724Y-99403971D01*
X139534720Y-99403969D01*
X139335696Y-99302780D01*
X139335695Y-99302780D01*
X139330940Y-99300362D01*
X139107523Y-99230990D01*
X139102236Y-99230289D01*
X139102235Y-99230289D01*
X138880895Y-99200952D01*
X138880891Y-99200952D01*
X138875611Y-99200252D01*
X138870282Y-99200452D01*
X138870280Y-99200452D01*
X138767008Y-99204329D01*
X138641836Y-99209028D01*
X138557851Y-99226650D01*
X138418108Y-99255971D01*
X138418105Y-99255972D01*
X138412881Y-99257068D01*
X138195294Y-99342997D01*
X138190730Y-99345766D01*
X138190731Y-99345766D01*
X137999857Y-99461591D01*
X137999854Y-99461593D01*
X137995296Y-99464359D01*
X137818606Y-99617683D01*
X137800749Y-99639462D01*
X137788033Y-99654970D01*
X137729373Y-99694964D01*
X137658402Y-99696895D01*
X137597654Y-99660150D01*
X137582707Y-99637810D01*
X137581990Y-99638254D01*
X137492772Y-99494080D01*
X137488918Y-99487852D01*
X137363743Y-99362895D01*
X137328280Y-99341035D01*
X137219408Y-99273925D01*
X137219406Y-99273924D01*
X137213178Y-99270085D01*
X137133162Y-99243545D01*
X137051829Y-99216568D01*
X137051827Y-99216568D01*
X137045301Y-99214403D01*
X137038465Y-99213703D01*
X137038462Y-99213702D01*
X136990889Y-99208828D01*
X136940840Y-99203700D01*
X135600040Y-99203700D01*
X135595618Y-99204159D01*
X135593974Y-99204329D01*
X135524154Y-99191459D01*
X135491885Y-99168096D01*
X134444765Y-98120976D01*
X134410739Y-98058664D01*
X134407860Y-98031881D01*
X134407860Y-96157325D01*
X141099085Y-96157325D01*
X141117010Y-96354288D01*
X141172850Y-96544019D01*
X141175703Y-96549477D01*
X141175705Y-96549481D01*
X141223160Y-96640253D01*
X141264480Y-96719290D01*
X141388408Y-96873425D01*
X141393132Y-96877389D01*
X141400373Y-96883465D01*
X141539914Y-97000554D01*
X141545312Y-97003521D01*
X141545317Y-97003525D01*
X141688620Y-97082305D01*
X141713227Y-97095833D01*
X141719094Y-97097694D01*
X141719096Y-97097695D01*
X141895876Y-97153773D01*
X141901746Y-97155635D01*
X142055667Y-97172900D01*
X150366969Y-97172900D01*
X150370025Y-97172600D01*
X150370032Y-97172600D01*
X150428540Y-97166863D01*
X150514033Y-97158480D01*
X150519934Y-97156698D01*
X150519936Y-97156698D01*
X150593253Y-97134562D01*
X150703369Y-97101316D01*
X150877996Y-97008466D01*
X150964262Y-96938109D01*
X151026487Y-96887360D01*
X151026490Y-96887357D01*
X151031262Y-96883465D01*
X151043544Y-96868619D01*
X151153401Y-96735825D01*
X151153403Y-96735821D01*
X151157330Y-96731075D01*
X151251398Y-96557101D01*
X151309882Y-96368168D01*
X151330555Y-96171475D01*
X151312630Y-95974512D01*
X151256790Y-95784781D01*
X151247119Y-95766281D01*
X151168013Y-95614968D01*
X151165160Y-95609510D01*
X151041232Y-95455375D01*
X150889726Y-95328246D01*
X150884328Y-95325279D01*
X150884323Y-95325275D01*
X150721808Y-95235933D01*
X150721809Y-95235933D01*
X150716413Y-95232967D01*
X150710546Y-95231106D01*
X150710544Y-95231105D01*
X150533764Y-95175027D01*
X150533763Y-95175027D01*
X150527894Y-95173165D01*
X150373973Y-95155900D01*
X147933212Y-95155900D01*
X147865091Y-95135898D01*
X147818598Y-95082242D01*
X147807902Y-95016729D01*
X147824711Y-94856802D01*
X147825355Y-94850675D01*
X147807430Y-94653712D01*
X147751590Y-94463981D01*
X147741919Y-94445481D01*
X147662813Y-94294168D01*
X147659960Y-94288710D01*
X147536032Y-94134575D01*
X147529727Y-94129284D01*
X147513334Y-94115529D01*
X147384526Y-94007446D01*
X147379128Y-94004479D01*
X147379123Y-94004475D01*
X147216608Y-93915133D01*
X147216609Y-93915133D01*
X147211213Y-93912167D01*
X147205346Y-93910306D01*
X147205344Y-93910305D01*
X147028564Y-93854227D01*
X147028563Y-93854227D01*
X147022694Y-93852365D01*
X146868773Y-93835100D01*
X142187991Y-93835100D01*
X142184935Y-93835400D01*
X142184928Y-93835400D01*
X142126420Y-93841137D01*
X142040927Y-93849520D01*
X142035026Y-93851302D01*
X142035024Y-93851302D01*
X141961707Y-93873438D01*
X141851591Y-93906684D01*
X141676964Y-93999534D01*
X141590698Y-94069891D01*
X141528473Y-94120640D01*
X141528470Y-94120643D01*
X141523698Y-94124535D01*
X141519771Y-94129282D01*
X141519769Y-94129284D01*
X141401559Y-94272175D01*
X141401557Y-94272179D01*
X141397630Y-94276925D01*
X141303562Y-94450899D01*
X141245078Y-94639832D01*
X141224405Y-94836525D01*
X141242330Y-95033488D01*
X141298170Y-95223219D01*
X141301027Y-95228683D01*
X141301029Y-95228689D01*
X141369343Y-95359361D01*
X141383178Y-95428997D01*
X141354768Y-95498050D01*
X141272310Y-95597725D01*
X141178242Y-95771699D01*
X141119758Y-95960632D01*
X141099085Y-96157325D01*
X134407860Y-96157325D01*
X134407860Y-76299312D01*
X134427862Y-76231191D01*
X134469003Y-76194161D01*
X134467884Y-76192477D01*
X134474215Y-76188271D01*
X134480998Y-76184859D01*
X134486773Y-76179927D01*
X134486777Y-76179924D01*
X134555731Y-76121032D01*
X134620520Y-76092001D01*
X134690720Y-76102606D01*
X134744043Y-76149481D01*
X134757394Y-76177907D01*
X134786263Y-76266756D01*
X134881750Y-76432144D01*
X135009537Y-76574066D01*
X135164038Y-76686318D01*
X135170066Y-76689002D01*
X135170068Y-76689003D01*
X135332471Y-76761309D01*
X135338502Y-76763994D01*
X135431902Y-76783847D01*
X135518846Y-76802328D01*
X135518851Y-76802328D01*
X135525303Y-76803700D01*
X135716277Y-76803700D01*
X135722729Y-76802328D01*
X135722734Y-76802328D01*
X135809678Y-76783847D01*
X135903078Y-76763994D01*
X135909109Y-76761309D01*
X136071512Y-76689003D01*
X136071514Y-76689002D01*
X136077542Y-76686318D01*
X136232043Y-76574066D01*
X136345397Y-76448174D01*
X136405839Y-76410936D01*
X136476823Y-76412288D01*
X136513091Y-76430550D01*
X136626488Y-76512938D01*
X136632516Y-76515622D01*
X136632518Y-76515623D01*
X136794921Y-76587929D01*
X136800952Y-76590614D01*
X136894353Y-76610467D01*
X136981296Y-76628948D01*
X136981301Y-76628948D01*
X136987753Y-76630320D01*
X137178727Y-76630320D01*
X137185179Y-76628948D01*
X137185184Y-76628948D01*
X137272127Y-76610467D01*
X137365528Y-76590614D01*
X137371559Y-76587929D01*
X137533962Y-76515623D01*
X137533964Y-76515622D01*
X137539992Y-76512938D01*
X137694493Y-76400686D01*
X137735341Y-76355320D01*
X137817861Y-76263672D01*
X137817862Y-76263671D01*
X137822280Y-76258764D01*
X137917767Y-76093376D01*
X137976782Y-75911748D01*
X137993428Y-75753375D01*
X137996054Y-75728385D01*
X137996744Y-75721820D01*
X137996054Y-75715255D01*
X137977472Y-75538455D01*
X137977472Y-75538453D01*
X137976782Y-75531892D01*
X137917767Y-75350264D01*
X137822280Y-75184876D01*
X137694493Y-75042954D01*
X137580360Y-74960031D01*
X137545334Y-74934583D01*
X137545333Y-74934582D01*
X137539992Y-74930702D01*
X137533964Y-74928018D01*
X137533962Y-74928017D01*
X137371559Y-74855711D01*
X137371558Y-74855711D01*
X137365528Y-74853026D01*
X137258423Y-74830260D01*
X137185184Y-74814692D01*
X137185179Y-74814692D01*
X137178727Y-74813320D01*
X136987753Y-74813320D01*
X136981301Y-74814692D01*
X136981296Y-74814692D01*
X136908057Y-74830260D01*
X136800952Y-74853026D01*
X136794922Y-74855711D01*
X136794921Y-74855711D01*
X136632518Y-74928017D01*
X136632516Y-74928018D01*
X136626488Y-74930702D01*
X136621147Y-74934582D01*
X136621146Y-74934583D01*
X136586120Y-74960031D01*
X136471987Y-75042954D01*
X136467572Y-75047857D01*
X136462660Y-75052280D01*
X136461535Y-75051031D01*
X136408226Y-75083871D01*
X136375040Y-75088320D01*
X136068923Y-75088320D01*
X136017675Y-75077427D01*
X135909113Y-75029092D01*
X135909105Y-75029089D01*
X135903078Y-75026406D01*
X135802832Y-75005098D01*
X135722734Y-74988072D01*
X135722729Y-74988072D01*
X135716277Y-74986700D01*
X135525303Y-74986700D01*
X135518851Y-74988072D01*
X135518846Y-74988072D01*
X135438748Y-75005098D01*
X135338502Y-75026406D01*
X135332472Y-75029091D01*
X135332471Y-75029091D01*
X135170068Y-75101397D01*
X135170066Y-75101398D01*
X135164038Y-75104082D01*
X135158697Y-75107962D01*
X135158696Y-75107963D01*
X135144305Y-75118419D01*
X135009537Y-75216334D01*
X135005116Y-75221244D01*
X135005115Y-75221245D01*
X134931392Y-75303123D01*
X134870946Y-75340363D01*
X134799963Y-75339011D01*
X134740978Y-75299498D01*
X134725595Y-75273131D01*
X134724732Y-75273582D01*
X134721211Y-75266847D01*
X134718527Y-75259744D01*
X134688692Y-75216334D01*
X134625699Y-75124678D01*
X134625698Y-75124676D01*
X134621397Y-75118419D01*
X134615726Y-75113366D01*
X134499033Y-75009396D01*
X134499030Y-75009394D01*
X134493361Y-75004343D01*
X134485365Y-75000109D01*
X134432763Y-74972258D01*
X134341809Y-74924100D01*
X134324232Y-74919685D01*
X134182862Y-74884175D01*
X134182858Y-74884175D01*
X134175491Y-74882324D01*
X134167892Y-74882284D01*
X134167890Y-74882284D01*
X134096434Y-74881910D01*
X134004009Y-74881426D01*
X133996629Y-74883198D01*
X133996627Y-74883198D01*
X133914191Y-74902989D01*
X133837263Y-74921458D01*
X133830511Y-74924943D01*
X133788624Y-74946562D01*
X133718917Y-74960031D01*
X133671878Y-74945951D01*
X133630609Y-74924100D01*
X133613032Y-74919685D01*
X133471662Y-74884175D01*
X133471658Y-74884175D01*
X133464291Y-74882324D01*
X133456692Y-74882284D01*
X133456690Y-74882284D01*
X133385234Y-74881910D01*
X133292809Y-74881426D01*
X133285429Y-74883198D01*
X133285427Y-74883198D01*
X133133442Y-74919686D01*
X133133438Y-74919687D01*
X133126063Y-74921458D01*
X132973679Y-75000109D01*
X132844455Y-75112839D01*
X132745850Y-75253139D01*
X132683558Y-75412909D01*
X132682566Y-75420442D01*
X132682566Y-75420443D01*
X132667030Y-75538455D01*
X132661175Y-75582926D01*
X132679993Y-75753375D01*
X132738925Y-75914415D01*
X132769922Y-75960543D01*
X132791340Y-76030817D01*
X132791340Y-99426938D01*
X132771338Y-99495059D01*
X132717682Y-99541552D01*
X132647408Y-99551656D01*
X132590128Y-99528027D01*
X132431496Y-99410002D01*
X132422458Y-99404398D01*
X132223509Y-99303247D01*
X132213648Y-99299244D01*
X132000511Y-99233062D01*
X131990131Y-99230780D01*
X131970397Y-99228164D01*
X131956233Y-99230360D01*
X131952440Y-99243545D01*
X131952440Y-100935200D01*
X131932438Y-101003321D01*
X131878782Y-101049814D01*
X131826440Y-101061200D01*
X131570440Y-101061200D01*
X131502319Y-101041198D01*
X131455826Y-100987542D01*
X131444440Y-100935200D01*
X131444440Y-99245573D01*
X131440467Y-99232042D01*
X131429860Y-99230517D01*
X131306252Y-99256452D01*
X131296056Y-99259512D01*
X131088488Y-99341484D01*
X131078951Y-99346218D01*
X130888155Y-99461996D01*
X130879562Y-99468262D01*
X130710999Y-99614533D01*
X130703579Y-99622164D01*
X130562072Y-99794742D01*
X130556047Y-99803509D01*
X130537451Y-99836178D01*
X130486369Y-99885485D01*
X130416738Y-99899346D01*
X130350667Y-99873363D01*
X130323429Y-99844213D01*
X130278582Y-99777599D01*
X130236642Y-99715304D01*
X130075164Y-99546032D01*
X130050965Y-99528027D01*
X129891757Y-99409573D01*
X129891758Y-99409573D01*
X129887475Y-99406387D01*
X129882724Y-99403971D01*
X129882720Y-99403969D01*
X129683696Y-99302780D01*
X129683695Y-99302780D01*
X129678940Y-99300362D01*
X129455523Y-99230990D01*
X129450236Y-99230289D01*
X129450235Y-99230289D01*
X129228895Y-99200952D01*
X129228891Y-99200952D01*
X129223611Y-99200252D01*
X129218282Y-99200452D01*
X129218280Y-99200452D01*
X129115008Y-99204329D01*
X128989836Y-99209028D01*
X128905851Y-99226650D01*
X128766108Y-99255971D01*
X128766105Y-99255972D01*
X128760881Y-99257068D01*
X128710731Y-99276873D01*
X128640027Y-99283291D01*
X128577075Y-99250464D01*
X128541865Y-99188814D01*
X128538451Y-99159681D01*
X128538451Y-74943397D01*
X128558453Y-74875276D01*
X128575356Y-74854302D01*
X129779351Y-73650307D01*
X141396556Y-73650307D01*
X141415374Y-73820756D01*
X141474306Y-73981796D01*
X141569951Y-74124130D01*
X141696786Y-74239541D01*
X141699122Y-74240809D01*
X141741762Y-74294921D01*
X141747662Y-74318427D01*
X141748083Y-74318328D01*
X141749818Y-74325723D01*
X141750651Y-74333273D01*
X141809583Y-74494313D01*
X141905228Y-74636647D01*
X142032063Y-74752058D01*
X142182766Y-74833883D01*
X142348637Y-74877399D01*
X142436084Y-74878772D01*
X142512501Y-74879973D01*
X142512504Y-74879973D01*
X142520100Y-74880092D01*
X142527504Y-74878396D01*
X142527506Y-74878396D01*
X142632705Y-74854302D01*
X142687257Y-74841808D01*
X142840456Y-74764757D01*
X142846227Y-74759828D01*
X142846230Y-74759826D01*
X142965076Y-74658321D01*
X142970853Y-74653387D01*
X143070922Y-74514128D01*
X143110626Y-74415360D01*
X143138439Y-74373261D01*
X146340647Y-71171053D01*
X146348937Y-71163509D01*
X146355418Y-71159396D01*
X146402059Y-71109728D01*
X146404813Y-71106887D01*
X146424535Y-71087165D01*
X146427012Y-71083972D01*
X146434717Y-71074951D01*
X146459559Y-71048496D01*
X146464986Y-71042717D01*
X146468807Y-71035767D01*
X146474746Y-71024964D01*
X146485602Y-71008437D01*
X146493157Y-70998698D01*
X146493158Y-70998696D01*
X146498014Y-70992436D01*
X146515574Y-70951856D01*
X146520791Y-70941208D01*
X146538275Y-70909405D01*
X146538276Y-70909403D01*
X146542095Y-70902456D01*
X146547133Y-70882833D01*
X146553537Y-70864130D01*
X146558433Y-70852816D01*
X146558433Y-70852815D01*
X146561581Y-70845541D01*
X146562820Y-70837718D01*
X146562823Y-70837708D01*
X146568499Y-70801872D01*
X146570905Y-70790252D01*
X146579928Y-70755107D01*
X146579928Y-70755106D01*
X146581900Y-70747426D01*
X146581900Y-70727172D01*
X146583451Y-70707461D01*
X146585380Y-70695282D01*
X146586620Y-70687453D01*
X146582459Y-70643434D01*
X146581900Y-70631577D01*
X146581900Y-63588262D01*
X146605578Y-63514735D01*
X146620192Y-63494398D01*
X146620193Y-63494397D01*
X146624624Y-63488230D01*
X146688585Y-63329120D01*
X146712747Y-63159347D01*
X146712904Y-63144400D01*
X146700008Y-63037835D01*
X146693215Y-62981699D01*
X146693214Y-62981696D01*
X146692302Y-62974158D01*
X146631687Y-62813744D01*
X146534557Y-62672419D01*
X146481533Y-62625176D01*
X146412193Y-62563396D01*
X146412190Y-62563394D01*
X146406521Y-62558343D01*
X146254969Y-62478100D01*
X146237396Y-62473686D01*
X146096022Y-62438175D01*
X146096018Y-62438175D01*
X146088651Y-62436324D01*
X146081052Y-62436284D01*
X146081050Y-62436284D01*
X146009594Y-62435910D01*
X145917169Y-62435426D01*
X145909789Y-62437198D01*
X145909787Y-62437198D01*
X145757802Y-62473686D01*
X145757798Y-62473687D01*
X145750423Y-62475458D01*
X145694634Y-62504253D01*
X145647152Y-62528760D01*
X145577445Y-62542229D01*
X145558674Y-62538999D01*
X145412973Y-62502402D01*
X145405374Y-62502362D01*
X145405372Y-62502362D01*
X145333916Y-62501988D01*
X145241491Y-62501504D01*
X145234111Y-62503276D01*
X145234109Y-62503276D01*
X145082124Y-62539764D01*
X145082120Y-62539765D01*
X145074745Y-62541536D01*
X144922361Y-62620187D01*
X144793137Y-62732917D01*
X144694532Y-62873217D01*
X144691772Y-62880297D01*
X144635963Y-63023439D01*
X144632240Y-63032987D01*
X144631248Y-63040520D01*
X144631248Y-63040521D01*
X144612492Y-63182992D01*
X144609857Y-63203004D01*
X144619266Y-63288228D01*
X144627324Y-63361213D01*
X144628675Y-63373453D01*
X144631284Y-63380584D01*
X144631285Y-63380586D01*
X144680377Y-63514735D01*
X144687607Y-63534493D01*
X144691617Y-63540460D01*
X144705300Y-63597458D01*
X144705300Y-70114607D01*
X144685298Y-70182728D01*
X144668395Y-70203702D01*
X141914051Y-72958046D01*
X141868875Y-72987049D01*
X141868830Y-72987066D01*
X141861444Y-72988839D01*
X141854698Y-72992321D01*
X141854695Y-72992322D01*
X141794456Y-73023414D01*
X141709060Y-73067490D01*
X141579836Y-73180220D01*
X141481231Y-73320520D01*
X141418939Y-73480290D01*
X141396556Y-73650307D01*
X129779351Y-73650307D01*
X130398048Y-73031610D01*
X130406338Y-73024066D01*
X130412819Y-73019953D01*
X130459460Y-72970285D01*
X130462214Y-72967444D01*
X130481936Y-72947722D01*
X130484413Y-72944529D01*
X130492118Y-72935508D01*
X130516960Y-72909053D01*
X130522387Y-72903274D01*
X130526208Y-72896324D01*
X130532147Y-72885521D01*
X130543003Y-72868994D01*
X130550558Y-72859255D01*
X130550559Y-72859253D01*
X130555415Y-72852993D01*
X130572975Y-72812413D01*
X130578192Y-72801765D01*
X130595676Y-72769962D01*
X130595677Y-72769960D01*
X130599496Y-72763013D01*
X130604534Y-72743390D01*
X130610938Y-72724687D01*
X130615834Y-72713373D01*
X130615834Y-72713372D01*
X130618982Y-72706098D01*
X130620221Y-72698275D01*
X130620224Y-72698265D01*
X130625900Y-72662429D01*
X130628306Y-72650809D01*
X130637329Y-72615664D01*
X130637329Y-72615663D01*
X130639301Y-72607983D01*
X130639301Y-72587729D01*
X130640852Y-72568018D01*
X130642781Y-72555839D01*
X130644021Y-72548010D01*
X130639860Y-72503991D01*
X130639301Y-72492134D01*
X130639301Y-71969368D01*
X130639828Y-71958185D01*
X130641503Y-71950692D01*
X130639363Y-71882615D01*
X130639301Y-71878656D01*
X130639301Y-71850745D01*
X130638796Y-71846745D01*
X130637863Y-71834902D01*
X130636723Y-71798630D01*
X130636474Y-71790711D01*
X130630823Y-71771259D01*
X130626815Y-71751907D01*
X130625268Y-71739664D01*
X130624275Y-71731804D01*
X130612879Y-71703020D01*
X130608001Y-71690698D01*
X130604156Y-71679471D01*
X130599905Y-71664841D01*
X130591819Y-71637008D01*
X130587785Y-71630186D01*
X130587782Y-71630180D01*
X130581507Y-71619569D01*
X130572811Y-71601819D01*
X130568273Y-71590357D01*
X130568270Y-71590352D01*
X130565353Y-71582984D01*
X130539374Y-71547226D01*
X130532858Y-71537308D01*
X130514376Y-71506058D01*
X130510343Y-71499238D01*
X130496019Y-71484914D01*
X130483177Y-71469879D01*
X130471273Y-71453494D01*
X130437207Y-71425312D01*
X130428428Y-71417323D01*
X127924405Y-68913300D01*
X127890379Y-68850988D01*
X127887500Y-68824205D01*
X127887500Y-67850393D01*
X139193244Y-67850393D01*
X139212062Y-68020842D01*
X139214671Y-68027973D01*
X139214672Y-68027975D01*
X139237211Y-68089564D01*
X139270994Y-68181882D01*
X139275231Y-68188188D01*
X139275233Y-68188191D01*
X139319530Y-68254111D01*
X139366639Y-68324216D01*
X139493474Y-68439627D01*
X139644177Y-68521452D01*
X139810048Y-68564968D01*
X139897495Y-68566341D01*
X139973912Y-68567542D01*
X139973915Y-68567542D01*
X139981511Y-68567661D01*
X139988915Y-68565965D01*
X139988917Y-68565965D01*
X140051755Y-68551573D01*
X140148668Y-68529377D01*
X140301867Y-68452326D01*
X140307638Y-68447397D01*
X140307641Y-68447395D01*
X140426487Y-68345890D01*
X140432264Y-68340956D01*
X140448825Y-68317910D01*
X140497643Y-68249973D01*
X140553638Y-68206326D01*
X140599965Y-68197500D01*
X142787118Y-68197500D01*
X142847239Y-68212769D01*
X142867852Y-68223961D01*
X142867857Y-68223963D01*
X142874528Y-68227585D01*
X143040399Y-68271101D01*
X143127846Y-68272474D01*
X143204263Y-68273675D01*
X143204266Y-68273675D01*
X143211862Y-68273794D01*
X143219266Y-68272098D01*
X143219268Y-68272098D01*
X143315870Y-68249973D01*
X143379019Y-68235510D01*
X143532218Y-68158459D01*
X143537989Y-68153530D01*
X143537992Y-68153528D01*
X143656838Y-68052023D01*
X143662615Y-68047089D01*
X143735730Y-67945340D01*
X143758252Y-67913998D01*
X143758253Y-67913997D01*
X143762684Y-67907830D01*
X143826645Y-67748720D01*
X143827715Y-67741202D01*
X143850226Y-67583031D01*
X143850226Y-67583027D01*
X143850807Y-67578947D01*
X143850964Y-67564000D01*
X143830362Y-67393758D01*
X143819923Y-67366130D01*
X143772431Y-67240447D01*
X143769747Y-67233344D01*
X143765446Y-67227086D01*
X143676919Y-67098278D01*
X143676918Y-67098276D01*
X143672617Y-67092019D01*
X143666946Y-67086966D01*
X143550253Y-66982996D01*
X143550250Y-66982994D01*
X143544581Y-66977943D01*
X143393029Y-66897700D01*
X143375456Y-66893286D01*
X143234082Y-66857775D01*
X143234078Y-66857775D01*
X143226711Y-66855924D01*
X143219112Y-66855884D01*
X143219110Y-66855884D01*
X143147654Y-66855510D01*
X143055229Y-66855026D01*
X143047849Y-66856798D01*
X143047847Y-66856798D01*
X142895862Y-66893286D01*
X142895858Y-66893287D01*
X142888483Y-66895058D01*
X142876479Y-66901254D01*
X142847006Y-66916466D01*
X142789216Y-66930500D01*
X140279544Y-66930500D01*
X140268361Y-66929973D01*
X140260868Y-66928298D01*
X140252942Y-66928547D01*
X140252941Y-66928547D01*
X140192778Y-66930438D01*
X140188820Y-66930500D01*
X140160920Y-66930500D01*
X140156930Y-66931004D01*
X140145096Y-66931936D01*
X140100887Y-66933326D01*
X140093273Y-66935538D01*
X140093268Y-66935539D01*
X140081435Y-66938977D01*
X140062072Y-66942988D01*
X140041979Y-66945526D01*
X140034612Y-66948443D01*
X140034607Y-66948444D01*
X140000868Y-66961802D01*
X139989641Y-66965646D01*
X139947183Y-66977982D01*
X139940357Y-66982019D01*
X139929748Y-66988293D01*
X139912000Y-66996988D01*
X139893159Y-67004448D01*
X139886743Y-67009110D01*
X139886742Y-67009110D01*
X139857389Y-67030436D01*
X139847468Y-67036952D01*
X139809414Y-67059458D01*
X139803807Y-67065064D01*
X139795091Y-67073780D01*
X139780058Y-67086620D01*
X139763669Y-67098528D01*
X139758617Y-67104635D01*
X139735484Y-67132598D01*
X139727503Y-67141369D01*
X139710737Y-67158135D01*
X139665563Y-67187135D01*
X139665518Y-67187152D01*
X139658132Y-67188925D01*
X139651386Y-67192407D01*
X139651383Y-67192408D01*
X139584196Y-67227086D01*
X139505748Y-67267576D01*
X139376524Y-67380306D01*
X139277919Y-67520606D01*
X139215627Y-67680376D01*
X139214635Y-67687909D01*
X139214635Y-67687910D01*
X139205442Y-67757742D01*
X139193244Y-67850393D01*
X127887500Y-67850393D01*
X127887500Y-61865724D01*
X127907502Y-61797603D01*
X127919858Y-61781421D01*
X127993040Y-61700144D01*
X128088527Y-61534756D01*
X128147542Y-61353128D01*
X128167504Y-61163200D01*
X128147542Y-60973272D01*
X128088527Y-60791644D01*
X127993040Y-60626256D01*
X127865253Y-60484334D01*
X127710752Y-60372082D01*
X127704724Y-60369398D01*
X127704722Y-60369397D01*
X127542319Y-60297091D01*
X127542318Y-60297091D01*
X127536288Y-60294406D01*
X127442888Y-60274553D01*
X127355944Y-60256072D01*
X127355939Y-60256072D01*
X127349487Y-60254700D01*
X127158513Y-60254700D01*
X127152061Y-60256072D01*
X127152056Y-60256072D01*
X127065112Y-60274553D01*
X126971712Y-60294406D01*
X126965682Y-60297091D01*
X126965681Y-60297091D01*
X126803278Y-60369397D01*
X126803276Y-60369398D01*
X126797248Y-60372082D01*
X126642747Y-60484334D01*
X126514960Y-60626256D01*
X126419473Y-60791644D01*
X126360458Y-60973272D01*
X126340496Y-61163200D01*
X126360458Y-61353128D01*
X126419473Y-61534756D01*
X126514960Y-61700144D01*
X126588137Y-61781415D01*
X126618853Y-61845421D01*
X126620500Y-61865724D01*
X126620500Y-68656642D01*
X126600498Y-68724763D01*
X126546842Y-68771256D01*
X126506358Y-68782083D01*
X126481943Y-68784391D01*
X126470085Y-68784950D01*
X122534750Y-68784950D01*
X122466629Y-68764948D01*
X122428958Y-68727390D01*
X122340767Y-68591067D01*
X122340765Y-68591064D01*
X122337959Y-68586727D01*
X122187615Y-68421501D01*
X122183564Y-68418302D01*
X122183560Y-68418298D01*
X122016359Y-68286250D01*
X122016355Y-68286248D01*
X122012304Y-68283048D01*
X121970998Y-68260246D01*
X121921029Y-68209814D01*
X121906257Y-68140371D01*
X121931373Y-68073966D01*
X121958725Y-68047359D01*
X122006485Y-68013292D01*
X122137805Y-67919623D01*
X122149640Y-67907830D01*
X122292380Y-67765587D01*
X122296041Y-67761939D01*
X122355539Y-67679139D01*
X122423380Y-67584727D01*
X122426398Y-67580527D01*
X122432524Y-67568133D01*
X122523081Y-67384903D01*
X122523082Y-67384901D01*
X122525375Y-67380261D01*
X122584051Y-67187135D01*
X122588810Y-67171473D01*
X122588810Y-67171471D01*
X122590315Y-67166519D01*
X122619474Y-66945040D01*
X122621101Y-66878450D01*
X122602797Y-66655811D01*
X122548376Y-66439152D01*
X122497742Y-66322702D01*
X122488922Y-66252257D01*
X122519589Y-66188225D01*
X122580005Y-66150937D01*
X122613292Y-66146461D01*
X123458412Y-66146461D01*
X123469595Y-66146988D01*
X123477088Y-66148663D01*
X123485014Y-66148414D01*
X123485015Y-66148414D01*
X123545165Y-66146523D01*
X123549124Y-66146461D01*
X123577035Y-66146461D01*
X123580970Y-66145964D01*
X123581035Y-66145956D01*
X123592872Y-66145023D01*
X123625130Y-66144009D01*
X123629149Y-66143883D01*
X123637068Y-66143634D01*
X123656522Y-66137982D01*
X123675879Y-66133974D01*
X123688109Y-66132429D01*
X123688110Y-66132429D01*
X123695976Y-66131435D01*
X123703347Y-66128516D01*
X123703349Y-66128516D01*
X123737091Y-66115157D01*
X123748321Y-66111312D01*
X123783162Y-66101190D01*
X123783163Y-66101190D01*
X123790772Y-66098979D01*
X123797591Y-66094946D01*
X123797596Y-66094944D01*
X123808207Y-66088668D01*
X123825955Y-66079973D01*
X123844796Y-66072513D01*
X123880566Y-66046525D01*
X123890486Y-66040009D01*
X123921714Y-66021541D01*
X123921717Y-66021539D01*
X123928541Y-66017503D01*
X123942862Y-66003182D01*
X123957896Y-65990341D01*
X123967873Y-65983092D01*
X123974286Y-65978433D01*
X124002477Y-65944356D01*
X124010467Y-65935577D01*
X124092714Y-65853330D01*
X124136453Y-65825571D01*
X124138249Y-65825160D01*
X124291448Y-65748109D01*
X124297219Y-65743180D01*
X124297222Y-65743178D01*
X124416068Y-65641673D01*
X124421845Y-65636739D01*
X124521914Y-65497480D01*
X124585875Y-65338370D01*
X124590458Y-65306165D01*
X124609456Y-65172681D01*
X124609456Y-65172677D01*
X124610037Y-65168597D01*
X124610194Y-65153650D01*
X124589592Y-64983408D01*
X124528977Y-64822994D01*
X124431847Y-64681669D01*
X124426176Y-64676616D01*
X124309483Y-64572646D01*
X124309480Y-64572644D01*
X124303811Y-64567593D01*
X124295815Y-64563359D01*
X124158971Y-64490904D01*
X124158972Y-64490904D01*
X124152259Y-64487350D01*
X124134686Y-64482936D01*
X123993312Y-64447425D01*
X123993308Y-64447425D01*
X123985941Y-64445574D01*
X123978342Y-64445534D01*
X123978340Y-64445534D01*
X123906884Y-64445160D01*
X123814459Y-64444676D01*
X123807079Y-64446448D01*
X123807077Y-64446448D01*
X123655092Y-64482936D01*
X123655088Y-64482937D01*
X123647713Y-64484708D01*
X123495329Y-64563359D01*
X123366105Y-64676089D01*
X123267500Y-64816389D01*
X123267214Y-64816188D01*
X123220535Y-64863585D01*
X123159307Y-64879461D01*
X122682912Y-64879461D01*
X122614791Y-64859459D01*
X122568298Y-64805803D01*
X122558194Y-64735529D01*
X122562353Y-64716833D01*
X122588324Y-64631353D01*
X122590500Y-64621287D01*
X122591931Y-64610412D01*
X122589720Y-64596228D01*
X122576562Y-64592450D01*
X121129945Y-64592450D01*
X121061824Y-64572448D01*
X121015331Y-64518792D01*
X121003945Y-64466450D01*
X121003945Y-64066335D01*
X121511945Y-64066335D01*
X121516420Y-64081574D01*
X121517810Y-64082779D01*
X121525493Y-64084450D01*
X122576289Y-64084450D01*
X122589820Y-64080477D01*
X122591125Y-64071397D01*
X122549159Y-63904325D01*
X122545839Y-63894574D01*
X122460917Y-63699264D01*
X122456050Y-63690189D01*
X122340371Y-63511376D01*
X122334081Y-63503207D01*
X122190751Y-63345690D01*
X122183218Y-63338665D01*
X122016084Y-63206672D01*
X122007497Y-63200967D01*
X121821062Y-63098049D01*
X121811650Y-63093819D01*
X121610904Y-63022730D01*
X121600933Y-63020096D01*
X121529782Y-63007422D01*
X121516485Y-63008882D01*
X121511945Y-63023439D01*
X121511945Y-64066335D01*
X121003945Y-64066335D01*
X121003945Y-63021552D01*
X121000027Y-63008208D01*
X120985751Y-63006221D01*
X120947269Y-63012110D01*
X120937233Y-63014501D01*
X120734813Y-63080662D01*
X120725304Y-63084659D01*
X120536408Y-63182992D01*
X120527683Y-63188486D01*
X120357378Y-63316355D01*
X120349671Y-63323198D01*
X120272423Y-63404034D01*
X120210899Y-63439464D01*
X120139987Y-63436007D01*
X120082200Y-63394761D01*
X120063347Y-63361213D01*
X120021712Y-63250153D01*
X120018560Y-63241745D01*
X119931206Y-63125189D01*
X119814650Y-63037835D01*
X119678261Y-62986705D01*
X119616079Y-62979950D01*
X117819811Y-62979950D01*
X117757629Y-62986705D01*
X117621240Y-63037835D01*
X117504684Y-63125189D01*
X117417330Y-63241745D01*
X117366200Y-63378134D01*
X117359445Y-63440316D01*
X117359445Y-65236584D01*
X117366200Y-65298766D01*
X117417330Y-65435155D01*
X117504684Y-65551711D01*
X117621240Y-65639065D01*
X117629649Y-65642217D01*
X117629650Y-65642218D01*
X117738396Y-65682985D01*
X117795161Y-65725626D01*
X117819861Y-65792188D01*
X117804654Y-65861537D01*
X117785261Y-65888018D01*
X117675208Y-66003182D01*
X117658574Y-66020588D01*
X117655660Y-66024860D01*
X117655659Y-66024861D01*
X117582959Y-66131435D01*
X117532688Y-66205130D01*
X117438633Y-66407755D01*
X117378934Y-66623020D01*
X117355196Y-66845145D01*
X117355493Y-66850298D01*
X117355493Y-66850301D01*
X117360956Y-66945040D01*
X117368055Y-67068165D01*
X117369192Y-67073211D01*
X117369193Y-67073217D01*
X117384555Y-67141381D01*
X117417167Y-67286089D01*
X117501211Y-67493066D01*
X117542163Y-67559894D01*
X117615236Y-67679138D01*
X117617932Y-67683538D01*
X117764195Y-67852388D01*
X117936071Y-67995082D01*
X117967234Y-68013292D01*
X118009390Y-68037926D01*
X118058114Y-68089564D01*
X118071185Y-68159347D01*
X118044454Y-68225119D01*
X118004000Y-68258477D01*
X117991552Y-68264957D01*
X117987419Y-68268060D01*
X117987416Y-68268062D01*
X117883759Y-68345890D01*
X117812910Y-68399085D01*
X117809338Y-68402823D01*
X117691661Y-68525965D01*
X117658574Y-68560588D01*
X117532688Y-68745130D01*
X117438633Y-68947755D01*
X117378934Y-69163020D01*
X117355196Y-69385145D01*
X117368055Y-69608165D01*
X117369192Y-69613211D01*
X117369193Y-69613217D01*
X117393249Y-69719958D01*
X117417167Y-69826089D01*
X117501211Y-70033066D01*
X117503910Y-70037470D01*
X117605777Y-70203702D01*
X117617932Y-70223538D01*
X117764195Y-70392388D01*
X117936071Y-70535082D01*
X118006540Y-70576261D01*
X118009390Y-70577926D01*
X118058114Y-70629564D01*
X118071185Y-70699347D01*
X118044454Y-70765119D01*
X118004000Y-70798477D01*
X117991552Y-70804957D01*
X117987419Y-70808060D01*
X117987416Y-70808062D01*
X117861695Y-70902456D01*
X117812910Y-70939085D01*
X117768874Y-70985166D01*
X117674391Y-71084037D01*
X117658574Y-71100588D01*
X117655660Y-71104860D01*
X117655659Y-71104861D01*
X117652338Y-71109729D01*
X117532688Y-71285130D01*
X117530509Y-71289825D01*
X117443208Y-71477900D01*
X117438633Y-71487755D01*
X117378934Y-71703020D01*
X117355196Y-71925145D01*
X110515900Y-71925145D01*
X110515900Y-56743600D01*
X149464435Y-56743600D01*
X149483065Y-56980311D01*
X149538495Y-57211194D01*
X149540388Y-57215765D01*
X149540389Y-57215767D01*
X149627372Y-57425763D01*
X149629360Y-57430563D01*
X149631946Y-57434783D01*
X149750841Y-57628802D01*
X149750845Y-57628808D01*
X149753424Y-57633016D01*
X149907631Y-57813569D01*
X150088184Y-57967776D01*
X150092392Y-57970355D01*
X150092398Y-57970359D01*
X150285684Y-58088805D01*
X150290637Y-58091840D01*
X150295207Y-58093733D01*
X150295211Y-58093735D01*
X150505433Y-58180811D01*
X150510006Y-58182705D01*
X150590209Y-58201960D01*
X150736076Y-58236980D01*
X150736082Y-58236981D01*
X150740889Y-58238135D01*
X150977600Y-58256765D01*
X151214311Y-58238135D01*
X151219118Y-58236981D01*
X151219124Y-58236980D01*
X151364991Y-58201960D01*
X151445194Y-58182705D01*
X151449767Y-58180811D01*
X151659989Y-58093735D01*
X151659993Y-58093733D01*
X151664563Y-58091840D01*
X151669516Y-58088805D01*
X151853156Y-57976270D01*
X155189760Y-57976270D01*
X155195487Y-57983920D01*
X155366642Y-58088805D01*
X155375437Y-58093287D01*
X155585588Y-58180334D01*
X155594973Y-58183383D01*
X155816154Y-58236485D01*
X155825901Y-58238028D01*
X156052670Y-58255875D01*
X156062530Y-58255875D01*
X156289299Y-58238028D01*
X156299046Y-58236485D01*
X156520227Y-58183383D01*
X156529612Y-58180334D01*
X156739763Y-58093287D01*
X156748558Y-58088805D01*
X156916045Y-57986168D01*
X156925507Y-57975710D01*
X156921724Y-57966934D01*
X156070412Y-57115622D01*
X156056468Y-57108008D01*
X156054635Y-57108139D01*
X156048020Y-57112390D01*
X155196520Y-57963890D01*
X155189760Y-57976270D01*
X151853156Y-57976270D01*
X151862802Y-57970359D01*
X151862808Y-57970355D01*
X151867016Y-57967776D01*
X152047569Y-57813569D01*
X152201776Y-57633016D01*
X152204355Y-57628808D01*
X152204359Y-57628802D01*
X152323254Y-57434783D01*
X152325840Y-57430563D01*
X152327829Y-57425763D01*
X152414811Y-57215767D01*
X152414812Y-57215765D01*
X152416705Y-57211194D01*
X152472135Y-56980311D01*
X152490377Y-56748530D01*
X154545325Y-56748530D01*
X154563172Y-56975299D01*
X154564715Y-56985046D01*
X154617817Y-57206227D01*
X154620866Y-57215612D01*
X154707913Y-57425763D01*
X154712395Y-57434558D01*
X154815032Y-57602045D01*
X154825490Y-57611507D01*
X154834266Y-57607724D01*
X155685578Y-56756412D01*
X155691956Y-56744732D01*
X156422008Y-56744732D01*
X156422139Y-56746565D01*
X156426390Y-56753180D01*
X157277890Y-57604680D01*
X157290270Y-57611440D01*
X157297920Y-57605713D01*
X157402805Y-57434558D01*
X157407287Y-57425763D01*
X157494334Y-57215612D01*
X157497383Y-57206227D01*
X157550485Y-56985046D01*
X157552028Y-56975299D01*
X157569875Y-56748530D01*
X157569875Y-56743600D01*
X164704435Y-56743600D01*
X164723065Y-56980311D01*
X164778495Y-57211194D01*
X164780388Y-57215765D01*
X164780389Y-57215767D01*
X164867372Y-57425763D01*
X164869360Y-57430563D01*
X164871946Y-57434783D01*
X164990841Y-57628802D01*
X164990845Y-57628808D01*
X164993424Y-57633016D01*
X165147631Y-57813569D01*
X165328184Y-57967776D01*
X165332392Y-57970355D01*
X165332398Y-57970359D01*
X165525684Y-58088805D01*
X165530637Y-58091840D01*
X165535207Y-58093733D01*
X165535211Y-58093735D01*
X165745433Y-58180811D01*
X165750006Y-58182705D01*
X165830209Y-58201960D01*
X165976076Y-58236980D01*
X165976082Y-58236981D01*
X165980889Y-58238135D01*
X166217600Y-58256765D01*
X166454311Y-58238135D01*
X166459118Y-58236981D01*
X166459124Y-58236980D01*
X166604991Y-58201960D01*
X166685194Y-58182705D01*
X166689767Y-58180811D01*
X166899989Y-58093735D01*
X166899993Y-58093733D01*
X166904563Y-58091840D01*
X166909516Y-58088805D01*
X167102802Y-57970359D01*
X167102808Y-57970355D01*
X167107016Y-57967776D01*
X167287569Y-57813569D01*
X167441776Y-57633016D01*
X167444355Y-57628808D01*
X167444359Y-57628802D01*
X167563254Y-57434783D01*
X167565840Y-57430563D01*
X167567829Y-57425763D01*
X167654811Y-57215767D01*
X167654812Y-57215765D01*
X167656705Y-57211194D01*
X167712135Y-56980311D01*
X167730765Y-56743600D01*
X175266035Y-56743600D01*
X175284665Y-56980311D01*
X175340095Y-57211194D01*
X175341988Y-57215765D01*
X175341989Y-57215767D01*
X175428972Y-57425763D01*
X175430960Y-57430563D01*
X175433546Y-57434783D01*
X175552441Y-57628802D01*
X175552445Y-57628808D01*
X175555024Y-57633016D01*
X175709231Y-57813569D01*
X175889784Y-57967776D01*
X175893992Y-57970355D01*
X175893998Y-57970359D01*
X176087284Y-58088805D01*
X176092237Y-58091840D01*
X176096807Y-58093733D01*
X176096811Y-58093735D01*
X176307033Y-58180811D01*
X176311606Y-58182705D01*
X176391809Y-58201960D01*
X176537676Y-58236980D01*
X176537682Y-58236981D01*
X176542489Y-58238135D01*
X176779200Y-58256765D01*
X177015911Y-58238135D01*
X177020718Y-58236981D01*
X177020724Y-58236980D01*
X177166591Y-58201960D01*
X177246794Y-58182705D01*
X177251367Y-58180811D01*
X177461589Y-58093735D01*
X177461593Y-58093733D01*
X177466163Y-58091840D01*
X177471116Y-58088805D01*
X177654756Y-57976270D01*
X180991360Y-57976270D01*
X180997087Y-57983920D01*
X181168242Y-58088805D01*
X181177037Y-58093287D01*
X181387188Y-58180334D01*
X181396573Y-58183383D01*
X181617754Y-58236485D01*
X181627501Y-58238028D01*
X181854270Y-58255875D01*
X181864130Y-58255875D01*
X182090899Y-58238028D01*
X182100646Y-58236485D01*
X182321827Y-58183383D01*
X182331212Y-58180334D01*
X182541363Y-58093287D01*
X182550158Y-58088805D01*
X182717645Y-57986168D01*
X182727107Y-57975710D01*
X182723324Y-57966934D01*
X181872012Y-57115622D01*
X181858068Y-57108008D01*
X181856235Y-57108139D01*
X181849620Y-57112390D01*
X180998120Y-57963890D01*
X180991360Y-57976270D01*
X177654756Y-57976270D01*
X177664402Y-57970359D01*
X177664408Y-57970355D01*
X177668616Y-57967776D01*
X177849169Y-57813569D01*
X178003376Y-57633016D01*
X178005955Y-57628808D01*
X178005959Y-57628802D01*
X178124854Y-57434783D01*
X178127440Y-57430563D01*
X178129429Y-57425763D01*
X178216411Y-57215767D01*
X178216412Y-57215765D01*
X178218305Y-57211194D01*
X178273735Y-56980311D01*
X178291977Y-56748530D01*
X180346925Y-56748530D01*
X180364772Y-56975299D01*
X180366315Y-56985046D01*
X180419417Y-57206227D01*
X180422466Y-57215612D01*
X180509513Y-57425763D01*
X180513995Y-57434558D01*
X180616632Y-57602045D01*
X180627090Y-57611507D01*
X180635866Y-57607724D01*
X181487178Y-56756412D01*
X181493556Y-56744732D01*
X182223608Y-56744732D01*
X182223739Y-56746565D01*
X182227990Y-56753180D01*
X183079490Y-57604680D01*
X183091870Y-57611440D01*
X183099520Y-57605713D01*
X183204405Y-57434558D01*
X183208887Y-57425763D01*
X183295934Y-57215612D01*
X183298983Y-57206227D01*
X183352085Y-56985046D01*
X183353628Y-56975299D01*
X183371475Y-56748530D01*
X183371475Y-56743600D01*
X190506035Y-56743600D01*
X190524665Y-56980311D01*
X190580095Y-57211194D01*
X190581988Y-57215765D01*
X190581989Y-57215767D01*
X190668972Y-57425763D01*
X190670960Y-57430563D01*
X190673546Y-57434783D01*
X190792441Y-57628802D01*
X190792445Y-57628808D01*
X190795024Y-57633016D01*
X190949231Y-57813569D01*
X191129784Y-57967776D01*
X191133992Y-57970355D01*
X191133998Y-57970359D01*
X191327284Y-58088805D01*
X191332237Y-58091840D01*
X191336807Y-58093733D01*
X191336811Y-58093735D01*
X191547033Y-58180811D01*
X191551606Y-58182705D01*
X191631809Y-58201960D01*
X191777676Y-58236980D01*
X191777682Y-58236981D01*
X191782489Y-58238135D01*
X192019200Y-58256765D01*
X192255911Y-58238135D01*
X192260718Y-58236981D01*
X192260724Y-58236980D01*
X192406591Y-58201960D01*
X192486794Y-58182705D01*
X192491367Y-58180811D01*
X192701589Y-58093735D01*
X192701593Y-58093733D01*
X192706163Y-58091840D01*
X192711116Y-58088805D01*
X192904402Y-57970359D01*
X192904408Y-57970355D01*
X192908616Y-57967776D01*
X193089169Y-57813569D01*
X193243376Y-57633016D01*
X193245955Y-57628808D01*
X193245959Y-57628802D01*
X193364854Y-57434783D01*
X193367440Y-57430563D01*
X193369429Y-57425763D01*
X193456411Y-57215767D01*
X193456412Y-57215765D01*
X193458305Y-57211194D01*
X193513735Y-56980311D01*
X193532365Y-56743600D01*
X193513735Y-56506889D01*
X193489927Y-56407719D01*
X193459460Y-56280818D01*
X193458305Y-56276006D01*
X193452141Y-56261124D01*
X193369335Y-56061211D01*
X193369333Y-56061207D01*
X193367440Y-56056637D01*
X193301989Y-55949831D01*
X193245959Y-55858398D01*
X193245955Y-55858392D01*
X193243376Y-55854184D01*
X193089169Y-55673631D01*
X192908616Y-55519424D01*
X192904408Y-55516845D01*
X192904402Y-55516841D01*
X192710383Y-55397946D01*
X192706163Y-55395360D01*
X192701593Y-55393467D01*
X192701589Y-55393465D01*
X192491367Y-55306389D01*
X192491365Y-55306388D01*
X192486794Y-55304495D01*
X192406591Y-55285240D01*
X192260724Y-55250220D01*
X192260718Y-55250219D01*
X192255911Y-55249065D01*
X192019200Y-55230435D01*
X191782489Y-55249065D01*
X191777682Y-55250219D01*
X191777676Y-55250220D01*
X191631809Y-55285240D01*
X191551606Y-55304495D01*
X191547035Y-55306388D01*
X191547033Y-55306389D01*
X191336811Y-55393465D01*
X191336807Y-55393467D01*
X191332237Y-55395360D01*
X191328017Y-55397946D01*
X191133998Y-55516841D01*
X191133992Y-55516845D01*
X191129784Y-55519424D01*
X190949231Y-55673631D01*
X190795024Y-55854184D01*
X190792445Y-55858392D01*
X190792441Y-55858398D01*
X190736411Y-55949831D01*
X190670960Y-56056637D01*
X190669067Y-56061207D01*
X190669065Y-56061211D01*
X190586259Y-56261124D01*
X190580095Y-56276006D01*
X190578940Y-56280818D01*
X190548474Y-56407719D01*
X190524665Y-56506889D01*
X190506035Y-56743600D01*
X183371475Y-56743600D01*
X183371475Y-56738670D01*
X183353628Y-56511901D01*
X183352085Y-56502154D01*
X183298983Y-56280973D01*
X183295934Y-56271588D01*
X183208887Y-56061437D01*
X183204405Y-56052642D01*
X183101768Y-55885155D01*
X183091310Y-55875693D01*
X183082534Y-55879476D01*
X182231222Y-56730788D01*
X182223608Y-56744732D01*
X181493556Y-56744732D01*
X181494792Y-56742468D01*
X181494661Y-56740635D01*
X181490410Y-56734020D01*
X180638910Y-55882520D01*
X180626530Y-55875760D01*
X180618880Y-55881487D01*
X180513995Y-56052642D01*
X180509513Y-56061437D01*
X180422466Y-56271588D01*
X180419417Y-56280973D01*
X180366315Y-56502154D01*
X180364772Y-56511901D01*
X180346925Y-56738670D01*
X180346925Y-56748530D01*
X178291977Y-56748530D01*
X178292365Y-56743600D01*
X178273735Y-56506889D01*
X178249927Y-56407719D01*
X178219460Y-56280818D01*
X178218305Y-56276006D01*
X178212141Y-56261124D01*
X178129335Y-56061211D01*
X178129333Y-56061207D01*
X178127440Y-56056637D01*
X178061989Y-55949831D01*
X178005959Y-55858398D01*
X178005955Y-55858392D01*
X178003376Y-55854184D01*
X177849169Y-55673631D01*
X177668616Y-55519424D01*
X177664408Y-55516845D01*
X177664402Y-55516841D01*
X177655670Y-55511490D01*
X180991293Y-55511490D01*
X180995076Y-55520266D01*
X181846388Y-56371578D01*
X181860332Y-56379192D01*
X181862165Y-56379061D01*
X181868780Y-56374810D01*
X182720280Y-55523310D01*
X182727040Y-55510930D01*
X182721313Y-55503280D01*
X182550158Y-55398395D01*
X182541363Y-55393913D01*
X182331212Y-55306866D01*
X182321827Y-55303817D01*
X182100646Y-55250715D01*
X182090899Y-55249172D01*
X181864130Y-55231325D01*
X181854270Y-55231325D01*
X181627501Y-55249172D01*
X181617754Y-55250715D01*
X181396573Y-55303817D01*
X181387188Y-55306866D01*
X181177037Y-55393913D01*
X181168242Y-55398395D01*
X181000755Y-55501032D01*
X180991293Y-55511490D01*
X177655670Y-55511490D01*
X177470383Y-55397946D01*
X177466163Y-55395360D01*
X177461593Y-55393467D01*
X177461589Y-55393465D01*
X177251367Y-55306389D01*
X177251365Y-55306388D01*
X177246794Y-55304495D01*
X177166591Y-55285240D01*
X177020724Y-55250220D01*
X177020718Y-55250219D01*
X177015911Y-55249065D01*
X176779200Y-55230435D01*
X176542489Y-55249065D01*
X176537682Y-55250219D01*
X176537676Y-55250220D01*
X176391809Y-55285240D01*
X176311606Y-55304495D01*
X176307035Y-55306388D01*
X176307033Y-55306389D01*
X176096811Y-55393465D01*
X176096807Y-55393467D01*
X176092237Y-55395360D01*
X176088017Y-55397946D01*
X175893998Y-55516841D01*
X175893992Y-55516845D01*
X175889784Y-55519424D01*
X175709231Y-55673631D01*
X175555024Y-55854184D01*
X175552445Y-55858392D01*
X175552441Y-55858398D01*
X175496411Y-55949831D01*
X175430960Y-56056637D01*
X175429067Y-56061207D01*
X175429065Y-56061211D01*
X175346259Y-56261124D01*
X175340095Y-56276006D01*
X175338940Y-56280818D01*
X175308474Y-56407719D01*
X175284665Y-56506889D01*
X175266035Y-56743600D01*
X167730765Y-56743600D01*
X167712135Y-56506889D01*
X167688327Y-56407719D01*
X167657860Y-56280818D01*
X167656705Y-56276006D01*
X167650541Y-56261124D01*
X167567735Y-56061211D01*
X167567733Y-56061207D01*
X167565840Y-56056637D01*
X167500389Y-55949831D01*
X167444359Y-55858398D01*
X167444355Y-55858392D01*
X167441776Y-55854184D01*
X167287569Y-55673631D01*
X167107016Y-55519424D01*
X167102808Y-55516845D01*
X167102802Y-55516841D01*
X166908783Y-55397946D01*
X166904563Y-55395360D01*
X166899993Y-55393467D01*
X166899989Y-55393465D01*
X166689767Y-55306389D01*
X166689765Y-55306388D01*
X166685194Y-55304495D01*
X166604991Y-55285240D01*
X166459124Y-55250220D01*
X166459118Y-55250219D01*
X166454311Y-55249065D01*
X166217600Y-55230435D01*
X165980889Y-55249065D01*
X165976082Y-55250219D01*
X165976076Y-55250220D01*
X165830209Y-55285240D01*
X165750006Y-55304495D01*
X165745435Y-55306388D01*
X165745433Y-55306389D01*
X165535211Y-55393465D01*
X165535207Y-55393467D01*
X165530637Y-55395360D01*
X165526417Y-55397946D01*
X165332398Y-55516841D01*
X165332392Y-55516845D01*
X165328184Y-55519424D01*
X165147631Y-55673631D01*
X164993424Y-55854184D01*
X164990845Y-55858392D01*
X164990841Y-55858398D01*
X164934811Y-55949831D01*
X164869360Y-56056637D01*
X164867467Y-56061207D01*
X164867465Y-56061211D01*
X164784659Y-56261124D01*
X164778495Y-56276006D01*
X164777340Y-56280818D01*
X164746874Y-56407719D01*
X164723065Y-56506889D01*
X164704435Y-56743600D01*
X157569875Y-56743600D01*
X157569875Y-56738670D01*
X157552028Y-56511901D01*
X157550485Y-56502154D01*
X157497383Y-56280973D01*
X157494334Y-56271588D01*
X157407287Y-56061437D01*
X157402805Y-56052642D01*
X157300168Y-55885155D01*
X157289710Y-55875693D01*
X157280934Y-55879476D01*
X156429622Y-56730788D01*
X156422008Y-56744732D01*
X155691956Y-56744732D01*
X155693192Y-56742468D01*
X155693061Y-56740635D01*
X155688810Y-56734020D01*
X154837310Y-55882520D01*
X154824930Y-55875760D01*
X154817280Y-55881487D01*
X154712395Y-56052642D01*
X154707913Y-56061437D01*
X154620866Y-56271588D01*
X154617817Y-56280973D01*
X154564715Y-56502154D01*
X154563172Y-56511901D01*
X154545325Y-56738670D01*
X154545325Y-56748530D01*
X152490377Y-56748530D01*
X152490765Y-56743600D01*
X152472135Y-56506889D01*
X152448327Y-56407719D01*
X152417860Y-56280818D01*
X152416705Y-56276006D01*
X152410541Y-56261124D01*
X152327735Y-56061211D01*
X152327733Y-56061207D01*
X152325840Y-56056637D01*
X152260389Y-55949831D01*
X152204359Y-55858398D01*
X152204355Y-55858392D01*
X152201776Y-55854184D01*
X152047569Y-55673631D01*
X151867016Y-55519424D01*
X151862808Y-55516845D01*
X151862802Y-55516841D01*
X151854070Y-55511490D01*
X155189693Y-55511490D01*
X155193476Y-55520266D01*
X156044788Y-56371578D01*
X156058732Y-56379192D01*
X156060565Y-56379061D01*
X156067180Y-56374810D01*
X156918680Y-55523310D01*
X156925440Y-55510930D01*
X156919713Y-55503280D01*
X156748558Y-55398395D01*
X156739763Y-55393913D01*
X156529612Y-55306866D01*
X156520227Y-55303817D01*
X156299046Y-55250715D01*
X156289299Y-55249172D01*
X156062530Y-55231325D01*
X156052670Y-55231325D01*
X155825901Y-55249172D01*
X155816154Y-55250715D01*
X155594973Y-55303817D01*
X155585588Y-55306866D01*
X155375437Y-55393913D01*
X155366642Y-55398395D01*
X155199155Y-55501032D01*
X155189693Y-55511490D01*
X151854070Y-55511490D01*
X151668783Y-55397946D01*
X151664563Y-55395360D01*
X151659993Y-55393467D01*
X151659989Y-55393465D01*
X151449767Y-55306389D01*
X151449765Y-55306388D01*
X151445194Y-55304495D01*
X151364991Y-55285240D01*
X151219124Y-55250220D01*
X151219118Y-55250219D01*
X151214311Y-55249065D01*
X150977600Y-55230435D01*
X150740889Y-55249065D01*
X150736082Y-55250219D01*
X150736076Y-55250220D01*
X150590209Y-55285240D01*
X150510006Y-55304495D01*
X150505435Y-55306388D01*
X150505433Y-55306389D01*
X150295211Y-55393465D01*
X150295207Y-55393467D01*
X150290637Y-55395360D01*
X150286417Y-55397946D01*
X150092398Y-55516841D01*
X150092392Y-55516845D01*
X150088184Y-55519424D01*
X149907631Y-55673631D01*
X149753424Y-55854184D01*
X149750845Y-55858392D01*
X149750841Y-55858398D01*
X149694811Y-55949831D01*
X149629360Y-56056637D01*
X149627467Y-56061207D01*
X149627465Y-56061211D01*
X149544659Y-56261124D01*
X149538495Y-56276006D01*
X149537340Y-56280818D01*
X149506874Y-56407719D01*
X149483065Y-56506889D01*
X149464435Y-56743600D01*
X110515900Y-56743600D01*
X110515900Y-53163981D01*
X111895160Y-53163981D01*
X111895237Y-53165070D01*
X111897698Y-53168806D01*
X112171632Y-53379004D01*
X112177262Y-53382859D01*
X112477591Y-53565462D01*
X112483593Y-53568680D01*
X112801897Y-53717784D01*
X112808202Y-53720332D01*
X113140743Y-53834187D01*
X113147313Y-53836046D01*
X113490183Y-53913314D01*
X113496912Y-53914453D01*
X113846143Y-53954243D01*
X113852933Y-53954646D01*
X114204419Y-53956486D01*
X114211220Y-53956154D01*
X114560853Y-53920023D01*
X114567581Y-53918957D01*
X114911274Y-53845276D01*
X114917822Y-53843497D01*
X115251549Y-53733127D01*
X115257891Y-53730641D01*
X115577718Y-53584888D01*
X115583777Y-53581721D01*
X115885995Y-53402276D01*
X115891659Y-53398484D01*
X116172732Y-53187449D01*
X116177958Y-53183064D01*
X116187613Y-53174028D01*
X116195682Y-53160350D01*
X116195654Y-53159624D01*
X116190512Y-53151323D01*
X114058810Y-51019620D01*
X114044869Y-51012008D01*
X114043034Y-51012139D01*
X114036420Y-51016390D01*
X111902774Y-53150037D01*
X111895160Y-53163981D01*
X110515900Y-53163981D01*
X110515900Y-51107620D01*
X110535902Y-51039499D01*
X110589558Y-50993006D01*
X110659832Y-50982902D01*
X110724412Y-51012396D01*
X110762796Y-51072122D01*
X110766314Y-51087692D01*
X110807420Y-51344323D01*
X110808859Y-51350978D01*
X110901608Y-51690010D01*
X110903757Y-51696471D01*
X111032581Y-52023512D01*
X111035412Y-52029695D01*
X111198803Y-52340910D01*
X111202286Y-52346752D01*
X111398330Y-52638496D01*
X111402433Y-52643940D01*
X111522425Y-52786436D01*
X111535164Y-52794879D01*
X111545608Y-52788781D01*
X113673980Y-50660410D01*
X113680357Y-50648731D01*
X114410408Y-50648731D01*
X114410539Y-50650566D01*
X114414790Y-50657180D01*
X116545009Y-52787398D01*
X116558605Y-52794823D01*
X116568218Y-52788122D01*
X116668518Y-52671512D01*
X116672676Y-52666114D01*
X116871762Y-52376440D01*
X116875310Y-52370629D01*
X116959834Y-52213650D01*
X125870790Y-52213650D01*
X125871127Y-52216896D01*
X125871127Y-52216900D01*
X125877621Y-52279484D01*
X125881764Y-52319416D01*
X125937740Y-52487196D01*
X126030812Y-52637598D01*
X126155987Y-52762555D01*
X126162217Y-52766395D01*
X126162218Y-52766396D01*
X126243372Y-52816420D01*
X126306552Y-52855365D01*
X126349551Y-52869627D01*
X126467901Y-52908882D01*
X126467903Y-52908882D01*
X126474429Y-52911047D01*
X126481265Y-52911747D01*
X126481268Y-52911748D01*
X126524321Y-52916159D01*
X126578890Y-52921750D01*
X127573451Y-52921750D01*
X127641572Y-52941752D01*
X127662546Y-52958655D01*
X130782295Y-56078404D01*
X130811526Y-56124198D01*
X130859325Y-56254815D01*
X130863562Y-56261121D01*
X130863564Y-56261124D01*
X130907861Y-56327044D01*
X130954970Y-56397149D01*
X131018388Y-56454855D01*
X131075573Y-56506889D01*
X131081805Y-56512560D01*
X131232508Y-56594385D01*
X131398379Y-56637901D01*
X131485826Y-56639274D01*
X131562243Y-56640475D01*
X131562246Y-56640475D01*
X131569842Y-56640594D01*
X131577246Y-56638898D01*
X131577248Y-56638898D01*
X131640086Y-56624506D01*
X131736999Y-56602310D01*
X131890198Y-56525259D01*
X131895969Y-56520330D01*
X131895972Y-56520328D01*
X132014818Y-56418823D01*
X132020595Y-56413889D01*
X132116106Y-56280973D01*
X132116232Y-56280798D01*
X132116233Y-56280797D01*
X132120664Y-56274630D01*
X132184625Y-56115520D01*
X132208787Y-55945747D01*
X132208944Y-55930800D01*
X132188342Y-55760558D01*
X132127727Y-55600144D01*
X132123426Y-55593886D01*
X132034899Y-55465078D01*
X132034898Y-55465076D01*
X132030597Y-55458819D01*
X131962275Y-55397946D01*
X131908233Y-55349796D01*
X131908230Y-55349794D01*
X131902561Y-55344743D01*
X131751009Y-55264500D01*
X131702629Y-55252348D01*
X131644228Y-55219239D01*
X129514635Y-53089646D01*
X129480609Y-53027334D01*
X129485674Y-52956519D01*
X129520172Y-52906243D01*
X129531066Y-52896591D01*
X129535290Y-52881905D01*
X129535290Y-52879877D01*
X130043290Y-52879877D01*
X130047263Y-52893408D01*
X130057870Y-52894933D01*
X130181478Y-52868998D01*
X130191674Y-52865938D01*
X130399242Y-52783966D01*
X130408779Y-52779232D01*
X130599575Y-52663454D01*
X130608168Y-52657188D01*
X130776731Y-52510917D01*
X130784151Y-52503286D01*
X130925658Y-52330708D01*
X130931683Y-52321941D01*
X130999160Y-52203400D01*
X132097940Y-52203400D01*
X132098277Y-52206646D01*
X132098277Y-52206650D01*
X132105001Y-52271450D01*
X132108914Y-52309166D01*
X132111095Y-52315702D01*
X132111095Y-52315704D01*
X132121454Y-52346752D01*
X132164890Y-52476946D01*
X132257962Y-52627348D01*
X132383137Y-52752305D01*
X132389367Y-52756145D01*
X132389368Y-52756146D01*
X132526530Y-52840694D01*
X132533702Y-52845115D01*
X132576255Y-52859229D01*
X132695051Y-52898632D01*
X132695053Y-52898632D01*
X132701579Y-52900797D01*
X132708415Y-52901497D01*
X132708418Y-52901498D01*
X132751471Y-52905909D01*
X132806040Y-52911500D01*
X134146840Y-52911500D01*
X134150086Y-52911163D01*
X134150090Y-52911163D01*
X134245748Y-52901238D01*
X134245752Y-52901237D01*
X134252606Y-52900526D01*
X134259142Y-52898345D01*
X134259144Y-52898345D01*
X134399479Y-52851525D01*
X134420386Y-52844550D01*
X134570788Y-52751478D01*
X134695745Y-52626303D01*
X134711133Y-52601340D01*
X134788555Y-52475738D01*
X134790572Y-52476982D01*
X134829977Y-52432225D01*
X134898253Y-52412761D01*
X134966214Y-52433300D01*
X134988429Y-52451785D01*
X135096364Y-52564930D01*
X135104332Y-52571979D01*
X135283392Y-52705203D01*
X135292422Y-52710802D01*
X135491371Y-52811953D01*
X135501232Y-52815956D01*
X135714369Y-52882138D01*
X135724749Y-52884420D01*
X135744483Y-52887036D01*
X135758647Y-52884840D01*
X135762440Y-52871655D01*
X135762440Y-52869627D01*
X136270440Y-52869627D01*
X136274413Y-52883158D01*
X136285020Y-52884683D01*
X136408628Y-52858748D01*
X136418824Y-52855688D01*
X136626392Y-52773716D01*
X136635929Y-52768982D01*
X136826725Y-52653204D01*
X136835318Y-52646938D01*
X137003881Y-52500667D01*
X137011301Y-52493036D01*
X137152808Y-52320458D01*
X137158833Y-52311691D01*
X137177429Y-52279022D01*
X137228511Y-52229715D01*
X137298142Y-52215854D01*
X137364213Y-52241837D01*
X137391451Y-52270987D01*
X137478238Y-52399896D01*
X137481917Y-52403753D01*
X137481919Y-52403755D01*
X137509078Y-52432225D01*
X137639716Y-52569168D01*
X137827405Y-52708813D01*
X137832156Y-52711229D01*
X137832160Y-52711231D01*
X138031184Y-52812420D01*
X138035940Y-52814838D01*
X138259357Y-52884210D01*
X138264644Y-52884911D01*
X138264645Y-52884911D01*
X138485985Y-52914248D01*
X138485989Y-52914248D01*
X138491269Y-52914948D01*
X138496598Y-52914748D01*
X138496600Y-52914748D01*
X138608156Y-52910560D01*
X138725044Y-52906172D01*
X138827459Y-52884683D01*
X138948772Y-52859229D01*
X138948775Y-52859228D01*
X138953999Y-52858132D01*
X139171586Y-52772203D01*
X139281300Y-52705627D01*
X139367023Y-52653609D01*
X139367026Y-52653607D01*
X139371584Y-52650841D01*
X139548274Y-52497517D01*
X139696605Y-52316614D01*
X139699241Y-52311984D01*
X139699244Y-52311979D01*
X139717741Y-52279484D01*
X139768824Y-52230178D01*
X139838455Y-52216317D01*
X139904525Y-52242301D01*
X139931763Y-52271450D01*
X140018238Y-52399896D01*
X140021917Y-52403753D01*
X140021919Y-52403755D01*
X140049078Y-52432225D01*
X140179716Y-52569168D01*
X140367405Y-52708813D01*
X140372156Y-52711229D01*
X140372160Y-52711231D01*
X140571184Y-52812420D01*
X140575940Y-52814838D01*
X140799357Y-52884210D01*
X140804644Y-52884911D01*
X140804645Y-52884911D01*
X141025985Y-52914248D01*
X141025989Y-52914248D01*
X141031269Y-52914948D01*
X141036598Y-52914748D01*
X141036600Y-52914748D01*
X141148156Y-52910560D01*
X141265044Y-52906172D01*
X141367459Y-52884683D01*
X141488772Y-52859229D01*
X141488775Y-52859228D01*
X141493999Y-52858132D01*
X141711586Y-52772203D01*
X141821300Y-52705627D01*
X141907023Y-52653609D01*
X141907026Y-52653607D01*
X141911584Y-52650841D01*
X142088274Y-52497517D01*
X142236605Y-52316614D01*
X142352336Y-52113305D01*
X142432156Y-51893404D01*
X142473784Y-51663197D01*
X142474940Y-51638684D01*
X142474940Y-51024262D01*
X142468843Y-50952400D01*
X148593538Y-50952400D01*
X148612567Y-51254862D01*
X148669355Y-51552554D01*
X148763006Y-51840781D01*
X148764693Y-51844367D01*
X148764695Y-51844371D01*
X148790128Y-51898419D01*
X148892042Y-52114998D01*
X149054430Y-52370880D01*
X149056949Y-52373925D01*
X149056952Y-52373929D01*
X149089077Y-52412761D01*
X149247608Y-52604392D01*
X149468529Y-52811850D01*
X149471731Y-52814177D01*
X149471733Y-52814178D01*
X149474180Y-52815956D01*
X149713710Y-52989984D01*
X149979283Y-53135985D01*
X149982952Y-53137438D01*
X149982957Y-53137440D01*
X150161485Y-53208124D01*
X150261061Y-53247549D01*
X150554600Y-53322916D01*
X150855270Y-53360900D01*
X151158330Y-53360900D01*
X151459000Y-53322916D01*
X151752539Y-53247549D01*
X151852115Y-53208124D01*
X152030643Y-53137440D01*
X152030648Y-53137438D01*
X152034317Y-53135985D01*
X152299890Y-52989984D01*
X152539420Y-52815956D01*
X152541867Y-52814178D01*
X152541869Y-52814177D01*
X152545071Y-52811850D01*
X152765992Y-52604392D01*
X152924523Y-52412761D01*
X152956648Y-52373929D01*
X152956651Y-52373925D01*
X152959170Y-52370880D01*
X153121558Y-52114998D01*
X153223472Y-51898419D01*
X153248905Y-51844371D01*
X153248907Y-51844367D01*
X153250594Y-51840781D01*
X153344245Y-51552554D01*
X153349033Y-51527455D01*
X153381446Y-51464289D01*
X153442864Y-51428674D01*
X153513786Y-51431918D01*
X153571696Y-51472991D01*
X153598208Y-51538852D01*
X153598801Y-51551066D01*
X153598801Y-52897069D01*
X153599171Y-52903890D01*
X153604695Y-52954752D01*
X153608321Y-52970004D01*
X153653476Y-53090454D01*
X153662014Y-53106049D01*
X153738515Y-53208124D01*
X153751076Y-53220685D01*
X153853151Y-53297186D01*
X153868746Y-53305724D01*
X153989194Y-53350878D01*
X154004449Y-53354505D01*
X154055314Y-53360031D01*
X154062128Y-53360400D01*
X155734685Y-53360400D01*
X155749924Y-53355925D01*
X155751129Y-53354535D01*
X155752800Y-53346852D01*
X155752800Y-53342284D01*
X156260800Y-53342284D01*
X156265275Y-53357523D01*
X156266665Y-53358728D01*
X156274348Y-53360399D01*
X157951469Y-53360399D01*
X157958290Y-53360029D01*
X158009152Y-53354505D01*
X158024404Y-53350879D01*
X158144854Y-53305724D01*
X158160449Y-53297186D01*
X158262524Y-53220685D01*
X158275085Y-53208124D01*
X158308168Y-53163981D01*
X190533560Y-53163981D01*
X190533637Y-53165070D01*
X190536098Y-53168806D01*
X190810032Y-53379004D01*
X190815662Y-53382859D01*
X191115991Y-53565462D01*
X191121993Y-53568680D01*
X191440297Y-53717784D01*
X191446602Y-53720332D01*
X191779143Y-53834187D01*
X191785713Y-53836046D01*
X192128583Y-53913314D01*
X192135312Y-53914453D01*
X192484543Y-53954243D01*
X192491333Y-53954646D01*
X192842819Y-53956486D01*
X192849620Y-53956154D01*
X193199253Y-53920023D01*
X193205981Y-53918957D01*
X193549674Y-53845276D01*
X193556222Y-53843497D01*
X193889949Y-53733127D01*
X193896291Y-53730641D01*
X194216118Y-53584888D01*
X194222177Y-53581721D01*
X194524395Y-53402276D01*
X194530059Y-53398484D01*
X194811132Y-53187449D01*
X194816358Y-53183064D01*
X194826013Y-53174028D01*
X194834082Y-53160350D01*
X194834054Y-53159624D01*
X194828912Y-53151323D01*
X192697210Y-51019620D01*
X192683269Y-51012008D01*
X192681434Y-51012139D01*
X192674820Y-51016390D01*
X190541174Y-53150037D01*
X190533560Y-53163981D01*
X158308168Y-53163981D01*
X158351586Y-53106049D01*
X158360124Y-53090454D01*
X158405278Y-52970006D01*
X158408905Y-52954751D01*
X158414431Y-52903886D01*
X158414800Y-52897072D01*
X158414800Y-51224515D01*
X158410325Y-51209276D01*
X158408935Y-51208071D01*
X158401252Y-51206400D01*
X156278915Y-51206400D01*
X156263676Y-51210875D01*
X156262471Y-51212265D01*
X156260800Y-51219948D01*
X156260800Y-53342284D01*
X155752800Y-53342284D01*
X155752800Y-50680285D01*
X156260800Y-50680285D01*
X156265275Y-50695524D01*
X156266665Y-50696729D01*
X156274348Y-50698400D01*
X158396684Y-50698400D01*
X158411923Y-50693925D01*
X158413128Y-50692535D01*
X158414799Y-50684852D01*
X158414799Y-50639432D01*
X189371733Y-50639432D01*
X189389517Y-50990493D01*
X189390227Y-50997249D01*
X189445820Y-51344323D01*
X189447259Y-51350978D01*
X189540008Y-51690010D01*
X189542157Y-51696471D01*
X189670981Y-52023512D01*
X189673812Y-52029695D01*
X189837203Y-52340910D01*
X189840686Y-52346752D01*
X190036730Y-52638496D01*
X190040833Y-52643940D01*
X190160825Y-52786436D01*
X190173564Y-52794879D01*
X190184008Y-52788781D01*
X192312380Y-50660410D01*
X192318757Y-50648731D01*
X193048808Y-50648731D01*
X193048939Y-50650566D01*
X193053190Y-50657180D01*
X195183409Y-52787398D01*
X195197005Y-52794823D01*
X195206618Y-52788122D01*
X195306918Y-52671512D01*
X195311076Y-52666114D01*
X195510162Y-52376440D01*
X195513710Y-52370629D01*
X195680342Y-52061159D01*
X195683249Y-52054981D01*
X195815490Y-51729313D01*
X195817704Y-51722883D01*
X195913998Y-51384837D01*
X195915505Y-51378207D01*
X195974732Y-51031718D01*
X195975512Y-51024978D01*
X195997068Y-50672525D01*
X195997184Y-50668923D01*
X195997253Y-50649419D01*
X195997161Y-50645794D01*
X195978066Y-50293215D01*
X195977331Y-50286449D01*
X195920530Y-49939585D01*
X195919063Y-49932913D01*
X195825136Y-49594227D01*
X195822962Y-49587763D01*
X195692998Y-49261178D01*
X195690142Y-49254998D01*
X195525669Y-48944363D01*
X195522169Y-48938537D01*
X195325097Y-48647462D01*
X195320990Y-48642053D01*
X195207965Y-48508779D01*
X195195140Y-48500343D01*
X195184816Y-48506395D01*
X193056420Y-50634790D01*
X193048808Y-50648731D01*
X192318757Y-50648731D01*
X192319992Y-50646469D01*
X192319861Y-50644634D01*
X192315610Y-50638020D01*
X190185392Y-48507803D01*
X190171855Y-48500411D01*
X190162153Y-48507199D01*
X190054830Y-48632857D01*
X190050696Y-48638264D01*
X189852615Y-48928641D01*
X189849097Y-48934451D01*
X189683534Y-49244522D01*
X189680659Y-49250687D01*
X189549555Y-49576818D01*
X189547362Y-49583258D01*
X189452246Y-49921644D01*
X189450763Y-49928279D01*
X189392750Y-50274954D01*
X189391991Y-50281726D01*
X189371757Y-50632637D01*
X189371733Y-50639432D01*
X158414799Y-50639432D01*
X158414799Y-49007731D01*
X158414429Y-49000910D01*
X158408905Y-48950048D01*
X158405279Y-48934796D01*
X158360124Y-48814346D01*
X158351586Y-48798751D01*
X158275085Y-48696676D01*
X158262524Y-48684115D01*
X158160449Y-48607614D01*
X158144854Y-48599076D01*
X158024406Y-48553922D01*
X158009151Y-48550295D01*
X157958286Y-48544769D01*
X157951472Y-48544400D01*
X156278915Y-48544400D01*
X156263676Y-48548875D01*
X156262471Y-48550265D01*
X156260800Y-48557948D01*
X156260800Y-50680285D01*
X155752800Y-50680285D01*
X155752800Y-48562516D01*
X155748325Y-48547277D01*
X155746935Y-48546072D01*
X155739252Y-48544401D01*
X154062131Y-48544401D01*
X154055310Y-48544771D01*
X154004448Y-48550295D01*
X153989196Y-48553921D01*
X153868746Y-48599076D01*
X153853151Y-48607614D01*
X153751076Y-48684115D01*
X153738515Y-48696676D01*
X153662014Y-48798751D01*
X153653476Y-48814346D01*
X153608322Y-48934794D01*
X153604695Y-48950049D01*
X153599169Y-49000914D01*
X153598800Y-49007728D01*
X153598800Y-50353732D01*
X153578798Y-50421853D01*
X153525142Y-50468346D01*
X153454868Y-50478450D01*
X153390288Y-50448956D01*
X153351904Y-50389230D01*
X153349032Y-50377341D01*
X153344990Y-50356149D01*
X153344988Y-50356142D01*
X153344245Y-50352246D01*
X153274974Y-50139054D01*
X153251820Y-50067792D01*
X153251820Y-50067791D01*
X153250594Y-50064019D01*
X153244322Y-50050689D01*
X153163586Y-49879116D01*
X153121558Y-49789802D01*
X153109912Y-49771450D01*
X152961292Y-49537264D01*
X152959170Y-49533920D01*
X152765992Y-49300408D01*
X152545071Y-49092950D01*
X152299890Y-48914816D01*
X152034317Y-48768815D01*
X152030648Y-48767362D01*
X152030643Y-48767360D01*
X151756209Y-48658704D01*
X151756208Y-48658704D01*
X151752539Y-48657251D01*
X151459000Y-48581884D01*
X151158330Y-48543900D01*
X150855270Y-48543900D01*
X150554600Y-48581884D01*
X150261061Y-48657251D01*
X150257392Y-48658704D01*
X150257391Y-48658704D01*
X149982957Y-48767360D01*
X149982952Y-48767362D01*
X149979283Y-48768815D01*
X149713710Y-48914816D01*
X149468529Y-49092950D01*
X149247608Y-49300408D01*
X149054430Y-49533920D01*
X149052308Y-49537264D01*
X148903689Y-49771450D01*
X148892042Y-49789802D01*
X148850014Y-49879116D01*
X148769279Y-50050689D01*
X148763006Y-50064019D01*
X148761780Y-50067791D01*
X148761780Y-50067792D01*
X148738626Y-50139054D01*
X148669355Y-50352246D01*
X148612567Y-50649938D01*
X148593538Y-50952400D01*
X142468843Y-50952400D01*
X142468507Y-50948442D01*
X142460596Y-50855209D01*
X142460595Y-50855205D01*
X142460145Y-50849898D01*
X142420390Y-50696729D01*
X142402715Y-50628629D01*
X142402714Y-50628625D01*
X142401373Y-50623460D01*
X142346973Y-50502695D01*
X142307485Y-50415036D01*
X142305290Y-50410163D01*
X142298235Y-50399683D01*
X142261117Y-50344550D01*
X142174642Y-50216104D01*
X142165496Y-50206516D01*
X142088289Y-50125583D01*
X142013164Y-50046832D01*
X141825475Y-49907187D01*
X141820724Y-49904771D01*
X141820720Y-49904769D01*
X141621696Y-49803580D01*
X141621695Y-49803580D01*
X141616940Y-49801162D01*
X141393523Y-49731790D01*
X141388236Y-49731089D01*
X141388235Y-49731089D01*
X141166895Y-49701752D01*
X141166891Y-49701752D01*
X141161611Y-49701052D01*
X141156282Y-49701252D01*
X141156280Y-49701252D01*
X141060786Y-49704837D01*
X140927836Y-49709828D01*
X140852077Y-49725724D01*
X140704108Y-49756771D01*
X140704105Y-49756772D01*
X140698881Y-49757868D01*
X140481294Y-49843797D01*
X140436600Y-49870918D01*
X140285857Y-49962391D01*
X140285854Y-49962393D01*
X140281296Y-49965159D01*
X140104606Y-50118483D01*
X139956275Y-50299386D01*
X139953639Y-50304016D01*
X139953636Y-50304021D01*
X139935139Y-50336516D01*
X139884056Y-50385822D01*
X139814425Y-50399683D01*
X139748355Y-50373699D01*
X139721117Y-50344550D01*
X139676858Y-50278810D01*
X139634642Y-50216104D01*
X139625496Y-50206516D01*
X139548289Y-50125583D01*
X139473164Y-50046832D01*
X139285475Y-49907187D01*
X139280724Y-49904771D01*
X139280720Y-49904769D01*
X139081696Y-49803580D01*
X139081695Y-49803580D01*
X139076940Y-49801162D01*
X138853523Y-49731790D01*
X138848236Y-49731089D01*
X138848235Y-49731089D01*
X138626895Y-49701752D01*
X138626891Y-49701752D01*
X138621611Y-49701052D01*
X138616282Y-49701252D01*
X138616280Y-49701252D01*
X138520786Y-49704837D01*
X138387836Y-49709828D01*
X138312077Y-49725724D01*
X138164108Y-49756771D01*
X138164105Y-49756772D01*
X138158881Y-49757868D01*
X137941294Y-49843797D01*
X137896600Y-49870918D01*
X137745857Y-49962391D01*
X137745854Y-49962393D01*
X137741296Y-49965159D01*
X137564606Y-50118483D01*
X137416275Y-50299386D01*
X137413637Y-50304021D01*
X137413634Y-50304025D01*
X137394863Y-50337001D01*
X137343781Y-50386307D01*
X137274151Y-50400169D01*
X137208080Y-50374186D01*
X137180841Y-50345036D01*
X137097230Y-50220845D01*
X137090569Y-50212559D01*
X136936516Y-50051070D01*
X136928548Y-50044021D01*
X136749488Y-49910797D01*
X136740458Y-49905198D01*
X136541509Y-49804047D01*
X136531648Y-49800044D01*
X136318511Y-49733862D01*
X136308131Y-49731580D01*
X136288397Y-49728964D01*
X136274233Y-49731160D01*
X136270440Y-49744345D01*
X136270440Y-52869627D01*
X135762440Y-52869627D01*
X135762440Y-49746373D01*
X135758467Y-49732842D01*
X135747860Y-49731317D01*
X135624252Y-49757252D01*
X135614056Y-49760312D01*
X135406488Y-49842284D01*
X135396951Y-49847018D01*
X135206155Y-49962796D01*
X135197562Y-49969062D01*
X135028999Y-50115333D01*
X135021578Y-50122965D01*
X134994267Y-50156272D01*
X134935607Y-50196266D01*
X134864637Y-50198197D01*
X134803889Y-50161452D01*
X134788636Y-50138654D01*
X134787990Y-50139054D01*
X134698772Y-49994880D01*
X134694918Y-49988652D01*
X134569743Y-49863695D01*
X134483111Y-49810294D01*
X134425408Y-49774725D01*
X134425406Y-49774724D01*
X134419178Y-49770885D01*
X134331579Y-49741830D01*
X134257829Y-49717368D01*
X134257827Y-49717368D01*
X134251301Y-49715203D01*
X134244465Y-49714503D01*
X134244462Y-49714502D01*
X134196889Y-49709628D01*
X134146840Y-49704500D01*
X132806040Y-49704500D01*
X132802794Y-49704837D01*
X132802790Y-49704837D01*
X132707132Y-49714762D01*
X132707128Y-49714763D01*
X132700274Y-49715474D01*
X132693738Y-49717655D01*
X132693736Y-49717655D01*
X132583014Y-49754595D01*
X132532494Y-49771450D01*
X132382092Y-49864522D01*
X132257135Y-49989697D01*
X132253295Y-49995927D01*
X132253294Y-49995928D01*
X132179692Y-50115333D01*
X132164325Y-50140262D01*
X132162021Y-50147209D01*
X132116918Y-50283192D01*
X132108643Y-50308139D01*
X132107943Y-50314975D01*
X132107942Y-50314978D01*
X132104511Y-50348470D01*
X132097940Y-50412600D01*
X132097940Y-52203400D01*
X130999160Y-52203400D01*
X131042087Y-52127988D01*
X131046552Y-52118324D01*
X131122700Y-51908539D01*
X131125471Y-51898271D01*
X131165396Y-51677484D01*
X131166329Y-51669255D01*
X131167220Y-51650376D01*
X131167290Y-51647401D01*
X131167290Y-51590365D01*
X131162815Y-51575126D01*
X131161425Y-51573921D01*
X131153742Y-51572250D01*
X130061405Y-51572250D01*
X130046166Y-51576725D01*
X130044961Y-51578115D01*
X130043290Y-51585798D01*
X130043290Y-52879877D01*
X129535290Y-52879877D01*
X129535290Y-51046135D01*
X130043290Y-51046135D01*
X130047765Y-51061374D01*
X130049155Y-51062579D01*
X130056838Y-51064250D01*
X131149175Y-51064250D01*
X131164414Y-51059775D01*
X131165619Y-51058385D01*
X131167290Y-51050702D01*
X131167290Y-51037196D01*
X131167065Y-51031887D01*
X131152951Y-50865543D01*
X131151161Y-50855071D01*
X131095092Y-50639048D01*
X131091556Y-50629008D01*
X130999891Y-50425518D01*
X130994722Y-50416232D01*
X130870080Y-50231095D01*
X130863419Y-50222809D01*
X130709366Y-50061320D01*
X130701398Y-50054271D01*
X130522338Y-49921047D01*
X130513308Y-49915448D01*
X130314359Y-49814297D01*
X130304498Y-49810294D01*
X130091361Y-49744112D01*
X130080981Y-49741830D01*
X130061247Y-49739214D01*
X130047083Y-49741410D01*
X130043290Y-49754595D01*
X130043290Y-51046135D01*
X129535290Y-51046135D01*
X129535290Y-49756623D01*
X129531317Y-49743092D01*
X129520710Y-49741567D01*
X129397102Y-49767502D01*
X129386906Y-49770562D01*
X129179338Y-49852534D01*
X129169801Y-49857268D01*
X128979005Y-49973046D01*
X128970412Y-49979312D01*
X128801849Y-50125583D01*
X128794428Y-50133215D01*
X128767117Y-50166522D01*
X128708457Y-50206516D01*
X128637487Y-50208447D01*
X128576739Y-50171702D01*
X128561486Y-50148904D01*
X128560840Y-50149304D01*
X128471622Y-50005130D01*
X128467768Y-49998902D01*
X128342593Y-49873945D01*
X128335713Y-49869704D01*
X128198258Y-49784975D01*
X128198256Y-49784974D01*
X128192028Y-49781135D01*
X128081109Y-49744345D01*
X128030679Y-49727618D01*
X128030677Y-49727618D01*
X128024151Y-49725453D01*
X128017315Y-49724753D01*
X128017312Y-49724752D01*
X127974259Y-49720341D01*
X127919690Y-49714750D01*
X126578890Y-49714750D01*
X126575644Y-49715087D01*
X126575640Y-49715087D01*
X126479982Y-49725012D01*
X126479978Y-49725013D01*
X126473124Y-49725724D01*
X126466588Y-49727905D01*
X126466586Y-49727905D01*
X126380065Y-49756771D01*
X126305344Y-49781700D01*
X126154942Y-49874772D01*
X126029985Y-49999947D01*
X126026145Y-50006177D01*
X126026144Y-50006178D01*
X125952542Y-50125583D01*
X125937175Y-50150512D01*
X125918599Y-50206516D01*
X125885326Y-50306834D01*
X125881493Y-50318389D01*
X125880793Y-50325225D01*
X125880792Y-50325228D01*
X125878763Y-50345036D01*
X125870790Y-50422850D01*
X125870790Y-52213650D01*
X116959834Y-52213650D01*
X117041942Y-52061159D01*
X117044849Y-52054981D01*
X117177090Y-51729313D01*
X117179304Y-51722883D01*
X117275598Y-51384837D01*
X117277105Y-51378207D01*
X117336332Y-51031718D01*
X117337112Y-51024978D01*
X117358668Y-50672525D01*
X117358784Y-50668923D01*
X117358853Y-50649419D01*
X117358761Y-50645794D01*
X117339666Y-50293215D01*
X117338931Y-50286449D01*
X117282130Y-49939585D01*
X117280663Y-49932913D01*
X117186736Y-49594227D01*
X117184562Y-49587763D01*
X117054598Y-49261178D01*
X117051742Y-49254998D01*
X116887269Y-48944363D01*
X116883769Y-48938537D01*
X116686697Y-48647462D01*
X116682590Y-48642053D01*
X116569565Y-48508779D01*
X116556740Y-48500343D01*
X116546416Y-48506395D01*
X114418020Y-50634790D01*
X114410408Y-50648731D01*
X113680357Y-50648731D01*
X113681592Y-50646469D01*
X113681461Y-50644634D01*
X113677210Y-50638020D01*
X111546992Y-48507803D01*
X111533455Y-48500411D01*
X111523753Y-48507199D01*
X111416430Y-48632857D01*
X111412296Y-48638264D01*
X111214215Y-48928641D01*
X111210697Y-48934451D01*
X111045134Y-49244522D01*
X111042259Y-49250687D01*
X110911155Y-49576818D01*
X110908962Y-49583258D01*
X110813846Y-49921644D01*
X110812363Y-49928279D01*
X110766172Y-50204309D01*
X110735201Y-50268194D01*
X110674608Y-50305194D01*
X110603630Y-50303561D01*
X110544803Y-50263813D01*
X110516803Y-50198571D01*
X110515900Y-50183513D01*
X110515900Y-47268900D01*
X110535902Y-47200779D01*
X110589558Y-47154286D01*
X110641900Y-47142900D01*
X113422298Y-47142900D01*
X113490419Y-47162902D01*
G37*
%TD.AperFunction*%
%TD*%
M02*
