M48
; DRILL file {KiCad 6.0.4-6f826c9f35~116~ubuntu20.04.1} date K 18 mai   2022 13:41:18
; FORMAT={-:-/ absolute / inch / decimal}
; #@! TF.CreationDate,2022-05-18T13:41:18+03:00
; #@! TF.GenerationSoftware,Kicad,Pcbnew,6.0.4-6f826c9f35~116~ubuntu20.04.1
; #@! TF.FileFunction,Plated,1,2,PTH
FMAT,2
INCH
; #@! TA.AperFunction,Plated,PTH,ViaDrill
T1C0.0079
; #@! TA.AperFunction,Plated,PTH,ViaDrill
T2C0.0157
; #@! TA.AperFunction,Plated,PTH,ComponentDrill
T3C0.0394
; #@! TA.AperFunction,Plated,PTH,ComponentDrill
T4C0.0433
; #@! TA.AperFunction,Plated,PTH,ComponentDrill
T5C0.0469
; #@! TA.AperFunction,Plated,PTH,ComponentDrill
T6C0.1063
; #@! TA.AperFunction,Plated,PTH,ComponentDrill
T7C0.1260
%
G90
G05
T1
X4.8778Y-2.5651
X4.993Y-2.846
X5.0117Y-2.8283
X5.015Y-3.91
X5.177Y-2.202
X5.251Y-2.976
X5.279Y-2.976
X5.5081Y-2.6716
X5.5949Y-2.8999
X5.6081Y-2.9201
X5.6353Y-2.66
X5.7214Y-2.4886
X5.748Y-2.486
T2
X5.0048Y-2.7976
X5.01Y-2.408
X5.0898Y-2.8436
X5.0989Y-3.0025
X5.1939Y-3.0773
X5.3394Y-2.988
X5.397Y-2.9812
X5.595Y-3.786
X5.5999Y-3.734
X5.78Y-3.734
X5.918Y-3.786
T3
X4.6739Y-2.533
X4.6739Y-2.633
X4.6739Y-2.733
X4.6739Y-2.833
X4.7739Y-2.533
X4.7739Y-2.633
X4.7739Y-2.733
X4.7739Y-2.833
T4
X5.844Y-4.034
X5.944Y-2.234
X6.144Y-2.234
X6.244Y-4.034
X6.544Y-2.234
X6.644Y-4.034
X6.8598Y-4.034
X6.9598Y-2.234
X7.1598Y-2.234
X7.2598Y-4.034
X7.5598Y-2.234
X7.6598Y-4.034
T5
X4.7692Y-4.136
X4.7692Y-4.236
X4.7692Y-4.336
X4.983Y-4.274
X4.985Y-3.9688
X5.0098Y-2.0204
X5.083Y-4.274
X5.085Y-3.9688
X5.1098Y-2.0204
X5.183Y-4.274
X5.185Y-3.9688
X5.255Y-2.02
X5.355Y-2.02
X5.365Y-3.9688
X5.365Y-4.274
X5.455Y-2.02
X5.465Y-3.9688
X5.465Y-4.274
X5.555Y-2.02
X5.565Y-3.9688
X5.565Y-4.274
X5.814Y-4.278
X5.914Y-4.278
X6.064Y-4.278
X6.164Y-4.278
T6
X5.9451Y-2.006
X6.142Y-2.006
T7
X4.49Y-1.994
X4.49Y-4.404
X7.586Y-1.994
X7.586Y-4.404
T0
M30
