M48
; DRILL file {KiCad 6.0.4-6f826c9f35~116~ubuntu20.04.1} date N 19 mai   2022 11:10:32
; FORMAT={-:-/ absolute / inch / decimal}
; #@! TF.CreationDate,2022-05-19T11:10:32+03:00
; #@! TF.GenerationSoftware,Kicad,Pcbnew,6.0.4-6f826c9f35~116~ubuntu20.04.1
; #@! TF.FileFunction,Plated,1,2,PTH
FMAT,2
INCH
; #@! TA.AperFunction,Plated,PTH,ViaDrill
T1C0.0079
; #@! TA.AperFunction,Plated,PTH,ViaDrill
T2C0.0157
; #@! TA.AperFunction,Plated,PTH,ComponentDrill
T3C0.0197
; #@! TA.AperFunction,Plated,PTH,ComponentDrill
T4C0.0236
; #@! TA.AperFunction,Plated,PTH,ComponentDrill
T5C0.0394
; #@! TA.AperFunction,Plated,PTH,ComponentDrill
T6C0.0469
; #@! TA.AperFunction,Plated,PTH,ComponentDrill
T7C0.1693
%
G90
G05
T1
X4.16Y-2.45
X4.3Y-2.39
X4.318Y-2.292
X4.45Y-2.29
X4.47Y-3.035
X4.4885Y-1.5803
X4.5279Y-1.5803
X4.555Y-1.97
X4.5573Y-2.572
X4.6Y-2.65
X4.605Y-1.965
X4.714Y-1.91
X4.794Y-2.603
X4.83Y-2.725
T2
X3.7131Y-2.6048
X3.7805Y-2.5185
X4.2888Y-1.7419
X4.3741Y-1.8093
X4.8096Y-2.889
X4.8962Y-2.956
T5
X4.37Y-2.396
X4.37Y-2.496
X4.37Y-2.596
X4.37Y-2.696
X4.47Y-2.396
X4.47Y-2.496
X4.47Y-2.596
X4.47Y-2.696
T6
X3.502Y-2.7673
X3.502Y-3.0395
X3.502Y-3.8595
X3.504Y-3.3145
X3.504Y-3.5885
X3.602Y-2.7673
X3.602Y-3.0395
X3.602Y-3.8595
X3.604Y-3.3145
X3.604Y-3.5885
X3.915Y-3.0492
X4.015Y-3.0492
X4.8405Y-3.4033
X4.841Y-3.1311
X4.9405Y-3.4033
X4.941Y-3.1311
X5.0405Y-3.4033
X5.041Y-3.1311
X5.1405Y-3.4033
X5.141Y-3.1311
T7
X3.2Y-1.48
X3.2Y-4.18
X5.98Y-1.48
X5.98Y-4.18
T3
G00X4.348Y-1.5708
M15
G01X4.348Y-1.5236
M16
G05
G00X4.6881Y-1.5708
M15
G01X4.6881Y-1.5236
M16
G05
T4
G00X4.348Y-1.3944
M15
G01X4.348Y-1.3708
M16
G05
G00X4.6881Y-1.3944
M15
G01X4.6881Y-1.3708
M16
G05
T0
M30
