%TF.GenerationSoftware,KiCad,Pcbnew,6.0.4-6f826c9f35~116~ubuntu20.04.1*%
%TF.CreationDate,2022-05-19T11:10:30+03:00*%
%TF.ProjectId,oskar_body_rev1,6f736b61-725f-4626-9f64-795f72657631,rev?*%
%TF.SameCoordinates,Original*%
%TF.FileFunction,Soldermask,Bot*%
%TF.FilePolarity,Negative*%
%FSLAX46Y46*%
G04 Gerber Fmt 4.6, Leading zero omitted, Abs format (unit mm)*
G04 Created by KiCad (PCBNEW 6.0.4-6f826c9f35~116~ubuntu20.04.1) date 2022-05-19 11:10:30*
%MOMM*%
%LPD*%
G01*
G04 APERTURE LIST*
G04 Aperture macros list*
%AMRoundRect*
0 Rectangle with rounded corners*
0 $1 Rounding radius*
0 $2 $3 $4 $5 $6 $7 $8 $9 X,Y pos of 4 corners*
0 Add a 4 corners polygon primitive as box body*
4,1,4,$2,$3,$4,$5,$6,$7,$8,$9,$2,$3,0*
0 Add four circle primitives for the rounded corners*
1,1,$1+$1,$2,$3*
1,1,$1+$1,$4,$5*
1,1,$1+$1,$6,$7*
1,1,$1+$1,$8,$9*
0 Add four rect primitives between the rounded corners*
20,1,$1+$1,$2,$3,$4,$5,0*
20,1,$1+$1,$4,$5,$6,$7,0*
20,1,$1+$1,$6,$7,$8,$9,0*
20,1,$1+$1,$8,$9,$2,$3,0*%
G04 Aperture macros list end*
%ADD10RoundRect,0.250000X0.620000X0.845000X-0.620000X0.845000X-0.620000X-0.845000X0.620000X-0.845000X0*%
%ADD11O,1.740000X2.190000*%
%ADD12RoundRect,0.250000X-0.620000X-0.845000X0.620000X-0.845000X0.620000X0.845000X-0.620000X0.845000X0*%
%ADD13C,0.650000*%
%ADD14O,0.900000X2.100000*%
%ADD15O,1.000000X1.600000*%
%ADD16R,1.700000X1.700000*%
%ADD17O,1.700000X1.700000*%
%ADD18C,4.700000*%
%ADD19C,7.500000*%
G04 APERTURE END LIST*
D10*
%TO.C,J8*%
X101981000Y-77450000D03*
D11*
X99441000Y-77450000D03*
%TD*%
D12*
%TO.C,J7*%
X122961400Y-79530700D03*
D11*
X125501400Y-79530700D03*
X128041400Y-79530700D03*
X130581400Y-79530700D03*
%TD*%
D10*
%TO.C,J57*%
X91490800Y-70289600D03*
D11*
X88950800Y-70289600D03*
%TD*%
D12*
%TO.C,J10*%
X122949800Y-86444500D03*
D11*
X125489800Y-86444500D03*
X128029800Y-86444500D03*
X130569800Y-86444500D03*
%TD*%
D10*
%TO.C,J6*%
X91490800Y-77203800D03*
D11*
X88950800Y-77203800D03*
%TD*%
D10*
%TO.C,J5*%
X91541600Y-84188800D03*
D11*
X89001600Y-84188800D03*
%TD*%
D10*
%TO.C,J4*%
X91541600Y-91148400D03*
D11*
X89001600Y-91148400D03*
%TD*%
D13*
%TO.C,J3*%
X111869000Y-38798834D03*
X117649000Y-38798834D03*
D14*
X110439000Y-39298834D03*
X119079000Y-39298834D03*
D15*
X110439000Y-35118834D03*
X119079000Y-35118834D03*
%TD*%
D10*
%TO.C,J2*%
X91490800Y-98031800D03*
D11*
X88950800Y-98031800D03*
%TD*%
D16*
%TO.C,J1*%
X110998000Y-60858400D03*
D17*
X113538000Y-60858400D03*
X110998000Y-63398400D03*
X113538000Y-63398400D03*
X110998000Y-65938400D03*
X113538000Y-65938400D03*
X110998000Y-68478400D03*
X113538000Y-68478400D03*
%TD*%
D18*
%TO.C,H4*%
X81280000Y-106172000D03*
D19*
X81280000Y-106172000D03*
%TD*%
D18*
%TO.C,H3*%
X151892000Y-106172000D03*
D19*
X151892000Y-106172000D03*
%TD*%
D18*
%TO.C,H2*%
X151892000Y-37592000D03*
D19*
X151892000Y-37592000D03*
%TD*%
D18*
%TO.C,H1*%
X81280000Y-37592000D03*
D19*
X81280000Y-37592000D03*
%TD*%
M02*
