%TF.GenerationSoftware,KiCad,Pcbnew,6.0.4-6f826c9f35~116~ubuntu20.04.1*%
%TF.CreationDate,2022-05-19T11:10:30+03:00*%
%TF.ProjectId,oskar_body_rev1,6f736b61-725f-4626-9f64-795f72657631,rev?*%
%TF.SameCoordinates,Original*%
%TF.FileFunction,Paste,Top*%
%TF.FilePolarity,Positive*%
%FSLAX46Y46*%
G04 Gerber Fmt 4.6, Leading zero omitted, Abs format (unit mm)*
G04 Created by KiCad (PCBNEW 6.0.4-6f826c9f35~116~ubuntu20.04.1) date 2022-05-19 11:10:30*
%MOMM*%
%LPD*%
G01*
G04 APERTURE LIST*
G04 Aperture macros list*
%AMRoundRect*
0 Rectangle with rounded corners*
0 $1 Rounding radius*
0 $2 $3 $4 $5 $6 $7 $8 $9 X,Y pos of 4 corners*
0 Add a 4 corners polygon primitive as box body*
4,1,4,$2,$3,$4,$5,$6,$7,$8,$9,$2,$3,0*
0 Add four circle primitives for the rounded corners*
1,1,$1+$1,$2,$3*
1,1,$1+$1,$4,$5*
1,1,$1+$1,$6,$7*
1,1,$1+$1,$8,$9*
0 Add four rect primitives between the rounded corners*
20,1,$1+$1,$2,$3,$4,$5,0*
20,1,$1+$1,$4,$5,$6,$7,0*
20,1,$1+$1,$6,$7,$8,$9,0*
20,1,$1+$1,$8,$9,$2,$3,0*%
G04 Aperture macros list end*
%ADD10RoundRect,0.225000X-0.225000X-0.250000X0.225000X-0.250000X0.225000X0.250000X-0.225000X0.250000X0*%
%ADD11RoundRect,0.200000X0.275000X-0.200000X0.275000X0.200000X-0.275000X0.200000X-0.275000X-0.200000X0*%
%ADD12R,2.000000X1.500000*%
%ADD13R,2.000000X3.800000*%
%ADD14RoundRect,0.200000X-0.275000X0.200000X-0.275000X-0.200000X0.275000X-0.200000X0.275000X0.200000X0*%
%ADD15RoundRect,0.218750X0.256250X-0.218750X0.256250X0.218750X-0.256250X0.218750X-0.256250X-0.218750X0*%
%ADD16R,1.000000X0.900000*%
%ADD17R,1.400000X1.200000*%
%ADD18RoundRect,0.150000X-0.150000X0.825000X-0.150000X-0.825000X0.150000X-0.825000X0.150000X0.825000X0*%
%ADD19RoundRect,0.200000X0.200000X0.275000X-0.200000X0.275000X-0.200000X-0.275000X0.200000X-0.275000X0*%
%ADD20RoundRect,0.200000X-0.200000X-0.275000X0.200000X-0.275000X0.200000X0.275000X-0.200000X0.275000X0*%
%ADD21RoundRect,0.250000X-0.375000X-0.625000X0.375000X-0.625000X0.375000X0.625000X-0.375000X0.625000X0*%
%ADD22RoundRect,0.218750X-0.218750X-0.256250X0.218750X-0.256250X0.218750X0.256250X-0.218750X0.256250X0*%
%ADD23RoundRect,0.225000X0.250000X-0.225000X0.250000X0.225000X-0.250000X0.225000X-0.250000X-0.225000X0*%
%ADD24R,1.200000X1.400000*%
%ADD25RoundRect,0.150000X-0.875000X-0.150000X0.875000X-0.150000X0.875000X0.150000X-0.875000X0.150000X0*%
%ADD26RoundRect,0.075000X-0.662500X-0.075000X0.662500X-0.075000X0.662500X0.075000X-0.662500X0.075000X0*%
%ADD27RoundRect,0.075000X-0.075000X-0.662500X0.075000X-0.662500X0.075000X0.662500X-0.075000X0.662500X0*%
%ADD28R,0.300000X1.750000*%
%ADD29RoundRect,0.150000X-0.150000X0.587500X-0.150000X-0.587500X0.150000X-0.587500X0.150000X0.587500X0*%
%ADD30RoundRect,0.225000X0.225000X0.250000X-0.225000X0.250000X-0.225000X-0.250000X0.225000X-0.250000X0*%
%ADD31RoundRect,0.225000X-0.250000X0.225000X-0.250000X-0.225000X0.250000X-0.225000X0.250000X0.225000X0*%
G04 APERTURE END LIST*
D10*
%TO.C,C15*%
X120891000Y-42418000D03*
X122441000Y-42418000D03*
%TD*%
%TO.C,C18*%
X119748000Y-50165000D03*
X121298000Y-50165000D03*
%TD*%
%TO.C,C17*%
X119748000Y-51689000D03*
X121298000Y-51689000D03*
%TD*%
%TO.C,C16*%
X119735000Y-48514000D03*
X121285000Y-48514000D03*
%TD*%
D11*
%TO.C,R13*%
X113538000Y-77025000D03*
X113538000Y-75375000D03*
%TD*%
%TO.C,R6*%
X102997000Y-73342000D03*
X102997000Y-71692000D03*
%TD*%
D12*
%TO.C,Q1*%
X105181000Y-71741000D03*
D13*
X111481000Y-74041000D03*
D12*
X105181000Y-74041000D03*
X105181000Y-76341000D03*
%TD*%
D14*
%TO.C,R5*%
X122605800Y-43879000D03*
X122605800Y-45529000D03*
%TD*%
D15*
%TO.C,D10*%
X120904000Y-45491500D03*
X120904000Y-43916500D03*
%TD*%
D16*
%TO.C,SW1*%
X115354200Y-75202000D03*
X115354200Y-71102000D03*
X116954200Y-71102000D03*
X116954200Y-75202000D03*
%TD*%
D17*
%TO.C,Y2*%
X108934600Y-45943003D03*
X111134600Y-45943003D03*
X111134600Y-44243003D03*
X108934600Y-44243003D03*
%TD*%
D18*
%TO.C,U5*%
X118188000Y-48155203D03*
X116918000Y-48155203D03*
X115648000Y-48155203D03*
X114378000Y-48155203D03*
X113108000Y-48155203D03*
X111838000Y-48155203D03*
X110568000Y-48155203D03*
X109298000Y-48155203D03*
X109298000Y-53105203D03*
X110568000Y-53105203D03*
X111838000Y-53105203D03*
X113108000Y-53105203D03*
X114378000Y-53105203D03*
X115648000Y-53105203D03*
X116918000Y-53105203D03*
X118188000Y-53105203D03*
%TD*%
D19*
%TO.C,R18*%
X107759000Y-49276000D03*
X106109000Y-49276000D03*
%TD*%
%TO.C,R17*%
X104520000Y-49276000D03*
X102870000Y-49276000D03*
%TD*%
%TO.C,R16*%
X117666800Y-42475234D03*
X116016800Y-42475234D03*
%TD*%
D20*
%TO.C,R15*%
X113018600Y-42500634D03*
X111368600Y-42500634D03*
%TD*%
D21*
%TO.C,F1*%
X119029200Y-44431034D03*
X116229200Y-44431034D03*
%TD*%
D22*
%TO.C,D9*%
X106172000Y-47752000D03*
X107747000Y-47752000D03*
%TD*%
%TO.C,D8*%
X102882000Y-47752000D03*
X104457000Y-47752000D03*
%TD*%
D23*
%TO.C,C14*%
X107113600Y-46071203D03*
X107113600Y-44521203D03*
%TD*%
%TO.C,C13*%
X112930200Y-45639403D03*
X112930200Y-44089403D03*
%TD*%
D17*
%TO.C,Y3*%
X122163100Y-75081800D03*
X124363100Y-75081800D03*
X124363100Y-73381800D03*
X122163100Y-73381800D03*
%TD*%
D24*
%TO.C,Y1*%
X94312000Y-63962600D03*
X94312000Y-66162600D03*
X96012000Y-66162600D03*
X96012000Y-63962600D03*
%TD*%
D18*
%TO.C,U3*%
X92049600Y-60070000D03*
X90779600Y-60070000D03*
X89509600Y-60070000D03*
X88239600Y-60070000D03*
X88239600Y-55120000D03*
X89509600Y-55120000D03*
X90779600Y-55120000D03*
X92049600Y-55120000D03*
%TD*%
D25*
%TO.C,U2*%
X98245400Y-56934600D03*
X98245400Y-58204600D03*
X98245400Y-59474600D03*
X98245400Y-60744600D03*
X98245400Y-62014600D03*
X98245400Y-63284600D03*
X98245400Y-64554600D03*
X98245400Y-65824600D03*
X98245400Y-67094600D03*
X107545400Y-67094600D03*
X107545400Y-65824600D03*
X107545400Y-64554600D03*
X107545400Y-63284600D03*
X107545400Y-62014600D03*
X107545400Y-60744600D03*
X107545400Y-59474600D03*
X107545400Y-58204600D03*
X107545400Y-56934600D03*
%TD*%
D26*
%TO.C,U1*%
X118092900Y-56814200D03*
X118092900Y-57314200D03*
X118092900Y-57814200D03*
X118092900Y-58314200D03*
X118092900Y-58814200D03*
X118092900Y-59314200D03*
X118092900Y-59814200D03*
X118092900Y-60314200D03*
X118092900Y-60814200D03*
X118092900Y-61314200D03*
X118092900Y-61814200D03*
X118092900Y-62314200D03*
X118092900Y-62814200D03*
X118092900Y-63314200D03*
X118092900Y-63814200D03*
X118092900Y-64314200D03*
X118092900Y-64814200D03*
X118092900Y-65314200D03*
X118092900Y-65814200D03*
X118092900Y-66314200D03*
X118092900Y-66814200D03*
X118092900Y-67314200D03*
X118092900Y-67814200D03*
X118092900Y-68314200D03*
X118092900Y-68814200D03*
D27*
X119755400Y-70476700D03*
X120255400Y-70476700D03*
X120755400Y-70476700D03*
X121255400Y-70476700D03*
X121755400Y-70476700D03*
X122255400Y-70476700D03*
X122755400Y-70476700D03*
X123255400Y-70476700D03*
X123755400Y-70476700D03*
X124255400Y-70476700D03*
X124755400Y-70476700D03*
X125255400Y-70476700D03*
X125755400Y-70476700D03*
X126255400Y-70476700D03*
X126755400Y-70476700D03*
X127255400Y-70476700D03*
X127755400Y-70476700D03*
X128255400Y-70476700D03*
X128755400Y-70476700D03*
X129255400Y-70476700D03*
X129755400Y-70476700D03*
X130255400Y-70476700D03*
X130755400Y-70476700D03*
X131255400Y-70476700D03*
X131755400Y-70476700D03*
D26*
X133417900Y-68814200D03*
X133417900Y-68314200D03*
X133417900Y-67814200D03*
X133417900Y-67314200D03*
X133417900Y-66814200D03*
X133417900Y-66314200D03*
X133417900Y-65814200D03*
X133417900Y-65314200D03*
X133417900Y-64814200D03*
X133417900Y-64314200D03*
X133417900Y-63814200D03*
X133417900Y-63314200D03*
X133417900Y-62814200D03*
X133417900Y-62314200D03*
X133417900Y-61814200D03*
X133417900Y-61314200D03*
X133417900Y-60814200D03*
X133417900Y-60314200D03*
X133417900Y-59814200D03*
X133417900Y-59314200D03*
X133417900Y-58814200D03*
X133417900Y-58314200D03*
X133417900Y-57814200D03*
X133417900Y-57314200D03*
X133417900Y-56814200D03*
D27*
X131755400Y-55151700D03*
X131255400Y-55151700D03*
X130755400Y-55151700D03*
X130255400Y-55151700D03*
X129755400Y-55151700D03*
X129255400Y-55151700D03*
X128755400Y-55151700D03*
X128255400Y-55151700D03*
X127755400Y-55151700D03*
X127255400Y-55151700D03*
X126755400Y-55151700D03*
X126255400Y-55151700D03*
X125755400Y-55151700D03*
X125255400Y-55151700D03*
X124755400Y-55151700D03*
X124255400Y-55151700D03*
X123755400Y-55151700D03*
X123255400Y-55151700D03*
X122755400Y-55151700D03*
X122255400Y-55151700D03*
X121755400Y-55151700D03*
X121255400Y-55151700D03*
X120755400Y-55151700D03*
X120255400Y-55151700D03*
X119755400Y-55151700D03*
%TD*%
D11*
%TO.C,R12*%
X141198600Y-79820000D03*
X141198600Y-81470000D03*
%TD*%
%TO.C,R11*%
X139606800Y-79803300D03*
X139606800Y-81453300D03*
%TD*%
%TO.C,R10*%
X138013800Y-79821900D03*
X138013800Y-81471900D03*
%TD*%
%TO.C,R9*%
X136383200Y-79821300D03*
X136383200Y-81471300D03*
%TD*%
%TO.C,R8*%
X134757000Y-79809200D03*
X134757000Y-81459200D03*
%TD*%
%TO.C,R7*%
X133172200Y-79820100D03*
X133172200Y-81470100D03*
%TD*%
D14*
%TO.C,R4*%
X109677200Y-56566800D03*
X109677200Y-58216800D03*
%TD*%
D19*
%TO.C,R3*%
X90969600Y-62141600D03*
X89319600Y-62141600D03*
%TD*%
D11*
%TO.C,R2*%
X93675200Y-58979800D03*
X93675200Y-60629800D03*
%TD*%
%TO.C,R1*%
X118795800Y-75297800D03*
X118795800Y-73647800D03*
%TD*%
D28*
%TO.C,J3*%
X111409000Y-40138834D03*
X111709000Y-40138834D03*
X112509000Y-40138834D03*
X112209000Y-40138834D03*
X117009000Y-40138834D03*
X117309000Y-40138834D03*
X117809000Y-40138834D03*
X118109000Y-40138834D03*
X115009000Y-40138834D03*
X116009000Y-40138834D03*
X116509000Y-40138834D03*
X115509000Y-40138834D03*
X113009000Y-40138834D03*
X113509000Y-40138834D03*
X114009000Y-40138834D03*
X114509000Y-40138834D03*
%TD*%
D15*
%TO.C,D7*%
X141198600Y-76784200D03*
X141198600Y-78359200D03*
%TD*%
%TO.C,D6*%
X139598400Y-76784200D03*
X139598400Y-78359200D03*
%TD*%
%TO.C,D5*%
X137998200Y-78359200D03*
X137998200Y-76784200D03*
%TD*%
%TO.C,D4*%
X136372600Y-76784200D03*
X136372600Y-78359200D03*
%TD*%
%TO.C,D3*%
X134772400Y-76784100D03*
X134772400Y-78359100D03*
%TD*%
%TO.C,D2*%
X133172200Y-78359200D03*
X133172200Y-76784200D03*
%TD*%
D29*
%TO.C,D1*%
X91170800Y-63947300D03*
X89270800Y-63947300D03*
X90220800Y-65822300D03*
%TD*%
D10*
%TO.C,C11*%
X89395000Y-53099200D03*
X90945000Y-53099200D03*
%TD*%
D30*
%TO.C,C10*%
X108115400Y-55182000D03*
X106565400Y-55182000D03*
%TD*%
%TO.C,C9*%
X96165600Y-67958200D03*
X94615600Y-67958200D03*
%TD*%
%TO.C,C8*%
X95721400Y-62141600D03*
X94171400Y-62141600D03*
%TD*%
%TO.C,C7*%
X129756200Y-53340000D03*
X128206200Y-53340000D03*
%TD*%
D10*
%TO.C,C6*%
X119773400Y-53314600D03*
X121323400Y-53314600D03*
%TD*%
D30*
%TO.C,C5*%
X113017600Y-58191400D03*
X111467600Y-58191400D03*
%TD*%
D23*
%TO.C,C4*%
X120354900Y-75235400D03*
X120354900Y-73685400D03*
%TD*%
%TO.C,C3*%
X126171500Y-74792200D03*
X126171500Y-73242200D03*
%TD*%
%TO.C,C2*%
X135204200Y-63817800D03*
X135204200Y-62267800D03*
%TD*%
D31*
%TO.C,C1*%
X116255800Y-62116000D03*
X116255800Y-60566000D03*
%TD*%
M02*
