%TF.GenerationSoftware,KiCad,Pcbnew,6.0.4-6f826c9f35~116~ubuntu20.04.1*%
%TF.CreationDate,2022-05-19T11:10:30+03:00*%
%TF.ProjectId,oskar_body_rev1,6f736b61-725f-4626-9f64-795f72657631,rev?*%
%TF.SameCoordinates,Original*%
%TF.FileFunction,Copper,L2,Bot*%
%TF.FilePolarity,Positive*%
%FSLAX46Y46*%
G04 Gerber Fmt 4.6, Leading zero omitted, Abs format (unit mm)*
G04 Created by KiCad (PCBNEW 6.0.4-6f826c9f35~116~ubuntu20.04.1) date 2022-05-19 11:10:30*
%MOMM*%
%LPD*%
G01*
G04 APERTURE LIST*
G04 Aperture macros list*
%AMRoundRect*
0 Rectangle with rounded corners*
0 $1 Rounding radius*
0 $2 $3 $4 $5 $6 $7 $8 $9 X,Y pos of 4 corners*
0 Add a 4 corners polygon primitive as box body*
4,1,4,$2,$3,$4,$5,$6,$7,$8,$9,$2,$3,0*
0 Add four circle primitives for the rounded corners*
1,1,$1+$1,$2,$3*
1,1,$1+$1,$4,$5*
1,1,$1+$1,$6,$7*
1,1,$1+$1,$8,$9*
0 Add four rect primitives between the rounded corners*
20,1,$1+$1,$2,$3,$4,$5,0*
20,1,$1+$1,$4,$5,$6,$7,0*
20,1,$1+$1,$6,$7,$8,$9,0*
20,1,$1+$1,$8,$9,$2,$3,0*%
G04 Aperture macros list end*
%TA.AperFunction,ComponentPad*%
%ADD10RoundRect,0.250000X0.620000X0.845000X-0.620000X0.845000X-0.620000X-0.845000X0.620000X-0.845000X0*%
%TD*%
%TA.AperFunction,ComponentPad*%
%ADD11O,1.740000X2.190000*%
%TD*%
%TA.AperFunction,ComponentPad*%
%ADD12RoundRect,0.250000X-0.620000X-0.845000X0.620000X-0.845000X0.620000X0.845000X-0.620000X0.845000X0*%
%TD*%
%TA.AperFunction,ComponentPad*%
%ADD13O,0.900000X2.100000*%
%TD*%
%TA.AperFunction,ComponentPad*%
%ADD14O,1.000000X1.600000*%
%TD*%
%TA.AperFunction,ComponentPad*%
%ADD15R,1.700000X1.700000*%
%TD*%
%TA.AperFunction,ComponentPad*%
%ADD16O,1.700000X1.700000*%
%TD*%
%TA.AperFunction,ComponentPad*%
%ADD17C,4.700000*%
%TD*%
%TA.AperFunction,ConnectorPad*%
%ADD18C,7.500000*%
%TD*%
%TA.AperFunction,ViaPad*%
%ADD19C,0.300000*%
%TD*%
%TA.AperFunction,ViaPad*%
%ADD20C,0.800000*%
%TD*%
%TA.AperFunction,Conductor*%
%ADD21C,0.200000*%
%TD*%
%TA.AperFunction,Conductor*%
%ADD22C,0.250000*%
%TD*%
G04 APERTURE END LIST*
D10*
%TO.P,J8,1,Pin_1*%
%TO.N,Net-(J8-Pad1)*%
X101981000Y-77450000D03*
D11*
%TO.P,J8,2,Pin_2*%
%TO.N,GND*%
X99441000Y-77450000D03*
%TD*%
D12*
%TO.P,J7,1,Pin_1*%
%TO.N,+5V*%
X122961400Y-79530700D03*
D11*
%TO.P,J7,2,Pin_2*%
%TO.N,GND*%
X125501400Y-79530700D03*
%TO.P,J7,3,Pin_3*%
%TO.N,/SCL*%
X128041400Y-79530700D03*
%TO.P,J7,4,Pin_4*%
%TO.N,/SDA*%
X130581400Y-79530700D03*
%TD*%
D10*
%TO.P,J57,1,Pin_1*%
%TO.N,Net-(D1-Pad1)*%
X91490800Y-70289600D03*
D11*
%TO.P,J57,2,Pin_2*%
%TO.N,Net-(J2-Pad2)*%
X88950800Y-70289600D03*
%TD*%
D12*
%TO.P,J10,1,Pin_1*%
%TO.N,+5V*%
X122949800Y-86444500D03*
D11*
%TO.P,J10,2,Pin_2*%
%TO.N,GND*%
X125489800Y-86444500D03*
%TO.P,J10,3,Pin_3*%
%TO.N,/SCL*%
X128029800Y-86444500D03*
%TO.P,J10,4,Pin_4*%
%TO.N,/SDA*%
X130569800Y-86444500D03*
%TD*%
D10*
%TO.P,J6,1,Pin_1*%
%TO.N,Net-(D1-Pad1)*%
X91490800Y-77203800D03*
D11*
%TO.P,J6,2,Pin_2*%
%TO.N,Net-(J2-Pad2)*%
X88950800Y-77203800D03*
%TD*%
D10*
%TO.P,J5,1,Pin_1*%
%TO.N,Net-(D1-Pad1)*%
X91541600Y-84188800D03*
D11*
%TO.P,J5,2,Pin_2*%
%TO.N,Net-(J2-Pad2)*%
X89001600Y-84188800D03*
%TD*%
D10*
%TO.P,J4,1,Pin_1*%
%TO.N,Net-(D1-Pad1)*%
X91541600Y-91148400D03*
D11*
%TO.P,J4,2,Pin_2*%
%TO.N,Net-(J2-Pad2)*%
X89001600Y-91148400D03*
%TD*%
D13*
%TO.P,J3,S1,SHIELD*%
%TO.N,GND*%
X110439000Y-39298834D03*
X119079000Y-39298834D03*
D14*
X110439000Y-35118834D03*
X119079000Y-35118834D03*
%TD*%
D10*
%TO.P,J2,1,Pin_1*%
%TO.N,Net-(D1-Pad1)*%
X91490800Y-98031800D03*
D11*
%TO.P,J2,2,Pin_2*%
%TO.N,Net-(J2-Pad2)*%
X88950800Y-98031800D03*
%TD*%
D15*
%TO.P,J1,1,Pin_1*%
%TO.N,+5V*%
X110998000Y-60858400D03*
D16*
%TO.P,J1,2,Pin_2*%
%TO.N,GND*%
X113538000Y-60858400D03*
%TO.P,J1,3,Pin_3*%
%TO.N,/SCK*%
X110998000Y-63398400D03*
%TO.P,J1,4,Pin_4*%
%TO.N,/RESET*%
X113538000Y-63398400D03*
%TO.P,J1,5,Pin_5*%
%TO.N,/MISO*%
X110998000Y-65938400D03*
%TO.P,J1,6,Pin_6*%
%TO.N,/RESET*%
X113538000Y-65938400D03*
%TO.P,J1,7,Pin_7*%
%TO.N,/MOSI*%
X110998000Y-68478400D03*
%TO.P,J1,8,Pin_8*%
%TO.N,unconnected-(J1-Pad8)*%
X113538000Y-68478400D03*
%TD*%
D17*
%TO.P,H4,1,1*%
%TO.N,GND*%
X81280000Y-106172000D03*
D18*
X81280000Y-106172000D03*
%TD*%
D17*
%TO.P,H3,1,1*%
%TO.N,GND*%
X151892000Y-106172000D03*
D18*
X151892000Y-106172000D03*
%TD*%
D17*
%TO.P,H2,1,1*%
%TO.N,GND*%
X151892000Y-37592000D03*
D18*
X151892000Y-37592000D03*
%TD*%
D17*
%TO.P,H1,1,1*%
%TO.N,GND*%
X81280000Y-37592000D03*
D18*
X81280000Y-37592000D03*
%TD*%
D19*
%TO.N,GND*%
X119735000Y-48514000D03*
X113030000Y-58166000D03*
%TO.N,/CANRESET*%
X115754916Y-65328965D03*
X109677200Y-58216800D03*
%TO.N,+5V*%
X113538000Y-77089000D03*
X122682000Y-69215000D03*
%TO.N,/CONV_TXD*%
X115697000Y-50038000D03*
X116967000Y-49911000D03*
%TO.N,/MOSI*%
X105664000Y-62230000D03*
%TO.N,/MISO*%
X109220000Y-60706000D03*
%TO.N,/RESET*%
X121767600Y-66116200D03*
%TO.N,/MISO*%
X116840000Y-67310000D03*
D20*
%TO.N,GND*%
X96025600Y-63970400D03*
X94312000Y-66162600D03*
X124363100Y-75081800D03*
X122163100Y-73381800D03*
D19*
%TO.N,/D+*%
X114009000Y-40138834D03*
X115009000Y-40138834D03*
D20*
%TO.N,GND*%
X111101400Y-45956603D03*
X108934600Y-44243003D03*
%TD*%
D21*
%TO.N,GND*%
X113030000Y-58166000D02*
X113538000Y-58674000D01*
X113538000Y-58674000D02*
X113538000Y-60858400D01*
%TO.N,/CANRESET*%
X115754916Y-63989661D02*
X115754916Y-65328965D01*
X114014144Y-62248889D02*
X115754916Y-63989661D01*
X113302834Y-62248889D02*
X114014144Y-62248889D01*
X112388489Y-61334544D02*
X113302834Y-62248889D01*
X112388489Y-59949867D02*
X112388489Y-61334544D01*
X110655422Y-58216800D02*
X112388489Y-59949867D01*
X109677200Y-58216800D02*
X110655422Y-58216800D01*
%TO.N,+5V*%
X115979700Y-79530700D02*
X113538000Y-77089000D01*
X122961400Y-79530700D02*
X115979700Y-79530700D01*
X121463589Y-70433411D02*
X122682000Y-69215000D01*
X121463589Y-78032889D02*
X121463589Y-70433411D01*
X122961400Y-79530700D02*
X121463589Y-78032889D01*
%TO.N,/CONV_TXD*%
X115824000Y-49911000D02*
X115697000Y-50038000D01*
X116967000Y-49911000D02*
X115824000Y-49911000D01*
%TO.N,/MOSI*%
X105664000Y-62230000D02*
X105664000Y-63144400D01*
X105664000Y-63144400D02*
X110998000Y-68478400D01*
%TO.N,/MISO*%
X109220000Y-60706000D02*
X109220000Y-64160400D01*
X109220000Y-64160400D02*
X110998000Y-65938400D01*
D22*
%TO.N,/RESET*%
X121767600Y-66116200D02*
X121589800Y-65938400D01*
X121589800Y-65938400D02*
X113538000Y-65938400D01*
D21*
X113538000Y-63398400D02*
X113538000Y-65938400D01*
%TO.N,/MISO*%
X112369600Y-67310000D02*
X116840000Y-67310000D01*
X110998000Y-65938400D02*
X112369600Y-67310000D01*
%TO.N,GND*%
X96025600Y-63970400D02*
X94312000Y-65684000D01*
X94312000Y-65684000D02*
X94312000Y-66162600D01*
D22*
X122163100Y-73381800D02*
X122663100Y-73381800D01*
X122663100Y-73381800D02*
X124363100Y-75081800D01*
D21*
%TO.N,/D+*%
X115009000Y-40138834D02*
X114009000Y-40138834D01*
D22*
%TO.N,GND*%
X109387800Y-44243003D02*
X108934600Y-44243003D01*
X111101400Y-45956603D02*
X109387800Y-44243003D01*
%TD*%
%TA.AperFunction,Conductor*%
%TO.N,GND*%
G36*
X156151621Y-32786502D02*
G01*
X156198114Y-32840158D01*
X156209500Y-32892500D01*
X156209500Y-36299759D01*
X156189498Y-36367880D01*
X156135842Y-36414373D01*
X156065568Y-36424477D01*
X156000988Y-36394983D01*
X155964293Y-36340573D01*
X155856434Y-36025544D01*
X155854260Y-36020053D01*
X155691429Y-35659422D01*
X155688739Y-35654141D01*
X155492690Y-35310432D01*
X155489523Y-35305442D01*
X155262000Y-34981709D01*
X155258365Y-34977023D01*
X155089476Y-34779278D01*
X155076562Y-34770848D01*
X155066355Y-34776855D01*
X154120800Y-35722410D01*
X154120799Y-35722412D01*
X152264020Y-37579190D01*
X152256408Y-37593131D01*
X152256539Y-37594966D01*
X152260790Y-37601580D01*
X154120787Y-39461576D01*
X154120800Y-39461590D01*
X155067271Y-40408061D01*
X155081215Y-40415675D01*
X155082524Y-40415582D01*
X155089360Y-40411112D01*
X155091454Y-40408737D01*
X155338841Y-40099947D01*
X155342331Y-40095144D01*
X155559564Y-39764440D01*
X155562589Y-39759323D01*
X155747733Y-39409647D01*
X155750255Y-39404288D01*
X155901680Y-39038716D01*
X155903684Y-39033151D01*
X155963070Y-38840112D01*
X156002218Y-38780884D01*
X156067173Y-38752223D01*
X156137311Y-38763229D01*
X156190365Y-38810408D01*
X156209500Y-38877161D01*
X156209500Y-104879759D01*
X156189498Y-104947880D01*
X156135842Y-104994373D01*
X156065568Y-105004477D01*
X156000988Y-104974983D01*
X155964293Y-104920573D01*
X155856434Y-104605544D01*
X155854260Y-104600053D01*
X155691429Y-104239422D01*
X155688739Y-104234141D01*
X155492690Y-103890432D01*
X155489523Y-103885442D01*
X155262000Y-103561709D01*
X155258365Y-103557023D01*
X155089476Y-103359278D01*
X155076562Y-103350848D01*
X155066355Y-103356855D01*
X154120800Y-104302410D01*
X154120799Y-104302412D01*
X152264020Y-106159190D01*
X152256408Y-106173131D01*
X152256539Y-106174966D01*
X152260790Y-106181580D01*
X154120787Y-108041576D01*
X154120800Y-108041590D01*
X155067271Y-108988061D01*
X155081215Y-108995675D01*
X155082524Y-108995582D01*
X155089360Y-108991112D01*
X155091454Y-108988737D01*
X155338841Y-108679947D01*
X155342331Y-108675144D01*
X155559564Y-108344440D01*
X155562589Y-108339323D01*
X155747733Y-107989647D01*
X155750255Y-107984288D01*
X155901680Y-107618716D01*
X155903684Y-107613151D01*
X155963070Y-107420112D01*
X156002218Y-107360884D01*
X156067173Y-107332223D01*
X156137311Y-107343229D01*
X156190365Y-107390408D01*
X156209500Y-107457161D01*
X156209500Y-110617500D01*
X156189498Y-110685621D01*
X156135842Y-110732114D01*
X156083500Y-110743500D01*
X77342500Y-110743500D01*
X77274379Y-110723498D01*
X77227886Y-110669842D01*
X77216500Y-110617500D01*
X77216500Y-109358434D01*
X78458921Y-109358434D01*
X78465708Y-109368135D01*
X78665023Y-109538365D01*
X78669709Y-109542000D01*
X78993442Y-109769523D01*
X78998432Y-109772690D01*
X79342141Y-109968739D01*
X79347422Y-109971429D01*
X79708053Y-110134260D01*
X79713544Y-110136434D01*
X80087906Y-110264607D01*
X80093590Y-110266259D01*
X80478347Y-110358631D01*
X80484162Y-110359740D01*
X80875889Y-110415490D01*
X80881802Y-110416049D01*
X81277031Y-110434688D01*
X81282969Y-110434688D01*
X81678198Y-110416049D01*
X81684111Y-110415490D01*
X82075838Y-110359740D01*
X82081653Y-110358631D01*
X82466410Y-110266259D01*
X82472094Y-110264607D01*
X82846456Y-110136434D01*
X82851947Y-110134260D01*
X83212578Y-109971429D01*
X83217859Y-109968739D01*
X83561568Y-109772690D01*
X83566558Y-109769523D01*
X83890291Y-109542000D01*
X83894977Y-109538365D01*
X84092722Y-109369476D01*
X84099930Y-109358434D01*
X149070921Y-109358434D01*
X149077708Y-109368135D01*
X149277023Y-109538365D01*
X149281709Y-109542000D01*
X149605442Y-109769523D01*
X149610432Y-109772690D01*
X149954141Y-109968739D01*
X149959422Y-109971429D01*
X150320053Y-110134260D01*
X150325544Y-110136434D01*
X150699906Y-110264607D01*
X150705590Y-110266259D01*
X151090347Y-110358631D01*
X151096162Y-110359740D01*
X151487889Y-110415490D01*
X151493802Y-110416049D01*
X151889031Y-110434688D01*
X151894969Y-110434688D01*
X152290198Y-110416049D01*
X152296111Y-110415490D01*
X152687838Y-110359740D01*
X152693653Y-110358631D01*
X153078410Y-110266259D01*
X153084094Y-110264607D01*
X153458456Y-110136434D01*
X153463947Y-110134260D01*
X153824578Y-109971429D01*
X153829859Y-109968739D01*
X154173568Y-109772690D01*
X154178558Y-109769523D01*
X154502291Y-109542000D01*
X154506977Y-109538365D01*
X154704722Y-109369476D01*
X154713152Y-109356562D01*
X154707145Y-109346355D01*
X153761592Y-108400802D01*
X153761588Y-108400799D01*
X151904810Y-106544020D01*
X151890869Y-106536408D01*
X151889034Y-106536539D01*
X151882420Y-106540790D01*
X150022424Y-108400787D01*
X150022396Y-108400814D01*
X149078313Y-109344897D01*
X149070921Y-109358434D01*
X84099930Y-109358434D01*
X84101152Y-109356562D01*
X84095145Y-109346355D01*
X83149592Y-108400802D01*
X83149588Y-108400799D01*
X81292810Y-106544020D01*
X81278869Y-106536408D01*
X81277034Y-106536539D01*
X81270420Y-106540790D01*
X79410424Y-108400787D01*
X79410396Y-108400814D01*
X78466313Y-109344897D01*
X78458921Y-109358434D01*
X77216500Y-109358434D01*
X77216500Y-108104486D01*
X77236502Y-108036365D01*
X77290158Y-107989872D01*
X77360432Y-107979768D01*
X77425012Y-108009262D01*
X77453854Y-108045527D01*
X77609411Y-108339323D01*
X77612436Y-108344440D01*
X77829669Y-108675144D01*
X77833159Y-108679947D01*
X78080292Y-108988420D01*
X78093130Y-108995694D01*
X78094439Y-108995621D01*
X78101852Y-108990938D01*
X79051200Y-108041590D01*
X79051201Y-108041588D01*
X80907980Y-106184810D01*
X80914357Y-106173131D01*
X81644408Y-106173131D01*
X81644539Y-106174966D01*
X81648790Y-106181580D01*
X83508787Y-108041576D01*
X83508800Y-108041590D01*
X84455271Y-108988061D01*
X84469215Y-108995675D01*
X84470524Y-108995582D01*
X84477360Y-108991112D01*
X84479454Y-108988737D01*
X84726841Y-108679947D01*
X84730331Y-108675144D01*
X84947564Y-108344440D01*
X84950589Y-108339323D01*
X85135733Y-107989647D01*
X85138255Y-107984288D01*
X85289680Y-107618716D01*
X85291684Y-107613151D01*
X85408030Y-107234960D01*
X85409506Y-107229212D01*
X85489743Y-106841766D01*
X85490673Y-106835895D01*
X85534145Y-106442124D01*
X85534494Y-106437196D01*
X85542750Y-106174468D01*
X85542711Y-106169530D01*
X85536653Y-106041073D01*
X147631322Y-106041073D01*
X147637537Y-106436679D01*
X147637911Y-106442629D01*
X147681327Y-106835895D01*
X147682257Y-106841766D01*
X147762494Y-107229212D01*
X147763970Y-107234960D01*
X147880316Y-107613151D01*
X147882320Y-107618716D01*
X148033745Y-107984288D01*
X148036267Y-107989647D01*
X148221411Y-108339323D01*
X148224436Y-108344440D01*
X148441669Y-108675144D01*
X148445159Y-108679947D01*
X148692292Y-108988420D01*
X148705130Y-108995694D01*
X148706439Y-108995621D01*
X148713852Y-108990938D01*
X149663200Y-108041590D01*
X149663201Y-108041588D01*
X151519980Y-106184810D01*
X151527592Y-106170869D01*
X151527461Y-106169034D01*
X151523210Y-106162420D01*
X149663213Y-104302424D01*
X149663200Y-104302410D01*
X148719402Y-103358612D01*
X148705458Y-103350998D01*
X148705205Y-103351016D01*
X148696463Y-103356930D01*
X148609436Y-103452572D01*
X148605649Y-103457150D01*
X148368088Y-103773551D01*
X148364744Y-103778471D01*
X148158001Y-104115845D01*
X148155153Y-104121025D01*
X147981072Y-104476370D01*
X147978723Y-104481797D01*
X147838858Y-104851939D01*
X147837026Y-104857578D01*
X147732622Y-105239215D01*
X147731323Y-105245028D01*
X147663295Y-105634811D01*
X147662554Y-105640674D01*
X147631507Y-106035147D01*
X147631322Y-106041073D01*
X85536653Y-106041073D01*
X85524049Y-105773802D01*
X85523490Y-105767889D01*
X85467740Y-105376162D01*
X85466631Y-105370347D01*
X85374259Y-104985590D01*
X85372607Y-104979906D01*
X85244434Y-104605544D01*
X85242260Y-104600053D01*
X85079429Y-104239422D01*
X85076739Y-104234141D01*
X84880690Y-103890432D01*
X84877523Y-103885442D01*
X84650000Y-103561709D01*
X84646365Y-103557023D01*
X84477476Y-103359278D01*
X84464562Y-103350848D01*
X84454355Y-103356855D01*
X83508800Y-104302410D01*
X83508799Y-104302412D01*
X81652020Y-106159190D01*
X81644408Y-106173131D01*
X80914357Y-106173131D01*
X80915592Y-106170869D01*
X80915461Y-106169034D01*
X80911210Y-106162420D01*
X79051213Y-104302424D01*
X79051200Y-104302410D01*
X78107402Y-103358612D01*
X78093458Y-103350998D01*
X78093205Y-103351016D01*
X78084463Y-103356930D01*
X77997436Y-103452572D01*
X77993649Y-103457150D01*
X77756088Y-103773551D01*
X77752744Y-103778471D01*
X77546001Y-104115845D01*
X77543153Y-104121025D01*
X77455652Y-104299637D01*
X77407720Y-104352012D01*
X77339082Y-104370159D01*
X77271529Y-104348316D01*
X77226509Y-104293419D01*
X77216500Y-104244205D01*
X77216500Y-102987964D01*
X78458939Y-102987964D01*
X78458945Y-102988217D01*
X78464445Y-102997235D01*
X79410408Y-103943198D01*
X79410412Y-103943201D01*
X81267190Y-105799980D01*
X81281131Y-105807592D01*
X81282966Y-105807461D01*
X81289580Y-105803210D01*
X81850697Y-105242093D01*
X83149576Y-103943213D01*
X83149604Y-103943186D01*
X84096061Y-102996729D01*
X84100847Y-102987964D01*
X149070939Y-102987964D01*
X149070945Y-102988217D01*
X149076445Y-102997235D01*
X150022408Y-103943198D01*
X150022412Y-103943201D01*
X151321303Y-105242093D01*
X151879190Y-105799980D01*
X151893131Y-105807592D01*
X151894966Y-105807461D01*
X151901580Y-105803210D01*
X153761576Y-103943213D01*
X153761604Y-103943186D01*
X154708061Y-102996729D01*
X154715675Y-102982785D01*
X154715582Y-102981476D01*
X154711112Y-102974640D01*
X154708737Y-102972546D01*
X154399947Y-102725159D01*
X154395144Y-102721669D01*
X154064440Y-102504436D01*
X154059323Y-102501411D01*
X153709647Y-102316267D01*
X153704288Y-102313745D01*
X153338716Y-102162320D01*
X153333151Y-102160316D01*
X152954960Y-102043970D01*
X152949212Y-102042494D01*
X152561766Y-101962257D01*
X152555895Y-101961327D01*
X152162629Y-101917911D01*
X152156679Y-101917537D01*
X151761073Y-101911322D01*
X151755147Y-101911507D01*
X151360674Y-101942554D01*
X151354811Y-101943295D01*
X150965028Y-102011323D01*
X150959215Y-102012622D01*
X150577578Y-102117026D01*
X150571939Y-102118858D01*
X150201797Y-102258723D01*
X150196370Y-102261072D01*
X149841025Y-102435153D01*
X149835845Y-102438001D01*
X149498471Y-102644744D01*
X149493551Y-102648088D01*
X149177150Y-102885649D01*
X149172572Y-102889436D01*
X149079199Y-102974398D01*
X149070939Y-102987964D01*
X84100847Y-102987964D01*
X84103675Y-102982785D01*
X84103582Y-102981476D01*
X84099112Y-102974640D01*
X84096737Y-102972546D01*
X83787947Y-102725159D01*
X83783144Y-102721669D01*
X83452440Y-102504436D01*
X83447323Y-102501411D01*
X83097647Y-102316267D01*
X83092288Y-102313745D01*
X82726716Y-102162320D01*
X82721151Y-102160316D01*
X82342960Y-102043970D01*
X82337212Y-102042494D01*
X81949766Y-101962257D01*
X81943895Y-101961327D01*
X81550629Y-101917911D01*
X81544679Y-101917537D01*
X81149073Y-101911322D01*
X81143147Y-101911507D01*
X80748674Y-101942554D01*
X80742811Y-101943295D01*
X80353028Y-102011323D01*
X80347215Y-102012622D01*
X79965578Y-102117026D01*
X79959939Y-102118858D01*
X79589797Y-102258723D01*
X79584370Y-102261072D01*
X79229025Y-102435153D01*
X79223845Y-102438001D01*
X78886471Y-102644744D01*
X78881551Y-102648088D01*
X78565150Y-102885649D01*
X78560572Y-102889436D01*
X78467199Y-102974398D01*
X78458939Y-102987964D01*
X77216500Y-102987964D01*
X77216500Y-98315538D01*
X87572300Y-98315538D01*
X87587095Y-98489902D01*
X87645867Y-98716340D01*
X87741950Y-98929637D01*
X87872598Y-99123696D01*
X88034076Y-99292968D01*
X88221765Y-99432613D01*
X88226516Y-99435029D01*
X88226520Y-99435031D01*
X88340997Y-99493234D01*
X88430300Y-99538638D01*
X88653717Y-99608010D01*
X88659004Y-99608711D01*
X88659005Y-99608711D01*
X88880345Y-99638048D01*
X88880349Y-99638048D01*
X88885629Y-99638748D01*
X88890958Y-99638548D01*
X88890960Y-99638548D01*
X89002517Y-99634360D01*
X89119404Y-99629972D01*
X89231613Y-99606428D01*
X89343132Y-99583029D01*
X89343135Y-99583028D01*
X89348359Y-99581932D01*
X89565946Y-99496003D01*
X89675660Y-99429427D01*
X89761383Y-99377409D01*
X89761386Y-99377407D01*
X89765944Y-99374641D01*
X89942634Y-99221317D01*
X89973208Y-99184029D01*
X90031867Y-99144036D01*
X90102838Y-99142105D01*
X90163586Y-99178850D01*
X90178533Y-99201190D01*
X90179250Y-99200746D01*
X90272322Y-99351148D01*
X90397497Y-99476105D01*
X90403727Y-99479945D01*
X90403728Y-99479946D01*
X90540890Y-99564494D01*
X90548062Y-99568915D01*
X90590615Y-99583029D01*
X90709411Y-99622432D01*
X90709413Y-99622432D01*
X90715939Y-99624597D01*
X90722775Y-99625297D01*
X90722778Y-99625298D01*
X90765831Y-99629709D01*
X90820400Y-99635300D01*
X92161200Y-99635300D01*
X92164446Y-99634963D01*
X92164450Y-99634963D01*
X92260108Y-99625038D01*
X92260112Y-99625037D01*
X92266966Y-99624326D01*
X92273502Y-99622145D01*
X92273504Y-99622145D01*
X92405606Y-99578072D01*
X92434746Y-99568350D01*
X92585148Y-99475278D01*
X92710105Y-99350103D01*
X92789490Y-99221317D01*
X92799075Y-99205768D01*
X92799076Y-99205766D01*
X92802915Y-99199538D01*
X92858597Y-99031661D01*
X92869300Y-98927200D01*
X92869300Y-97136400D01*
X92858326Y-97030634D01*
X92854465Y-97019059D01*
X92804668Y-96869802D01*
X92802350Y-96862854D01*
X92709278Y-96712452D01*
X92584103Y-96587495D01*
X92486579Y-96527380D01*
X92439768Y-96498525D01*
X92439766Y-96498524D01*
X92433538Y-96494685D01*
X92273054Y-96441455D01*
X92272189Y-96441168D01*
X92272187Y-96441168D01*
X92265661Y-96439003D01*
X92258825Y-96438303D01*
X92258822Y-96438302D01*
X92211249Y-96433428D01*
X92161200Y-96428300D01*
X90820400Y-96428300D01*
X90817154Y-96428637D01*
X90817150Y-96428637D01*
X90721492Y-96438562D01*
X90721488Y-96438563D01*
X90714634Y-96439274D01*
X90708098Y-96441455D01*
X90708096Y-96441455D01*
X90667830Y-96454889D01*
X90546854Y-96495250D01*
X90396452Y-96588322D01*
X90271495Y-96713497D01*
X90178685Y-96864062D01*
X90176538Y-96862738D01*
X90137488Y-96907090D01*
X90069211Y-96926552D01*
X90001251Y-96906012D01*
X89979039Y-96887528D01*
X89871210Y-96774494D01*
X89871198Y-96774484D01*
X89867524Y-96770632D01*
X89679835Y-96630987D01*
X89675084Y-96628571D01*
X89675080Y-96628569D01*
X89476056Y-96527380D01*
X89476055Y-96527380D01*
X89471300Y-96524962D01*
X89247883Y-96455590D01*
X89242596Y-96454889D01*
X89242595Y-96454889D01*
X89021255Y-96425552D01*
X89021251Y-96425552D01*
X89015971Y-96424852D01*
X89010642Y-96425052D01*
X89010640Y-96425052D01*
X88915146Y-96428637D01*
X88782196Y-96433628D01*
X88698211Y-96451250D01*
X88558468Y-96480571D01*
X88558465Y-96480572D01*
X88553241Y-96481668D01*
X88335654Y-96567597D01*
X88331090Y-96570366D01*
X88331091Y-96570366D01*
X88140217Y-96686191D01*
X88140214Y-96686193D01*
X88135656Y-96688959D01*
X87958966Y-96842283D01*
X87810635Y-97023186D01*
X87694904Y-97226495D01*
X87615084Y-97446396D01*
X87573456Y-97676603D01*
X87572300Y-97701116D01*
X87572300Y-98315538D01*
X77216500Y-98315538D01*
X77216500Y-91432138D01*
X87623100Y-91432138D01*
X87637895Y-91606502D01*
X87696667Y-91832940D01*
X87792750Y-92046237D01*
X87923398Y-92240296D01*
X88084876Y-92409568D01*
X88272565Y-92549213D01*
X88277316Y-92551629D01*
X88277320Y-92551631D01*
X88391797Y-92609834D01*
X88481100Y-92655238D01*
X88704517Y-92724610D01*
X88709804Y-92725311D01*
X88709805Y-92725311D01*
X88931145Y-92754648D01*
X88931149Y-92754648D01*
X88936429Y-92755348D01*
X88941758Y-92755148D01*
X88941760Y-92755148D01*
X89053316Y-92750960D01*
X89170204Y-92746572D01*
X89282413Y-92723028D01*
X89393932Y-92699629D01*
X89393935Y-92699628D01*
X89399159Y-92698532D01*
X89616746Y-92612603D01*
X89726460Y-92546027D01*
X89812183Y-92494009D01*
X89812186Y-92494007D01*
X89816744Y-92491241D01*
X89993434Y-92337917D01*
X90024008Y-92300629D01*
X90082667Y-92260636D01*
X90153638Y-92258705D01*
X90214386Y-92295450D01*
X90229333Y-92317790D01*
X90230050Y-92317346D01*
X90323122Y-92467748D01*
X90448297Y-92592705D01*
X90454527Y-92596545D01*
X90454528Y-92596546D01*
X90591690Y-92681094D01*
X90598862Y-92685515D01*
X90641415Y-92699629D01*
X90760211Y-92739032D01*
X90760213Y-92739032D01*
X90766739Y-92741197D01*
X90773575Y-92741897D01*
X90773578Y-92741898D01*
X90816631Y-92746309D01*
X90871200Y-92751900D01*
X92212000Y-92751900D01*
X92215246Y-92751563D01*
X92215250Y-92751563D01*
X92310908Y-92741638D01*
X92310912Y-92741637D01*
X92317766Y-92740926D01*
X92324302Y-92738745D01*
X92324304Y-92738745D01*
X92456406Y-92694672D01*
X92485546Y-92684950D01*
X92635948Y-92591878D01*
X92760905Y-92466703D01*
X92840290Y-92337917D01*
X92849875Y-92322368D01*
X92849876Y-92322366D01*
X92853715Y-92316138D01*
X92909397Y-92148261D01*
X92920100Y-92043800D01*
X92920100Y-90253000D01*
X92909126Y-90147234D01*
X92905265Y-90135659D01*
X92855468Y-89986402D01*
X92853150Y-89979454D01*
X92760078Y-89829052D01*
X92634903Y-89704095D01*
X92537379Y-89643980D01*
X92490568Y-89615125D01*
X92490566Y-89615124D01*
X92484338Y-89611285D01*
X92323854Y-89558055D01*
X92322989Y-89557768D01*
X92322987Y-89557768D01*
X92316461Y-89555603D01*
X92309625Y-89554903D01*
X92309622Y-89554902D01*
X92262049Y-89550028D01*
X92212000Y-89544900D01*
X90871200Y-89544900D01*
X90867954Y-89545237D01*
X90867950Y-89545237D01*
X90772292Y-89555162D01*
X90772288Y-89555163D01*
X90765434Y-89555874D01*
X90758898Y-89558055D01*
X90758896Y-89558055D01*
X90718630Y-89571489D01*
X90597654Y-89611850D01*
X90447252Y-89704922D01*
X90322295Y-89830097D01*
X90229485Y-89980662D01*
X90227338Y-89979338D01*
X90188288Y-90023690D01*
X90120011Y-90043152D01*
X90052051Y-90022612D01*
X90029839Y-90004128D01*
X89922010Y-89891094D01*
X89921998Y-89891084D01*
X89918324Y-89887232D01*
X89730635Y-89747587D01*
X89725884Y-89745171D01*
X89725880Y-89745169D01*
X89526856Y-89643980D01*
X89526855Y-89643980D01*
X89522100Y-89641562D01*
X89298683Y-89572190D01*
X89293396Y-89571489D01*
X89293395Y-89571489D01*
X89072055Y-89542152D01*
X89072051Y-89542152D01*
X89066771Y-89541452D01*
X89061442Y-89541652D01*
X89061440Y-89541652D01*
X88965946Y-89545237D01*
X88832996Y-89550228D01*
X88749011Y-89567850D01*
X88609268Y-89597171D01*
X88609265Y-89597172D01*
X88604041Y-89598268D01*
X88386454Y-89684197D01*
X88381890Y-89686966D01*
X88381891Y-89686966D01*
X88191017Y-89802791D01*
X88191014Y-89802793D01*
X88186456Y-89805559D01*
X88009766Y-89958883D01*
X87861435Y-90139786D01*
X87745704Y-90343095D01*
X87665884Y-90562996D01*
X87624256Y-90793203D01*
X87623100Y-90817716D01*
X87623100Y-91432138D01*
X77216500Y-91432138D01*
X77216500Y-87339900D01*
X121571300Y-87339900D01*
X121571637Y-87343146D01*
X121571637Y-87343150D01*
X121578361Y-87407950D01*
X121582274Y-87445666D01*
X121584455Y-87452202D01*
X121584455Y-87452204D01*
X121611067Y-87531969D01*
X121638250Y-87613446D01*
X121731322Y-87763848D01*
X121856497Y-87888805D01*
X121862727Y-87892645D01*
X121862728Y-87892646D01*
X121999890Y-87977194D01*
X122007062Y-87981615D01*
X122049615Y-87995729D01*
X122168411Y-88035132D01*
X122168413Y-88035132D01*
X122174939Y-88037297D01*
X122181775Y-88037997D01*
X122181778Y-88037998D01*
X122224831Y-88042409D01*
X122279400Y-88048000D01*
X123620200Y-88048000D01*
X123623446Y-88047663D01*
X123623450Y-88047663D01*
X123719108Y-88037738D01*
X123719112Y-88037737D01*
X123725966Y-88037026D01*
X123732502Y-88034845D01*
X123732504Y-88034845D01*
X123864606Y-87990772D01*
X123893746Y-87981050D01*
X124044148Y-87887978D01*
X124169105Y-87762803D01*
X124246549Y-87637167D01*
X124261915Y-87612238D01*
X124263932Y-87613482D01*
X124303337Y-87568725D01*
X124371613Y-87549261D01*
X124439574Y-87569800D01*
X124461789Y-87588285D01*
X124569724Y-87701430D01*
X124577692Y-87708479D01*
X124756752Y-87841703D01*
X124765782Y-87847302D01*
X124964731Y-87948453D01*
X124974592Y-87952456D01*
X125187729Y-88018638D01*
X125198109Y-88020920D01*
X125217843Y-88023536D01*
X125232007Y-88021340D01*
X125235800Y-88008155D01*
X125235800Y-88006127D01*
X125743800Y-88006127D01*
X125747773Y-88019658D01*
X125758380Y-88021183D01*
X125881988Y-87995248D01*
X125892184Y-87992188D01*
X126099752Y-87910216D01*
X126109289Y-87905482D01*
X126300085Y-87789704D01*
X126308678Y-87783438D01*
X126477241Y-87637167D01*
X126484661Y-87629536D01*
X126626168Y-87456958D01*
X126632193Y-87448191D01*
X126650789Y-87415522D01*
X126701871Y-87366215D01*
X126771502Y-87352354D01*
X126837573Y-87378337D01*
X126864811Y-87407487D01*
X126951598Y-87536396D01*
X126955277Y-87540253D01*
X126955279Y-87540255D01*
X126982438Y-87568725D01*
X127113076Y-87705668D01*
X127300765Y-87845313D01*
X127305516Y-87847729D01*
X127305520Y-87847731D01*
X127504544Y-87948920D01*
X127509300Y-87951338D01*
X127732717Y-88020710D01*
X127738004Y-88021411D01*
X127738005Y-88021411D01*
X127959345Y-88050748D01*
X127959349Y-88050748D01*
X127964629Y-88051448D01*
X127969958Y-88051248D01*
X127969960Y-88051248D01*
X128081516Y-88047060D01*
X128198404Y-88042672D01*
X128300819Y-88021183D01*
X128422132Y-87995729D01*
X128422135Y-87995728D01*
X128427359Y-87994632D01*
X128644946Y-87908703D01*
X128754660Y-87842127D01*
X128840383Y-87790109D01*
X128840386Y-87790107D01*
X128844944Y-87787341D01*
X129021634Y-87634017D01*
X129169965Y-87453114D01*
X129172601Y-87448484D01*
X129172604Y-87448479D01*
X129191101Y-87415984D01*
X129242184Y-87366678D01*
X129311815Y-87352817D01*
X129377885Y-87378801D01*
X129405123Y-87407950D01*
X129491598Y-87536396D01*
X129495277Y-87540253D01*
X129495279Y-87540255D01*
X129522438Y-87568725D01*
X129653076Y-87705668D01*
X129840765Y-87845313D01*
X129845516Y-87847729D01*
X129845520Y-87847731D01*
X130044544Y-87948920D01*
X130049300Y-87951338D01*
X130272717Y-88020710D01*
X130278004Y-88021411D01*
X130278005Y-88021411D01*
X130499345Y-88050748D01*
X130499349Y-88050748D01*
X130504629Y-88051448D01*
X130509958Y-88051248D01*
X130509960Y-88051248D01*
X130621516Y-88047060D01*
X130738404Y-88042672D01*
X130840819Y-88021183D01*
X130962132Y-87995729D01*
X130962135Y-87995728D01*
X130967359Y-87994632D01*
X131184946Y-87908703D01*
X131294660Y-87842127D01*
X131380383Y-87790109D01*
X131380386Y-87790107D01*
X131384944Y-87787341D01*
X131561634Y-87634017D01*
X131709965Y-87453114D01*
X131825696Y-87249805D01*
X131905516Y-87029904D01*
X131947144Y-86799697D01*
X131948300Y-86775184D01*
X131948300Y-86160762D01*
X131933505Y-85986398D01*
X131883042Y-85791972D01*
X131876075Y-85765129D01*
X131876074Y-85765125D01*
X131874733Y-85759960D01*
X131864377Y-85736969D01*
X131799087Y-85592031D01*
X131778650Y-85546663D01*
X131771595Y-85536183D01*
X131734477Y-85481050D01*
X131648002Y-85352604D01*
X131632020Y-85335850D01*
X131569709Y-85270532D01*
X131486524Y-85183332D01*
X131298835Y-85043687D01*
X131294084Y-85041271D01*
X131294080Y-85041269D01*
X131095056Y-84940080D01*
X131095055Y-84940080D01*
X131090300Y-84937662D01*
X130866883Y-84868290D01*
X130861596Y-84867589D01*
X130861595Y-84867589D01*
X130640255Y-84838252D01*
X130640251Y-84838252D01*
X130634971Y-84837552D01*
X130629642Y-84837752D01*
X130629640Y-84837752D01*
X130534146Y-84841337D01*
X130401196Y-84846328D01*
X130317211Y-84863950D01*
X130177468Y-84893271D01*
X130177465Y-84893272D01*
X130172241Y-84894368D01*
X129954654Y-84980297D01*
X129950090Y-84983066D01*
X129950091Y-84983066D01*
X129759217Y-85098891D01*
X129759214Y-85098893D01*
X129754656Y-85101659D01*
X129577966Y-85254983D01*
X129429635Y-85435886D01*
X129426999Y-85440516D01*
X129426996Y-85440521D01*
X129408499Y-85473016D01*
X129357416Y-85522322D01*
X129287785Y-85536183D01*
X129221715Y-85510199D01*
X129194477Y-85481050D01*
X129122535Y-85374191D01*
X129108002Y-85352604D01*
X129092020Y-85335850D01*
X129029709Y-85270532D01*
X128946524Y-85183332D01*
X128758835Y-85043687D01*
X128754084Y-85041271D01*
X128754080Y-85041269D01*
X128555056Y-84940080D01*
X128555055Y-84940080D01*
X128550300Y-84937662D01*
X128326883Y-84868290D01*
X128321596Y-84867589D01*
X128321595Y-84867589D01*
X128100255Y-84838252D01*
X128100251Y-84838252D01*
X128094971Y-84837552D01*
X128089642Y-84837752D01*
X128089640Y-84837752D01*
X127994146Y-84841337D01*
X127861196Y-84846328D01*
X127777211Y-84863950D01*
X127637468Y-84893271D01*
X127637465Y-84893272D01*
X127632241Y-84894368D01*
X127414654Y-84980297D01*
X127410090Y-84983066D01*
X127410091Y-84983066D01*
X127219217Y-85098891D01*
X127219214Y-85098893D01*
X127214656Y-85101659D01*
X127037966Y-85254983D01*
X126889635Y-85435886D01*
X126886997Y-85440521D01*
X126886994Y-85440525D01*
X126868223Y-85473501D01*
X126817141Y-85522807D01*
X126747511Y-85536669D01*
X126681440Y-85510686D01*
X126654201Y-85481536D01*
X126570590Y-85357345D01*
X126563929Y-85349059D01*
X126409876Y-85187570D01*
X126401908Y-85180521D01*
X126222848Y-85047297D01*
X126213818Y-85041698D01*
X126014869Y-84940547D01*
X126005008Y-84936544D01*
X125791871Y-84870362D01*
X125781491Y-84868080D01*
X125761757Y-84865464D01*
X125747593Y-84867660D01*
X125743800Y-84880845D01*
X125743800Y-88006127D01*
X125235800Y-88006127D01*
X125235800Y-84882873D01*
X125231827Y-84869342D01*
X125221220Y-84867817D01*
X125097612Y-84893752D01*
X125087416Y-84896812D01*
X124879848Y-84978784D01*
X124870311Y-84983518D01*
X124679515Y-85099296D01*
X124670922Y-85105562D01*
X124502359Y-85251833D01*
X124494938Y-85259465D01*
X124467627Y-85292772D01*
X124408967Y-85332766D01*
X124337997Y-85334697D01*
X124277249Y-85297952D01*
X124261996Y-85275154D01*
X124261350Y-85275554D01*
X124172132Y-85131380D01*
X124168278Y-85125152D01*
X124043103Y-85000195D01*
X124007640Y-84978335D01*
X123898768Y-84911225D01*
X123898766Y-84911224D01*
X123892538Y-84907385D01*
X123789895Y-84873340D01*
X123731189Y-84853868D01*
X123731187Y-84853868D01*
X123724661Y-84851703D01*
X123717825Y-84851003D01*
X123717822Y-84851002D01*
X123670249Y-84846128D01*
X123620200Y-84841000D01*
X122279400Y-84841000D01*
X122276154Y-84841337D01*
X122276150Y-84841337D01*
X122180492Y-84851262D01*
X122180488Y-84851263D01*
X122173634Y-84851974D01*
X122167098Y-84854155D01*
X122167096Y-84854155D01*
X122049852Y-84893271D01*
X122005854Y-84907950D01*
X121855452Y-85001022D01*
X121730495Y-85126197D01*
X121726655Y-85132427D01*
X121726654Y-85132428D01*
X121653052Y-85251833D01*
X121637685Y-85276762D01*
X121582003Y-85444639D01*
X121581303Y-85451475D01*
X121581302Y-85451478D01*
X121576891Y-85494531D01*
X121571300Y-85549100D01*
X121571300Y-87339900D01*
X77216500Y-87339900D01*
X77216500Y-84472538D01*
X87623100Y-84472538D01*
X87637895Y-84646902D01*
X87639233Y-84652059D01*
X87639234Y-84652062D01*
X87695302Y-84868080D01*
X87696667Y-84873340D01*
X87698859Y-84878206D01*
X87698860Y-84878209D01*
X87724929Y-84936080D01*
X87792750Y-85086637D01*
X87795734Y-85091070D01*
X87795735Y-85091071D01*
X87802863Y-85101659D01*
X87923398Y-85280696D01*
X87927077Y-85284553D01*
X87927079Y-85284555D01*
X87976012Y-85335850D01*
X88084876Y-85449968D01*
X88089154Y-85453151D01*
X88116505Y-85473501D01*
X88272565Y-85589613D01*
X88277316Y-85592029D01*
X88277320Y-85592031D01*
X88370085Y-85639195D01*
X88481100Y-85695638D01*
X88704517Y-85765010D01*
X88709804Y-85765711D01*
X88709805Y-85765711D01*
X88931145Y-85795048D01*
X88931149Y-85795048D01*
X88936429Y-85795748D01*
X88941758Y-85795548D01*
X88941760Y-85795548D01*
X89053317Y-85791360D01*
X89170204Y-85786972D01*
X89282413Y-85763428D01*
X89393932Y-85740029D01*
X89393935Y-85740028D01*
X89399159Y-85738932D01*
X89616746Y-85653003D01*
X89782671Y-85552317D01*
X89812183Y-85534409D01*
X89812186Y-85534407D01*
X89816744Y-85531641D01*
X89993434Y-85378317D01*
X90024008Y-85341029D01*
X90082667Y-85301036D01*
X90153638Y-85299105D01*
X90214386Y-85335850D01*
X90229333Y-85358190D01*
X90230050Y-85357746D01*
X90323122Y-85508148D01*
X90448297Y-85633105D01*
X90454527Y-85636945D01*
X90454528Y-85636946D01*
X90591690Y-85721494D01*
X90598862Y-85725915D01*
X90641415Y-85740029D01*
X90760211Y-85779432D01*
X90760213Y-85779432D01*
X90766739Y-85781597D01*
X90773575Y-85782297D01*
X90773578Y-85782298D01*
X90816631Y-85786709D01*
X90871200Y-85792300D01*
X92212000Y-85792300D01*
X92215246Y-85791963D01*
X92215250Y-85791963D01*
X92310908Y-85782038D01*
X92310912Y-85782037D01*
X92317766Y-85781326D01*
X92324302Y-85779145D01*
X92324304Y-85779145D01*
X92456406Y-85735072D01*
X92485546Y-85725350D01*
X92635948Y-85632278D01*
X92760905Y-85507103D01*
X92776665Y-85481536D01*
X92849875Y-85362768D01*
X92849876Y-85362766D01*
X92853715Y-85356538D01*
X92882242Y-85270532D01*
X92907232Y-85195189D01*
X92907232Y-85195187D01*
X92909397Y-85188661D01*
X92920100Y-85084200D01*
X92920100Y-83293400D01*
X92909126Y-83187634D01*
X92905265Y-83176059D01*
X92855468Y-83026802D01*
X92853150Y-83019854D01*
X92760078Y-82869452D01*
X92634903Y-82744495D01*
X92537379Y-82684380D01*
X92490568Y-82655525D01*
X92490566Y-82655524D01*
X92484338Y-82651685D01*
X92323854Y-82598455D01*
X92322989Y-82598168D01*
X92322987Y-82598168D01*
X92316461Y-82596003D01*
X92309625Y-82595303D01*
X92309622Y-82595302D01*
X92262049Y-82590428D01*
X92212000Y-82585300D01*
X90871200Y-82585300D01*
X90867954Y-82585637D01*
X90867950Y-82585637D01*
X90772292Y-82595562D01*
X90772288Y-82595563D01*
X90765434Y-82596274D01*
X90758898Y-82598455D01*
X90758896Y-82598455D01*
X90718630Y-82611889D01*
X90597654Y-82652250D01*
X90447252Y-82745322D01*
X90322295Y-82870497D01*
X90229485Y-83021062D01*
X90227338Y-83019738D01*
X90188288Y-83064090D01*
X90120011Y-83083552D01*
X90052051Y-83063012D01*
X90029839Y-83044528D01*
X89922010Y-82931494D01*
X89921998Y-82931484D01*
X89918324Y-82927632D01*
X89730635Y-82787987D01*
X89725884Y-82785571D01*
X89725880Y-82785569D01*
X89526856Y-82684380D01*
X89526855Y-82684380D01*
X89522100Y-82681962D01*
X89298683Y-82612590D01*
X89293396Y-82611889D01*
X89293395Y-82611889D01*
X89072055Y-82582552D01*
X89072051Y-82582552D01*
X89066771Y-82581852D01*
X89061442Y-82582052D01*
X89061440Y-82582052D01*
X88965946Y-82585637D01*
X88832996Y-82590628D01*
X88749011Y-82608250D01*
X88609268Y-82637571D01*
X88609265Y-82637572D01*
X88604041Y-82638668D01*
X88386454Y-82724597D01*
X88381890Y-82727366D01*
X88381891Y-82727366D01*
X88191017Y-82843191D01*
X88191014Y-82843193D01*
X88186456Y-82845959D01*
X88009766Y-82999283D01*
X87861435Y-83180186D01*
X87745704Y-83383495D01*
X87665884Y-83603396D01*
X87624256Y-83833603D01*
X87623100Y-83858116D01*
X87623100Y-84472538D01*
X77216500Y-84472538D01*
X77216500Y-77487538D01*
X87572300Y-77487538D01*
X87587095Y-77661902D01*
X87588433Y-77667059D01*
X87588434Y-77667062D01*
X87598477Y-77705754D01*
X87645867Y-77888340D01*
X87648059Y-77893206D01*
X87648060Y-77893209D01*
X87688297Y-77982531D01*
X87741950Y-78101637D01*
X87872598Y-78295696D01*
X87876277Y-78299553D01*
X87876279Y-78299555D01*
X87917468Y-78342732D01*
X88034076Y-78464968D01*
X88221765Y-78604613D01*
X88226516Y-78607029D01*
X88226520Y-78607031D01*
X88340997Y-78665234D01*
X88430300Y-78710638D01*
X88653717Y-78780010D01*
X88659004Y-78780711D01*
X88659005Y-78780711D01*
X88880345Y-78810048D01*
X88880349Y-78810048D01*
X88885629Y-78810748D01*
X88890958Y-78810548D01*
X88890960Y-78810548D01*
X89002517Y-78806360D01*
X89119404Y-78801972D01*
X89231613Y-78778428D01*
X89343132Y-78755029D01*
X89343135Y-78755028D01*
X89348359Y-78753932D01*
X89565946Y-78668003D01*
X89663168Y-78609007D01*
X89761383Y-78549409D01*
X89761386Y-78549407D01*
X89765944Y-78546641D01*
X89942634Y-78393317D01*
X89973208Y-78356029D01*
X90031867Y-78316036D01*
X90102838Y-78314105D01*
X90163586Y-78350850D01*
X90178533Y-78373190D01*
X90179250Y-78372746D01*
X90272322Y-78523148D01*
X90397497Y-78648105D01*
X90403727Y-78651945D01*
X90403728Y-78651946D01*
X90540890Y-78736494D01*
X90548062Y-78740915D01*
X90590615Y-78755029D01*
X90709411Y-78794432D01*
X90709413Y-78794432D01*
X90715939Y-78796597D01*
X90722775Y-78797297D01*
X90722778Y-78797298D01*
X90765831Y-78801709D01*
X90820400Y-78807300D01*
X92161200Y-78807300D01*
X92164446Y-78806963D01*
X92164450Y-78806963D01*
X92260108Y-78797038D01*
X92260112Y-78797037D01*
X92266966Y-78796326D01*
X92273502Y-78794145D01*
X92273504Y-78794145D01*
X92405606Y-78750072D01*
X92434746Y-78740350D01*
X92585148Y-78647278D01*
X92609515Y-78622869D01*
X92704934Y-78527283D01*
X92710105Y-78522103D01*
X92750612Y-78456389D01*
X92799075Y-78377768D01*
X92799076Y-78377766D01*
X92802915Y-78371538D01*
X92837681Y-78266721D01*
X92856432Y-78210189D01*
X92856432Y-78210187D01*
X92858597Y-78203661D01*
X92859819Y-78191740D01*
X92866226Y-78129202D01*
X92869300Y-78099200D01*
X92869300Y-77731054D01*
X98063000Y-77731054D01*
X98063225Y-77736363D01*
X98077339Y-77902707D01*
X98079129Y-77913179D01*
X98135198Y-78129202D01*
X98138734Y-78139242D01*
X98230399Y-78342732D01*
X98235568Y-78352018D01*
X98360210Y-78537155D01*
X98366871Y-78545441D01*
X98520924Y-78706930D01*
X98528892Y-78713979D01*
X98707952Y-78847203D01*
X98716982Y-78852802D01*
X98915931Y-78953953D01*
X98925792Y-78957956D01*
X99138929Y-79024138D01*
X99149309Y-79026420D01*
X99169043Y-79029036D01*
X99183207Y-79026840D01*
X99187000Y-79013655D01*
X99187000Y-79011627D01*
X99695000Y-79011627D01*
X99698973Y-79025158D01*
X99709580Y-79026683D01*
X99833188Y-79000748D01*
X99843384Y-78997688D01*
X100050952Y-78915716D01*
X100060489Y-78910982D01*
X100251285Y-78795204D01*
X100259878Y-78788938D01*
X100428441Y-78642667D01*
X100435862Y-78635035D01*
X100463173Y-78601728D01*
X100521833Y-78561734D01*
X100592803Y-78559803D01*
X100653551Y-78596548D01*
X100668804Y-78619346D01*
X100669450Y-78618946D01*
X100762522Y-78769348D01*
X100887697Y-78894305D01*
X100893927Y-78898145D01*
X100893928Y-78898146D01*
X101031090Y-78982694D01*
X101038262Y-78987115D01*
X101112164Y-79011627D01*
X101199611Y-79040632D01*
X101199613Y-79040632D01*
X101206139Y-79042797D01*
X101212975Y-79043497D01*
X101212978Y-79043498D01*
X101256031Y-79047909D01*
X101310600Y-79053500D01*
X102651400Y-79053500D01*
X102654646Y-79053163D01*
X102654650Y-79053163D01*
X102750308Y-79043238D01*
X102750312Y-79043237D01*
X102757166Y-79042526D01*
X102763702Y-79040345D01*
X102763704Y-79040345D01*
X102895806Y-78996272D01*
X102924946Y-78986550D01*
X103075348Y-78893478D01*
X103200305Y-78768303D01*
X103208487Y-78755029D01*
X103289275Y-78623968D01*
X103289276Y-78623966D01*
X103293115Y-78617738D01*
X103323117Y-78527283D01*
X103346632Y-78456389D01*
X103346632Y-78456387D01*
X103348797Y-78449861D01*
X103350324Y-78434964D01*
X103356060Y-78378972D01*
X103359500Y-78345400D01*
X103359500Y-77082054D01*
X112874700Y-77082054D01*
X112878655Y-77117874D01*
X112887096Y-77194329D01*
X112892190Y-77240473D01*
X112946963Y-77390148D01*
X113035858Y-77522437D01*
X113153742Y-77629704D01*
X113160420Y-77633330D01*
X113160423Y-77633332D01*
X113278620Y-77697507D01*
X113307594Y-77719143D01*
X115515385Y-79926934D01*
X115526252Y-79939325D01*
X115545713Y-79964687D01*
X115577625Y-79989174D01*
X115577628Y-79989177D01*
X115672824Y-80062224D01*
X115734138Y-80087621D01*
X115813220Y-80120378D01*
X115813223Y-80120379D01*
X115820850Y-80123538D01*
X115939815Y-80139200D01*
X115939820Y-80139200D01*
X115939829Y-80139201D01*
X115971512Y-80143372D01*
X115979700Y-80144450D01*
X116011393Y-80140278D01*
X116027836Y-80139200D01*
X121456900Y-80139200D01*
X121525021Y-80159202D01*
X121571514Y-80212858D01*
X121582900Y-80265200D01*
X121582900Y-80426100D01*
X121583237Y-80429346D01*
X121583237Y-80429350D01*
X121589961Y-80494150D01*
X121593874Y-80531866D01*
X121596055Y-80538402D01*
X121596055Y-80538404D01*
X121622667Y-80618169D01*
X121649850Y-80699646D01*
X121742922Y-80850048D01*
X121868097Y-80975005D01*
X121874327Y-80978845D01*
X121874328Y-80978846D01*
X122011490Y-81063394D01*
X122018662Y-81067815D01*
X122061215Y-81081929D01*
X122180011Y-81121332D01*
X122180013Y-81121332D01*
X122186539Y-81123497D01*
X122193375Y-81124197D01*
X122193378Y-81124198D01*
X122236431Y-81128609D01*
X122291000Y-81134200D01*
X123631800Y-81134200D01*
X123635046Y-81133863D01*
X123635050Y-81133863D01*
X123730708Y-81123938D01*
X123730712Y-81123937D01*
X123737566Y-81123226D01*
X123744102Y-81121045D01*
X123744104Y-81121045D01*
X123876206Y-81076972D01*
X123905346Y-81067250D01*
X124055748Y-80974178D01*
X124180705Y-80849003D01*
X124258149Y-80723367D01*
X124273515Y-80698438D01*
X124275532Y-80699682D01*
X124314937Y-80654925D01*
X124383213Y-80635461D01*
X124451174Y-80656000D01*
X124473389Y-80674485D01*
X124581324Y-80787630D01*
X124589292Y-80794679D01*
X124768352Y-80927903D01*
X124777382Y-80933502D01*
X124976331Y-81034653D01*
X124986192Y-81038656D01*
X125199329Y-81104838D01*
X125209709Y-81107120D01*
X125229443Y-81109736D01*
X125243607Y-81107540D01*
X125247400Y-81094355D01*
X125247400Y-81092327D01*
X125755400Y-81092327D01*
X125759373Y-81105858D01*
X125769980Y-81107383D01*
X125893588Y-81081448D01*
X125903784Y-81078388D01*
X126111352Y-80996416D01*
X126120889Y-80991682D01*
X126311685Y-80875904D01*
X126320278Y-80869638D01*
X126488841Y-80723367D01*
X126496261Y-80715736D01*
X126637768Y-80543158D01*
X126643793Y-80534391D01*
X126662389Y-80501722D01*
X126713471Y-80452415D01*
X126783102Y-80438554D01*
X126849173Y-80464537D01*
X126876411Y-80493687D01*
X126963198Y-80622596D01*
X126966877Y-80626453D01*
X126966879Y-80626455D01*
X126994038Y-80654925D01*
X127124676Y-80791868D01*
X127312365Y-80931513D01*
X127317116Y-80933929D01*
X127317120Y-80933931D01*
X127516144Y-81035120D01*
X127520900Y-81037538D01*
X127744317Y-81106910D01*
X127749604Y-81107611D01*
X127749605Y-81107611D01*
X127970945Y-81136948D01*
X127970949Y-81136948D01*
X127976229Y-81137648D01*
X127981558Y-81137448D01*
X127981560Y-81137448D01*
X128093116Y-81133260D01*
X128210004Y-81128872D01*
X128312419Y-81107383D01*
X128433732Y-81081929D01*
X128433735Y-81081928D01*
X128438959Y-81080832D01*
X128656546Y-80994903D01*
X128766260Y-80928327D01*
X128851983Y-80876309D01*
X128851986Y-80876307D01*
X128856544Y-80873541D01*
X129033234Y-80720217D01*
X129181565Y-80539314D01*
X129184201Y-80534684D01*
X129184204Y-80534679D01*
X129202701Y-80502184D01*
X129253784Y-80452878D01*
X129323415Y-80439017D01*
X129389485Y-80465001D01*
X129416723Y-80494150D01*
X129503198Y-80622596D01*
X129506877Y-80626453D01*
X129506879Y-80626455D01*
X129534038Y-80654925D01*
X129664676Y-80791868D01*
X129852365Y-80931513D01*
X129857116Y-80933929D01*
X129857120Y-80933931D01*
X130056144Y-81035120D01*
X130060900Y-81037538D01*
X130284317Y-81106910D01*
X130289604Y-81107611D01*
X130289605Y-81107611D01*
X130510945Y-81136948D01*
X130510949Y-81136948D01*
X130516229Y-81137648D01*
X130521558Y-81137448D01*
X130521560Y-81137448D01*
X130633116Y-81133260D01*
X130750004Y-81128872D01*
X130852419Y-81107383D01*
X130973732Y-81081929D01*
X130973735Y-81081928D01*
X130978959Y-81080832D01*
X131196546Y-80994903D01*
X131306260Y-80928327D01*
X131391983Y-80876309D01*
X131391986Y-80876307D01*
X131396544Y-80873541D01*
X131573234Y-80720217D01*
X131721565Y-80539314D01*
X131837296Y-80336005D01*
X131917116Y-80116104D01*
X131958744Y-79885897D01*
X131959900Y-79861384D01*
X131959900Y-79246962D01*
X131945105Y-79072598D01*
X131937300Y-79042526D01*
X131887675Y-78851329D01*
X131887674Y-78851325D01*
X131886333Y-78846160D01*
X131864323Y-78797298D01*
X131798846Y-78651946D01*
X131790250Y-78632863D01*
X131783195Y-78622383D01*
X131741063Y-78559803D01*
X131659602Y-78438804D01*
X131640678Y-78418966D01*
X131571374Y-78346318D01*
X131498124Y-78269532D01*
X131310435Y-78129887D01*
X131305684Y-78127471D01*
X131305680Y-78127469D01*
X131106656Y-78026280D01*
X131106655Y-78026280D01*
X131101900Y-78023862D01*
X130878483Y-77954490D01*
X130873196Y-77953789D01*
X130873195Y-77953789D01*
X130651855Y-77924452D01*
X130651851Y-77924452D01*
X130646571Y-77923752D01*
X130641242Y-77923952D01*
X130641240Y-77923952D01*
X130537968Y-77927829D01*
X130412796Y-77932528D01*
X130376861Y-77940068D01*
X130189068Y-77979471D01*
X130189065Y-77979472D01*
X130183841Y-77980568D01*
X129966254Y-78066497D01*
X129961690Y-78069266D01*
X129961691Y-78069266D01*
X129770817Y-78185091D01*
X129770814Y-78185093D01*
X129766256Y-78187859D01*
X129589566Y-78341183D01*
X129441235Y-78522086D01*
X129438599Y-78526716D01*
X129438596Y-78526721D01*
X129420099Y-78559216D01*
X129369016Y-78608522D01*
X129299385Y-78622383D01*
X129233315Y-78596399D01*
X129206077Y-78567250D01*
X129151606Y-78486341D01*
X129119602Y-78438804D01*
X129100678Y-78418966D01*
X129031374Y-78346318D01*
X128958124Y-78269532D01*
X128770435Y-78129887D01*
X128765684Y-78127471D01*
X128765680Y-78127469D01*
X128566656Y-78026280D01*
X128566655Y-78026280D01*
X128561900Y-78023862D01*
X128338483Y-77954490D01*
X128333196Y-77953789D01*
X128333195Y-77953789D01*
X128111855Y-77924452D01*
X128111851Y-77924452D01*
X128106571Y-77923752D01*
X128101242Y-77923952D01*
X128101240Y-77923952D01*
X127997968Y-77927829D01*
X127872796Y-77932528D01*
X127836861Y-77940068D01*
X127649068Y-77979471D01*
X127649065Y-77979472D01*
X127643841Y-77980568D01*
X127426254Y-78066497D01*
X127421690Y-78069266D01*
X127421691Y-78069266D01*
X127230817Y-78185091D01*
X127230814Y-78185093D01*
X127226256Y-78187859D01*
X127049566Y-78341183D01*
X126901235Y-78522086D01*
X126898597Y-78526721D01*
X126898594Y-78526725D01*
X126879823Y-78559701D01*
X126828741Y-78609007D01*
X126759111Y-78622869D01*
X126693040Y-78596886D01*
X126665801Y-78567736D01*
X126582190Y-78443545D01*
X126575529Y-78435259D01*
X126421476Y-78273770D01*
X126413508Y-78266721D01*
X126234448Y-78133497D01*
X126225418Y-78127898D01*
X126026469Y-78026747D01*
X126016608Y-78022744D01*
X125803471Y-77956562D01*
X125793091Y-77954280D01*
X125773357Y-77951664D01*
X125759193Y-77953860D01*
X125755400Y-77967045D01*
X125755400Y-81092327D01*
X125247400Y-81092327D01*
X125247400Y-77969073D01*
X125243427Y-77955542D01*
X125232820Y-77954017D01*
X125109212Y-77979952D01*
X125099016Y-77983012D01*
X124891448Y-78064984D01*
X124881911Y-78069718D01*
X124691115Y-78185496D01*
X124682522Y-78191762D01*
X124513959Y-78338033D01*
X124506538Y-78345665D01*
X124479227Y-78378972D01*
X124420567Y-78418966D01*
X124349597Y-78420897D01*
X124288849Y-78384152D01*
X124273596Y-78361354D01*
X124272950Y-78361754D01*
X124183732Y-78217580D01*
X124179878Y-78211352D01*
X124152029Y-78183551D01*
X124059883Y-78091566D01*
X124054703Y-78086395D01*
X123967901Y-78032889D01*
X123910368Y-77997425D01*
X123910366Y-77997424D01*
X123904138Y-77993585D01*
X123824122Y-77967045D01*
X123742789Y-77940068D01*
X123742787Y-77940068D01*
X123736261Y-77937903D01*
X123729425Y-77937203D01*
X123729422Y-77937202D01*
X123681849Y-77932328D01*
X123631800Y-77927200D01*
X122291000Y-77927200D01*
X122286578Y-77927659D01*
X122284934Y-77927829D01*
X122215114Y-77914959D01*
X122182845Y-77891596D01*
X122108994Y-77817745D01*
X122074968Y-77755433D01*
X122072089Y-77728650D01*
X122072089Y-70737650D01*
X122092091Y-70669529D01*
X122108994Y-70648555D01*
X122915948Y-69841601D01*
X122948429Y-69818131D01*
X122959775Y-69812425D01*
X122969730Y-69807418D01*
X123042302Y-69770919D01*
X123042305Y-69770917D01*
X123049085Y-69767507D01*
X123170280Y-69663996D01*
X123263286Y-69534565D01*
X123268108Y-69522571D01*
X123319901Y-69393729D01*
X123322733Y-69386684D01*
X123345191Y-69228892D01*
X123345336Y-69215000D01*
X123341754Y-69185394D01*
X123327101Y-69064315D01*
X123327101Y-69064314D01*
X123326188Y-69056772D01*
X123314277Y-69025249D01*
X123272536Y-68914784D01*
X123272535Y-68914782D01*
X123269851Y-68907679D01*
X123179576Y-68776328D01*
X123173905Y-68771275D01*
X123066247Y-68675355D01*
X123066244Y-68675353D01*
X123060575Y-68670302D01*
X123046567Y-68662885D01*
X122926431Y-68599276D01*
X122926429Y-68599275D01*
X122919718Y-68595722D01*
X122909944Y-68593267D01*
X122772509Y-68558746D01*
X122772506Y-68558746D01*
X122765138Y-68556895D01*
X122757538Y-68556855D01*
X122757537Y-68556855D01*
X122692179Y-68556513D01*
X122605758Y-68556060D01*
X122598378Y-68557832D01*
X122598376Y-68557832D01*
X122458160Y-68591495D01*
X122458158Y-68591496D01*
X122450780Y-68593267D01*
X122309150Y-68666368D01*
X122303428Y-68671360D01*
X122303426Y-68671361D01*
X122253434Y-68714972D01*
X122189045Y-68771142D01*
X122179179Y-68785180D01*
X122104124Y-68891973D01*
X122097400Y-68901540D01*
X122083032Y-68938392D01*
X122054734Y-68981717D01*
X121067355Y-69969096D01*
X121054964Y-69979963D01*
X121029602Y-69999424D01*
X121005115Y-70031336D01*
X121005112Y-70031339D01*
X120932065Y-70126535D01*
X120870751Y-70274560D01*
X120870751Y-70274561D01*
X120855089Y-70393526D01*
X120855089Y-70393531D01*
X120849839Y-70433411D01*
X120850917Y-70441599D01*
X120854011Y-70465101D01*
X120855089Y-70481547D01*
X120855089Y-77984753D01*
X120854011Y-78001196D01*
X120849839Y-78032889D01*
X120855089Y-78072769D01*
X120855089Y-78072774D01*
X120858889Y-78101637D01*
X120870751Y-78191740D01*
X120932065Y-78339765D01*
X120937092Y-78346316D01*
X120937093Y-78346318D01*
X121005109Y-78434958D01*
X121005115Y-78434964D01*
X121029602Y-78466876D01*
X121036157Y-78471906D01*
X121054968Y-78486341D01*
X121067359Y-78497208D01*
X121277256Y-78707105D01*
X121311282Y-78769417D01*
X121306217Y-78840232D01*
X121263670Y-78897068D01*
X121197150Y-78921879D01*
X121188161Y-78922200D01*
X116283939Y-78922200D01*
X116215818Y-78902198D01*
X116194844Y-78885295D01*
X114166063Y-76856514D01*
X114137292Y-76811956D01*
X114128536Y-76788784D01*
X114128535Y-76788782D01*
X114125851Y-76781679D01*
X114035576Y-76650328D01*
X114029905Y-76645275D01*
X113922247Y-76549355D01*
X113922244Y-76549353D01*
X113916575Y-76544302D01*
X113902567Y-76536885D01*
X113782431Y-76473276D01*
X113782429Y-76473275D01*
X113775718Y-76469722D01*
X113765944Y-76467267D01*
X113628509Y-76432746D01*
X113628506Y-76432746D01*
X113621138Y-76430895D01*
X113613538Y-76430855D01*
X113613537Y-76430855D01*
X113548179Y-76430513D01*
X113461758Y-76430060D01*
X113454378Y-76431832D01*
X113454376Y-76431832D01*
X113314160Y-76465495D01*
X113314158Y-76465496D01*
X113306780Y-76467267D01*
X113165150Y-76540368D01*
X113159428Y-76545360D01*
X113159426Y-76545361D01*
X113093008Y-76603301D01*
X113045045Y-76645142D01*
X112953400Y-76775540D01*
X112895504Y-76924035D01*
X112874700Y-77082054D01*
X103359500Y-77082054D01*
X103359500Y-76554600D01*
X103358956Y-76549355D01*
X103349238Y-76455692D01*
X103349237Y-76455688D01*
X103348526Y-76448834D01*
X103342263Y-76430060D01*
X103294868Y-76288002D01*
X103292550Y-76281054D01*
X103199478Y-76130652D01*
X103074303Y-76005695D01*
X102978262Y-75946494D01*
X102929968Y-75916725D01*
X102929966Y-75916724D01*
X102923738Y-75912885D01*
X102825548Y-75880317D01*
X102762389Y-75859368D01*
X102762387Y-75859368D01*
X102755861Y-75857203D01*
X102749025Y-75856503D01*
X102749022Y-75856502D01*
X102705969Y-75852091D01*
X102651400Y-75846500D01*
X101310600Y-75846500D01*
X101307354Y-75846837D01*
X101307350Y-75846837D01*
X101211692Y-75856762D01*
X101211688Y-75856763D01*
X101204834Y-75857474D01*
X101198298Y-75859655D01*
X101198296Y-75859655D01*
X101079610Y-75899252D01*
X101037054Y-75913450D01*
X100886652Y-76006522D01*
X100881479Y-76011704D01*
X100874780Y-76018415D01*
X100761695Y-76131697D01*
X100757855Y-76137927D01*
X100757854Y-76137928D01*
X100679548Y-76264964D01*
X100668885Y-76282262D01*
X100666868Y-76281018D01*
X100627463Y-76325775D01*
X100559187Y-76345239D01*
X100491226Y-76324700D01*
X100469011Y-76306215D01*
X100361076Y-76193070D01*
X100353108Y-76186021D01*
X100174048Y-76052797D01*
X100165018Y-76047198D01*
X99966069Y-75946047D01*
X99956208Y-75942044D01*
X99743071Y-75875862D01*
X99732691Y-75873580D01*
X99712957Y-75870964D01*
X99698793Y-75873160D01*
X99695000Y-75886345D01*
X99695000Y-79011627D01*
X99187000Y-79011627D01*
X99187000Y-77722115D01*
X99182525Y-77706876D01*
X99181135Y-77705671D01*
X99173452Y-77704000D01*
X98081115Y-77704000D01*
X98065876Y-77708475D01*
X98064671Y-77709865D01*
X98063000Y-77717548D01*
X98063000Y-77731054D01*
X92869300Y-77731054D01*
X92869300Y-77177885D01*
X98063000Y-77177885D01*
X98067475Y-77193124D01*
X98068865Y-77194329D01*
X98076548Y-77196000D01*
X99168885Y-77196000D01*
X99184124Y-77191525D01*
X99185329Y-77190135D01*
X99187000Y-77182452D01*
X99187000Y-75888373D01*
X99183027Y-75874842D01*
X99172420Y-75873317D01*
X99048812Y-75899252D01*
X99038616Y-75902312D01*
X98831048Y-75984284D01*
X98821511Y-75989018D01*
X98630715Y-76104796D01*
X98622122Y-76111062D01*
X98453559Y-76257333D01*
X98446139Y-76264964D01*
X98304632Y-76437542D01*
X98298607Y-76446309D01*
X98188203Y-76640262D01*
X98183738Y-76649926D01*
X98107590Y-76859711D01*
X98104819Y-76869979D01*
X98064894Y-77090766D01*
X98063961Y-77098995D01*
X98063070Y-77117874D01*
X98063000Y-77120849D01*
X98063000Y-77177885D01*
X92869300Y-77177885D01*
X92869300Y-76308400D01*
X92866459Y-76281018D01*
X92859038Y-76209492D01*
X92859037Y-76209488D01*
X92858326Y-76202634D01*
X92854465Y-76191059D01*
X92804668Y-76041802D01*
X92802350Y-76034854D01*
X92709278Y-75884452D01*
X92584103Y-75759495D01*
X92486579Y-75699380D01*
X92439768Y-75670525D01*
X92439766Y-75670524D01*
X92433538Y-75666685D01*
X92273054Y-75613455D01*
X92272189Y-75613168D01*
X92272187Y-75613168D01*
X92265661Y-75611003D01*
X92258825Y-75610303D01*
X92258822Y-75610302D01*
X92211249Y-75605428D01*
X92161200Y-75600300D01*
X90820400Y-75600300D01*
X90817154Y-75600637D01*
X90817150Y-75600637D01*
X90721492Y-75610562D01*
X90721488Y-75610563D01*
X90714634Y-75611274D01*
X90708098Y-75613455D01*
X90708096Y-75613455D01*
X90667830Y-75626889D01*
X90546854Y-75667250D01*
X90396452Y-75760322D01*
X90271495Y-75885497D01*
X90267655Y-75891727D01*
X90267654Y-75891728D01*
X90238238Y-75939449D01*
X90178685Y-76036062D01*
X90176538Y-76034738D01*
X90137488Y-76079090D01*
X90069211Y-76098552D01*
X90001251Y-76078012D01*
X89979039Y-76059528D01*
X89871210Y-75946494D01*
X89871198Y-75946484D01*
X89867524Y-75942632D01*
X89679835Y-75802987D01*
X89675084Y-75800571D01*
X89675080Y-75800569D01*
X89476056Y-75699380D01*
X89476055Y-75699380D01*
X89471300Y-75696962D01*
X89247883Y-75627590D01*
X89242596Y-75626889D01*
X89242595Y-75626889D01*
X89021255Y-75597552D01*
X89021251Y-75597552D01*
X89015971Y-75596852D01*
X89010642Y-75597052D01*
X89010640Y-75597052D01*
X88915146Y-75600637D01*
X88782196Y-75605628D01*
X88698211Y-75623250D01*
X88558468Y-75652571D01*
X88558465Y-75652572D01*
X88553241Y-75653668D01*
X88335654Y-75739597D01*
X88331090Y-75742366D01*
X88331091Y-75742366D01*
X88140217Y-75858191D01*
X88140214Y-75858193D01*
X88135656Y-75860959D01*
X87958966Y-76014283D01*
X87810635Y-76195186D01*
X87694904Y-76398495D01*
X87615084Y-76618396D01*
X87614135Y-76623645D01*
X87614134Y-76623648D01*
X87609382Y-76649926D01*
X87573456Y-76848603D01*
X87572300Y-76873116D01*
X87572300Y-77487538D01*
X77216500Y-77487538D01*
X77216500Y-70573338D01*
X87572300Y-70573338D01*
X87587095Y-70747702D01*
X87645867Y-70974140D01*
X87741950Y-71187437D01*
X87872598Y-71381496D01*
X88034076Y-71550768D01*
X88221765Y-71690413D01*
X88226516Y-71692829D01*
X88226520Y-71692831D01*
X88340997Y-71751034D01*
X88430300Y-71796438D01*
X88653717Y-71865810D01*
X88659004Y-71866511D01*
X88659005Y-71866511D01*
X88880345Y-71895848D01*
X88880349Y-71895848D01*
X88885629Y-71896548D01*
X88890958Y-71896348D01*
X88890960Y-71896348D01*
X89002517Y-71892160D01*
X89119404Y-71887772D01*
X89231613Y-71864228D01*
X89343132Y-71840829D01*
X89343135Y-71840828D01*
X89348359Y-71839732D01*
X89565946Y-71753803D01*
X89675660Y-71687227D01*
X89761383Y-71635209D01*
X89761386Y-71635207D01*
X89765944Y-71632441D01*
X89942634Y-71479117D01*
X89973208Y-71441829D01*
X90031867Y-71401836D01*
X90102838Y-71399905D01*
X90163586Y-71436650D01*
X90178533Y-71458990D01*
X90179250Y-71458546D01*
X90272322Y-71608948D01*
X90397497Y-71733905D01*
X90403727Y-71737745D01*
X90403728Y-71737746D01*
X90540890Y-71822294D01*
X90548062Y-71826715D01*
X90590615Y-71840829D01*
X90709411Y-71880232D01*
X90709413Y-71880232D01*
X90715939Y-71882397D01*
X90722775Y-71883097D01*
X90722778Y-71883098D01*
X90765831Y-71887509D01*
X90820400Y-71893100D01*
X92161200Y-71893100D01*
X92164446Y-71892763D01*
X92164450Y-71892763D01*
X92260108Y-71882838D01*
X92260112Y-71882837D01*
X92266966Y-71882126D01*
X92273502Y-71879945D01*
X92273504Y-71879945D01*
X92405606Y-71835872D01*
X92434746Y-71826150D01*
X92585148Y-71733078D01*
X92710105Y-71607903D01*
X92789490Y-71479117D01*
X92799075Y-71463568D01*
X92799076Y-71463566D01*
X92802915Y-71457338D01*
X92858597Y-71289461D01*
X92869300Y-71185000D01*
X92869300Y-69394200D01*
X92866326Y-69365537D01*
X92859038Y-69295292D01*
X92859037Y-69295288D01*
X92858326Y-69288434D01*
X92855209Y-69279089D01*
X92804668Y-69127602D01*
X92802350Y-69120654D01*
X92709278Y-68970252D01*
X92584103Y-68845295D01*
X92486579Y-68785180D01*
X92439768Y-68756325D01*
X92439766Y-68756324D01*
X92433538Y-68752485D01*
X92273054Y-68699255D01*
X92272189Y-68698968D01*
X92272187Y-68698968D01*
X92265661Y-68696803D01*
X92258825Y-68696103D01*
X92258822Y-68696102D01*
X92211249Y-68691228D01*
X92161200Y-68686100D01*
X90820400Y-68686100D01*
X90817154Y-68686437D01*
X90817150Y-68686437D01*
X90721492Y-68696362D01*
X90721488Y-68696363D01*
X90714634Y-68697074D01*
X90708098Y-68699255D01*
X90708096Y-68699255D01*
X90667830Y-68712689D01*
X90546854Y-68753050D01*
X90396452Y-68846122D01*
X90271495Y-68971297D01*
X90178685Y-69121862D01*
X90176538Y-69120538D01*
X90137488Y-69164890D01*
X90069211Y-69184352D01*
X90001251Y-69163812D01*
X89979039Y-69145328D01*
X89871210Y-69032294D01*
X89871198Y-69032284D01*
X89867524Y-69028432D01*
X89679835Y-68888787D01*
X89675084Y-68886371D01*
X89675080Y-68886369D01*
X89476056Y-68785180D01*
X89476055Y-68785180D01*
X89471300Y-68782762D01*
X89247883Y-68713390D01*
X89242596Y-68712689D01*
X89242595Y-68712689D01*
X89021255Y-68683352D01*
X89021251Y-68683352D01*
X89015971Y-68682652D01*
X89010642Y-68682852D01*
X89010640Y-68682852D01*
X88915146Y-68686437D01*
X88782196Y-68691428D01*
X88698211Y-68709050D01*
X88558468Y-68738371D01*
X88558465Y-68738372D01*
X88553241Y-68739468D01*
X88335654Y-68825397D01*
X88331090Y-68828166D01*
X88331091Y-68828166D01*
X88140217Y-68943991D01*
X88140214Y-68943993D01*
X88135656Y-68946759D01*
X87958966Y-69100083D01*
X87810635Y-69280986D01*
X87694904Y-69484295D01*
X87615084Y-69704196D01*
X87614135Y-69709445D01*
X87614134Y-69709448D01*
X87603019Y-69770919D01*
X87573456Y-69934403D01*
X87572300Y-69958916D01*
X87572300Y-70573338D01*
X77216500Y-70573338D01*
X77216500Y-62223054D01*
X105000700Y-62223054D01*
X105018190Y-62381473D01*
X105020799Y-62388604D01*
X105020800Y-62388606D01*
X105047826Y-62462458D01*
X105055500Y-62505759D01*
X105055500Y-63096264D01*
X105054422Y-63112707D01*
X105050250Y-63144400D01*
X105055500Y-63184280D01*
X105055500Y-63184285D01*
X105060379Y-63221342D01*
X105071162Y-63303251D01*
X105132476Y-63451276D01*
X105137503Y-63457827D01*
X105137504Y-63457829D01*
X105205520Y-63546469D01*
X105205526Y-63546475D01*
X105230013Y-63578387D01*
X105236568Y-63583417D01*
X105255379Y-63597852D01*
X105267770Y-63608719D01*
X109655454Y-67996403D01*
X109689480Y-68058715D01*
X109687776Y-68119169D01*
X109658989Y-68222970D01*
X109658441Y-68228100D01*
X109658440Y-68228104D01*
X109654933Y-68260922D01*
X109635251Y-68445095D01*
X109635548Y-68450248D01*
X109635548Y-68450251D01*
X109641011Y-68544990D01*
X109648110Y-68668115D01*
X109649247Y-68673161D01*
X109649248Y-68673167D01*
X109666729Y-68750732D01*
X109697222Y-68886039D01*
X109733946Y-68976480D01*
X109763664Y-69049666D01*
X109781266Y-69093016D01*
X109824650Y-69163812D01*
X109895291Y-69279088D01*
X109897987Y-69283488D01*
X110044250Y-69452338D01*
X110216126Y-69595032D01*
X110409000Y-69707738D01*
X110617692Y-69787430D01*
X110622760Y-69788461D01*
X110622763Y-69788462D01*
X110730017Y-69810283D01*
X110836597Y-69831967D01*
X110841772Y-69832157D01*
X110841774Y-69832157D01*
X111054673Y-69839964D01*
X111054677Y-69839964D01*
X111059837Y-69840153D01*
X111064957Y-69839497D01*
X111064959Y-69839497D01*
X111276288Y-69812425D01*
X111276289Y-69812425D01*
X111281416Y-69811768D01*
X111286366Y-69810283D01*
X111490429Y-69749061D01*
X111490434Y-69749059D01*
X111495384Y-69747574D01*
X111695994Y-69649296D01*
X111877860Y-69519573D01*
X111913262Y-69484295D01*
X112003672Y-69394200D01*
X112036096Y-69361889D01*
X112088879Y-69288434D01*
X112166453Y-69180477D01*
X112167776Y-69181428D01*
X112214645Y-69138257D01*
X112284580Y-69126025D01*
X112350026Y-69153544D01*
X112377875Y-69185394D01*
X112437987Y-69283488D01*
X112584250Y-69452338D01*
X112756126Y-69595032D01*
X112949000Y-69707738D01*
X113157692Y-69787430D01*
X113162760Y-69788461D01*
X113162763Y-69788462D01*
X113270017Y-69810283D01*
X113376597Y-69831967D01*
X113381772Y-69832157D01*
X113381774Y-69832157D01*
X113594673Y-69839964D01*
X113594677Y-69839964D01*
X113599837Y-69840153D01*
X113604957Y-69839497D01*
X113604959Y-69839497D01*
X113816288Y-69812425D01*
X113816289Y-69812425D01*
X113821416Y-69811768D01*
X113826366Y-69810283D01*
X114030429Y-69749061D01*
X114030434Y-69749059D01*
X114035384Y-69747574D01*
X114235994Y-69649296D01*
X114417860Y-69519573D01*
X114453262Y-69484295D01*
X114543672Y-69394200D01*
X114576096Y-69361889D01*
X114628879Y-69288434D01*
X114703435Y-69184677D01*
X114706453Y-69180477D01*
X114714690Y-69163812D01*
X114803136Y-68984853D01*
X114803137Y-68984851D01*
X114805430Y-68980211D01*
X114844850Y-68850466D01*
X114868865Y-68771423D01*
X114868865Y-68771421D01*
X114870370Y-68766469D01*
X114899529Y-68544990D01*
X114901156Y-68478400D01*
X114882852Y-68255761D01*
X114837497Y-68075195D01*
X114840301Y-68004254D01*
X114881014Y-67946091D01*
X114946709Y-67919172D01*
X114959701Y-67918500D01*
X116553405Y-67918500D01*
X116595341Y-67926500D01*
X116595810Y-67926754D01*
X116749975Y-67967199D01*
X116831226Y-67968475D01*
X116901738Y-67969583D01*
X116901741Y-67969583D01*
X116909337Y-67969702D01*
X116916741Y-67968006D01*
X116916743Y-67968006D01*
X116974386Y-67954804D01*
X117064697Y-67934120D01*
X117121777Y-67905412D01*
X117200302Y-67865919D01*
X117200305Y-67865917D01*
X117207085Y-67862507D01*
X117328280Y-67758996D01*
X117421286Y-67629565D01*
X117480733Y-67481684D01*
X117503191Y-67323892D01*
X117503336Y-67310000D01*
X117484188Y-67151772D01*
X117427851Y-67002679D01*
X117337576Y-66871328D01*
X117248511Y-66791974D01*
X117210957Y-66731726D01*
X117211937Y-66660736D01*
X117251142Y-66601546D01*
X117316123Y-66572947D01*
X117332332Y-66571900D01*
X121241179Y-66571900D01*
X121309300Y-66591902D01*
X121325979Y-66604707D01*
X121383342Y-66656904D01*
X121523410Y-66732954D01*
X121677575Y-66773399D01*
X121758826Y-66774675D01*
X121829338Y-66775783D01*
X121829341Y-66775783D01*
X121836937Y-66775902D01*
X121844341Y-66774206D01*
X121844343Y-66774206D01*
X121901986Y-66761004D01*
X121992297Y-66740320D01*
X122090913Y-66690722D01*
X122127902Y-66672119D01*
X122127905Y-66672117D01*
X122134685Y-66668707D01*
X122255880Y-66565196D01*
X122348886Y-66435765D01*
X122408333Y-66287884D01*
X122430791Y-66130092D01*
X122430936Y-66116200D01*
X122424729Y-66064904D01*
X122412701Y-65965515D01*
X122412701Y-65965514D01*
X122411788Y-65957972D01*
X122355451Y-65808879D01*
X122265176Y-65677528D01*
X122259505Y-65672475D01*
X122151847Y-65576555D01*
X122151844Y-65576553D01*
X122146175Y-65571502D01*
X122110538Y-65552633D01*
X122082942Y-65530166D01*
X122081800Y-65531382D01*
X122032149Y-65484757D01*
X122029307Y-65482002D01*
X122009570Y-65462265D01*
X122006373Y-65459785D01*
X121997351Y-65452080D01*
X121965121Y-65421814D01*
X121958175Y-65417995D01*
X121958172Y-65417993D01*
X121947366Y-65412052D01*
X121930847Y-65401201D01*
X121930383Y-65400841D01*
X121914841Y-65388786D01*
X121907572Y-65385641D01*
X121907568Y-65385638D01*
X121874263Y-65371226D01*
X121863613Y-65366009D01*
X121824860Y-65344705D01*
X121805237Y-65339667D01*
X121786534Y-65333263D01*
X121775220Y-65328367D01*
X121775219Y-65328367D01*
X121767945Y-65325219D01*
X121760122Y-65323980D01*
X121760112Y-65323977D01*
X121724276Y-65318301D01*
X121712656Y-65315895D01*
X121677511Y-65306872D01*
X121677510Y-65306872D01*
X121669830Y-65304900D01*
X121649576Y-65304900D01*
X121629865Y-65303349D01*
X121617686Y-65301420D01*
X121609857Y-65300180D01*
X121601965Y-65300926D01*
X121565839Y-65304341D01*
X121553981Y-65304900D01*
X116527011Y-65304900D01*
X116458890Y-65284898D01*
X116412397Y-65231242D01*
X116401924Y-65194039D01*
X116400016Y-65178277D01*
X116399104Y-65170737D01*
X116371550Y-65097817D01*
X116363416Y-65053279D01*
X116363416Y-64037797D01*
X116364494Y-64021351D01*
X116367588Y-63997849D01*
X116368666Y-63989661D01*
X116363416Y-63949783D01*
X116363416Y-63949776D01*
X116347754Y-63830811D01*
X116286440Y-63682786D01*
X116245073Y-63628876D01*
X116213393Y-63587589D01*
X116213390Y-63587586D01*
X116210191Y-63583417D01*
X116193932Y-63562227D01*
X116193929Y-63562224D01*
X116188903Y-63555674D01*
X116176907Y-63546469D01*
X116163537Y-63536209D01*
X116151146Y-63525342D01*
X114560609Y-61934805D01*
X114526583Y-61872493D01*
X114531648Y-61801678D01*
X114560764Y-61756459D01*
X114572057Y-61745205D01*
X114578730Y-61737365D01*
X114703003Y-61564420D01*
X114708313Y-61555583D01*
X114802670Y-61364667D01*
X114806469Y-61355072D01*
X114868377Y-61151310D01*
X114870555Y-61141237D01*
X114871986Y-61130362D01*
X114869775Y-61116178D01*
X114856617Y-61112400D01*
X113410000Y-61112400D01*
X113341879Y-61092398D01*
X113295386Y-61038742D01*
X113284000Y-60986400D01*
X113284000Y-60586285D01*
X113792000Y-60586285D01*
X113796475Y-60601524D01*
X113797865Y-60602729D01*
X113805548Y-60604400D01*
X114856344Y-60604400D01*
X114869875Y-60600427D01*
X114871180Y-60591347D01*
X114829214Y-60424275D01*
X114825894Y-60414524D01*
X114740972Y-60219214D01*
X114736105Y-60210139D01*
X114620426Y-60031326D01*
X114614136Y-60023157D01*
X114470806Y-59865640D01*
X114463273Y-59858615D01*
X114296139Y-59726622D01*
X114287552Y-59720917D01*
X114101117Y-59617999D01*
X114091705Y-59613769D01*
X113890959Y-59542680D01*
X113880988Y-59540046D01*
X113809837Y-59527372D01*
X113796540Y-59528832D01*
X113792000Y-59543389D01*
X113792000Y-60586285D01*
X113284000Y-60586285D01*
X113284000Y-59541502D01*
X113280082Y-59528158D01*
X113265806Y-59526171D01*
X113227324Y-59532060D01*
X113217288Y-59534451D01*
X113014868Y-59600612D01*
X113008173Y-59603426D01*
X112937624Y-59611386D01*
X112873971Y-59579941D01*
X112859390Y-59563986D01*
X112846967Y-59547796D01*
X112846963Y-59547792D01*
X112846960Y-59547788D01*
X112827505Y-59522433D01*
X112827502Y-59522430D01*
X112822476Y-59515880D01*
X112810454Y-59506655D01*
X112797110Y-59496415D01*
X112784719Y-59485548D01*
X111119737Y-57820566D01*
X111108870Y-57808175D01*
X111094435Y-57789363D01*
X111089409Y-57782813D01*
X111057497Y-57758326D01*
X111057494Y-57758323D01*
X110962298Y-57685276D01*
X110814273Y-57623962D01*
X110806086Y-57622884D01*
X110806085Y-57622884D01*
X110794880Y-57621409D01*
X110763684Y-57617302D01*
X110695307Y-57608300D01*
X110695304Y-57608300D01*
X110695296Y-57608299D01*
X110663611Y-57604128D01*
X110655422Y-57603050D01*
X110623729Y-57607222D01*
X110607286Y-57608300D01*
X109963801Y-57608300D01*
X109919911Y-57600166D01*
X109914918Y-57597522D01*
X109907548Y-57595671D01*
X109907546Y-57595670D01*
X109767709Y-57560546D01*
X109767706Y-57560546D01*
X109760338Y-57558695D01*
X109752738Y-57558655D01*
X109752737Y-57558655D01*
X109687379Y-57558313D01*
X109600958Y-57557860D01*
X109593578Y-57559632D01*
X109593576Y-57559632D01*
X109453360Y-57593295D01*
X109453358Y-57593296D01*
X109445980Y-57595067D01*
X109304350Y-57668168D01*
X109298628Y-57673160D01*
X109298626Y-57673161D01*
X109278975Y-57690304D01*
X109184245Y-57772942D01*
X109092600Y-57903340D01*
X109034704Y-58051835D01*
X109013900Y-58209854D01*
X109031390Y-58368273D01*
X109086163Y-58517948D01*
X109175058Y-58650237D01*
X109292942Y-58757504D01*
X109433010Y-58833554D01*
X109587175Y-58873999D01*
X109668426Y-58875275D01*
X109738938Y-58876383D01*
X109738941Y-58876383D01*
X109746537Y-58876502D01*
X109753941Y-58874806D01*
X109753943Y-58874806D01*
X109811586Y-58861604D01*
X109901897Y-58840920D01*
X109908681Y-58837508D01*
X109915831Y-58834934D01*
X109916337Y-58836340D01*
X109962855Y-58825300D01*
X110351183Y-58825300D01*
X110419304Y-58845302D01*
X110440278Y-58862205D01*
X110862878Y-59284805D01*
X110896904Y-59347117D01*
X110891839Y-59417932D01*
X110849292Y-59474768D01*
X110782772Y-59499579D01*
X110773783Y-59499900D01*
X110099866Y-59499900D01*
X110037684Y-59506655D01*
X109901295Y-59557785D01*
X109784739Y-59645139D01*
X109697385Y-59761695D01*
X109646255Y-59898084D01*
X109639500Y-59960266D01*
X109639500Y-59974148D01*
X109619498Y-60042269D01*
X109565842Y-60088762D01*
X109495568Y-60098866D01*
X109468346Y-60091779D01*
X109464430Y-60090276D01*
X109457718Y-60086722D01*
X109447944Y-60084267D01*
X109310509Y-60049746D01*
X109310506Y-60049746D01*
X109303138Y-60047895D01*
X109295538Y-60047855D01*
X109295537Y-60047855D01*
X109230179Y-60047513D01*
X109143758Y-60047060D01*
X109136378Y-60048832D01*
X109136376Y-60048832D01*
X108996160Y-60082495D01*
X108996158Y-60082496D01*
X108988780Y-60084267D01*
X108847150Y-60157368D01*
X108727045Y-60262142D01*
X108635400Y-60392540D01*
X108577504Y-60541035D01*
X108576513Y-60548562D01*
X108569162Y-60604400D01*
X108556700Y-60699054D01*
X108574190Y-60857473D01*
X108576799Y-60864604D01*
X108576800Y-60864606D01*
X108603826Y-60938458D01*
X108611500Y-60981759D01*
X108611500Y-64112264D01*
X108610422Y-64128707D01*
X108606250Y-64160400D01*
X108607328Y-64168589D01*
X108611500Y-64200280D01*
X108610097Y-64200465D01*
X108610102Y-64200485D01*
X108611502Y-64200301D01*
X108611922Y-64203488D01*
X108627162Y-64319251D01*
X108688476Y-64467276D01*
X108693503Y-64473827D01*
X108693504Y-64473829D01*
X108761520Y-64562469D01*
X108761526Y-64562475D01*
X108786013Y-64594387D01*
X108792568Y-64599417D01*
X108811379Y-64613852D01*
X108823770Y-64624719D01*
X109655454Y-65456403D01*
X109689480Y-65518715D01*
X109687776Y-65579169D01*
X109658989Y-65682970D01*
X109635251Y-65905095D01*
X109635548Y-65910248D01*
X109635548Y-65910252D01*
X109637623Y-65946241D01*
X109621575Y-66015400D01*
X109570684Y-66064904D01*
X109501108Y-66079036D01*
X109434937Y-66053309D01*
X109422737Y-66042588D01*
X106309405Y-62929256D01*
X106275379Y-62866944D01*
X106272500Y-62840161D01*
X106272500Y-62506246D01*
X106281592Y-62459250D01*
X106301901Y-62408729D01*
X106304733Y-62401684D01*
X106327191Y-62243892D01*
X106327336Y-62230000D01*
X106326496Y-62223054D01*
X106309101Y-62079315D01*
X106309101Y-62079314D01*
X106308188Y-62071772D01*
X106251851Y-61922679D01*
X106206714Y-61857004D01*
X106165878Y-61797587D01*
X106165877Y-61797585D01*
X106161576Y-61791328D01*
X106155905Y-61786275D01*
X106048247Y-61690355D01*
X106048244Y-61690353D01*
X106042575Y-61685302D01*
X105982508Y-61653498D01*
X105908431Y-61614276D01*
X105908429Y-61614275D01*
X105901718Y-61610722D01*
X105891944Y-61608267D01*
X105754509Y-61573746D01*
X105754506Y-61573746D01*
X105747138Y-61571895D01*
X105739538Y-61571855D01*
X105739537Y-61571855D01*
X105674179Y-61571513D01*
X105587758Y-61571060D01*
X105580378Y-61572832D01*
X105580376Y-61572832D01*
X105440160Y-61606495D01*
X105440158Y-61606496D01*
X105432780Y-61608267D01*
X105291150Y-61681368D01*
X105171045Y-61786142D01*
X105160126Y-61801678D01*
X105110357Y-61872493D01*
X105079400Y-61916540D01*
X105021504Y-62065035D01*
X105020513Y-62072562D01*
X105002400Y-62210145D01*
X105000700Y-62223054D01*
X77216500Y-62223054D01*
X77216500Y-50031054D01*
X115033700Y-50031054D01*
X115051190Y-50189473D01*
X115053799Y-50196604D01*
X115053800Y-50196606D01*
X115066227Y-50230565D01*
X115105963Y-50339148D01*
X115110200Y-50345454D01*
X115110202Y-50345457D01*
X115151069Y-50406272D01*
X115194858Y-50471437D01*
X115312742Y-50578704D01*
X115452810Y-50654754D01*
X115606975Y-50695199D01*
X115688226Y-50696475D01*
X115758738Y-50697583D01*
X115758741Y-50697583D01*
X115766337Y-50697702D01*
X115773741Y-50696006D01*
X115773743Y-50696006D01*
X115831386Y-50682804D01*
X115921697Y-50662120D01*
X115943546Y-50651131D01*
X116057302Y-50593919D01*
X116057305Y-50593917D01*
X116064085Y-50590507D01*
X116111877Y-50549689D01*
X116176665Y-50520658D01*
X116193707Y-50519500D01*
X116680405Y-50519500D01*
X116722341Y-50527500D01*
X116722810Y-50527754D01*
X116876975Y-50568199D01*
X116958226Y-50569475D01*
X117028738Y-50570583D01*
X117028741Y-50570583D01*
X117036337Y-50570702D01*
X117043741Y-50569006D01*
X117043743Y-50569006D01*
X117128085Y-50549689D01*
X117191697Y-50535120D01*
X117222754Y-50519500D01*
X117327302Y-50466919D01*
X117327305Y-50466917D01*
X117334085Y-50463507D01*
X117455280Y-50359996D01*
X117548286Y-50230565D01*
X117607733Y-50082684D01*
X117630191Y-49924892D01*
X117630336Y-49911000D01*
X117611188Y-49752772D01*
X117608503Y-49745666D01*
X117557536Y-49610784D01*
X117557535Y-49610782D01*
X117554851Y-49603679D01*
X117479719Y-49494361D01*
X117468878Y-49478587D01*
X117468877Y-49478585D01*
X117464576Y-49472328D01*
X117458905Y-49467275D01*
X117351247Y-49371355D01*
X117351244Y-49371353D01*
X117345575Y-49366302D01*
X117260623Y-49321322D01*
X117211431Y-49295276D01*
X117211429Y-49295275D01*
X117204718Y-49291722D01*
X117194944Y-49289267D01*
X117057509Y-49254746D01*
X117057506Y-49254746D01*
X117050138Y-49252895D01*
X117042538Y-49252855D01*
X117042537Y-49252855D01*
X116977179Y-49252513D01*
X116890758Y-49252060D01*
X116883378Y-49253832D01*
X116883376Y-49253832D01*
X116807595Y-49272026D01*
X116735780Y-49289267D01*
X116729028Y-49292752D01*
X116724067Y-49294597D01*
X116680145Y-49302500D01*
X115872136Y-49302500D01*
X115855693Y-49301422D01*
X115824000Y-49297250D01*
X115815811Y-49298328D01*
X115784126Y-49302499D01*
X115784117Y-49302500D01*
X115784115Y-49302500D01*
X115784109Y-49302501D01*
X115784107Y-49302501D01*
X115684543Y-49315609D01*
X115673336Y-49317084D01*
X115673334Y-49317085D01*
X115665149Y-49318162D01*
X115517124Y-49379476D01*
X115510573Y-49384503D01*
X115510571Y-49384504D01*
X115484939Y-49404172D01*
X115465188Y-49415121D01*
X115465780Y-49416267D01*
X115324150Y-49489368D01*
X115204045Y-49594142D01*
X115112400Y-49724540D01*
X115054504Y-49873035D01*
X115053513Y-49880562D01*
X115050045Y-49906907D01*
X115033700Y-50031054D01*
X77216500Y-50031054D01*
X77216500Y-40778434D01*
X78458921Y-40778434D01*
X78465708Y-40788135D01*
X78665023Y-40958365D01*
X78669709Y-40962000D01*
X78993442Y-41189523D01*
X78998432Y-41192690D01*
X79342141Y-41388739D01*
X79347422Y-41391429D01*
X79708053Y-41554260D01*
X79713544Y-41556434D01*
X80087906Y-41684607D01*
X80093590Y-41686259D01*
X80478347Y-41778631D01*
X80484162Y-41779740D01*
X80875889Y-41835490D01*
X80881802Y-41836049D01*
X81277031Y-41854688D01*
X81282969Y-41854688D01*
X81678198Y-41836049D01*
X81684111Y-41835490D01*
X82075838Y-41779740D01*
X82081653Y-41778631D01*
X82466410Y-41686259D01*
X82472094Y-41684607D01*
X82846456Y-41556434D01*
X82851947Y-41554260D01*
X83212578Y-41391429D01*
X83217859Y-41388739D01*
X83561568Y-41192690D01*
X83566558Y-41189523D01*
X83890291Y-40962000D01*
X83894977Y-40958365D01*
X84092722Y-40789476D01*
X84101152Y-40776562D01*
X84095145Y-40766355D01*
X83149592Y-39820802D01*
X83149588Y-39820799D01*
X81292810Y-37964020D01*
X81278869Y-37956408D01*
X81277034Y-37956539D01*
X81270420Y-37960790D01*
X79410424Y-39820787D01*
X79410396Y-39820814D01*
X78466313Y-40764897D01*
X78458921Y-40778434D01*
X77216500Y-40778434D01*
X77216500Y-39524486D01*
X77236502Y-39456365D01*
X77290158Y-39409872D01*
X77360432Y-39399768D01*
X77425012Y-39429262D01*
X77453854Y-39465527D01*
X77609411Y-39759323D01*
X77612436Y-39764440D01*
X77829669Y-40095144D01*
X77833159Y-40099947D01*
X78080292Y-40408420D01*
X78093130Y-40415694D01*
X78094439Y-40415621D01*
X78101852Y-40410938D01*
X79051200Y-39461590D01*
X79051201Y-39461588D01*
X80907980Y-37604810D01*
X80914357Y-37593131D01*
X81644408Y-37593131D01*
X81644539Y-37594966D01*
X81648790Y-37601580D01*
X83508787Y-39461576D01*
X83508800Y-39461590D01*
X84455271Y-40408061D01*
X84469215Y-40415675D01*
X84470524Y-40415582D01*
X84477360Y-40411112D01*
X84479454Y-40408737D01*
X84726841Y-40099947D01*
X84730331Y-40095144D01*
X84829430Y-39944281D01*
X109481000Y-39944281D01*
X109481323Y-39950656D01*
X109495082Y-40086111D01*
X109497636Y-40098551D01*
X109552016Y-40272078D01*
X109557025Y-40283766D01*
X109645187Y-40442813D01*
X109652438Y-40453246D01*
X109770785Y-40591325D01*
X109779976Y-40600078D01*
X109923680Y-40711545D01*
X109934440Y-40718269D01*
X110097625Y-40798566D01*
X110109519Y-40802989D01*
X110167470Y-40818085D01*
X110181564Y-40817651D01*
X110185000Y-40809470D01*
X110185000Y-40808063D01*
X110693000Y-40808063D01*
X110696973Y-40821594D01*
X110703075Y-40822471D01*
X110855136Y-40766524D01*
X110866549Y-40760957D01*
X111021108Y-40665126D01*
X111031174Y-40657374D01*
X111163303Y-40532426D01*
X111171605Y-40522808D01*
X111275908Y-40373847D01*
X111282108Y-40362753D01*
X111354332Y-40195854D01*
X111358171Y-40183751D01*
X111369006Y-40131888D01*
X113345700Y-40131888D01*
X113363190Y-40290307D01*
X113365799Y-40297438D01*
X113365800Y-40297440D01*
X113370586Y-40310518D01*
X113417963Y-40439982D01*
X113422200Y-40446288D01*
X113422202Y-40446291D01*
X113463069Y-40507106D01*
X113506858Y-40572271D01*
X113624742Y-40679538D01*
X113764810Y-40755588D01*
X113918975Y-40796033D01*
X114000226Y-40797309D01*
X114070738Y-40798417D01*
X114070741Y-40798417D01*
X114078337Y-40798536D01*
X114085741Y-40796840D01*
X114085743Y-40796840D01*
X114174281Y-40776562D01*
X114233697Y-40762954D01*
X114240481Y-40759542D01*
X114247631Y-40756968D01*
X114248137Y-40758374D01*
X114294655Y-40747334D01*
X114722405Y-40747334D01*
X114764341Y-40755334D01*
X114764810Y-40755588D01*
X114918975Y-40796033D01*
X115000226Y-40797309D01*
X115070738Y-40798417D01*
X115070741Y-40798417D01*
X115078337Y-40798536D01*
X115085741Y-40796840D01*
X115085743Y-40796840D01*
X115174281Y-40776562D01*
X115233697Y-40762954D01*
X115264754Y-40747334D01*
X115369302Y-40694753D01*
X115369305Y-40694751D01*
X115376085Y-40691341D01*
X115497280Y-40587830D01*
X115590286Y-40458399D01*
X115596552Y-40442813D01*
X115646901Y-40317563D01*
X115649733Y-40310518D01*
X115672191Y-40152726D01*
X115672336Y-40138834D01*
X115671496Y-40131888D01*
X115654101Y-39988149D01*
X115654101Y-39988148D01*
X115653188Y-39980606D01*
X115596851Y-39831513D01*
X115506576Y-39700162D01*
X115500905Y-39695109D01*
X115393247Y-39599189D01*
X115393244Y-39599187D01*
X115387575Y-39594136D01*
X115352119Y-39575363D01*
X115253431Y-39523110D01*
X115253429Y-39523109D01*
X115246718Y-39519556D01*
X115232497Y-39515984D01*
X115099509Y-39482580D01*
X115099506Y-39482580D01*
X115092138Y-39480729D01*
X115084538Y-39480689D01*
X115084537Y-39480689D01*
X115019179Y-39480347D01*
X114932758Y-39479894D01*
X114925378Y-39481666D01*
X114925376Y-39481666D01*
X114849595Y-39499860D01*
X114777780Y-39517101D01*
X114771028Y-39520586D01*
X114766067Y-39522431D01*
X114722145Y-39530334D01*
X114295601Y-39530334D01*
X114251711Y-39522200D01*
X114246718Y-39519556D01*
X114239348Y-39517705D01*
X114239346Y-39517704D01*
X114099509Y-39482580D01*
X114099506Y-39482580D01*
X114092138Y-39480729D01*
X114084538Y-39480689D01*
X114084537Y-39480689D01*
X114019179Y-39480347D01*
X113932758Y-39479894D01*
X113925378Y-39481666D01*
X113925376Y-39481666D01*
X113785160Y-39515329D01*
X113785158Y-39515330D01*
X113777780Y-39517101D01*
X113636150Y-39590202D01*
X113630428Y-39595194D01*
X113630426Y-39595195D01*
X113603794Y-39618428D01*
X113516045Y-39694976D01*
X113424400Y-39825374D01*
X113366504Y-39973869D01*
X113365513Y-39981396D01*
X113350538Y-40095144D01*
X113345700Y-40131888D01*
X111369006Y-40131888D01*
X111395675Y-40004234D01*
X111396915Y-39994682D01*
X111397000Y-39991450D01*
X111397000Y-39696195D01*
X111417002Y-39628074D01*
X111470658Y-39581581D01*
X111540932Y-39571477D01*
X111576250Y-39582000D01*
X111592631Y-39589639D01*
X111592634Y-39589640D01*
X111598808Y-39592519D01*
X111605456Y-39594005D01*
X111605459Y-39594006D01*
X111701686Y-39615515D01*
X111775543Y-39632024D01*
X111781088Y-39632334D01*
X111914244Y-39632334D01*
X112049037Y-39617691D01*
X112187927Y-39570949D01*
X112214204Y-39562106D01*
X112214206Y-39562105D01*
X112220675Y-39559928D01*
X112375905Y-39466657D01*
X112380862Y-39461969D01*
X112380865Y-39461967D01*
X112502527Y-39346916D01*
X112502529Y-39346914D01*
X112507485Y-39342227D01*
X112511317Y-39336589D01*
X112511320Y-39336585D01*
X112605442Y-39198089D01*
X112609277Y-39192446D01*
X112676530Y-39024300D01*
X112677644Y-39017572D01*
X112677645Y-39017568D01*
X112704993Y-38852373D01*
X112704993Y-38852370D01*
X112706108Y-38845636D01*
X112702715Y-38780884D01*
X112701203Y-38752032D01*
X116811892Y-38752032D01*
X116812249Y-38758849D01*
X116812249Y-38758853D01*
X116817151Y-38852373D01*
X116821370Y-38932881D01*
X116823181Y-38939454D01*
X116823181Y-38939457D01*
X116852207Y-39044834D01*
X116869461Y-39107475D01*
X116953922Y-39267670D01*
X116958327Y-39272883D01*
X116958330Y-39272887D01*
X117066406Y-39400777D01*
X117066410Y-39400781D01*
X117070813Y-39405991D01*
X117076237Y-39410138D01*
X117076238Y-39410139D01*
X117209257Y-39511840D01*
X117209261Y-39511843D01*
X117214678Y-39515984D01*
X117297287Y-39554505D01*
X117372631Y-39589639D01*
X117372634Y-39589640D01*
X117378808Y-39592519D01*
X117385456Y-39594005D01*
X117385459Y-39594006D01*
X117481686Y-39615515D01*
X117555543Y-39632024D01*
X117561088Y-39632334D01*
X117694244Y-39632334D01*
X117829037Y-39617691D01*
X117835501Y-39615516D01*
X117835504Y-39615515D01*
X117954811Y-39575363D01*
X118025753Y-39572593D01*
X118086932Y-39608616D01*
X118118923Y-39671997D01*
X118121000Y-39694782D01*
X118121000Y-39944281D01*
X118121323Y-39950656D01*
X118135082Y-40086111D01*
X118137636Y-40098551D01*
X118192016Y-40272078D01*
X118197025Y-40283766D01*
X118285187Y-40442813D01*
X118292438Y-40453246D01*
X118410785Y-40591325D01*
X118419976Y-40600078D01*
X118563680Y-40711545D01*
X118574440Y-40718269D01*
X118737625Y-40798566D01*
X118749519Y-40802989D01*
X118807470Y-40818085D01*
X118821564Y-40817651D01*
X118825000Y-40809470D01*
X118825000Y-40808063D01*
X119333000Y-40808063D01*
X119336973Y-40821594D01*
X119343075Y-40822471D01*
X119462765Y-40778434D01*
X149070921Y-40778434D01*
X149077708Y-40788135D01*
X149277023Y-40958365D01*
X149281709Y-40962000D01*
X149605442Y-41189523D01*
X149610432Y-41192690D01*
X149954141Y-41388739D01*
X149959422Y-41391429D01*
X150320053Y-41554260D01*
X150325544Y-41556434D01*
X150699906Y-41684607D01*
X150705590Y-41686259D01*
X151090347Y-41778631D01*
X151096162Y-41779740D01*
X151487889Y-41835490D01*
X151493802Y-41836049D01*
X151889031Y-41854688D01*
X151894969Y-41854688D01*
X152290198Y-41836049D01*
X152296111Y-41835490D01*
X152687838Y-41779740D01*
X152693653Y-41778631D01*
X153078410Y-41686259D01*
X153084094Y-41684607D01*
X153458456Y-41556434D01*
X153463947Y-41554260D01*
X153824578Y-41391429D01*
X153829859Y-41388739D01*
X154173568Y-41192690D01*
X154178558Y-41189523D01*
X154502291Y-40962000D01*
X154506977Y-40958365D01*
X154704722Y-40789476D01*
X154713152Y-40776562D01*
X154707145Y-40766355D01*
X153761592Y-39820802D01*
X153761588Y-39820799D01*
X151904810Y-37964020D01*
X151890869Y-37956408D01*
X151889034Y-37956539D01*
X151882420Y-37960790D01*
X150022424Y-39820787D01*
X150022396Y-39820814D01*
X149078313Y-40764897D01*
X149070921Y-40778434D01*
X119462765Y-40778434D01*
X119495136Y-40766524D01*
X119506549Y-40760957D01*
X119661108Y-40665126D01*
X119671174Y-40657374D01*
X119803303Y-40532426D01*
X119811605Y-40522808D01*
X119915908Y-40373847D01*
X119922108Y-40362753D01*
X119994332Y-40195854D01*
X119998171Y-40183751D01*
X120035675Y-40004234D01*
X120036915Y-39994682D01*
X120037000Y-39991450D01*
X120037000Y-39570949D01*
X120032525Y-39555710D01*
X120031135Y-39554505D01*
X120023452Y-39552834D01*
X119351115Y-39552834D01*
X119335876Y-39557309D01*
X119334671Y-39558699D01*
X119333000Y-39566382D01*
X119333000Y-40808063D01*
X118825000Y-40808063D01*
X118825000Y-39026719D01*
X119333000Y-39026719D01*
X119337475Y-39041958D01*
X119338865Y-39043163D01*
X119346548Y-39044834D01*
X120018885Y-39044834D01*
X120034124Y-39040359D01*
X120035329Y-39038969D01*
X120037000Y-39031286D01*
X120037000Y-38653387D01*
X120036677Y-38647012D01*
X120022918Y-38511557D01*
X120020364Y-38499117D01*
X119965984Y-38325590D01*
X119960975Y-38313902D01*
X119872813Y-38154855D01*
X119865562Y-38144422D01*
X119747215Y-38006343D01*
X119738024Y-37997590D01*
X119594320Y-37886123D01*
X119583560Y-37879399D01*
X119420375Y-37799102D01*
X119408481Y-37794679D01*
X119350530Y-37779583D01*
X119336436Y-37780017D01*
X119333000Y-37788198D01*
X119333000Y-39026719D01*
X118825000Y-39026719D01*
X118825000Y-37789605D01*
X118821027Y-37776074D01*
X118814925Y-37775197D01*
X118662864Y-37831144D01*
X118651451Y-37836711D01*
X118496892Y-37932542D01*
X118486826Y-37940294D01*
X118354697Y-38065242D01*
X118346395Y-38074860D01*
X118326917Y-38102678D01*
X118271460Y-38147007D01*
X118200841Y-38154316D01*
X118147179Y-38130506D01*
X118083322Y-38081684D01*
X117978186Y-38032659D01*
X117925369Y-38008029D01*
X117925366Y-38008028D01*
X117919192Y-38005149D01*
X117912544Y-38003663D01*
X117912541Y-38003662D01*
X117747494Y-37966770D01*
X117747495Y-37966770D01*
X117742457Y-37965644D01*
X117736912Y-37965334D01*
X117603756Y-37965334D01*
X117468963Y-37979977D01*
X117390619Y-38006343D01*
X117303796Y-38035562D01*
X117303794Y-38035563D01*
X117297325Y-38037740D01*
X117142095Y-38131011D01*
X117137138Y-38135699D01*
X117137135Y-38135701D01*
X117032220Y-38234915D01*
X117010515Y-38255441D01*
X117006683Y-38261079D01*
X117006680Y-38261083D01*
X116955740Y-38336039D01*
X116908723Y-38405222D01*
X116841470Y-38573368D01*
X116840356Y-38580096D01*
X116840355Y-38580100D01*
X116813007Y-38745295D01*
X116811892Y-38752032D01*
X112701203Y-38752032D01*
X112696987Y-38671600D01*
X112696630Y-38664787D01*
X112693924Y-38654960D01*
X112650352Y-38496775D01*
X112648539Y-38490193D01*
X112564078Y-38329998D01*
X112559673Y-38324785D01*
X112559670Y-38324781D01*
X112451594Y-38196891D01*
X112451590Y-38196887D01*
X112447187Y-38191677D01*
X112398321Y-38154316D01*
X112308743Y-38085828D01*
X112308739Y-38085825D01*
X112303322Y-38081684D01*
X112198186Y-38032659D01*
X112145369Y-38008029D01*
X112145366Y-38008028D01*
X112139192Y-38005149D01*
X112132544Y-38003663D01*
X112132541Y-38003662D01*
X111967494Y-37966770D01*
X111967495Y-37966770D01*
X111962457Y-37965644D01*
X111956912Y-37965334D01*
X111823756Y-37965334D01*
X111688963Y-37979977D01*
X111610619Y-38006343D01*
X111523796Y-38035562D01*
X111523794Y-38035563D01*
X111517325Y-38037740D01*
X111511470Y-38041258D01*
X111367946Y-38127495D01*
X111367944Y-38127497D01*
X111362095Y-38131011D01*
X111361553Y-38130108D01*
X111301118Y-38153110D01*
X111231645Y-38138482D01*
X111195623Y-38109491D01*
X111107215Y-38006344D01*
X111098024Y-37997590D01*
X110954320Y-37886123D01*
X110943560Y-37879399D01*
X110780375Y-37799102D01*
X110768481Y-37794679D01*
X110710530Y-37779583D01*
X110696436Y-37780017D01*
X110693000Y-37788198D01*
X110693000Y-40808063D01*
X110185000Y-40808063D01*
X110185000Y-39570949D01*
X110180525Y-39555710D01*
X110179135Y-39554505D01*
X110171452Y-39552834D01*
X109499115Y-39552834D01*
X109483876Y-39557309D01*
X109482671Y-39558699D01*
X109481000Y-39566382D01*
X109481000Y-39944281D01*
X84829430Y-39944281D01*
X84947564Y-39764440D01*
X84950589Y-39759323D01*
X85135733Y-39409647D01*
X85138255Y-39404288D01*
X85289680Y-39038716D01*
X85291684Y-39033151D01*
X85293663Y-39026719D01*
X109481000Y-39026719D01*
X109485475Y-39041958D01*
X109486865Y-39043163D01*
X109494548Y-39044834D01*
X110166885Y-39044834D01*
X110182124Y-39040359D01*
X110183329Y-39038969D01*
X110185000Y-39031286D01*
X110185000Y-37789605D01*
X110181027Y-37776074D01*
X110174925Y-37775197D01*
X110022864Y-37831144D01*
X110011451Y-37836711D01*
X109856892Y-37932542D01*
X109846826Y-37940294D01*
X109714697Y-38065242D01*
X109706395Y-38074860D01*
X109602092Y-38223821D01*
X109595892Y-38234915D01*
X109523668Y-38401814D01*
X109519829Y-38413917D01*
X109482325Y-38593434D01*
X109481085Y-38602986D01*
X109481000Y-38606218D01*
X109481000Y-39026719D01*
X85293663Y-39026719D01*
X85408030Y-38654960D01*
X85409506Y-38649212D01*
X85489743Y-38261766D01*
X85490673Y-38255895D01*
X85534145Y-37862124D01*
X85534494Y-37857196D01*
X85542750Y-37594468D01*
X85542711Y-37589530D01*
X85536653Y-37461073D01*
X147631322Y-37461073D01*
X147637537Y-37856679D01*
X147637911Y-37862629D01*
X147681327Y-38255895D01*
X147682257Y-38261766D01*
X147762494Y-38649212D01*
X147763970Y-38654960D01*
X147880316Y-39033151D01*
X147882320Y-39038716D01*
X148033745Y-39404288D01*
X148036267Y-39409647D01*
X148221411Y-39759323D01*
X148224436Y-39764440D01*
X148441669Y-40095144D01*
X148445159Y-40099947D01*
X148692292Y-40408420D01*
X148705130Y-40415694D01*
X148706439Y-40415621D01*
X148713852Y-40410938D01*
X149663200Y-39461590D01*
X149663201Y-39461588D01*
X151519980Y-37604810D01*
X151527592Y-37590869D01*
X151527461Y-37589034D01*
X151523210Y-37582420D01*
X149663213Y-35722424D01*
X149663200Y-35722410D01*
X148719402Y-34778612D01*
X148705458Y-34770998D01*
X148705205Y-34771016D01*
X148696463Y-34776930D01*
X148609436Y-34872572D01*
X148605649Y-34877150D01*
X148368088Y-35193551D01*
X148364744Y-35198471D01*
X148158001Y-35535845D01*
X148155153Y-35541025D01*
X147981072Y-35896370D01*
X147978723Y-35901797D01*
X147838858Y-36271939D01*
X147837026Y-36277578D01*
X147732622Y-36659215D01*
X147731323Y-36665028D01*
X147663295Y-37054811D01*
X147662554Y-37060674D01*
X147631507Y-37455147D01*
X147631322Y-37461073D01*
X85536653Y-37461073D01*
X85524049Y-37193802D01*
X85523490Y-37187889D01*
X85467740Y-36796162D01*
X85466631Y-36790347D01*
X85374259Y-36405590D01*
X85372607Y-36399906D01*
X85244434Y-36025544D01*
X85242260Y-36020053D01*
X85079429Y-35659422D01*
X85076739Y-35654141D01*
X84969134Y-35465491D01*
X109431000Y-35465491D01*
X109431301Y-35471639D01*
X109444812Y-35609437D01*
X109447195Y-35621472D01*
X109500767Y-35798910D01*
X109505441Y-35810250D01*
X109592460Y-35973911D01*
X109599249Y-35984128D01*
X109716397Y-36127767D01*
X109725041Y-36136471D01*
X109867856Y-36254618D01*
X109878027Y-36261478D01*
X110041076Y-36349638D01*
X110052381Y-36354390D01*
X110167692Y-36390084D01*
X110181795Y-36390290D01*
X110185000Y-36383535D01*
X110185000Y-36376758D01*
X110693000Y-36376758D01*
X110696973Y-36390289D01*
X110704768Y-36391409D01*
X110812521Y-36359696D01*
X110823889Y-36355103D01*
X110988154Y-36269227D01*
X110998415Y-36262513D01*
X111142873Y-36146366D01*
X111151632Y-36137788D01*
X111270778Y-35995795D01*
X111277708Y-35985675D01*
X111367002Y-35823249D01*
X111371834Y-35811976D01*
X111427880Y-35635296D01*
X111430430Y-35623302D01*
X111446607Y-35479073D01*
X111447000Y-35472049D01*
X111447000Y-35465491D01*
X118071000Y-35465491D01*
X118071301Y-35471639D01*
X118084812Y-35609437D01*
X118087195Y-35621472D01*
X118140767Y-35798910D01*
X118145441Y-35810250D01*
X118232460Y-35973911D01*
X118239249Y-35984128D01*
X118356397Y-36127767D01*
X118365041Y-36136471D01*
X118507856Y-36254618D01*
X118518027Y-36261478D01*
X118681076Y-36349638D01*
X118692381Y-36354390D01*
X118807692Y-36390084D01*
X118821795Y-36390290D01*
X118825000Y-36383535D01*
X118825000Y-36376758D01*
X119333000Y-36376758D01*
X119336973Y-36390289D01*
X119344768Y-36391409D01*
X119452521Y-36359696D01*
X119463889Y-36355103D01*
X119628154Y-36269227D01*
X119638415Y-36262513D01*
X119782873Y-36146366D01*
X119791632Y-36137788D01*
X119910778Y-35995795D01*
X119917708Y-35985675D01*
X120007002Y-35823249D01*
X120011834Y-35811976D01*
X120067880Y-35635296D01*
X120070430Y-35623302D01*
X120086607Y-35479073D01*
X120087000Y-35472049D01*
X120087000Y-35390949D01*
X120082525Y-35375710D01*
X120081135Y-35374505D01*
X120073452Y-35372834D01*
X119351115Y-35372834D01*
X119335876Y-35377309D01*
X119334671Y-35378699D01*
X119333000Y-35386382D01*
X119333000Y-36376758D01*
X118825000Y-36376758D01*
X118825000Y-35390949D01*
X118820525Y-35375710D01*
X118819135Y-35374505D01*
X118811452Y-35372834D01*
X118089115Y-35372834D01*
X118073876Y-35377309D01*
X118072671Y-35378699D01*
X118071000Y-35386382D01*
X118071000Y-35465491D01*
X111447000Y-35465491D01*
X111447000Y-35390949D01*
X111442525Y-35375710D01*
X111441135Y-35374505D01*
X111433452Y-35372834D01*
X110711115Y-35372834D01*
X110695876Y-35377309D01*
X110694671Y-35378699D01*
X110693000Y-35386382D01*
X110693000Y-36376758D01*
X110185000Y-36376758D01*
X110185000Y-35390949D01*
X110180525Y-35375710D01*
X110179135Y-35374505D01*
X110171452Y-35372834D01*
X109449115Y-35372834D01*
X109433876Y-35377309D01*
X109432671Y-35378699D01*
X109431000Y-35386382D01*
X109431000Y-35465491D01*
X84969134Y-35465491D01*
X84880690Y-35310432D01*
X84877523Y-35305442D01*
X84650000Y-34981709D01*
X84646365Y-34977023D01*
X84535076Y-34846719D01*
X109431000Y-34846719D01*
X109435475Y-34861958D01*
X109436865Y-34863163D01*
X109444548Y-34864834D01*
X110166885Y-34864834D01*
X110182124Y-34860359D01*
X110183329Y-34858969D01*
X110185000Y-34851286D01*
X110185000Y-34846719D01*
X110693000Y-34846719D01*
X110697475Y-34861958D01*
X110698865Y-34863163D01*
X110706548Y-34864834D01*
X111428885Y-34864834D01*
X111444124Y-34860359D01*
X111445329Y-34858969D01*
X111447000Y-34851286D01*
X111447000Y-34846719D01*
X118071000Y-34846719D01*
X118075475Y-34861958D01*
X118076865Y-34863163D01*
X118084548Y-34864834D01*
X118806885Y-34864834D01*
X118822124Y-34860359D01*
X118823329Y-34858969D01*
X118825000Y-34851286D01*
X118825000Y-34846719D01*
X119333000Y-34846719D01*
X119337475Y-34861958D01*
X119338865Y-34863163D01*
X119346548Y-34864834D01*
X120068885Y-34864834D01*
X120084124Y-34860359D01*
X120085329Y-34858969D01*
X120087000Y-34851286D01*
X120087000Y-34772177D01*
X120086699Y-34766029D01*
X120073188Y-34628231D01*
X120070805Y-34616196D01*
X120017233Y-34438758D01*
X120012559Y-34427418D01*
X120002215Y-34407964D01*
X149070939Y-34407964D01*
X149070945Y-34408217D01*
X149076445Y-34417235D01*
X150022408Y-35363198D01*
X150022412Y-35363201D01*
X151321303Y-36662093D01*
X151879190Y-37219980D01*
X151893131Y-37227592D01*
X151894966Y-37227461D01*
X151901580Y-37223210D01*
X153761576Y-35363213D01*
X153761604Y-35363186D01*
X154708061Y-34416729D01*
X154715675Y-34402785D01*
X154715582Y-34401476D01*
X154711112Y-34394640D01*
X154708737Y-34392546D01*
X154399947Y-34145159D01*
X154395144Y-34141669D01*
X154064440Y-33924436D01*
X154059323Y-33921411D01*
X153709647Y-33736267D01*
X153704288Y-33733745D01*
X153338716Y-33582320D01*
X153333151Y-33580316D01*
X152954960Y-33463970D01*
X152949212Y-33462494D01*
X152561766Y-33382257D01*
X152555895Y-33381327D01*
X152162629Y-33337911D01*
X152156679Y-33337537D01*
X151761073Y-33331322D01*
X151755147Y-33331507D01*
X151360674Y-33362554D01*
X151354811Y-33363295D01*
X150965028Y-33431323D01*
X150959215Y-33432622D01*
X150577578Y-33537026D01*
X150571939Y-33538858D01*
X150201797Y-33678723D01*
X150196370Y-33681072D01*
X149841025Y-33855153D01*
X149835845Y-33858001D01*
X149498471Y-34064744D01*
X149493551Y-34068088D01*
X149177150Y-34305649D01*
X149172572Y-34309436D01*
X149079199Y-34394398D01*
X149070939Y-34407964D01*
X120002215Y-34407964D01*
X119925540Y-34263757D01*
X119918751Y-34253540D01*
X119801603Y-34109901D01*
X119792959Y-34101197D01*
X119650144Y-33983050D01*
X119639973Y-33976190D01*
X119476924Y-33888030D01*
X119465619Y-33883278D01*
X119350308Y-33847584D01*
X119336205Y-33847378D01*
X119333000Y-33854133D01*
X119333000Y-34846719D01*
X118825000Y-34846719D01*
X118825000Y-33860910D01*
X118821027Y-33847379D01*
X118813232Y-33846259D01*
X118705479Y-33877972D01*
X118694111Y-33882565D01*
X118529846Y-33968441D01*
X118519585Y-33975155D01*
X118375127Y-34091302D01*
X118366368Y-34099880D01*
X118247222Y-34241873D01*
X118240292Y-34251993D01*
X118150998Y-34414419D01*
X118146166Y-34425692D01*
X118090120Y-34602372D01*
X118087570Y-34614366D01*
X118071393Y-34758595D01*
X118071000Y-34765619D01*
X118071000Y-34846719D01*
X111447000Y-34846719D01*
X111447000Y-34772177D01*
X111446699Y-34766029D01*
X111433188Y-34628231D01*
X111430805Y-34616196D01*
X111377233Y-34438758D01*
X111372559Y-34427418D01*
X111285540Y-34263757D01*
X111278751Y-34253540D01*
X111161603Y-34109901D01*
X111152959Y-34101197D01*
X111010144Y-33983050D01*
X110999973Y-33976190D01*
X110836924Y-33888030D01*
X110825619Y-33883278D01*
X110710308Y-33847584D01*
X110696205Y-33847378D01*
X110693000Y-33854133D01*
X110693000Y-34846719D01*
X110185000Y-34846719D01*
X110185000Y-33860910D01*
X110181027Y-33847379D01*
X110173232Y-33846259D01*
X110065479Y-33877972D01*
X110054111Y-33882565D01*
X109889846Y-33968441D01*
X109879585Y-33975155D01*
X109735127Y-34091302D01*
X109726368Y-34099880D01*
X109607222Y-34241873D01*
X109600292Y-34251993D01*
X109510998Y-34414419D01*
X109506166Y-34425692D01*
X109450120Y-34602372D01*
X109447570Y-34614366D01*
X109431393Y-34758595D01*
X109431000Y-34765619D01*
X109431000Y-34846719D01*
X84535076Y-34846719D01*
X84477476Y-34779278D01*
X84464562Y-34770848D01*
X84454355Y-34776855D01*
X83508800Y-35722410D01*
X83508799Y-35722412D01*
X81652020Y-37579190D01*
X81644408Y-37593131D01*
X80914357Y-37593131D01*
X80915592Y-37590869D01*
X80915461Y-37589034D01*
X80911210Y-37582420D01*
X79051213Y-35722424D01*
X79051200Y-35722410D01*
X78107402Y-34778612D01*
X78093458Y-34770998D01*
X78093205Y-34771016D01*
X78084463Y-34776930D01*
X77997436Y-34872572D01*
X77993649Y-34877150D01*
X77756088Y-35193551D01*
X77752744Y-35198471D01*
X77546001Y-35535845D01*
X77543153Y-35541025D01*
X77455652Y-35719637D01*
X77407720Y-35772012D01*
X77339082Y-35790159D01*
X77271529Y-35768316D01*
X77226509Y-35713419D01*
X77216500Y-35664205D01*
X77216500Y-34407964D01*
X78458939Y-34407964D01*
X78458945Y-34408217D01*
X78464445Y-34417235D01*
X79410408Y-35363198D01*
X79410412Y-35363201D01*
X80709303Y-36662093D01*
X81267190Y-37219980D01*
X81281131Y-37227592D01*
X81282966Y-37227461D01*
X81289580Y-37223210D01*
X83149576Y-35363213D01*
X83149604Y-35363186D01*
X84096061Y-34416729D01*
X84103675Y-34402785D01*
X84103582Y-34401476D01*
X84099112Y-34394640D01*
X84096737Y-34392546D01*
X83787947Y-34145159D01*
X83783144Y-34141669D01*
X83452440Y-33924436D01*
X83447323Y-33921411D01*
X83097647Y-33736267D01*
X83092288Y-33733745D01*
X82726716Y-33582320D01*
X82721151Y-33580316D01*
X82342960Y-33463970D01*
X82337212Y-33462494D01*
X81949766Y-33382257D01*
X81943895Y-33381327D01*
X81550629Y-33337911D01*
X81544679Y-33337537D01*
X81149073Y-33331322D01*
X81143147Y-33331507D01*
X80748674Y-33362554D01*
X80742811Y-33363295D01*
X80353028Y-33431323D01*
X80347215Y-33432622D01*
X79965578Y-33537026D01*
X79959939Y-33538858D01*
X79589797Y-33678723D01*
X79584370Y-33681072D01*
X79229025Y-33855153D01*
X79223845Y-33858001D01*
X78886471Y-34064744D01*
X78881551Y-34068088D01*
X78565150Y-34305649D01*
X78560572Y-34309436D01*
X78467199Y-34394398D01*
X78458939Y-34407964D01*
X77216500Y-34407964D01*
X77216500Y-32892500D01*
X77236502Y-32824379D01*
X77290158Y-32777886D01*
X77342500Y-32766500D01*
X156083500Y-32766500D01*
X156151621Y-32786502D01*
G37*
%TD.AperFunction*%
%TD*%
M02*
